<svg xmlns="http://www.w3.org/2000/svg" class="cel-icon cel-icon-stroke-width" viewBox="0 0 24 24"><g fill="none" fill-rule="evenodd"><path d="M0 0h24v24H0z"/><g fill-rule="nonzero"><path d="M16.041 15.25l.949 3.271 2.486 2.678c.337-.194.623-.475.824-.824l2.31-4c.201-.348.301-.736.301-1.125l-3.547-.688-3.323.688z" fill="#EA4335"/><path d="M15.435 2.301A2.251 2.251 0 0014.31 2H9.691c-.4 0-.79.11-1.125.301l.995 3.351 2.43 2.58.009.018 2.447-2.611.988-3.338z" fill="#188038"/><path d="M7.959 15.25l-3.541-.813-3.328.813c0 .387.1.775.3 1.124l2.31 4.001c.201.348.488.629.824.824l2.449-2.523.986-3.426z" fill="#1967D2"/><path d="M19.434 8.625l-3.175-5.5a2.244 2.244 0 00-.824-.824L12 8.25l4.041 7h6.869c0-.389-.1-.776-.301-1.125l-3.175-5.5z" fill="#FBBC04"/><path d="M16.041 15.25H7.96l-3.435 5.949c.336.193.722.301 1.125.301H18.35c.402 0 .789-.108 1.125-.301l-3.434-5.949z" fill="#4285F4"/><path d="M12 8.25L8.566 2.301a2.244 2.244 0 00-.822.821L1.39 14.13c-.2.347-.3.735-.3 1.121h6.869l4.041-7z" fill="#34A853"/></g></g></svg>