<svg xmlns="http://www.w3.org/2000/svg" viewBox="0 0 584 511"><path d="M252.9 5l-19.6 81C216.1 77 191 72.3 171 72.3c-52.1 0-89.4 36.8-89.4 100.5V379h-82V4.3h81.2v42.2c24.7-35.6 63.1-52 109-52 25.1 0 44.3 3.1 63.1 10.5" mask="url(#mask-2_1_)" fill-rule="evenodd" clip-rule="evenodd" fill="#0072ee" transform="translate(331.137 126.217)"/><g><path d="M253.4 11.4l-19.6 81c-17.3-9-42.4-13.7-62.4-13.7-53.3 0-89.4 38.4-89.4 100.6v206.3H0v-375h81.2v42.3c25.1-35.6 63.2-52 109.1-52 25.1-.1 44.3 3 63.1 10.5" mask="url(#mask-4_1_)" fill-rule="evenodd" clip-rule="evenodd" fill="#3d4149" transform="translate(0 119.84)"/></g><g fill-rule="evenodd" clip-rule="evenodd"><path d="M73.6 37.6c0 20.2-16.5 36.7-36.8 36.7S0 57.9 0 37.6 16.5 1 36.8 1s36.8 16.4 36.8 36.6" fill="#9eca47"/><path d="M169.6 37.6c0 20.2-16.5 36.7-36.8 36.7S95.9 57.9 95.9 37.6 112.4 1 132.7 1s36.9 16.4 36.9 36.6" fill="#d73a59"/><path d="M265.5 37.6c0 20.2-16.5 36.7-36.8 36.7s-36.8-16.4-36.8-36.7S208.3 1 228.7 1s36.8 16.4 36.8 36.6" fill="#0072ee"/></g></svg>