<svg xmlns="http://www.w3.org/2000/svg" viewBox="0 0 227.26 59.6"><defs/><circle cx="132.99" cy="9.08" r="6.5" fill="#9eca47"/><circle cx="152.48" cy="9.08" r="6.5" fill="#d73a59"/><circle cx="171.96" cy="9.08" r="6.5" fill="#0072ee"/><path class="cls-4" d="M23.22 5.33l4.48 11.68h3.89l-6.18-15.3h-4.38l-6.19 15.3h9.76l-1.21-3.18h-3.44l3.27-8.5zM73.35 5.33l-4.49 11.68h-3.88l6.18-15.3h4.38l6.18 15.3h-9.76l1.22-3.18h3.43l-3.26-8.5zM31.05 1.71l6.18 15.3h4.38l6.18-15.3h-3.88l-4.49 11.68-4.48-11.68h-3.89zM48.77 1.71l6.19 15.3h4.37l6.19-15.3h-3.89l-4.49 11.68-4.48-11.68h-3.89z"/><path class="cls-4" d="M29 27.4l-.8-.12c-1.87-.28-3.2-.56-3.2-1.51s1.09-1.48 2.7-1.48a8.86 8.86 0 014.51 1.3l1.25-3.08A12 12 0 0027.55 21c-3.72 0-6.39 2-6.39 5 0 2.62 2 4.06 5 4.47l.83.12c2 .29 3.21.61 3.21 1.51s-1.17 1.51-2.7 1.51a8.77 8.77 0 01-5.12-1.62l-1.28 3.26a12 12 0 006.35 1.66c3.4 0 6.64-1.55 6.64-5.13-.01-2.49-2.09-3.87-5.09-4.38zM113 27.4l-.8-.12c-1.87-.29-3.21-.56-3.21-1.51s1.09-1.48 2.7-1.48a8.86 8.86 0 014.51 1.3l1.25-3.08a12 12 0 00-5.9-1.47c-3.72 0-6.39 2-6.39 5 0 2.62 2 4.06 5 4.47l.83.12c2 .29 3.21.61 3.21 1.51s-1.17 1.51-2.7 1.51a8.77 8.77 0 01-5.12-1.62l-1.29 3.19a12 12 0 006.35 1.66c3.4 0 6.64-1.55 6.64-5.13 0-2.46-2.08-3.84-5.08-4.35zM44.87 43.72l-1.81 7.48a13.5 13.5 0 00-5.75-1.27c-4.92 0-8.24 3.54-8.24 9.29v19h-7.56V43.65H29v3.9c2.31-3.29 5.82-4.81 10-4.81a15.08 15.08 0 015.87.98zM81.38 63.75H55.82c1 6.18 5.39 8.82 10.27 8.82a16.51 16.51 0 0010-3.65l3.76 5.39c-4.23 3.62-9 4.88-14.24 4.88C55.24 79.19 47.9 72 47.9 61S55 42.75 65.15 42.75c9.69 0 16.38 7.38 16.38 18.19 0 .97-.07 1.94-.15 2.81zM73.79 58c-.83-5.39-4-8.53-8.79-8.53-5.35 0-8.35 3.47-9.18 8.53zM119.34 57.64v20.64h-7.59v-4.16c-1.84 2.68-5.53 5.06-11.14 5.06-7.85 0-12.22-4.7-12.22-11 0-6.76 5.1-10.81 14-10.81h9.33c-.36-5-3.18-7.81-8.86-7.81a16.18 16.18 0 00-9.54 3.47l-3.11-6a22.35 22.35 0 0113.63-4.37c10.01.08 15.5 5.76 15.5 14.98zm-7.59 7v-1.47h-8.57c-5.13 0-6.65 2.24-6.65 4.7s1.7 4.37 5.53 4.37c4.2.01 9.69-2.24 9.69-7.62zM130.84 19.59h7.59v58.69h-7.59zM157.88 78.28h-7.59V43.65h7.59zM168 72.79l19.2-22.27h-18.66v-6.87h28.38v5.5L178 71.42h19.27v6.87H168v-5.5zM237.64 63.75h-25.56c1 6.18 5.39 8.82 10.27 8.82a16.51 16.51 0 0010-3.65l3.76 5.39c-4.23 3.62-9 4.88-14.24 4.88-10.37 0-17.71-7.19-17.71-18.19s7.05-18.22 17.25-18.22c9.69 0 16.38 7.38 16.38 18.19-.01.94-.08 1.91-.15 2.78zM230.05 58c-.83-5.39-4-8.53-8.79-8.53-5.35 0-8.35 3.47-9.18 8.53zM247.91 73.4a3.06 3.06 0 00-1.27-1.25 3.33 3.33 0 00-1.64-.45 3.39 3.39 0 00-1.67.44 3.12 3.12 0 00-1.33 1.25 3.4 3.4 0 00-.46 1.7 3.44 3.44 0 00.45 1.68 3.06 3.06 0 001.3 1.23 3.36 3.36 0 003.36 0 3.06 3.06 0 001.26-1.26 3.38 3.38 0 000-3.37zm-.22 1.69a2.71 2.71 0 01-.36 1.33 2.67 2.67 0 01-1 1 2.74 2.74 0 01-2.69 0 2.47 2.47 0 01-1-1 2.6 2.6 0 01-.36-1.33 2.68 2.68 0 01.36-1.35 2.56 2.56 0 011-1 2.81 2.81 0 011.33-.35 3 3 0 011.35.35 2.47 2.47 0 011 1 2.73 2.73 0 01.37 1.35z" transform="translate(-21.1 -19.59)"/><path class="cls-4" d="M245.61 75.46a.49.49 0 00-.13-.1 1.2 1.2 0 00.57-.32 1 1 0 00.3-.73 1 1 0 00-.18-.56 1 1 0 00-.48-.37 3 3 0 00-.94-.1h-1.3V77h.72v-1.52h.27a.72.72 0 01.42.11 2.87 2.87 0 01.58.81l.34.59h.87l-.5-.81a4.41 4.41 0 00-.54-.72zm-1.45-1.56h.59a1.43 1.43 0 01.55.06.54.54 0 01.21.16.41.41 0 01.08.24.39.39 0 01-.16.34c-.07.07-.24.14-.63.14h-.64z" transform="translate(-21.1 -19.59)"/></svg>