<svg xmlns="http://www.w3.org/2000/svg" viewBox="0 0 97 16"><g fill="#3D4149" fill-rule="nonzero"><path d="M23.23 3.881l4.49 11.68h3.89L25.42.251h-4.38l-6.18 15.31h9.76l-1.22-3.18h-3.43zM73.36 3.881l-4.48 11.68h-3.89L71.17.251h4.38l6.19 15.31h-9.76l1.22-3.18h3.43zM31.06.251l6.19 15.31h4.37L47.81.251h-3.89l-4.48 11.69L34.95.251zM48.79.251l6.18 15.31h4.38L65.53.251h-3.88l-4.49 11.69L52.67.251zM7.91 6.351l-.8-.12c-1.87-.29-3.21-.56-3.21-1.51s1.1-1.48 2.7-1.48a9 9 0 014.51 1.31l1.24-3.08a11.93 11.93 0 00-5.9-1.47c-3.72 0-6.39 2-6.39 5 0 2.62 2 4.05 5 4.47l.82.12c2.05.29 3.21.6 3.21 1.5s-1.16 1.51-2.7 1.51a8.77 8.77 0 01-5.11-1.62L0 14.181a11.91 11.91 0 006.35 1.67c3.41 0 6.64-1.55 6.64-5.13.01-2.47-2.06-3.86-5.08-4.37zM91.92 6.351l-.8-.12c-1.88-.29-3.21-.56-3.21-1.51s1.09-1.48 2.7-1.48a9 9 0 014.51 1.31l1.24-3.08a11.93 11.93 0 00-5.9-1.47c-3.72 0-6.39 2-6.39 5 0 2.62 2 4.05 5 4.47l.83.12c2 .29 3.21.6 3.21 1.5s-1.17 1.51-2.7 1.51a8.8 8.8 0 01-5.12-1.62l-1.29 3.2a11.91 11.91 0 006.35 1.67c3.41 0 6.64-1.55 6.64-5.13.01-2.47-2.06-3.86-5.07-4.37z"/></g></svg>