<svg xmlns="http://www.w3.org/2000/svg" viewBox="0 0 74 27"><path d="M13.524 2.03l2.285 6.051h1.984L14.64.155h-2.234L9.25 8.081h4.978l-.617-1.647h-1.755l1.668-4.403zm25.564 0l-2.29 6.051h-1.979L37.971.156h2.234l3.151 7.925H38.38L39 6.434h1.75l-1.663-4.403zM17.516.157l3.151 7.925h2.234L26.053.156h-1.979l-2.29 6.05L19.5.156h-1.984zm9.037 0L29.71 8.08h2.228L35.095.156h-1.984l-2.29 6.05-2.284-6.05h-1.984zM5.709 3.316L5.3 3.252c-.954-.145-1.632-.29-1.632-.782 0-.492.556-.767 1.377-.767.812.01 1.606.243 2.3.674L7.983.782A6.045 6.045 0 004.97 0C3.072 0 1.71 1.036 1.71 2.59c0 1.357 1.02 2.103 2.55 2.316l.424.062c1.02.15 1.637.316 1.637.782s-.597.782-1.377.782a4.425 4.425 0 01-2.611-.839L1.68 7.382c.98.587 2.101.884 3.238.86 1.734 0 3.387-.803 3.387-2.658-.006-1.29-1.066-2.004-2.596-2.269zm42.839-.001l-.408-.062c-.954-.15-1.637-.29-1.637-.782 0-.492.556-.767 1.377-.767.812.01 1.607.243 2.3.674l.638-1.596a6.045 6.045 0 00-3.01-.762c-1.897 0-3.258 1.037-3.258 2.59 0 1.358 1.02 2.104 2.55 2.316l.423.062c1.02.15 1.637.316 1.637.782 0 .467-.597.783-1.377.783a4.426 4.426 0 01-2.611-.84l-.658 1.653c.98.587 2.101.884 3.238.86 1.734 0 3.387-.803 3.387-2.658 0-1.274-1.061-1.989-2.591-2.253z" fill="#3D4149"/><path d="M56.273 8.228a2.27 2.27 0 100-4.54 2.27 2.27 0 000 4.54z" fill="#9ECA47"/><path d="M63.177 8.228a2.27 2.27 0 100-4.54 2.27 2.27 0 000 4.54z" fill="#D73A59"/><path d="M70.08 8.228a2.27 2.27 0 100-4.54 2.27 2.27 0 000 4.54z" fill="#0072EE"/><path d="M11.28 18.686v7.478H8.514v-1.507c-.67.97-2.016 1.833-4.06 1.833C1.593 26.49 0 24.787 0 22.505c0-2.45 1.859-3.917 5.102-3.917h3.4c-.13-1.811-1.158-2.83-3.228-2.83a5.918 5.918 0 00-3.477 1.258L.663 14.842a8.178 8.178 0 014.968-1.583c3.648.029 5.65 2.086 5.65 5.427zm-2.766 2.536v-.533H5.39c-1.87 0-2.423.812-2.423 1.703 0 .892.62 1.584 2.015 1.584 1.53.003 3.532-.812 3.532-2.761v.007zM24.815 15.236V9.353h2.896v16.81h-2.896V24.67a4.99 4.99 0 01-1.841 1.376 5.317 5.317 0 01-2.308.44c-3.702 0-6.621-2.732-6.621-6.537 0-3.806 2.919-6.537 6.621-6.537a5.315 5.315 0 012.309.443c.72.317 1.351.79 1.84 1.38zm-7.813 4.714c0 2.162 1.537 3.986 3.995 3.986s4.002-1.716 4.002-3.986c0-2.27-1.605-3.986-4.002-3.986s-3.995 1.81-3.995 3.986zM31.668 26.165V13.53h3.062v2.146h.16a3.398 3.398 0 011.406-1.694c.655-.411 1.436-.617 2.345-.617.92 0 1.696.208 2.327.625a3.3 3.3 0 011.345 1.686h.141c.301-.702.808-1.26 1.522-1.678.72-.422 1.572-.633 2.557-.633 1.25 0 2.271.367 3.062 1.102.79.735 1.185 1.807 1.185 3.216v8.48h-3.212v-8.02c0-.783-.224-1.356-.672-1.718-.448-.368-.997-.551-1.646-.551-.773 0-1.377.225-1.814.674-.43.444-.646 1.023-.646 1.736v7.88h-3.14v-8.143c0-.653-.213-1.174-.638-1.563-.419-.39-.967-.584-1.645-.584-.46 0-.88.11-1.257.329a2.37 2.37 0 00-.902.913c-.224.39-.337.844-.337 1.365v7.683h-3.203zM64.914 18.762v7.403h-3.182V13.53h3.042v2.146h.158c.31-.707.805-1.27 1.485-1.686.686-.417 1.532-.625 2.54-.625.932 0 1.744.187 2.435.56a3.883 3.883 0 011.617 1.62c.387.707.578 1.565.572 2.574v8.045h-3.182V18.58c0-.845-.234-1.505-.703-1.982-.463-.477-1.105-.716-1.925-.716-.557 0-1.052.115-1.486.345a2.476 2.476 0 00-1.01.98c-.24.427-.36.945-.36 1.554zM57.775 13.583h-3.037v12.582h3.037V13.583z" fill="#3D4149"/></svg>