<svg xmlns="http://www.w3.org/2000/svg" viewBox="0 0 72 12"><path d="M4.784.04a8.807 8.807 0 014.383 1.102l-.92 2.282a6.565 6.565 0 00-3.343-.921c-1.201 0-2.002.4-2.002 1.1 0 .701.981.901 2.382 1.122h.58c2.243.38 3.784 1.42 3.784 3.262 0 2.642-2.402 3.803-4.924 3.803A8.887 8.887 0 010 10.55l.96-2.323a6.545 6.545 0 003.804 1.201c1.12 0 2.001-.58 2.001-1.24 0-.661-.88-.901-2.381-1.121h-.621C1.521 6.747.04 5.745.04 3.744.04 1.422 2.022 0 4.784.04zM67.114 0a8.807 8.807 0 014.384 1.102l-.84 2.322a6.565 6.565 0 00-3.364-.921c-1.18 0-2.001.4-2.001 1.1 0 .701 1 .901 2.402 1.122h.58c2.242.38 3.783 1.42 3.723 3.182 0 2.642-2.402 3.803-4.924 3.803a8.887 8.887 0 01-4.724-1.24l.941-2.363a6.645 6.645 0 003.803 1.201c1.121 0 2.002-.46 2.002-1.12 0-.661-.88-.901-2.402-1.121h-.6c-2.242-.32-3.723-1.322-3.723-3.323C62.37 1.462 64.352 0 67.114 0zM18.875.202l4.604 11.37h-2.882l-3.343-8.668-2.422 6.305h2.542l.92 2.362H11.03L15.633.201h3.242zm37.25 0l4.584 11.37h-7.246l.921-2.363h2.542l-2.422-6.305-3.343 8.667H48.28L52.863.201h3.262zm-30.164 0l3.323 8.687L32.626.201h2.883l-4.584 11.37h-3.263L23.08.2h2.882zm13.17 0l3.323 8.687L45.797.201h2.882l-4.603 11.37h-3.243L36.25.2h2.883z" fill="#FFF" fill-rule="evenodd"/></svg>