<svg xmlns="http://www.w3.org/2000/svg" viewBox="0 0 190 23"><path fill-rule="evenodd" clip-rule="evenodd" d="M185.669 8.636a2.207 2.207 0 00-.178.876c0 .31.061.6.178.87.117.27.28.504.484.707.203.199.442.357.717.474.275.117.565.173.875.173.311 0 .601-.056.876-.173a2.14 2.14 0 00.717-.474A2.207 2.207 0 00190 9.512a2.229 2.229 0 00-.662-1.588 2.32 2.32 0 00-.717-.479 2.208 2.208 0 00-.876-.178c-.31 0-.6.061-.875.178a2.233 2.233 0 00-1.201 1.191zm.331 1.609a1.861 1.861 0 01-.148-.733c0-.26.046-.51.148-.743a1.896 1.896 0 011.756-1.16c.264 0 .509.045.743.147.234.102.432.234.605.407a1.911 1.911 0 01.555 1.349 1.931 1.931 0 01-1.16 1.756 1.918 1.918 0 01-.743.147c-.265 0-.514-.05-.743-.148a1.855 1.855 0 01-.606-.412 1.98 1.98 0 01-.407-.61zm.87-2.006h.891c.117 0 .234.016.346.041a.761.761 0 01.514.356.709.709 0 01.081.346.625.625 0 01-.158.448.796.796 0 01-.427.234l.682 1.11h-.555l-.595-1.059h-.326v1.059h-.453V8.239zm1.196 1.028a.94.94 0 01-.377.077h-.366V8.62h.417c.117 0 .234.026.341.071.107.046.163.138.163.275 0 .153-.061.25-.178.3z" fill="#0099DA"/><path d="M11.1 10.916c-.876-.544-2.677-1.241-4.474-1.241-1.725 0-2.738.697-2.738 1.725 0 1.012 1.059 1.303 2.387 1.496l1.496.229c3.16.453 5.033 1.802 5.033 4.28 0 2.784-2.417 4.733-6.59 4.733-1.496 0-4.097-.285-6.214-1.858l1.466-2.371c1.043.799 2.417 1.48 4.778 1.48 2.163 0 3.298-.681 3.298-1.77 0-.814-.784-1.359-2.509-1.603l-1.511-.199C2.316 15.38.606 13.9.606 11.567c0-2.87 2.3-4.64 5.985-4.64 2.27 0 4.371.56 5.867 1.526L11.1 10.916zM28.286 15.634c0 4.61-3.329 6.514-6.713 6.514-3.4 0-6.713-1.903-6.713-6.514V7.288h3.176v8.056c0 2.799 1.557 3.827 3.537 3.827s3.537-1.028 3.537-3.827V7.288h3.176v8.346zM43.569 9.227l-2.026 2.163c-1.013-.952-2.087-1.497-3.476-1.497-2.432 0-4.28 1.904-4.28 4.642 0 2.738 1.843 4.641 4.28 4.641 1.39 0 2.631-.651 3.552-1.511l1.95 2.178c-1.313 1.527-3.252 2.315-5.415 2.315-4.611 0-7.619-3.282-7.619-7.618s3.008-7.619 7.619-7.619c2.163-.01 4.132.779 5.415 2.306zM57.279 9.227l-2.026 2.163c-1.012-.952-2.086-1.497-3.475-1.497-2.433 0-4.28 1.904-4.28 4.642 0 2.738 1.842 4.641 4.28 4.641 1.389 0 2.63-.651 3.552-1.511l1.949 2.178c-1.313 1.527-3.252 2.315-5.415 2.315-4.61 0-7.618-3.282-7.618-7.618s3.007-7.619 7.618-7.619c2.168-.01 4.132.779 5.415 2.306z" fill="#9DB5C1"/><path fill-rule="evenodd" clip-rule="evenodd" d="M71.956 15.695c.03-.366.061-.773.061-1.18-.015-4.52-2.794-7.604-6.85-7.599-4.265 0-7.211 3.084-7.211 7.619 0 4.595 3.069 7.618 7.41 7.618 2.193 0 4.188-.529 5.96-2.04l-1.573-2.255c-1.197.952-2.739 1.527-4.189 1.527-2.056 0-3.888-1.09-4.31-3.69h10.702zm-3.17-2.402h-7.517c.336-2.117 1.588-3.567 3.842-3.567 2.01 0 3.328 1.313 3.675 3.567z" fill="#9DB5C1"/><path d="M84.277 10.916c-.875-.544-2.677-1.241-4.473-1.241-1.726 0-2.738.697-2.738 1.725 0 1.012 1.058 1.303 2.386 1.496l1.497.229c3.16.453 5.033 1.802 5.033 4.28 0 2.784-2.417 4.733-6.59 4.733-1.497 0-4.097-.285-6.215-1.858l1.466-2.371c1.043.799 2.418 1.48 4.779 1.48 2.163 0 3.298-.681 3.298-1.77 0-.814-.784-1.359-2.51-1.603l-1.51-.199c-3.207-.438-4.917-1.918-4.917-4.25 0-2.87 2.3-4.64 5.985-4.64 2.27 0 4.372.56 5.868 1.526l-1.359 2.463zM98.048 10.916c-.875-.544-2.677-1.241-4.473-1.241-1.725 0-2.738.697-2.738 1.725 0 1.012 1.059 1.303 2.387 1.496l1.496.229c3.16.453 5.033 1.802 5.033 4.28 0 2.784-2.417 4.733-6.59 4.733-1.496 0-4.097-.285-6.214-1.858l1.466-2.371c1.043.799 2.417 1.48 4.778 1.48 2.163 0 3.298-.681 3.298-1.77 0-.814-.784-1.359-2.509-1.603l-1.511-.199c-3.207-.438-4.916-1.918-4.916-4.25 0-2.87 2.3-4.64 5.984-4.64 2.27 0 4.372.56 5.868 1.526l-1.359 2.463z" fill="#9DB5C1"/><path d="M125.734 12.672v9.1h-3.176v-8.057c0-2.432-1.257-3.796-3.369-3.796-2.041 0-3.751 1.343-3.751 3.827v8.03h-3.175v-8.06c0-2.433-1.257-3.797-3.375-3.797-2.04 0-3.75 1.343-3.75 3.827v8.03h-3.176V7.289h3.145v1.77c1.166-1.71 2.962-2.147 4.443-2.147 2.209 0 4.005.982 5.003 2.585 1.257-2.07 3.491-2.585 5.292-2.585 3.451 0 5.889 2.377 5.889 5.761zM147.317 12.794h1.588l4.779-5.501h3.974l-6.061 6.82 6.122 7.664h-4.005l-4.825-6.107h-1.572v6.107h-3.176V0h3.176v12.794z" fill="#0099DA"/><path fill-rule="evenodd" clip-rule="evenodd" d="M171.384 15.695c.03-.366.061-.773.061-1.18-.015-4.52-2.799-7.604-6.85-7.599-4.265 0-7.212 3.084-7.212 7.619 0 4.595 3.069 7.618 7.41 7.618 2.194 0 4.189-.529 5.96-2.04l-1.573-2.255c-1.196.952-2.738 1.527-4.188 1.527-2.056 0-3.888-1.09-4.311-3.69h10.703zm-3.171-2.402h-7.517c.331-2.117 1.588-3.567 3.843-3.567 2.01 0 3.328 1.313 3.674 3.567z" fill="#0099DA"/><path d="M183.613 7.318l-.758 3.13c-.667-.346-1.634-.53-2.402-.53-2.011 0-3.446 1.42-3.446 3.884v7.97h-3.16V7.288h3.13V8.92c.951-1.374 2.432-2.01 4.203-2.01.967 0 1.705.122 2.433.407z" fill="#0099DA"/><path fill-rule="evenodd" clip-rule="evenodd" d="M141.429 21.756v-9.028c0-4.03-2.402-6.509-6.784-6.514-2.005 0-4.046.509-5.96 1.913l1.359 2.611c1.074-.789 2.499-1.516 4.173-1.516 2.484 0 3.715 1.216 3.873 3.414h-4.076c-3.888 0-6.117 1.772-6.117 4.728 0 2.733 1.913 4.79 5.343 4.79 2.453 0 4.066-1.044 4.871-2.215v1.817h3.318zm-3.324-6.606v.632c0 2.371-2.402 3.333-4.239 3.338-1.674 0-2.417-.81-2.417-1.914 0-1.073.666-2.056 2.911-2.056h3.745z" fill="#0099DA"/></svg>