<svg xmlns="http://www.w3.org/2000/svg" class="cel-icon cel-icon-stroke-width" viewBox="0 0 46 46"><path d="M24.13 26.954l.324.275c-1.872 2.272-2.47 2.746-3.469 2.746-.698 0-.998-.3-.998-1.024 0-.623.05-.823.574-2.87C18.689 28.9 17.242 30 15.495 30 14.098 30 13 29.002 13 27.104c0-3.87 3.818-8.387 7.137-8.387 1.073 0 1.796.524 1.996 1.447l.275-1.198.074-.075 1.523-.174.174.074c-.05.225-.075.275-.15.525-1.172 4.268-2.22 8.562-2.22 9.061 0 .175.15.325.349.325.225 0 .549-.2 1.298-1.024l.673-.724zm-2.446-6.24c0-.874-.524-1.448-1.398-1.448-1.122 0-2.22.774-3.268 2.296-1.049 1.573-1.922 3.795-1.922 5.367 0 1.373.599 1.848 1.497 1.848 1.248 0 2.42-1.373 3.17-2.447 1.172-1.697 1.92-3.844 1.92-5.616zM34 15.57a3.537 3.537 0 01-3.568 3.57c-2.022 0-3.569-1.573-3.569-3.595 0-1.997 1.572-3.545 3.619-3.545C32.428 12 34 13.598 34 15.57zm-.973-.025c0-1.473-1.198-2.696-2.645-2.696-1.373 0-2.546 1.248-2.546 2.72 0 1.499 1.173 2.722 2.596 2.722 1.422 0 2.595-1.248 2.595-2.746z" fill="#333"/></svg>