<svg xmlns="http://www.w3.org/2000/svg" class="cel-icon cel-icon-stroke-width" viewBox="0 0 46 46"><path d="M9.302 27.182l.324.262c-.822 1.236-1.769 1.806-3.014 1.806-1.445 0-2.192-1.022-2.192-3.019v-7.154H3.1c-.075-.048-.1-.095-.1-.167 0-.142.15-.285.423-.451.648-.357 1.47-1.236 2.417-2.543.149-.214.348-.428.498-.666.124 0 .174.071.174.309v2.757h2.516v.76H6.512v6.799c0 1.521.374 2.139 1.295 2.139.548 0 .947-.214 1.495-.832zM20.861 27.444v.665c-.747.903-1.395 1.141-2.241 1.141-.922 0-1.47-.475-1.595-1.735h-.024c-1.32 1.426-2.541 1.735-3.612 1.735-1.544 0-2.615-.903-2.615-2.472 0-1.236.772-2.163 1.743-2.781.747-.475 1.669-.927 4.483-1.925v-1.284c0-1.474-.821-2.139-1.942-2.139-.997 0-1.744.523-1.744 1.165 0 .427.15.499.15.998 0 .452-.499.974-1.146.974a1.102 1.102 0 01-1.071-1.093c0-.618.398-1.379 1.27-1.901.697-.428 1.744-.714 2.865-.714 1.394 0 2.34.38 2.939 1.07.598.69.697 1.189.697 2.639v4.54c0 1.093.324 1.568.772 1.568.399 0 .648-.119 1.071-.451zm-3.86-1.45v-3.352c-1.545.523-2.566 1.022-3.189 1.569-.598.523-.847 1.093-.847 1.83 0 1.26.748 1.83 1.72 1.83.497 0 1.02-.118 1.444-.38.722-.475.871-.808.871-1.497zM33 29.012h-5.18l.024-.356c1.245-.095 1.544-.57 1.544-2.14v-4.73c0-1.687-.598-2.4-1.818-2.4-.822 0-1.42.285-2.566 1.355v6.56c0 .927.35 1.26 1.62 1.355v.356h-5.256v-.356c1.27-.095 1.544-.476 1.544-1.878v-5.776c0-1.165-.174-1.545-.872-1.545-.274 0-.548.024-.722.095v-.404a47.28 47.28 0 003.412-1.07l.2.072v1.854h.025c1.295-1.403 2.44-1.926 3.586-1.926 1.893 0 2.94 1.308 2.94 3.661v5.253c0 1.284.298 1.545 1.519 1.664v.356zM36.818 16.624H32v-1.046h4.818v1.046z" fill="#333"/><path d="M41.494 22.37H36.7v-.572c1.08-.071 1.33-.237 1.33-.784v-6.041c0-.547-.075-.714-.226-.714-.175 0-.401.048-1.053.333v-.57l2.96-1.309.351.096v8.062c0 .618.352.927 1.43.927v.571z" fill="#333"/></svg>