<svg xmlns="http://www.w3.org/2000/svg" class="cel-icon cel-icon-stroke-width" viewBox="0 0 46 46"><path d="M15.972 17.624h-4.817v-1.046h4.817v1.046z" fill="#333"/><path d="M4.405 19.398h2.86C7.692 15.117 8.896 13 11.255 13c1.18 0 2.283.69 2.283 1.617 0 .595-.426 1.07-1.054 1.07-.502 0-1.028-.261-1.028-.784 0-.571.226-.619.226-.928 0-.166-.226-.285-.527-.285-.427 0-.778.142-1.004.428-.678.88-.803 3.734-.803 5.28h2.986v.737H9.323c-.025 3.71-.728 9.774-1.28 11.13-.677 1.593-1.555 2.307-2.885 2.307-1.18 0-2.158-.69-2.158-1.641 0-.642.376-1.07 1.054-1.07.552 0 .978.333.978.856 0 .214-.025.404-.15.642-.1.166-.126.262-.126.333.025.19.226.31.527.31 1.154 0 1.732-1.357 1.732-4.139 0-1.023-.05-2.901-.05-3.544 0-1.57.075-3.091.2-5.184h-2.76v-.738zM20.648 23.37h-4.792v-.572c1.079-.07 1.33-.237 1.33-.784v-6.041c0-.547-.076-.714-.226-.714-.176 0-.402.048-1.054.333v-.57l2.96-1.309.352.096v8.062c0 .618.351.927 1.43.927v.571zM28.576 33.62l-.301.38a11.593 11.593 0 01-6.122-10.203c0-4.4 2.182-7.824 6.197-10.084l.226.381c-3.488 2.83-4.266 5.042-4.266 9.632 0 4.424.753 7.11 4.266 9.894z" fill="#333"/><path d="M38.322 29.79H33.28v-.356c.828-.048 1.003-.143 1.003-.571a.689.689 0 00-.15-.428l-2.283-3.33-1.983 2.926c-.35.523-.501.808-.501.975 0 .309.276.428 1.003.428v.357H26.73v-.357c.828-.072 1.13-.238 1.832-1.213l2.86-3.924-2.358-3.425c-.778-1.118-1.18-1.427-1.932-1.427h-.226v-.357H32.1v.357c-.753.024-1.08.167-1.08.523 0 .31.427 1.094 1.155 2.117.125.166.25.31.351.476.251-.31.502-.69.753-1.047.552-.832.928-1.26.928-1.546 0-.333-.25-.475-1.003-.523v-.357h3.964v.357a2.623 2.623 0 00-2.032 1.046l-2.083 2.854 3.212 4.662c.702 1.022 1.28 1.427 2.057 1.427v.357z" fill="#333"/><path d="M36.577 14.094l.3-.38C40.718 15.902 43 19.873 43 23.916c0 4.4-2.208 7.777-6.197 10.084l-.226-.38c3.563-2.783 4.265-5.019 4.265-9.632 0-4.448-.627-7.183-4.265-9.894z" fill="#333"/></svg>