<svg xmlns="http://www.w3.org/2000/svg" class="cel-icon cel-icon-stroke-width" viewBox="0 0 46 46"><path d="M28.644 26.836l.356.22c-1.651 2.409-2.312 2.895-3.506 2.895-.762 0-1.22-.413-1.22-1.168 0-.535.331-2.166 1.144-4.794C22.42 28.71 21.15 30 19.346 30 18.457 30 18 29.61 18 28.71c0-.462.229-1.338.686-3.115l.89-3.383c.202-.803.355-1.436.355-1.63a.532.532 0 00-.28-.438c-.228-.122-.305-.146-1.27-.146v-.34c1.448-.171 2.363-.342 3.81-.658l.102.073-2.26 8.64a1.775 1.775 0 00-.077.389c0 .365.127.608.508.608.864 0 2.033-1.29 3.608-3.577 1.194-1.728 1.55-2.653 2.794-5.914h1.88l-2.007 7.277c-.127.462-.483 1.606-.483 1.898 0 .268.102.414.28.414.406 0 .813-.341 2.108-1.972z" fill="#333"/></svg>