<svg xmlns="http://www.w3.org/2000/svg" class="cel-icon cel-icon-stroke-width" viewBox="0 0 46 46"><path d="M23.25 19.57h-.737c0-.819.047-1.535.546-2.788.286-.716.713-1.662.713-2.455 0-.844-.404-1.33-1.117-1.33-.618 0-1.117.588-1.117.844 0 .307.452.307.452.87 0 .486-.31.844-.808.844-.57 0-.927-.486-.927-1.177 0-1.304 1.117-2.378 2.59-2.378 1.474 0 2.853.895 2.853 2.455 0 .92-.333 1.483-1.569 2.89-.475.537-.666 1.1-.88 2.224zm.713 1.79c0 .613-.428 1.099-.999 1.099-.641 0-1.022-.486-1.022-1.1 0-.613.452-1.074 1.022-1.074.5 0 .999.486.999 1.074zM30 25.885H16v-1.688h14v1.688zM30 31H16v-1.688h14V31z" fill="#333"/></svg>