<svg xmlns="http://www.w3.org/2000/svg" class="cel-icon cel-icon-stroke-width" viewBox="0 0 46 46"><path d="M32 18.526c0 3.843-2.341 7.5-5.507 9.606C24.763 29.289 22.768 30 20.8 30c-3.459 0-5.8-2.237-5.8-6.158 0-3.21 1.942-6.894 4.709-9.29C21.545 12.975 23.753 12 26.014 12 29.845 11.974 32 14.527 32 18.526zm-2.793-1.657c0-2.474-1.304-4-3.432-4-1.97 0-3.645 1.342-4.949 3.079-1.942 2.605-3.033 6.105-3.033 8.736 0 2.869 1.224 4.448 3.459 4.448 1.782 0 3.299-1.027 4.523-2.5 2.234-2.737 3.432-7.08 3.432-9.763z" fill="#333"/></svg>