<svg xmlns="http://www.w3.org/2000/svg" class="cel-icon cel-icon-stroke-width" viewBox="0 0 56 56"><path d="M51.333 0H4.667A4.667 4.667 0 000 4.667v46.666A4.667 4.667 0 004.667 56h46.666A4.667 4.667 0 0056 51.333V4.667A4.667 4.667 0 0051.333 0z" fill="#00A2AD"/><path fill-rule="evenodd" clip-rule="evenodd" d="M38.862 24.122a.367.367 0 00-.487.344v3.096a.73.73 0 01-1.459 0v-3.645a2.362 2.362 0 00-2.18-1.459h-.373a.365.365 0 00-.365.365v3.281a.73.73 0 01-1.458 0v-3.646A2.363 2.363 0 0030.36 21h-.374a.365.365 0 00-.364.365v4.74a.73.73 0 01-1.459 0V15.166a2.916 2.916 0 10-5.833 0v16.155a.365.365 0 01-.66.212l-.002-.002-2.44-3.424a2.893 2.893 0 00-4.707 3.363l-.006-.009 8.678 12.25c.267.376.7.618 1.19.62h12.71a1.46 1.46 0 001.4-1.047l.003-.01 2.212-7.718c.367-1.26.58-2.707.583-4.203V27.558a3.646 3.646 0 00-2.404-3.428l-.025-.01v.002z" fill="#fff"/></svg>