<svg xmlns="http://www.w3.org/2000/svg" class="cel-icon cel-icon-stroke-width" viewBox="0 0 48 48"><path d="M44 0H4a4 4 0 00-4 4v40a4 4 0 004 4h40a4 4 0 004-4V4a4 4 0 00-4-4z" fill="#2150A3"/><path fill-rule="evenodd" clip-rule="evenodd" d="M34.821 16.1a.501.501 0 01-.337-.473V15.5a2 2 0 00-2-2h-5.468a4.202 4.202 0 00-2.7.82l.012-.008a.497.497 0 01-.624-.001l.001.001a4.193 4.193 0 00-2.697-.81h.01-5.5a2 2 0 00-2 2v.131a.5.5 0 01-.333.472l-.003.001a1.746 1.746 0 00-1.179 1.646v13a1.752 1.752 0 001.75 1.75h6.25c1.624 0 3 .433 3 1a1 1 0 002 0c0-.565 1.386-1 3.031-1h6.219a1.752 1.752 0 001.75-1.75v-13-.001c0-.761-.487-1.408-1.167-1.646l-.012-.004-.003-.001zM23 17.676v11.518a.501.501 0 01-.639.482l.004.001a4.843 4.843 0 00-1.311-.176h-.041.002-5.016a.5.5 0 01-.5-.5v-13a.5.5 0 01.5-.5h5.016c1.993 0 1.984 1.179 1.984 2.176l.001-.001zm4.016-2.176h4.968a.5.5 0 01.5.5v13a.5.5 0 01-.5.5h-5.007c-.477 0-.939.066-1.376.19l.036-.009a.5.5 0 01-.636-.481V17.676c0-1.043.108-2.176 2.015-2.176z" fill="#fff"/></svg>