<svg xmlns="http://www.w3.org/2000/svg" class="cel-icon cel-icon-stroke-width" viewBox="0 0 56 56"><path d="M51.333 0H4.667A4.667 4.667 0 000 4.667v46.666A4.667 4.667 0 004.667 56h46.666A4.667 4.667 0 0056 51.333V4.667A4.667 4.667 0 0051.333 0z" fill="#699F00"/><path fill-rule="evenodd" clip-rule="evenodd" d="M36.75 18.234h-17.5c-2.9 0-5.25 2.384-5.25 5.327v11.743a2.455 2.455 0 00.717 1.746c.461.462 1.084.72 1.733.717h.034c2.274-.03 2.622-.71 4.89-5.162l.844-1.65a2.931 2.931 0 012.527-1.473h6.509c1.025 0 1.975.544 2.502 1.437.375.727.7 1.374.995 1.95 2.108 4.147 2.488 4.9 4.751 4.9a2.468 2.468 0 001.768-.74c.466-.467.73-1.105.73-1.77V23.563c0-2.942-2.35-5.327-5.25-5.327v-.002zm-14.292 7.102h-.875a.588.588 0 00-.583.592v.888c0 .49-.392.888-.875.888a.882.882 0 01-.875-.888v-.888a.588.588 0 00-.583-.591h-.875a.882.882 0 01-.875-.888c0-.49.392-.888.875-.888h.875a.588.588 0 00.583-.592v-.888c0-.49.392-.887.875-.887s.875.398.875.887v.888c0 .327.261.592.583.592h.875c.483 0 .875.398.875.888s-.392.887-.875.887zm10.209 0c-.644 0-1.167-.53-1.167-1.184 0-.654.523-1.184 1.167-1.184s1.166.53 1.166 1.184c0 .655-.522 1.184-1.166 1.184zm2.916 2.368c-.644 0-1.166-.53-1.166-1.184 0-.655.522-1.185 1.166-1.185.644 0 1.167.53 1.167 1.184 0 .655-.523 1.185-1.167 1.185zm0-4.735c-.644 0-1.166-.53-1.166-1.184 0-.654.522-1.184 1.166-1.184.644 0 1.167.53 1.167 1.184 0 .655-.523 1.184-1.167 1.184zm2.917 2.367c-.644 0-1.167-.53-1.167-1.184 0-.654.523-1.184 1.167-1.184s1.167.53 1.167 1.184c0 .655-.523 1.184-1.167 1.184z" fill="#fff"/></svg>