<svg xmlns="http://www.w3.org/2000/svg" class="cel-icon cel-icon-stroke-width" viewBox="0 0 48 48"><path d="M44 0H4a4 4 0 00-4 4v40a4 4 0 004 4h40a4 4 0 004-4V4a4 4 0 00-4-4z" fill="#005D18"/><path fill-rule="evenodd" clip-rule="evenodd" d="M25.07 31a.252.252 0 01.176.428l-.4.4a1.934 1.934 0 00-.5.82.5.5 0 01-.478.352H16a2 2 0 01-2-2V15.5a2 2 0 012-2h14a2 2 0 012 2v8.76a1 1 0 01-.293.706l-1.28 1.28A.25.25 0 0130 26.07V16a.5.5 0 00-.5-.5h-13a.5.5 0 00-.5.5v14.5a.5.5 0 00.5.5h8.57zm-4.32-12.5h6a.75.75 0 110 1.5h-6a.75.75 0 010-1.5zm6 3.5a.75.75 0 110 1.5h-8a.75.75 0 010-1.5h8zm-8 3.5a.75.75 0 000 1.5h5.5a.75.75 0 000-1.5h-5.5zm7.312 8.132a.251.251 0 00-.422.128l-.628 3.14a.5.5 0 00.59.59l3.143-.628a.25.25 0 00.127-.422l-2.81-2.808zm7.466-8.367a2.62 2.62 0 013.708 3.707l-6.5 6.5a.5.5 0 01-.708 0l-3-3a.5.5 0 010-.707l6.5-6.5z" fill="#fff"/></svg>