<svg xmlns="http://www.w3.org/2000/svg" viewBox="0 0 50 40"><mask id="a" style="mask-type:luminance" maskUnits="userSpaceOnUse" x="0" y="0" width="50" height="40"><path d="M50 0H0v40h50V0z" fill="#fff"/></mask><g mask="url(#a)"><mask id="b" style="mask-type:luminance" maskUnits="userSpaceOnUse" x="5" y="0" width="40" height="40"><path d="M45 0v40H9.167a4.256 4.256 0 01-2.947-1.172A3.92 3.92 0 015 36V4a3.92 3.92 0 011.22-2.828A4.256 4.256 0 019.167 0H45z" fill="#fff"/></mask><g mask="url(#b)"><path d="M9.167 40a6.384 6.384 0 01-4.42-1.757A5.88 5.88 0 012.917 34V6a5.88 5.88 0 011.83-4.243A6.385 6.385 0 019.167 0C8.016 0 7.083 1.79 7.083 4v32c0 2.21.933 4 2.084 4z" fill="#005D18"/></g><mask id="c" style="mask-type:luminance" maskUnits="userSpaceOnUse" x="0" y="0" width="40" height="40"><path d="M40 0v40H4.167a4.256 4.256 0 01-2.947-1.172A3.92 3.92 0 010 36V4a3.92 3.92 0 011.22-2.828A4.256 4.256 0 014.167 0H40z" fill="#fff"/></mask><g mask="url(#c)"><path d="M4.167 40a6.384 6.384 0 01-4.42-1.757A5.88 5.88 0 01-2.083 34V6a5.88 5.88 0 011.83-4.243A6.385 6.385 0 014.167 0C3.016 0 2.083 1.79 2.083 4v32c0 2.21.933 4 2.084 4z" fill="#005D18"/></g><path d="M45.833 0H14.167C11.866 0 10 1.79 10 4v32c0 2.21 1.866 4 4.167 4h31.666C48.135 40 50 38.21 50 36V4c0-2.21-1.865-4-4.167-4z" fill="#005D18"/><path fill-rule="evenodd" clip-rule="evenodd" d="M31.24 25.6c.08 0 .16.05.19.13s.01.17-.05.23l-.33.33c-.19.19-.34.42-.42.68a.42.42 0 01-.4.29h-6.56c-.92 0-1.67-.75-1.67-1.67V12.67c0-.92.75-1.67 1.67-1.67h11.67c.92 0 1.67.75 1.67 1.67v7.3c0 .22-.09.43-.24.59l-1.07 1.07c-.06.06-.15.08-.23.05a.205.205 0 01-.13-.19V13.1c0-.23-.19-.42-.42-.42H24.1c-.23 0-.42.19-.42.42v12.08c0 .23.19.42.42.42h7.14zm-3.6-10.41h5c.35 0 .63.28.63.63s-.28.62-.63.62h-5c-.35 0-.62-.28-.62-.62-.01-.35.27-.63.62-.63zm5 2.91a.625.625 0 110 1.25h-6.67c-.35 0-.62-.28-.62-.63s.28-.62.62-.62h6.67zm-6.67 2.92c-.35 0-.62.28-.62.62 0 .35.28.63.62.63h4.58c.35 0 .62-.28.62-.63s-.28-.62-.62-.62h-4.58zm6.1 6.78a.22.22 0 00-.21-.05c-.07.02-.13.08-.14.16l-.52 2.62c-.03.12.01.25.09.35.08.1.2.15.32.15.03 0 .06 0 .08-.01l2.62-.52c.08-.02.14-.07.16-.14.02-.07 0-.15-.05-.21l-2.35-2.35zm6.22-6.98a2.179 2.179 0 013.72 1.54c0 .58-.23 1.14-.64 1.55l-5.42 5.42c-.16.16-.43.16-.59 0l-2.5-2.5a.423.423 0 010-.59l5.43-5.42z" fill="#fff"/></g></svg>