<svg xmlns="http://www.w3.org/2000/svg" class="cel-icon cel-icon-stroke-width" viewBox="0 0 32 32"><path d="M29.333 0H2.667A2.667 2.667 0 000 2.667v26.666A2.667 2.667 0 002.667 32h26.666A2.667 2.667 0 0032 29.333V2.667A2.667 2.667 0 0029.333 0z" fill="#850C09"/><path fill-rule="evenodd" clip-rule="evenodd" d="M14.667 9.667a2 2 0 012 2v.451c0 .055.027.107.073.139a.165.165 0 00.156.016 4.601 4.601 0 011.77-.273c2.243 0 4 2.196 4 5 0 2.637-2.025 7-4.333 7-1.2 0-1.554-.228-1.862-.503a.537.537 0 00-.471-.164.537.537 0 00-.471.164c-.308.275-.662.503-1.862.503-2.308 0-4.334-4.363-4.334-7 0-2.804 1.758-5 4-5a4.601 4.601 0 011.771.273.167.167 0 00.23-.155v-.451a.667.667 0 00-.667-.667h-1.334a.667.667 0 010-1.333h1.334zm1.647 5.083h-.461a.462.462 0 00-.462.461v1.731a.115.115 0 01-.115.115h-1.73a.462.462 0 00-.462.462v.461c0 .255.207.461.461.461h1.731c.064 0 .115.052.115.116v1.73c0 .255.207.462.462.462h.461a.461.461 0 00.461-.462v-1.73c0-.064.052-.116.116-.116h1.73a.461.461 0 00.462-.461v-.461a.462.462 0 00-.462-.462h-1.73a.115.115 0 01-.116-.115v-1.73a.461.461 0 00-.461-.462zm3.553-6.743a.678.678 0 01.768.766A3.342 3.342 0 0117.8 11.61l-.08.008a.678.678 0 01-.69-.773 3.344 3.344 0 012.837-2.837z" fill="#fff"/></svg>