<svg xmlns="http://www.w3.org/2000/svg" class="cel-icon cel-icon-stroke-width" viewBox="0 0 56 56"><path d="M51.333 0H4.667A4.667 4.667 0 000 4.667v46.666A4.667 4.667 0 004.667 56h46.666A4.667 4.667 0 0056 51.333V4.667A4.667 4.667 0 0051.333 0z" fill="#850C09"/><path fill-rule="evenodd" clip-rule="evenodd" d="M25.667 16.917a3.5 3.5 0 013.5 3.5v.79c0 .096.047.187.128.242.08.055.183.066.273.028A8.052 8.052 0 0132.667 21c3.924 0 7 3.843 7 8.75 0 4.615-3.545 12.25-7.584 12.25-2.1 0-2.72-.399-3.258-.88a.94.94 0 00-.825-.287.94.94 0 00-.825.287c-.539.481-1.158.88-3.258.88-4.04 0-7.584-7.635-7.584-12.25 0-4.907 3.076-8.75 7-8.75a8.052 8.052 0 013.099.477.293.293 0 00.401-.27v-.79c0-.644-.522-1.167-1.166-1.167h-2.334a1.167 1.167 0 010-2.333h2.334zm2.882 8.895h-.807a.808.808 0 00-.807.808v3.028c0 .113-.09.202-.202.202h-3.029a.808.808 0 00-.807.808v.807c0 .446.362.807.807.807h3.029c.112 0 .202.09.202.202v3.029c0 .446.362.807.807.807h.807a.808.808 0 00.808-.807v-3.029c0-.112.09-.202.202-.202h3.028a.808.808 0 00.808-.807v-.807a.808.808 0 00-.808-.808H29.56a.201.201 0 01-.202-.202V26.62a.808.808 0 00-.808-.808zm6.218-11.8a1.187 1.187 0 011.344 1.341 5.85 5.85 0 01-4.961 4.963l-.139.013a1.184 1.184 0 01-1.207-1.352 5.852 5.852 0 014.963-4.965z" fill="#fff"/></svg>