<svg xmlns="http://www.w3.org/2000/svg" viewBox="0 0 148 40"><g fill="none" fill-rule="evenodd"><path d="M0 4a4 4 0 013.997-4h140.006A4.002 4.002 0 01148 4v32a4 4 0 01-3.997 4H3.997A4.002 4.002 0 010 36V4z" fill="#006BE0"/><text font-family="Poppins-Medium, Poppins" font-size="16" font-weight="400" fill="#FFF"><tspan x="74.114" y="21.333">.</tspan></text><g fill="#FFF" fill-rule="nonzero"><g transform="translate(48 8)"><path d="M84.825 19.944h-.78v2.041h-.374v-2.04h-.779v-.375h1.947zM87.809 21.985h-.374V20l-.704 1.75h-.409l-.704-1.73v1.965h-.374v-2.412h.6l.7 1.723.7-1.723h.595z"/><circle cx="49.804" cy="3.4" r="2.434"/><circle cx="57.103" cy="3.4" r="2.434"/><circle cx="64.401" cy="3.4" r="2.434"/><path d="M8.699 1.996L10.38 6.37h1.457L9.519.637h-1.64L5.565 6.37h3.654l-.456-1.191H7.478zM27.471 1.996L25.793 6.37h-1.456L26.65.637h1.64L30.61 6.37h-3.655l.457-1.191h1.284zM11.631.637l2.318 5.733h1.636L17.903.637h-1.456l-1.678 4.377L13.088.637zM18.27.637l2.315 5.733h1.64L24.539.637h-1.453l-1.681 4.377L19.723.637zM2.962 2.92l-.3-.044c-.7-.109-1.202-.21-1.202-.566 0-.355.412-.554 1.011-.554a3.37 3.37 0 011.69.49l.464-1.153a4.467 4.467 0 00-2.21-.55C1.022.543.022 1.292.022 2.415c0 .981.75 1.517 1.873 1.674l.307.045c.768.109 1.202.225 1.202.562 0 .337-.434.565-1.011.565a3.284 3.284 0 01-1.914-.606L0 5.853a4.46 4.46 0 002.378.625c1.277 0 2.486-.58 2.486-1.92.004-.926-.771-1.446-1.902-1.637zM34.421 2.92l-.3-.044c-.703-.109-1.202-.21-1.202-.566 0-.355.409-.554 1.012-.554a3.37 3.37 0 011.688.49l.465-1.153a4.467 4.467 0 00-2.21-.55c-1.393 0-2.392.749-2.392 1.872 0 .981.748 1.517 1.872 1.674l.31.045c.75.109 1.203.225 1.203.562 0 .337-.438.565-1.011.565a3.295 3.295 0 01-1.918-.606l-.483 1.198a4.46 4.46 0 002.378.625c1.277 0 2.487-.58 2.487-1.92.003-.926-.772-1.446-1.899-1.637zM8.905 9.036l-.667 2.8a5.067 5.067 0 00-2.153-.475c-1.842 0-3.09 1.33-3.09 3.483v7.115H.162V9.006h2.801v1.48c.869-1.233 2.18-1.802 3.763-1.802a5.617 5.617 0 012.18.352zM22.58 16.533H13.01c.363 2.318 2.015 3.314 3.842 3.314a6.216 6.216 0 003.745-1.367l1.408 2.015c-1.584 1.355-3.37 1.827-5.333 1.827-3.887 0-6.635-2.707-6.635-6.823 0-4.115 2.621-6.823 6.46-6.823 3.624 0 6.13 2.76 6.13 6.808.007.36-.02.727-.046 1.049zm-2.842-2.15c-.314-2.018-1.498-3.198-3.291-3.198-2.004 0-3.127 1.3-3.438 3.198h6.73zM36.795 14.23v7.748h-2.842V20.42c-.693 1.003-2.07 1.895-4.172 1.895-2.935 0-4.576-1.76-4.576-4.12 0-2.531 1.91-4.048 5.243-4.048h3.494c-.135-1.872-1.191-2.924-3.318-2.924a6.07 6.07 0 00-3.572 1.3l-1.165-2.248a8.392 8.392 0 015.104-1.636c3.745.03 5.804 2.157 5.804 5.59zm-2.842 2.621v-.532h-3.21c-1.92 0-2.49.84-2.49 1.76 0 .922.637 1.637 2.071 1.637 1.57 0 3.629-.824 3.629-2.865zM41.102 0h2.842v21.978h-2.842zM51.227 21.978h-2.842V9.006h2.842zM55.006 19.918l7.2-8.34H55.22V9.007H65.85v2.06l-7.081 8.339h7.216v2.573h-10.98zM81.091 16.533h-9.568c.375 2.318 2.019 3.306 3.846 3.306a6.224 6.224 0 003.745-1.366l1.397 2.014c-1.584 1.356-3.37 1.828-5.337 1.828-3.883 0-6.631-2.708-6.631-6.823 0-4.116 2.62-6.823 6.455-6.823 3.63 0 6.134 2.76 6.134 6.808a7.98 7.98 0 01-.04 1.056zm-2.827-2.15c-.311-2.018-1.498-3.198-3.288-3.198-2.003 0-3.127 1.3-3.441 3.198h6.729z"/></g></g><g fill="#FFF"><path d="M33.084 26.834a4.11 4.11 0 01-4.109 4.109H17.113a4.11 4.11 0 01-4.109-4.109V14.968a4.11 4.11 0 014.109-4.109h6.036c.251 0 .457.205.457.457v1.397a.458.458 0 01-.457.457h-5.406a2.428 2.428 0 00-2.429 2.429v10.606a2.428 2.428 0 002.429 2.429h10.606a2.428 2.428 0 002.429-2.429v-5.716c0-.251.205-.457.457-.457h1.397c.251 0 .457.205.457.457v6.346l-.005-.001zm1.912-9.584a.921.921 0 01-.913.913c-.242 0-.47-.1-.644-.269l-2.511-2.511-9.296 9.296a.49.49 0 01-.329.142.509.509 0 01-.329-.142l-1.625-1.625a.49.49 0 01-.142-.329c0-.114.059-.242.142-.329l9.3-9.3-2.511-2.511a.908.908 0 01-.269-.644c0-.498.415-.913.913-.913h7.301c.498 0 .913.415.913.913v7.31-.001z"/></g></g></svg>