<svg xmlns="http://www.w3.org/2000/svg" viewBox="0 0 140 90"><g clip-path="url(#clip0_30156_6011)"><path d="M35.398 47.22c-1.574 0-3.074-.877-3.67-2.333-1.168-2.87-3.678-5.137-7.804-5.137-6.072 0-9.328 4.392-9.328 14.32v9.489c0 9.488 3.165 14.32 9.328 14.32 4.15 0 6.503-1.688 7.73-4.84.596-1.539 1.98-2.63 3.628-2.63h5.898c2.775 0 4.697 2.713 3.86 5.352-3.106 9.844-10.106 14.237-21.124 14.237C10.115 90.006 0 81.66 0 63.567v-9.49C0 35.805 10.115 27.63 23.933 27.63c10.263 0 17.785 4.65 21.041 14.171.903 2.648-1.044 5.419-3.844 5.419h-5.732zM94.305 32.56v4.021a4.052 4.052 0 01-4.059 4.054h-7.72a4.052 4.052 0 00-4.06 4.053v40.388a4.052 4.052 0 01-4.059 4.053h-6.486a4.052 4.052 0 01-4.06-4.053V44.688a4.052 4.052 0 00-4.059-4.053h-7.72a4.052 4.052 0 01-4.06-4.054v-4.02a4.052 4.052 0 014.06-4.054h38.156a4.06 4.06 0 014.067 4.054zM113.458 67.877v5.071a4.052 4.052 0 004.059 4.054h17.239a4.052 4.052 0 014.059 4.053v4.02a4.052 4.052 0 01-4.059 4.054H104.52a4.053 4.053 0 01-4.06-4.053V32.56a4.053 4.053 0 014.06-4.054h30.236a4.052 4.052 0 014.059 4.054v4.02a4.052 4.052 0 01-4.059 4.054h-17.239a4.052 4.052 0 00-4.059 4.053v2.962" fill="#A40080"/><path d="M36.425 5.56l6.27 16.346h5.402L39.457.472h-6.139l-8.632 21.434h13.628l-1.69-4.41h-4.789l4.59-11.937zM106.458 5.56l-6.271 16.346h-5.401L103.426.48h6.072l8.64 21.426h-13.627l1.69-4.41h4.788L106.458 5.56zM47.352.472l8.64 21.426h6.138L70.77.472h-5.467l-6.271 16.346L52.752.473h-5.4zM15.309 9.017l-1.143-.207C11.53 8.405 9.709 8 9.709 6.71c.066-1.358 1.549-2.102 3.777-2.102 2.295 0 4.457.744 6.271 1.828l1.757-4.343C18.813.67 16.32.058 13.279.058 8.085.066 4.308 2.846 4.308 7.123c0 3.665 2.767 5.7 7.016 6.304l1.143.207c2.834.405 4.457.885 4.457 2.1 0 1.424-1.615 2.102-3.777 2.102a12.09 12.09 0 01-7.15-2.308l-1.756 4.475c2.361 1.564 5.667 2.309 8.906 2.309 4.722 0 9.245-2.168 9.245-7.19 0-3.457-2.908-5.426-7.083-6.105zM132.097 9.017l-1.143-.207c-2.634-.405-4.457-.81-4.457-2.1.066-1.358 1.549-2.102 3.778-2.102 2.294 0 4.456.744 6.271 1.828l1.756-4.343C135.601.678 133.108 0 130.076 0c-5.194 0-8.906 2.78-8.906 7.057 0 3.665 2.767 5.7 7.017 6.303l1.143.207c2.833.406 4.457.886 4.457 2.101 0 1.424-1.615 2.102-3.778 2.102a12.09 12.09 0 01-7.149-2.308l-1.822 4.475c2.361 1.564 5.666 2.308 8.905 2.308 4.722 0 9.245-2.167 9.245-7.189-.008-3.391-2.908-5.36-7.091-6.039zM72.112.472l8.64 21.426h6.14L95.531.472h-5.468l-6.271 16.346L77.513.473h-5.4z" fill="#808688"/><path d="M137.581 58.48l-16.46-10.978a.986.986 0 00-1.533.819v21.964a.986.986 0 001.533.82l16.46-10.979a.989.989 0 000-1.646z" fill="#00BACD"/></g><defs><clipPath id="clip0_30156_6011"><path fill="#fff" d="M0 0h140v90H0z"/></clipPath></defs></svg>