<svg xmlns="http://www.w3.org/2000/svg" class="cel-icon cel-icon-stroke-width" viewBox="0 0 24 24"><path d="M10.972 10.132c-.443 0-.802.365-.802.814s.359.815.802.815c.442 0 .801-.365.801-.815s-.359-.814-.801-.814zm1.369 2.545c0 .683.544 1.237 1.216 1.237s1.216-.554 1.216-1.237c0-.682-.544-1.236-1.216-1.236s-1.216.554-1.216 1.236zm7.914 6.547c-.092-.189-.609-1.43-.609-1.43l-4.005-8.812c-.627-1.138-.513-2.13-.513-2.13V1.123.548v-.549H8.873v6.853s.047 1.117-.513 2.13l-4.005 8.812s-.517 1.242-.609 1.43c-.65 1.335-.662 2.813-.218 3.614.381.689 1.108.881 1.582 1.162h13.783c.474-.281 1.201-.474 1.582-1.162.444-.801.432-2.279-.218-3.614zm-8.268-4.515c-1.579-.764-3.53-.375-4.359-.224l2.873-5.883s.247-.618.294-1.699V1.687h2.411v5.216c.047 1.081.294 1.699.294 1.699l2.873 5.883c-1.476 1.827-4.385.224-4.385.224z"/></svg>