<svg xmlns="http://www.w3.org/2000/svg" viewBox="0 0 132 90"><defs><filter x="-4.3%" y="-7.5%" width="108.6%" height="115%" filterUnits="objectBoundingBox" id="b"><feGaussianBlur stdDeviation="2" in="SourceAlpha" result="shadowBlurInner1"/><feOffset dy="2" in="shadowBlurInner1" result="shadowOffsetInner1"/><feComposite in="shadowOffsetInner1" in2="SourceAlpha" operator="arithmetic" k2="-1" k3="1" result="shadowInnerInner1"/><feColorMatrix values="0 0 0 0 0 0 0 0 0 0 0 0 0 0 0 0 0 0 0.5 0" in="shadowInnerInner1"/></filter><path d="M93.172 49.041c3.234.003 6.02 2.301 6.962 5.228C101.54 58.925 98.377 64 93.455 64H69.467L88.95 50.392c1.418-.94 2.861-1.35 4.222-1.351zm-61.826 4.95c1.828-4.8 6.89-6.492 11.392-3.6L62.225 64H38.591c-4.926 0-8.794-4.513-7.245-10.008zm7.804-18.688c4.08-3.45 9.847-2.263 11.955 3.176l10.062 23.052-20.751-14.237c-5.202-3.46-4.152-9.379-1.266-11.99zm48.09-1.883c2.184 0 4.244.974 5.366 2.236 2.677 2.68 3.448 8.103-1.334 11.495L70.527 61.463l9.776-22.775c1.6-3.9 4.36-5.269 6.938-5.268zm-30.227-9.324c3.871-.428 8.725 2.533 7.879 8.947l-3.657 25.815-10.406-24.543c-2.254-6.134 2.81-10.15 6.184-10.22zM73.9 24c.19 0 .375.01.559.024 3.936.14 8.374 4.729 6.26 10.223L70.383 58.854l-3.308-22.21c-.28-3.378 1.828-3.457 2.603-4.09-.143-.495-1.194-.495-1.194-.495h-1.968C66.318 26.568 70.366 24 73.9 24z" id="a"/></defs><g fill="none" fill-rule="evenodd"><path fill="#F9F9F9" d="M0 0h132v90H0z"/><g fill-rule="nonzero"><use fill="#767676" href="#a"/><use fill="currentColor" filter="url(#b)" href="#a"/></g></g></svg>