<svg xmlns="http://www.w3.org/2000/svg" class="cel-icon cel-icon-stroke-width" viewBox="0 0 24 24"><path d="M21 1.5a3 3 0 013 3v15a3 3 0 01-3 3H3a3 3 0 01-3-3v-15a3 3 0 013-3zm.5 7h-19A.5.5 0 002 9v10.5a1 1 0 001 1h18a1 1 0 001-1V9a.5.5 0 00-.5-.5zM4 4a1 1 0 100 2 1 1 0 000-2zm3 0a1 1 0 100 2 1 1 0 000-2zm3 0a1 1 0 100 2 1 1 0 000-2z"/><path d="M7.391 15.3h12.118c.658 0 .691-.336.691-.75s-.033-.75-.691-.75H7.391c-.658 0-.691.336-.691.75s.033.75.691.75zM7.391 12.3h12.118c.658 0 .691-.336.691-.75s-.033-.75-.691-.75H7.391c-.658 0-.691.336-.691.75s.033.75.691.75zM3.4 11.5a1 1 0 112 0 1 1 0 01-2 0zM3.4 14.5a1 1 0 112 0 1 1 0 01-2 0zM3.4 17.5a1 1 0 112 0 1 1 0 01-2 0zM7.391 18.3h12.118c.658 0 .691-.336.691-.75s-.033-.75-.691-.75H7.391c-.658 0-.691.336-.691.75s.033.75.691.75z"/></svg>