<svg xmlns="http://www.w3.org/2000/svg" class="cel-icon cel-icon-stroke-width" viewBox="0 0 24 24"><path d="M23.582 4.986a.502.502 0 00-.831-.2l-3.557 3.555a.498.498 0 01-.402.144h.002L16.2 8.249a.501.501 0 01-.453-.45v-.002L15.513 5.2a.497.497 0 01.145-.4l3.558-3.558a.499.499 0 00-.196-.829l-.004-.001a7.017 7.017 0 00-2.024-.291c-2 0-3.809.817-5.111 2.136l-.001.001a6.966 6.966 0 00-2.066 4.96c0 .914.176 1.787.495 2.587l-.017-.047a.49.49 0 01-.1.533l-9.28 9.273a2.576 2.576 0 00-.594 2.864l-.006-.017a2.519 2.519 0 002.292 1.48c.686 0 1.308-.275 1.762-.721l9.335-9.336a.493.493 0 01.535-.099l-.003-.001a6.848 6.848 0 002.559.487 6.955 6.955 0 004.941-2.052 7.2 7.2 0 002.146-5.137c0-.729-.108-1.433-.309-2.097l.013.051z"/></svg>