<svg xmlns="http://www.w3.org/2000/svg" class="cel-icon cel-icon-stroke-width" viewBox="0 0 24 24"><path d="M17.787 3.791a12.442 12.442 0 00-7.197-2.27c-2.107 0-4.093.52-5.837 1.438l.069-.033a.252.252 0 01-.292-.045L1.938.29a.505.505 0 00-.549-.108l.003-.001a.502.502 0 00-.308.462v6.7a.5.5 0 00.5.5H8.285a.5.5 0 00.353-.854L6.783 5.136a.253.253 0 01-.068-.23v.002a.25.25 0 01.15-.18l.002-.001a9.82 9.82 0 013.718-.717c2.153 0 4.147.68 5.779 1.838l-.031-.021c2.485 1.792 4.083 4.679 4.083 7.939a9.748 9.748 0 01-3.962 7.852l-.027.019a1.25 1.25 0 00.788 2.221c.255 0 .492-.076.69-.208l-.005.003c3.053-2.229 5.014-5.795 5.014-9.819l-.001-.149v.008a12.11 12.11 0 00-5.09-9.875l-.037-.025z"/></svg>