<svg xmlns="http://www.w3.org/2000/svg" class="cel-icon cel-icon-stroke-width" viewBox="0 0 24 24"><path d="M21.818 2.726A2.736 2.736 0 0019.09 0H4.909a2.736 2.736 0 00-2.728 2.726v18.548A2.736 2.736 0 004.909 24H19.09c1.5 0 2.728-1.228 2.728-2.726V2.726zM12 22.909c-.597 0-1.091-.495-1.091-1.091s.494-1.091 1.091-1.091c.596 0 1.091.494 1.091 1.091s-.494 1.091-1.091 1.091zm7.637-3.818a.561.561 0 01-.546.544H4.91a.561.561 0 01-.546-.544V2.726c0-.289.257-.545.546-.545h14.181c.29 0 .546.256.546.545v16.365zm-8.212-9.358c-.248 0-.449.204-.449.456s.201.456.449.456c.247 0 .448-.204.448-.456s-.201-.456-.448-.456zm.766 1.425c0 .382.305.692.68.692s.68-.31.68-.692c0-.382-.305-.692-.68-.692s-.68.31-.68.692zm4.428 3.663c-.052-.106-.341-.8-.341-.8L14.037 9.09c-.351-.637-.287-1.192-.287-1.192V4.693v-.321-.307h-3.5v3.833s.026.625-.287 1.192l-2.241 4.931s-.289.695-.341.8c-.364.747-.37 1.574-.122 2.022.213.385.62.493.885.65h7.712c.265-.157.672-.265.885-.65.248-.448.241-1.275-.122-2.022zm-4.626-2.526c-.884-.427-1.975-.21-2.439-.125l1.608-3.292s.138-.346.164-.951V5.008h1.349v2.919c.026.605.164.951.164.951l1.608 3.292c-.826 1.022-2.454.125-2.454.125z"/></svg>