<svg xmlns="http://www.w3.org/2000/svg" class="cel-icon cel-icon-stroke-width" viewBox="0 0 48 48"><path d="M44 0H4a4 4 0 00-4 4v40a4 4 0 004 4h40a4 4 0 004-4V4a4 4 0 00-4-4z" fill="#D9222B"/><path fill-rule="evenodd" clip-rule="evenodd" d="M36.125 10.623c.298 0 .572.105.784.277l.002.001.002.002a1.249 1.249 0 01.185 1.756l-12.5 15.5-.002.002a1.263 1.263 0 01-1.856.097l-5-5a1.25 1.25 0 011.768-1.768l4.017 4.017L35.151 11.09l.002-.002c.229-.284.579-.465.972-.465zm-4.501 12.251a1 1 0 012 0v9.5a2 2 0 01-2 2h-16a2 2 0 01-2-2v-16a2 2 0 012-2h11.5a1 1 0 010 2h-11.25a.25.25 0 00-.25.25v15.5c0 .138.112.25.25.25h15.5a.25.25 0 00.25-.25v-9.25z" fill="#fff"/></svg>