<svg xmlns="http://www.w3.org/2000/svg" class="cel-icon cel-icon-stroke-width" viewBox="0 0 56 56"><path d="M51.333 0H4.667A4.667 4.667 0 000 4.667v46.666A4.667 4.667 0 004.667 56h46.666A4.667 4.667 0 0056 51.333V4.667A4.667 4.667 0 0051.333 0z" fill="#D9222B"/><path fill-rule="evenodd" clip-rule="evenodd" d="M42.146 12.393c.347 0 .667.123.914.324h.003l.002.003a1.457 1.457 0 01.216 2.049L28.698 32.852l-.003.003a1.474 1.474 0 01-2.165.113l-5.833-5.834a1.459 1.459 0 012.063-2.063l4.686 4.687 13.564-16.82.002-.002a1.452 1.452 0 011.134-.543zm-5.251 14.293a1.167 1.167 0 012.333 0V37.77a2.333 2.333 0 01-2.333 2.333H18.228a2.333 2.333 0 01-2.333-2.333V19.103a2.333 2.333 0 012.333-2.333h13.417a1.167 1.167 0 010 2.333H18.52a.292.292 0 00-.292.292v18.083c0 .161.13.292.292.292h18.083c.161 0 .292-.131.292-.292V26.686z" fill="#fff"/></svg>