<svg xmlns="http://www.w3.org/2000/svg" class="cel-icon cel-icon-stroke-width" viewBox="0 0 32 32"><path d="M29.333 0H2.667A2.667 2.667 0 000 2.667v26.666A2.667 2.667 0 002.667 32h26.666A2.667 2.667 0 0032 29.333V2.667A2.667 2.667 0 0029.333 0z" fill="#2150A3"/><path fill-rule="evenodd" clip-rule="evenodd" d="M23.214 10.733a.334.334 0 01-.225-.315v-.085c0-.736-.596-1.333-1.333-1.333h-3.645a2.802 2.802 0 00-1.8.547l.008-.006a.33.33 0 01-.416 0 2.795 2.795 0 00-1.798-.54h.007-3.667c-.736 0-1.333.597-1.333 1.334v.087a.334.334 0 01-.222.315h-.002c-.46.161-.785.592-.786 1.098V20.5c0 .644.523 1.166 1.167 1.167h4.166c1.083 0 2 .289 2 .667a.667.667 0 001.334 0c0-.377.924-.667 2.02-.667h4.146c.644 0 1.166-.523 1.167-1.167v-8.666-.001c0-.507-.325-.939-.778-1.097l-.008-.003h-.002zm-7.88 1.051v7.679a.334.334 0 01-.427.321h.003a3.228 3.228 0 00-.874-.117h-.027.001-3.344a.333.333 0 01-.333-.333v-8.667c0-.184.149-.333.333-.333h3.344c1.329 0 1.323.786 1.323 1.45zm2.677-1.45h3.312c.184 0 .333.149.333.333v8.666c0 .184-.15.334-.333.334H17.985a3.36 3.36 0 00-.918.126l.024-.006a.333.333 0 01-.424-.32v-7.683c0-.695.072-1.45 1.344-1.45z" fill="#fff"/></svg>