<svg xmlns="http://www.w3.org/2000/svg" class="cel-icon cel-icon-stroke-width" viewBox="0 0 56 56"><path d="M51.333 0H4.667A4.667 4.667 0 000 4.667v46.666A4.667 4.667 0 004.667 56h46.666A4.667 4.667 0 0056 51.333V4.667A4.667 4.667 0 0051.333 0z" fill="#3D4149"/><path fill-rule="evenodd" clip-rule="evenodd" d="M23.46 20.503l.17.008c.784.075 1.421.657 1.579 1.424l.33 1.658a.595.595 0 00.582.476h14.1c.553 0 1.046.253 1.374.652l.1.134a1.776 1.776 0 01.27 1.352l-2.377 11.884-.003.012a1.783 1.783 0 01-1.744 1.414H18.873l-.17-.008a1.786 1.786 0 01-1.578-1.418l-3.087-15.437a1.783 1.783 0 011.745-2.15h7.678zm14.308-4.753l.178.007c1.23.09 2.199 1.116 2.199 2.37v3.565l-.008.138a1.189 1.189 0 01-2.369-.138V18.72l-.01-.107a.595.595 0 00-.584-.487H19.018a.313.313 0 00-.287.264 1.19 1.19 0 01-1.159.924 1.19 1.19 0 01-1.194-1.188l.006-.178a2.376 2.376 0 012.37-2.199h19.014z" fill="#fff"/></svg>