<svg xmlns="http://www.w3.org/2000/svg" viewBox="0 0 50 40"><mask id="a" style="mask-type:luminance" maskUnits="userSpaceOnUse" x="0" y="0" width="50" height="40"><path d="M50 0H0v40h50V0z" fill="#fff"/></mask><g mask="url(#a)"><mask id="b" style="mask-type:luminance" maskUnits="userSpaceOnUse" x="5" y="0" width="40" height="40"><path d="M45 0v40H9.167a4.256 4.256 0 01-2.947-1.172A3.92 3.92 0 015 36V4a3.92 3.92 0 011.22-2.828A4.256 4.256 0 019.167 0H45z" fill="#fff"/></mask><g mask="url(#b)"><path d="M9.167 40a6.384 6.384 0 01-4.42-1.757A5.88 5.88 0 012.917 34V6a5.88 5.88 0 011.83-4.243A6.385 6.385 0 019.167 0C8.016 0 7.083 1.79 7.083 4v32c0 2.21.933 4 2.084 4z" fill="#767676"/></g><mask id="c" style="mask-type:luminance" maskUnits="userSpaceOnUse" x="0" y="0" width="40" height="40"><path d="M40 0v40H4.167a4.256 4.256 0 01-2.947-1.172A3.92 3.92 0 010 36V4a3.92 3.92 0 011.22-2.828A4.256 4.256 0 014.167 0H40z" fill="#fff"/></mask><g mask="url(#c)"><path d="M4.167 40a6.384 6.384 0 01-4.42-1.757A5.88 5.88 0 01-2.083 34V6a5.88 5.88 0 011.83-4.243A6.385 6.385 0 014.167 0C3.016 0 2.083 1.79 2.083 4v32c0 2.21.933 4 2.084 4z" fill="#767676"/></g><path d="M45.833 0H14.167C11.866 0 10 1.79 10 4v32c0 2.21 1.866 4 4.167 4h31.666C48.135 40 50 38.21 50 36V4c0-2.21-1.865-4-4.167-4z" fill="#767676"/><path fill-rule="evenodd" clip-rule="evenodd" d="M33.31 10c.23 0 .44.09.59.24l4.51 4.51c.15.15.24.36.24.59v13.11c-.06.86-.78 1.54-1.66 1.54H23.54c-.86-.06-1.54-.78-1.54-1.66V11.54c.06-.86.78-1.54 1.66-1.54h9.65zm-.52 1.67h-8.72l-.07.01c-.19.04-.34.21-.34.41v15.83l.01.07c.04.19.21.34.41.34h12.5l.07-.01c.19-.04.34-.21.34-.41V15.86l-.01-.07a.396.396 0 00-.12-.23l-3.78-3.78a.447.447 0 00-.29-.11zm-2.88 12.5c.46 0 .83.37.83.83 0 .46-.37.83-.83.83h-3.75c-.46 0-.83-.37-.83-.83 0-.43.32-.78.74-.83l.1-.01h3.74v.01zm3.75-3.33c.46 0 .83.37.83.83 0 .46-.37.83-.83.83h-7.5c-.46 0-.83-.37-.83-.83 0-.43.32-.78.74-.83l.1-.01h7.49v.01zm0-3.34c.46 0 .83.37.83.83 0 .46-.37.83-.83.83h-7.5c-.46 0-.83-.37-.83-.83 0-.43.32-.78.74-.83l.1-.01h7.49v.01z" fill="#fff"/></g></svg>