<svg xmlns="http://www.w3.org/2000/svg" class="cel-icon cel-icon-stroke-width" viewBox="0 0 56 56"><path d="M51.333 0H4.667A4.667 4.667 0 000 4.667v46.666A4.667 4.667 0 004.667 56h46.666A4.667 4.667 0 0056 51.333V4.667A4.667 4.667 0 0051.333 0z" fill="#161616"/><path fill-rule="evenodd" clip-rule="evenodd" d="M40.783 26.192h-9.74c-.672 0-1.216.545-1.216 1.217v13.392c0 .672.544 1.216 1.216 1.216l9.74-.017c.672 0 1.217-.545 1.217-1.217V27.41c0-.672-.545-1.217-1.217-1.217zM14.357 14.357c-.22.22-.357.525-.357.861v13.41c0 .672.545 1.217 1.217 1.217h9.74c.672 0 1.216-.545 1.216-1.217V15.237c0-.672-.544-1.217-1.216-1.217L15.217 14c-.336 0-.64.137-.861.357l.001-.001zM40.783 14l-9.74.018c-.672 0-1.216.544-1.216 1.216v6.087c0 .672.544 1.217 1.216 1.217h9.74c.672 0 1.217-.545 1.217-1.217v-6.104c0-.672-.545-1.217-1.217-1.217zM25.818 41.66c.22-.22.357-.524.357-.86v-6.087c0-.672-.545-1.217-1.217-1.217h-9.74c-.672 0-1.217.545-1.217 1.217v6.069c0 .672.545 1.217 1.217 1.217l9.74.017c.336 0 .64-.135.86-.355z" fill="#fff"/></svg>