<svg xmlns="http://www.w3.org/2000/svg" class="cel-icon cel-icon-stroke-width" viewBox="0 0 48 48"><path d="M44 0H4a4 4 0 00-4 4v40a4 4 0 004 4h40a4 4 0 004-4V4a4 4 0 00-4-4z" fill="#355198"/><path d="M11.143 35.143V12h6.66l3.413 9.074-2.58 5.91-1.999-5.91v14.069h-5.494z" fill="#fff"/><path d="M19.051 28.233l2.664-5.994 2.165 5.412L29.707 12h4.495l-7.908 23.143h-4.912l-2.33-6.91z" fill="url(#paint0_linear_17556_2594)"/><path d="M30.956 35.143v-10.74L35.2 12h1.25v23.143h-5.495z" fill="#fff"/><defs><linearGradient id="paint0_linear_17556_2594" x1="19.135" y1="25.819" x2="34.286" y2="25.819" gradientUnits="userSpaceOnUse"><stop stop-color="#C4C66C"/><stop offset="1" stop-color="#7CBCC8"/></linearGradient></defs></svg>