<svg xmlns="http://www.w3.org/2000/svg" class="cel-icon cel-icon-stroke-width" viewBox="0 0 32 32"><path d="M29.333 0H2.667A2.667 2.667 0 000 2.667v26.666A2.667 2.667 0 002.667 32h26.666A2.667 2.667 0 0032 29.333V2.667A2.667 2.667 0 0029.333 0z" fill="#355198"/><path d="M7.429 23.429V8h4.44l2.275 6.05-1.72 3.94-1.332-3.94v9.379H7.428z" fill="#fff"/><path d="M12.7 18.822l1.777-3.996 1.443 3.608L19.805 8h2.997l-5.273 15.429h-3.274L12.7 18.822z" fill="url(#paint0_linear_17556_2606)"/><path d="M20.637 23.429v-7.16L23.467 8h.833v15.429h-3.663z" fill="#fff"/><defs><linearGradient id="paint0_linear_17556_2606" x1="12.756" y1="17.213" x2="22.857" y2="17.213" gradientUnits="userSpaceOnUse"><stop stop-color="#C4C66C"/><stop offset="1" stop-color="#7CBCC8"/></linearGradient></defs></svg>