<svg xmlns="http://www.w3.org/2000/svg" class="cel-icon cel-icon-stroke-width" viewBox="0 0 32 32"><path d="M29.333 0H2.667A2.667 2.667 0 000 2.667v26.666A2.667 2.667 0 002.667 32h26.666A2.667 2.667 0 0032 29.333V2.667A2.667 2.667 0 0029.333 0z" fill="#005D18"/><path fill-rule="evenodd" clip-rule="evenodd" d="M16.713 20.667a.167.167 0 01.118.285l-.267.267c-.155.151-.27.339-.333.546a.333.333 0 01-.319.235h-5.245a1.333 1.333 0 01-1.334-1.333V10.333C9.333 9.597 9.93 9 10.667 9H20c.737 0 1.334.597 1.334 1.333v5.84c0 .177-.07.346-.196.471l-.853.854A.166.166 0 0120 17.38v-6.713a.333.333 0 00-.333-.334H11a.333.333 0 00-.333.334v9.667c0 .184.149.333.333.333h5.713zm-2.88-8.334h4a.5.5 0 110 1h-4a.5.5 0 110-1zm4 2.334a.5.5 0 110 1H12.5a.5.5 0 010-1h5.334zM12.5 17a.5.5 0 100 1h3.667a.5.5 0 000-1H12.5zm4.875 5.421a.167.167 0 00-.282.085l-.418 2.094a.333.333 0 00.393.394l2.096-.42a.167.167 0 00.084-.28l-1.873-1.873zm4.977-5.578a1.747 1.747 0 012.472 2.472l-4.334 4.333a.333.333 0 01-.471 0l-2-2a.333.333 0 010-.471l4.333-4.334z" fill="#fff"/></svg>