<svg xmlns="http://www.w3.org/2000/svg" class="cel-icon cel-icon-stroke-width" viewBox="0 0 48 48"><path d="M44 0H4a4 4 0 00-4 4v40a4 4 0 004 4h40a4 4 0 004-4V4a4 4 0 00-4-4z" fill="#590892"/><path fill-rule="evenodd" clip-rule="evenodd" d="M16.35 27.91a.461.461 0 01-.536-.34l-2.006-9.018a.463.463 0 01.341-.536l11.403-2.536a.461.461 0 01.536.34l.385 1.73 1.965-.203-.434-1.954a2.254 2.254 0 00-2.681-1.705L13.758 16.26a2.253 2.253 0 00-1.705 2.68l2.006 9.018a2.252 2.252 0 002.681 1.704l.232-.052-.185-1.8-.437.097v.003zm17.404-6.64h-1.215l-.213-2.065a2.253 2.253 0 00-2.465-2.004l-11.785 1.215a2.253 2.253 0 00-2.004 2.464l.947 9.19a2.254 2.254 0 002.465 2.004l.175-.018v.698A2.253 2.253 0 0021.906 35h11.847a2.252 2.252 0 002.246-2.246v-9.239a2.253 2.253 0 00-2.246-2.246l.001.001zM19.66 23.515v6.734l-.359.037a.461.461 0 01-.493-.401l-.947-9.19a.462.462 0 01.401-.492l11.621-1.198a.462.462 0 01.493.4l.192 1.864h-8.66a2.254 2.254 0 00-2.248 2.246zm14.377 9.239a.46.46 0 01-.449.448H21.906a.462.462 0 01-.45-.448v-9.239c0-.238.21-.449.45-.449h11.682c.239 0 .449.211.449.449v9.239z" fill="#fff"/></svg>