<svg xmlns="http://www.w3.org/2000/svg" class="cel-icon cel-icon-stroke-width" viewBox="0 0 46 46"><path d="M18.513 17.09l-.41-.099C18.846 14.651 20.46 13 23.128 13c2.385 0 4 1.355 4 3.375 0 1.183-.666 2.415-2.384 3.4 1.128.469 1.59.764 2.128 1.306.718.764 1.128 1.897 1.128 3.178a5.533 5.533 0 01-1.18 3.45C25.59 29.285 23.154 30 20.872 30 19 30 18 29.483 18 28.596c0-.518.462-.887 1.051-.887.436 0 .846.148 1.564.64.95.64 1.488.764 2.206.764 1.897 0 3.333-1.675 3.333-3.77 0-1.872-.898-3.08-2.667-3.572-.564-.172-1.154-.246-2.615-.246v-.345c.974-.32 1.64-.592 2.154-.887 1.256-.69 2.077-1.799 2.077-3.302 0-1.675-1.077-2.513-2.77-2.513-1.59 0-2.769.789-3.82 2.612z" fill="#333"/></svg>