<svg xmlns="http://www.w3.org/2000/svg" class="cel-icon cel-icon-stroke-width" viewBox="0 0 46 46"><path d="M28 13.17l-.796 2.058c-.066.17-.243.315-.597.315h-4.29l-.885 2.058c3.163.654 4.268 1.187 5.529 3.1.575.872.774 1.792.774 3.075 0 2.325-.664 3.827-2.167 5.037-1.04.824-2.256 1.187-3.76 1.187C20.15 30 19 29.419 19 28.499c0-.606.376-.92.995-.92.509 0 .929.12 1.636.75.62.557 1.128.775 1.57.775 1.548 0 2.986-2.01 2.986-4.093 0-1.55-.487-2.76-1.482-3.632-1.04-.92-2.587-1.695-4.71-1.695-.199 0-.265-.049-.265-.194 0-.048.022-.121.022-.121l2.41-5.74h4.578c.508 0 .707-.12 1.061-.629l.199.17z" fill="#333"/></svg>