<svg xmlns="http://www.w3.org/2000/svg" class="cel-icon cel-icon-stroke-width" viewBox="0 0 46 46"><path d="M28.442 13l.051.39c-3.98.633-6.818 3.263-7.502 6.94 1.242-.925 2.104-1.095 3.219-1.095 2.965 0 4.79 1.948 4.79 5.09 0 1.559-.456 2.923-1.293 3.897C26.77 29.342 25.35 30 23.677 30c-2.002 0-3.599-.901-4.486-2.46C18.481 26.298 18 24.57 18 22.864c0-2.63.963-4.944 2.763-6.722 2.18-2.192 4.182-2.777 7.68-3.142zM26.72 25.08c0-3.117-1.065-4.725-3.422-4.725-1.445 0-2.94.585-2.94 2.825 0 3.703 1.217 6.138 3.6 6.138 1.824 0 2.762-1.754 2.762-4.238z" fill="#333"/></svg>