<svg xmlns="http://www.w3.org/2000/svg" class="cel-icon cel-icon-stroke-width" viewBox="0 0 46 46"><path d="M28 25.836C28 28.374 26.02 30 22.936 30 20.03 30 18 28.3 18 25.984c0-1.7.591-2.66 3.342-4.509-2.648-2.094-3.188-3.03-3.188-4.632 0-2.365 2.134-3.843 4.987-3.843 2.545 0 4.32 1.601 4.32 3.523 0 1.848-.9 2.686-3.446 3.992 3.162 2.02 3.985 3.35 3.985 5.321zm-2.314-9.313c0-1.7-1.054-2.833-2.802-2.833-1.722 0-2.827.912-2.827 2.439 0 1.527.95 2.66 3.213 3.942 1.748-.986 2.416-2.02 2.416-3.548zm-2.159 6.43l-1.517-.985c-1.516 1.183-2.056 2.193-2.056 3.794 0 2.267 1.31 3.548 3.264 3.548 1.672 0 2.828-1.109 2.828-2.71 0-1.527-.77-2.513-2.519-3.646z" fill="#333"/></svg>