<svg xmlns="http://www.w3.org/2000/svg" class="cel-icon cel-icon-stroke-width" viewBox="0 0 46 46"><path d="M17.744 30l-.077-.487c3.897-.658 6.769-3.215 7.794-7.21-1.102 1.024-2.333 1.389-3.846 1.389-2.769 0-4.615-1.973-4.615-4.944C17 15.46 19.282 13 22.333 13c1.641 0 3.026.682 4.026 1.851C27.385 16.069 28 17.822 28 19.868c0 2.801-1.026 5.456-3.077 7.234-2.18 1.875-3.846 2.46-7.18 2.898zm7.769-9.182v-.95c0-4.091-1.154-6.186-3.385-6.186-.769 0-1.436.292-1.872.828-.512.658-.897 2.095-.897 3.41 0 2.898 1.23 4.725 3.154 4.725 1.128 0 3-.536 3-1.827z" fill="#333"/></svg>