<svg xmlns="http://www.w3.org/2000/svg" class="cel-icon cel-icon-stroke-width" viewBox="0 0 46 46"><path fill-rule="evenodd" clip-rule="evenodd" d="M16.036 18.68v-1.039h.967v.66h-.25v.38h-.717zm3.548-1.039h-1.935v.66h1.935v-.66zm.645 0v.66h1.936v-.66h-1.936zm2.58 0v.66h1.936v-.66H22.81zm2.581 0v.66h1.936v-.66H25.39zm2.581 0v.66h.25v.38h.718v-1.04h-.968zm.968 1.733h-.717v2.078h.717v-2.079zm0 2.771h-.717v2.08h.717v-2.08zm0 2.772h-.717v2.079h.717v-2.079zm0 2.772h-.717v2.079h.717v-2.08zm0 2.772h-.717v.38h-.251v.659h.968v-1.04zM27.326 31.5v-.66H25.39v.66h1.936zm-2.58 0v-.66H22.81v.66h1.935zm-2.581 0v-.66h-1.936v.66h1.936zm-2.581 0v-.66h-1.935v.66h1.935zm-2.58 0v-.66h-.252v-.38h-.716v1.04h.967zm-.968-1.732h.716v-2.08h-.716v2.08zm0-2.772h.716v-2.079h-.716v2.079zm0-2.772h.716v-2.079h-.716v2.08zm0-2.772h.716v-2.079h-.716v2.08z" fill="#333"/><path d="M37 24.238L31.684 35h-1.342l4.955-11-4.93-11h1.343L37 23.762v.476zM14.658 13L9.703 23.976 14.633 35H13.29L8 24.214v-.475L13.316 13h1.342z" fill="#333"/></svg>