<svg xmlns="http://www.w3.org/2000/svg" class="cel-icon cel-icon-stroke-width" viewBox="0 0 46 46"><path d="M22.37 26.1l.335.277C21.883 27.739 20.546 29 19.338 29c-.565 0-1.002-.252-1.002-1.236 0-.177.026-.429.154-.933l1.44-5.575c.102-.353.154-.58.154-1.01 0-.504-.155-.958-.617-.958-1.388 0-4.215 4.566-4.6 6.105l-.874 3.405h-2.03l1.978-7.542c.052-.227.129-.63.129-1.01 0-.504-.129-.958-.591-.958-1.337 0-4.164 4.566-4.575 6.105l-.9 3.405H6l2.441-9.434c0-.454-.154-.782-.848-.782-.205 0-.488.025-.694.05l-.05-.353 4.034-.605-1.13 4.263h.153c2.416-3.607 3.958-4.263 4.935-4.263.95 0 1.413.933 1.413 2.043 0 .429-.077.807-.231 1.312l-.257.908h.129c.745-1.312 2.081-2.876 3.34-3.708.566-.378 1.054-.555 1.568-.555.925 0 1.388.656 1.388 1.79 0 .455-.026.934-.18 1.54l-1.568 5.827a1.246 1.246 0 00-.051.302c0 .202.154.303.386.303.436 0 1.105-.404 1.593-1.337zM40 28.798H24.066L38.098 15l1.285 1.06-11.23 11.073H40v1.665z" fill="#333"/></svg>