<svg xmlns="http://www.w3.org/2000/svg" class="cel-icon cel-icon-stroke-width" viewBox="0 0 46 46"><path d="M19.275 25.178l.348.22c-.796 1.522-1.293 2.233-2.04 2.822-.845.687-1.79 1.03-2.859 1.03-2.76 0-4.724-2.281-4.724-5.446 0-2.036.746-3.729 2.089-4.832.994-.81 2.188-1.252 3.356-1.252 2.09 0 3.83 1.153 3.83 2.527 0 .564-.523 1.03-1.17 1.03-.546 0-.994-.417-1.193-1.128l-.149-.54c-.248-.907-.572-1.177-1.467-1.177-2.014 0-3.381 1.717-3.381 4.268 0 2.821 1.566 4.784 3.854 4.784 1.417 0 2.312-.589 3.506-2.306zM24.902 13.501c0 .712-.547 1.251-1.293 1.251-.696 0-1.243-.54-1.243-1.25 0-.688.572-1.252 1.268-1.252a1.25 1.25 0 011.268 1.251zm1.816 15.504h-5.893v-.368c1.715-.098 1.964-.32 1.964-2.184v-5.568c0-1.153-.199-1.546-.82-1.546-.224 0-.598 0-1.045.123v-.392l3.854-1.35.1.099v8.61c0 1.815.198 2.085 1.84 2.208v.368zM31.226 21.62l2.586 1.546c1.591.957 2.188 1.62 2.188 3.018 0 1.643-1.591 3.066-3.481 3.066-.522 0-1.243-.024-1.815-.22-.597-.197-.87-.222-1.144-.222-.298 0-.447.05-.597.295h-.323V25.25h.398c.522 2.38 1.442 3.46 3.158 3.46 1.268 0 2.064-.81 2.064-1.816 0-.76-.498-1.398-1.318-1.84l-1.343-.736c-2.064-1.128-2.984-2.306-2.984-3.557 0-1.938 1.393-3.017 3.432-3.017.596 0 1.143.024 1.665.27.274.122.523.196.697.196.1 0 .199-.024.398-.245h.273l.124 3.336h-.373c-.572-2.208-1.318-3.017-2.81-3.017-1.069 0-1.864.515-1.864 1.668 0 .54.373 1.25 1.069 1.668z" fill="#333"/></svg>