<svg xmlns="http://www.w3.org/2000/svg" class="cel-icon cel-icon-stroke-width" viewBox="0 0 46 46"><path d="M17.086 25.304l.341.214c-.78 1.474-1.267 2.163-1.997 2.734-.829.665-1.754.998-2.802.998C9.924 29.25 8 27.04 8 23.973c0-1.973.73-3.613 2.046-4.682.975-.785 2.144-1.213 3.289-1.213 2.046 0 3.75 1.118 3.75 2.449 0 .546-.51.998-1.144.998-.536 0-.974-.404-1.17-1.093l-.145-.523c-.244-.88-.56-1.141-1.438-1.141-1.973 0-3.312 1.664-3.312 4.136 0 2.733 1.534 4.635 3.775 4.635 1.389 0 2.266-.57 3.435-2.235zM29.663 23.522c0 3.304-2.192 5.728-5.48 5.728-2.948 0-5.262-2.353-5.262-5.657s2.192-5.515 5.48-5.515c2.973 0 5.262 2.163 5.262 5.444zm-2.192.641c0-1.616-.438-3.256-1.218-4.23-.584-.714-1.267-1.189-2.314-1.189-1.68 0-2.826 1.402-2.826 3.78 0 1.877.39 3.588 1.291 4.872.536.76 1.316 1.188 2.193 1.188 1.802 0 2.874-1.663 2.874-4.42zM36.683 27.182l.317.262c-.804 1.236-1.73 1.806-2.947 1.806-1.413 0-2.144-1.022-2.144-3.019v-7.154h-1.291c-.073-.048-.098-.095-.098-.167 0-.142.147-.285.415-.451.633-.357 1.437-1.236 2.362-2.543.147-.214.341-.428.488-.666.121 0 .17.071.17.309v2.757h2.46v.76h-2.46v6.799c0 1.521.366 2.139 1.267 2.139.536 0 .925-.214 1.461-.832z" fill="#333"/></svg>