<svg xmlns="http://www.w3.org/2000/svg" class="cel-icon cel-icon-stroke-width" viewBox="0 0 46 46"><path d="M16.478 25.365l.355.21c-.813 1.452-1.32 2.13-2.083 2.692a4.695 4.695 0 01-2.922.983C9.008 29.25 7 27.073 7 24.054c0-1.942.762-3.557 2.134-4.61 1.017-.773 2.236-1.194 3.43-1.194 2.135 0 3.914 1.1 3.914 2.41 0 .539-.534.984-1.195.984-.558 0-1.016-.398-1.22-1.077l-.152-.515c-.254-.866-.584-1.123-1.499-1.123-2.058 0-3.455 1.638-3.455 4.072 0 2.692 1.6 4.564 3.938 4.564 1.448 0 2.363-.562 3.583-2.2zM21.62 21.971l2.642 1.475c1.626.912 2.236 1.544 2.236 2.878 0 1.569-1.627 2.926-3.558 2.926-.533 0-1.27-.023-1.855-.21-.61-.188-.889-.211-1.168-.211-.305 0-.458.046-.61.28h-.33v-3.674h.406c.534 2.27 1.474 3.3 3.227 3.3 1.296 0 2.11-.772 2.11-1.732 0-.725-.51-1.334-1.348-1.755L22 24.546c-2.109-1.077-3.049-2.2-3.049-3.394 0-1.849 1.423-2.879 3.507-2.879.61 0 1.168.024 1.702.258.28.117.534.187.712.187.101 0 .203-.023.406-.234h.28l.127 3.183h-.381c-.585-2.106-1.347-2.879-2.872-2.879-1.092 0-1.905.492-1.905 1.592 0 .515.38 1.193 1.092 1.591zM37.644 25.365l.356.21c-.813 1.452-1.321 2.13-2.084 2.692a4.695 4.695 0 01-2.922.983c-2.82 0-4.828-2.177-4.828-5.196 0-1.942.763-3.557 2.135-4.61 1.016-.773 2.236-1.194 3.43-1.194 2.135 0 3.913 1.1 3.913 2.41 0 .539-.533.984-1.194.984-.559 0-1.016-.398-1.22-1.077l-.152-.515c-.254-.866-.585-1.123-1.5-1.123-2.058 0-3.455 1.638-3.455 4.072 0 2.692 1.6 4.564 3.939 4.564 1.448 0 2.363-.562 3.582-2.2z" fill="#333"/></svg>