<svg xmlns="http://www.w3.org/2000/svg" class="cel-icon cel-icon-stroke-width" viewBox="0 0 46 46"><path d="M22.444 16.447l-5.866 15.318h-.393l-2.48-6.59c-.208-.56-.453-.733-.76-.733-.209 0-.528.137-.798.385L12 24.58l1.915-1.542h.233L16.65 29.7h.05l5.08-13.254h.663z" fill="#333"/><path fill-rule="evenodd" clip-rule="evenodd" d="M34.793 17.143h-13v-.696h13v.696z" fill="#333"/><path d="M15.161 16.957l-.142-.043c.294-.633.864-.914 1.523-.914.695 0 1.176.44 1.176 1.072 0 .65-.365.992-1.38 1.344v.026c.605.229.845.624.845 1.265 0 .694-.32 1.31-.828 1.748-.437.378-1.007.545-1.648.545-.642 0-.989-.21-.989-.5 0-.22.152-.378.383-.378.17 0 .33.052.57.263.232.202.463.281.633.281.294 0 .606-.158.828-.404.232-.272.339-.694.339-1.107 0-.949-.57-1.388-1.426-1.388h-.213v-.14c.801-.14 1.175-.264 1.559-.527.374-.255.552-.563.552-.932 0-.483-.312-.799-.784-.799-.383 0-.677.176-.998.588zM32.718 21.221h-.538v-.623h-.56V20h1.098v1.221zm-1.58-.623H30.04V20h1.098v.598zm1.58 2.381h-.538v-1.22h.538v1.22zm-3.161-2.38h-1.098V20h1.098v.598zm3.161 4.139h-.538v-1.221h.538v1.22zm-4.741-4.14h-1.098V20h1.098v.598zm4.741 5.898h-.538v-1.221h.538v1.22zm-6.322-5.898h-1.098V20h1.098v.598zm6.322 7.656h-.538v-1.221h.538v1.221zm0 1.746H31.62v-.598h.56v-.623h.538V30zm-7.902-9.402h-.56v.623h-.538V20h1.098v.598zM31.138 30H30.04v-.598h1.098V30zm-6.882-7.02h-.538v-1.222h.538v1.221zM29.557 30h-1.098v-.598h1.098V30zm-5.301-5.262h-.538v-1.221h.538v1.22zM27.976 30H26.88v-.598h1.098V30zm-3.72-3.504h-.538v-1.221h.538v1.22zM26.396 30h-1.098v-.598h1.098V30zm-2.14-1.746h-.538v-1.221h.538v1.221zm.56 1.746h-1.098v-1.221h.538v.623h.56V30z" fill="#333"/></svg>