<svg xmlns="http://www.w3.org/2000/svg" class="cel-icon cel-icon-stroke-width" viewBox="0 0 46 46"><path fill-rule="evenodd" clip-rule="evenodd" d="M16.067 16.072V15h.954v.68h-.248v.392h-.706zM19.565 15h-1.908v.68h1.908V15zm.636 0v.68h1.907V15h-1.907zm2.543 0v.68h1.909V15h-1.909zm2.544 0v.68h1.909V15h-1.909zm2.544 0v.68h.248v.392h.707V15h-.954zm.954 1.786h-.706v2.144h.707v-2.144zm0 2.858h-.706v2.144h.707v-2.144zm0 2.858h-.706v2.143h.707v-2.143zm0 2.858h-.706v2.143h.707V25.36zm0 2.858h-.706v.391h-.247v.68h.954v-1.071zm-1.59 1.072v-.68h-1.908v.68h1.909zm-2.544 0v-.68h-1.908v.68h1.909zm-2.544 0v-.68h-1.907v.68h1.907zm-2.543 0v-.68h-1.908v.68h1.908zm-2.544 0v-.68h-.248v-.392h-.706v1.072h.954zm-.954-1.787h.706V25.36h-.706v2.143zm0-2.858h.706v-2.143h-.706v2.143zm0-2.857h.706v-2.144h-.706v2.144zm0-2.858h.706v-2.144h-.706v2.144z" fill="#333"/><path d="M9 35V24.222h1.628v9.357H14.8V35H9zM34.372 24.222H36V35h-5.8v-1.42h4.172v-9.358z" fill="#333"/></svg>