<svg xmlns="http://www.w3.org/2000/svg" class="cel-icon cel-icon-stroke-width" viewBox="0 0 46 46"><path d="M28 23H17v-1h11v1zM26 15.318h-.645v-.672h-.67V14H26v1.318zm-1.895-.672H22.79V14h1.316v.646zm-1.894 0h-1.316V14h1.316v.646zM26 17.216h-.645v-1.318H26v1.319zm0 1.899h-.645v-1.318H26v1.318zM26 21h-1.316v-.646h.671v-.672H26V21zm-5.684-6.354h-.671v.672H19V14h1.316v.646zM24.106 21h-1.317v-.646h1.316V21zm-1.895 0h-1.316v-.646h1.316V21zm-2.566-3.783H19v-1.319h.645v1.319zm0 1.898H19v-1.318h.645v1.318zm.67 1.885H19v-1.318h.645v.672h.67V21zM26 25.507h-.645v-.769h-.67V24H26v1.507zm-1.895-.769H22.79V24h1.316v.738zm-1.894 0h-1.316V24h1.316v.738zM26 27.676h-.645V26.17H26v1.506zm0 2.17h-.645v-1.507H26v1.507zM26 32h-1.316v-.738h.671v-.769H26V32zm-5.684-7.262h-.671v.769H19V24h1.316v.738zM24.106 32h-1.317v-.738h1.316V32zm-1.895 0h-1.316v-.738h1.316V32zm-2.566-4.324H19V26.17h.645v1.506zm0 2.17H19v-1.507h.645v1.507zm.67 2.154H19v-1.507h.645v.769h.67V32z" fill="#333"/></svg>