<svg xmlns="http://www.w3.org/2000/svg" class="cel-icon cel-icon-stroke-width" viewBox="0 0 46 46"><path d="M29 22.902C29 24.256 27.898 26 25.97 26c-1.256 0-2.128-.74-3.077-2.023-.689 1.27-1.73 2.023-3.2 2.023C18.379 26 17 25.135 17 23.21c0-2.568 2.036-3.21 2.924-3.21 1.117 0 1.882.265 3.336 2.051.704-1.158 1.408-2.051 2.954-2.051C27.592 20 29 21.033 29 22.902zm-5.434-.32v.041c1.102 1.66 1.944 2.554 2.985 2.554.857 0 1.53-.768 1.53-1.66 0-1.27-.78-2.345-2.127-2.345-1.362 0-1.944.823-2.388 1.41zm-1.01.892v-.041c-1.102-1.66-2.066-2.61-3.107-2.61-.857 0-1.53.768-1.53 1.66 0 1.187.78 2.345 2.127 2.345 1.362 0 2.097-.851 2.51-1.354z" fill="#333"/></svg>