<svg xmlns="http://www.w3.org/2000/svg" class="cel-icon cel-icon-stroke-width" viewBox="0 0 46 46"><path d="M11.172 25.365l.344.21c-.787 1.452-1.278 2.13-2.016 2.692a4.45 4.45 0 01-2.828.983C3.942 29.25 2 27.073 2 24.054c0-1.942.738-3.557 2.066-4.61.983-.773 2.163-1.194 3.32-1.194 2.065 0 3.786 1.1 3.786 2.41 0 .539-.516.984-1.156.984-.54 0-.983-.398-1.18-1.077l-.148-.515c-.245-.866-.565-1.123-1.45-1.123-1.992 0-3.345 1.638-3.345 4.072 0 2.692 1.55 4.564 3.812 4.564 1.402 0 2.287-.562 3.467-2.2zM16.148 21.971l2.557 1.475c1.574.912 2.164 1.544 2.164 2.878 0 1.569-1.574 2.926-3.443 2.926-.516 0-1.23-.023-1.795-.21-.59-.188-.86-.211-1.131-.211-.295 0-.443.046-.59.28h-.32v-3.674h.394c.516 2.27 1.426 3.3 3.123 3.3 1.254 0 2.04-.772 2.04-1.732 0-.725-.491-1.334-1.303-1.755l-1.328-.702c-2.04-1.077-2.95-2.2-2.95-3.394 0-1.849 1.377-2.879 3.393-2.879.59 0 1.131.024 1.648.258.27.117.516.187.688.187.098 0 .197-.023.393-.234h.271l.123 3.183h-.369c-.566-2.106-1.303-2.879-2.779-2.879-1.057 0-1.844.492-1.844 1.592 0 .515.369 1.193 1.058 1.591zM31.656 25.365l.344.21c-.787 1.452-1.279 2.13-2.016 2.692a4.45 4.45 0 01-2.828.983c-2.73 0-4.672-2.177-4.672-5.196 0-1.942.737-3.557 2.065-4.61.984-.773 2.164-1.194 3.32-1.194 2.066 0 3.787 1.1 3.787 2.41 0 .539-.517.984-1.156.984-.541 0-.984-.398-1.18-1.077l-.148-.515c-.246-.866-.566-1.123-1.45-1.123-1.992 0-3.345 1.638-3.345 4.072 0 2.692 1.55 4.564 3.812 4.564 1.401 0 2.286-.562 3.467-2.2zM38.818 16.624H34v-1.046h4.818v1.046z" fill="#333"/><path d="M43.494 22.37H38.7v-.572c1.08-.071 1.33-.237 1.33-.784v-6.041c0-.547-.075-.714-.226-.714-.175 0-.401.048-1.053.333v-.57l2.96-1.309.351.096v8.062c0 .618.352.927 1.43.927v.571z" fill="#333"/></svg>