<svg xmlns="http://www.w3.org/2000/svg" class="cel-icon cel-icon-stroke-width" viewBox="0 0 46 46"><path d="M33.5 22.872v.256c-2.372 1.046-4.25 2.933-5.88 4.872l-.494-.485c.568-.841 1.285-1.658 2.026-2.449.222-.23.346-.51.346-.714 0-.255-.198-.51-.643-.51H17.12c-.247 0-.642.306-.642.561 0 .23.098.383.346.638.716.714 1.482 1.607 2.025 2.449l-.494.485c-1.606-1.914-3.483-3.827-5.855-4.847v-.256c2.372-1.046 4.25-2.933 5.88-4.872l.494.485c-.568.841-1.285 1.658-2.026 2.449-.222.23-.346.51-.346.714 0 .255.198.51.643.51H28.88c.247 0 .642-.306.642-.561 0-.23-.098-.383-.345-.638-.717-.714-1.483-1.607-2.026-2.449l.494-.485c1.606 1.914 3.483 3.827 5.855 4.848z" fill="#333"/></svg>