<svg xmlns="http://www.w3.org/2000/svg" class="cel-icon cel-icon-stroke-width" viewBox="0 0 46 46"><path d="M13.002 29.677H7.05v-.366c1.59-.122 1.942-.537 1.942-1.88V15.979c0-1.172-.252-1.563-1.059-1.563-.202 0-.53 0-.933.049v-.39c1.74-.416 2.673-.66 3.984-1.075l.126.098v14.455c0 1.343.278 1.66 1.892 1.758v.366zM25.391 24.037c0 3.394-2.27 5.884-5.673 5.884-3.052 0-5.447-2.417-5.447-5.811s2.27-5.665 5.674-5.665c3.076 0 5.446 2.222 5.446 5.592zm-2.27.659c0-1.66-.453-3.345-1.26-4.346-.605-.733-1.311-1.221-2.396-1.221-1.74 0-2.925 1.44-2.925 3.882 0 1.93.404 3.687 1.337 5.006.555.781 1.361 1.22 2.27 1.22 1.865 0 2.975-1.709 2.975-4.541zM38 20.203h-2.093c.353.782.48 1.343.48 2.051 0 1.27-.404 2.173-1.312 2.833-.807.586-1.74.952-2.623.952-.151 0-.504-.025-.958-.073l-.48-.05c-.68.196-1.512 1.05-1.512 1.539 0 .39.605.586 1.967.66l3.253.146c1.866.073 3.051 1.099 3.051 2.613 0 .976-.48 1.782-1.513 2.563-1.311.977-3.228 1.563-5.043 1.563-2.421 0-4.363-1.074-4.363-2.368 0-.904.656-1.71 2.471-2.98-1.059-.488-1.336-.756-1.336-1.294 0-.488.328-.976 1.16-1.684.378-.318.731-.635 1.084-.977-1.69-.806-2.345-1.734-2.345-3.272 0-2.222 1.866-3.98 4.211-3.98.656 0 1.337.122 2.018.366l.554.196c.505.17.883.244 1.387.244H38v.952zm-8.019 1.221v.073c0 2.344 1.034 3.931 2.597 3.931 1.135 0 1.866-.854 1.866-2.197 0-1.001-.277-2.1-.756-2.955-.404-.732-1.06-1.147-1.841-1.147-1.16 0-1.866.854-1.866 2.295zm7.086 9.816c0-.904-.832-1.197-3.127-1.197-1.236 0-3.228-.146-4.085-.317-1.009 1.172-1.236 1.538-1.236 2.1 0 1.074 1.438 1.782 3.657 1.782 2.874 0 4.79-.952 4.79-2.368z" fill="#333"/></svg>