<svg xmlns="http://www.w3.org/2000/svg" class="cel-icon cel-icon-stroke-width" viewBox="0 0 46 46"><path d="M29 19.3l-4.314 13.361a1.064 1.064 0 00-.052.254c0 .439.523.716 1.49.716h.392V34H20.32v-.37c1.647-.092 2.092-.438 2.38-1.291l2.352-6.693c-2.091 2.93-3.424 3.785-5.438 3.785-1.647 0-2.614-1.039-2.614-2.677C17 23.108 21.078 19 24.66 19c1.072 0 1.752.392 2.013 1.43l.419-1.13H29zm-2.719 1.592c0-.761-.68-1.384-1.542-1.384-.759 0-1.595.438-2.432 1.13-1.778 1.5-3.059 3.877-3.059 5.793 0 1.084.419 1.777 1.386 1.777.654 0 1.464-.3 2.144-.831 1.778-1.362 3.503-4.57 3.503-6.485z" fill="#333"/></svg>