<svg xmlns="http://www.w3.org/2000/svg" class="cel-icon cel-icon-stroke-width" viewBox="0 0 46 46"><path d="M29 20.739h-1.27c.233.417.233.788.233 1.182 0 1.948-2.384 3.802-4.794 3.802-.286 0-.57-.023-.804-.07-.078-.022-.13-.022-.181-.022-.441 0-.934.463-.934.95 0 .418.7.719 1.84.974 2.489.533 3.681 1.553 3.681 2.944 0 2.017-1.996 3.501-5.443 3.501C18.685 34 17 33.165 17 31.496c0-1.182.492-1.808 3.032-3.176-.466-.255-.7-.603-.7-.904 0-.673.597-1.368 1.996-1.948-1.451-.463-2.047-1.298-2.047-2.503C19.28 20.6 21.873 19 24.49 19c.984 0 1.84.209 2.54.65.207.138.336.185.414.185H29v.904zm-3.084.417c0-1.229-.493-1.646-1.452-1.646-1.606 0-3.162 1.692-3.162 3.988 0 1.09.57 1.738 1.556 1.738.88 0 1.58-.417 2.203-1.367.518-.789.855-1.74.855-2.713zm-.7 10.155c0-1.067-.933-1.716-3.706-2.481-.337-.093-.596-.162-.882-.255-.233 0-1.321.788-1.684 1.206-.389.44-.518.811-.518 1.344 0 1.623 1.218 2.365 3.291 2.365 2.1 0 3.499-.997 3.499-2.18z" fill="#333"/></svg>