<svg xmlns="http://www.w3.org/2000/svg" class="cel-icon cel-icon-stroke-width" viewBox="0 0 46 46"><path d="M20.422 22.193h.025c1.662-2.93 3.006-3.916 4.717-3.916 1.638 0 2.836 1.115 2.836 3.112C28 25.487 23.967 30 20.178 30 18.784 30 17 29.404 17 28.625v-.155l3.471-13.565c.147-.623.22-.986.22-1.22 0-.57-.122-.596-1.564-.648v-.44a52.216 52.216 0 003.74-.597l.122.13c-.196.778-.367 1.53-.513 2.127l-2.054 7.936zm5.5-.415c0-1.582-.635-2.23-1.71-2.23-1.174 0-2.299 1.089-3.35 2.982-1.075 1.92-1.76 4.435-1.76 5.992 0 .596.367.882 1.125.882 1.05 0 2.102-.545 3.006-1.53 1.467-1.609 2.69-4.177 2.69-6.096z" fill="#333"/></svg>