<svg xmlns="http://www.w3.org/2000/svg" class="cel-icon cel-icon-stroke-width" viewBox="0 0 46 46"><path d="M23.067 27.891l.84-.767c1.95-1.773 3.711-4.41 3.711-5.536 0-.24-.135-.407-.487-.695-.488-.383-.678-.695-.678-1.078 0-.504.46-.815 1.03-.815.894 0 1.517.767 1.517 1.414 0 1.03-.759 2.42-1.707 3.714-1.22 1.678-2.736 3.212-3.224 3.667C22.579 29.21 21.847 30 21.387 30c-.163 0-.244-.24-.244-.647v-.575c0-1.654-.298-4.841-.65-6.662-.353-1.822-.65-2.23-1.653-2.23-.271 0-.542 0-.84.025v-.312a54.355 54.355 0 003.035-.503c.216-.072.406-.096.541-.096.244 0 .244.144.813 2.732.352 1.606.515 2.924.678 6.16z" fill="#333"/></svg>