<svg xmlns="http://www.w3.org/2000/svg" class="cel-icon cel-icon-stroke-width" viewBox="0 0 46 46"><path d="M26.583 27.08l.315.292C25.402 29.075 23.722 30 21.543 30 19.417 30 18 28.686 18 26.666 18 22.894 21.91 19 25.848 19c1.39 0 2.152.633 2.152 1.655 0 2.093-2.756 3.991-7.454 4.55-.262.488-.262 1.12-.262 1.485 0 1.339.97 2.215 2.44 2.215 1.155 0 1.969-.39 3.859-1.825zm-5.407-3.48l-.446 1.07c2.257-.51 3.254-.949 4.225-1.8.814-.73 1.313-1.607 1.313-2.361 0-.584-.184-.95-.919-.95-1.496 0-3.28 1.875-4.173 4.04z" fill="#333"/></svg>