<svg xmlns="http://www.w3.org/2000/svg" class="cel-icon cel-icon-stroke-width" viewBox="0 0 46 46"><path d="M20.61 18.497h2.28c.54-1.845.956-3.274 1.765-4.496.735-1.117 1.74-2.001 3.236-2.001 1.202 0 2.109.676 2.109 1.611 0 .572-.466 1.118-1.03 1.118-.441 0-.907-.39-.907-1.014 0-.442.245-.572.245-.805 0-.208-.196-.338-.54-.338-1.372 0-2.28 1.819-2.99 5.925H27.4l-.147.832h-2.648l-1.765 8.316C21.81 32.453 20.168 35 17.937 35 16.834 35 16 34.324 16 33.415c0-.598.417-1.092.932-1.092.564 0 .931.416.931.962 0 .338-.22.468-.22.753 0 .234.196.416.49.416 1.03 0 1.815-1.403 2.378-4.21L22.67 19.33h-2.231l.172-.832z" fill="#333"/></svg>