<svg xmlns="http://www.w3.org/2000/svg" class="cel-icon cel-icon-stroke-width" viewBox="0 0 46 46"><path d="M27 19l-.457 3.385h-.366c-.228-2.007-.914-2.805-2.034-2.805-.8 0-1.349.484-1.349 1.378 0 .653.343 1.354 1.235 2.466 1.142 1.402 1.554 2.345 1.554 3.288 0 2.007-1.394 3.24-3.292 3.24-.388 0-.731-.025-1.257-.242a2.317 2.317 0 00-1.005-.218c-.252 0-.503.121-.663.508H19l.457-3.844h.366c.32 2.297 1.097 3.288 2.286 3.288 1.074 0 1.737-.677 1.737-1.862 0-.773-.389-1.595-1.28-2.78-.983-1.305-1.44-2.393-1.44-3.167 0-1.595 1.074-2.61 2.765-2.61.389 0 .709.072 1.28.24.435.146.64.17.823.17.343 0 .503-.096.686-.435H27z" fill="#333"/></svg>