<svg xmlns="http://www.w3.org/2000/svg" class="cel-icon cel-icon-stroke-width" viewBox="0 0 46 46"><path d="M26 13.406c0 .716-.535 1.304-1.14 1.304-.674 0-1.116-.537-1.116-1.355 0-.793.465-1.355 1.093-1.355.628 0 1.163.665 1.163 1.406zm-.977 12.399l.303.28C24.046 28.234 23.302 29 22.14 29c-.768 0-1.14-.46-1.14-1.406 0-.511.163-1.406.512-2.838l1.116-4.524c.116-.46.21-.92.21-1.125 0-.511-.233-.588-1.49-.614v-.409c.908-.076 1.373-.153 3.722-.639l.093.077-2.186 8.768c-.117.435-.233.767-.233 1.125 0 .256.14.384.326.384.395 0 .953-.537 1.953-1.994z" fill="#333"/></svg>