<svg xmlns="http://www.w3.org/2000/svg" class="cel-icon cel-icon-stroke-width" viewBox="0 0 46 46"><path d="M22.212 23.943l.393-.793c.466-.953 1.3-2.154 2.305-3.13.638-.612 1.373-1.02 1.937-1.02.687 0 1.153.476 1.153 1.157 0 .68-.417 1.224-1.153 1.224-.441 0-.637-.25-.858-.59-.147-.226-.22-.317-.392-.317-.442 0-1.128.748-2.011 2.131C22.53 24.283 22.09 25.19 20.864 29H19l1.986-6.621c.344-1.18.393-1.384.393-1.86 0-.476-.442-.59-.932-.59-.196 0-.392.023-.76.069v-.386c1.765-.272 2.035-.317 3.8-.612l.074.045-1.349 4.898z" fill="#333"/></svg>