<svg xmlns="http://www.w3.org/2000/svg" class="cel-icon cel-icon-stroke-width" viewBox="0 0 46 46"><path d="M25.194 19.36l.759 8.435c3.104-3.93 3.91-5.2 3.91-6.23 0-.288-.143-.48-.522-.84-.379-.359-.497-.647-.497-.982 0-.383.402-.743.924-.743.71 0 1.232.575 1.232 1.342 0 1.534-1.754 4.338-5.024 8.364l-.213.264c-.64.79-.853 1.03-1.066 1.03-.166 0-.214-.216-.261-.839l-.687-7.429-2.11 3.643a50.34 50.34 0 00-1.302 2.372C19.483 29.401 19.08 30 18.82 30c-.213 0-.26-.192-.308-1.126l-.095-2.181c-.095-2.085-.355-4.65-.64-5.8-.213-.887-.426-1.006-1.114-1.006H16v-.312c.735-.12 1.54-.215 2.251-.407.308-.072.521-.168.687-.168.261 0 .285.048.45.815.332 1.63.664 4.625.759 6.734l4.55-7.285c.118-.192.19-.24.308-.24.142 0 .19.072.19.335z" fill="#333"/></svg>