<svg xmlns="http://www.w3.org/2000/svg" class="cel-icon cel-icon-stroke-width" viewBox="0 0 46 46"><path d="M27 18.178l-.136.861h-2.279l-2.36 8.833a2.101 2.101 0 00-.055.378c0 .35.163.43.407.43.435 0 .869-.43 2.198-2.127l.353.188C23.5 29.22 22.658 30 21.248 30c-.733 0-1.248-.323-1.248-.996 0-.297.217-1.132.434-1.993l2.116-7.971h-2.035c-.027-.081-.027-.162-.027-.162 0-.296.245-.539.896-.673.868-.189 2.631-1.508 3.608-2.963.109-.161.272-.242.38-.242.163 0 .244.08.244.215 0 0 0 .135-.027.189l-.76 2.774H27z" fill="#333"/></svg>