<svg xmlns="http://www.w3.org/2000/svg" class="cel-icon cel-icon-stroke-width" viewBox="0 0 46 46"><path d="M28 19.26l-7.565 8.11c1.518.306 2.094.565 3.14 1.956.681.896 1.179 1.179 1.833 1.179.42 0 .707-.142.707-.354 0-.094-.052-.212-.13-.353-.158-.283-.21-.472-.21-.66.026-.401.445-.802.864-.802.55 0 .916.354.916.872 0 .943-.969 1.792-2.435 1.792-.759 0-1.649-.306-2.958-1.037-1.23-.684-2.068-.99-2.748-.99-.42 0-.76.117-1.178.424L18 29.185l8.115-8.77h-3.56c-1.361 0-1.859.212-2.382 1.414l-.42-.094.839-2.735H28v.26z" fill="#333"/></svg>