<svg xmlns="http://www.w3.org/2000/svg" class="cel-icon cel-icon-stroke-width" viewBox="0 0 46 46"><path d="M24.12 24.912l.56 2.55c2.267-3.269 3.253-4.938 3.253-5.958 0-.325-.186-.464-.693-.742-.533-.301-.693-.533-.693-.904 0-.51.453-.858 1.066-.858.8 0 1.387.58 1.387 1.275 0 1.322-1.28 3.872-3.493 7.071C22.733 31.334 19.88 34 18.36 34c-.8 0-1.36-.394-1.36-.997 0-.51.453-.927 1.04-.927.933 0 .933.649 1.627.649.346 0 .666-.186 1.28-.765.48-.44 1.68-1.809 1.893-2.11.16-.278.267-.556.267-.811 0-.928-1.467-6.12-2.187-7.697-.507-1.136-.987-1.484-2.053-1.484-.294 0-.534.023-.827.093v-.395c.293-.046.587-.092.853-.139A66.472 66.472 0 0121.747 19h.106c.4 0 1.814 3.849 2.267 5.912z" fill="#333"/></svg>