<svg xmlns="http://www.w3.org/2000/svg" class="cel-icon cel-icon-stroke-width" viewBox="0 0 46 46"><path d="M28.848 12l.152.155c-.406 1.578-.635 2.586-.99 3.931l-1.524 5.664c-.787 2.948-1.65 5.948-1.65 6.362 0 .31.127.517.457.517.432 0 .71-.232 2.082-1.836l.305.259C26.436 28.94 25.217 30 23.947 30c-.66 0-1.04-.465-1.04-1.164 0-.595.05-1.008.33-2.301-1.499 2.56-2.794 3.413-4.52 3.413-1.65 0-2.717-1.06-2.717-3.026 0-4.19 4.113-8.663 7.414-8.663 1.066 0 1.498.491 1.65 1.5h.026l1.142-4.216c.381-1.37.356-1.474.356-1.836 0-.543-.229-.62-1.625-.673v-.44c1.625-.154 2.539-.31 3.885-.594zm-4.19 8.328c0-.931-.61-1.475-1.193-1.475-.711 0-1.6.44-2.31 1.19-1.677 1.81-2.946 4.63-2.946 6.776 0 1.19.584 1.888 1.473 1.888 2.336 0 4.976-4.448 4.976-8.38z" fill="#333"/></svg>