<svg xmlns="http://www.w3.org/2000/svg" class="cel-icon cel-icon-stroke-width" viewBox="0 0 46 46"><path d="M26.101 27.128l.405.244C24.962 29.246 23.62 30 21.721 30 19.367 30 18 28.735 18 26.252c0-2.263 1.317-4.38 3.114-5.767 1.24-.95 2.683-1.485 4.228-1.485 1.544 0 2.658.827 2.658 1.971 0 .657-.557 1.168-1.215 1.168-.71 0-.988-.486-.988-.973 0-.438.38-.706.38-1.168 0-.292-.354-.487-.936-.487-1.013 0-2.026.438-2.76 1.168-1.418 1.436-2.304 3.505-2.304 5.67 0 1.753.81 2.775 2.253 2.775 1.342 0 2.304-.608 3.671-1.996z" fill="#333"/></svg>