<svg xmlns="http://www.w3.org/2000/svg" class="cel-icon cel-icon-stroke-width" viewBox="0 0 46 46"><path d="M29 22.407c0 1.85-.998 3.991-2.644 5.573-1.447 1.412-3.043 2.02-4.69 2.02C19.323 30 18 28.735 18 26.617c0-2.725 1.87-5.524 4.49-6.887a6.317 6.317 0 012.993-.73C27.503 19 29 20.265 29 22.407zm-2.095-.608c0-1.485-.699-2.288-1.771-2.288-1.098 0-2.195.755-3.193 2.215-1.147 1.703-1.846 3.626-1.846 5.548 0 1.46.774 2.215 1.946 2.215 1.097 0 2.045-.706 3.018-2.02 1.147-1.533 1.846-3.82 1.846-5.67z" fill="#333"/></svg>