<svg xmlns="http://www.w3.org/2000/svg" class="cel-icon cel-icon-stroke-width" viewBox="0 0 46 46"><path d="M30.466 14h.509c-.153 2.152-1.526 5.418-4.017 5.418-2.441 0-5.416-3.747-7.246-3.747-1.78 0-2.797 1.95-3.203 3.747H16C16.127 16.886 17.652 14 20.144 14c2.44 0 5.415 3.747 7.271 3.747 1.755 0 2.619-1.95 3.051-3.747zM31 29.823h-8.95L20.704 32h-1.525l1.347-2.177h-4.5v-1.671h5.543l2.135-3.393h-7.678v-1.67h8.72l1.374-2.178h1.525l-1.373 2.178H31v1.67h-5.771l-2.136 3.393H31v1.67z" fill="#333"/></svg>