<svg xmlns="http://www.w3.org/2000/svg" class="cel-icon cel-icon-stroke-width" viewBox="0 0 46 46"><path d="M29.5 19.71h-.717v-.872h-.746V18H29.5v1.71zm-2.107-.872h-1.464V18h1.464v.838zM29.5 22.17h-.717v-1.71h.717v1.71zm-4.215-3.333h-1.463V18h1.463v.838zm4.215 5.794h-.717v-1.709h.717v1.71zm-6.322-5.794h-1.463V18h1.463v.838zm6.322 8.256h-.717v-1.71h.717v1.71zm-8.43-8.256h-1.463V18h1.464v.838zm8.43 10.718h-.717v-1.71h.717v1.71zm0 2.444h-1.463v-.838h.746v-.871h.717V32zM18.963 18.838h-.746v.871H17.5V18h1.463v.838zM27.393 32h-1.464v-.838h1.464V32zm-9.176-9.83H17.5v-1.709h.717v1.71zM25.285 32h-1.463v-.838h1.463V32zm-7.068-7.367H17.5v-1.71h.717v1.71zM23.178 32h-1.463v-.838h1.463V32zm-4.96-4.906H17.5v-1.71h.717v1.71zM21.07 32h-1.464v-.838h1.464V32zm-2.854-2.444H17.5v-1.71h.717v1.71zM18.963 32H17.5v-1.71h.717v.872h.746V32zM31 16.789l-.165.211c-1.959-1.24-4.626-1.803-7.327-1.803-3.178 0-5.384.564-7.327 1.803L16 16.775C18.24 14.915 20.824 14 23.508 14c2.009 0 5.006.915 7.492 2.789z" fill="#333"/></svg>