<svg xmlns="http://www.w3.org/2000/svg" class="cel-icon cel-icon-stroke-width" viewBox="0 0 46 46"><path d="M29.25 19.71h-.717v-.872h-.746V18h1.463v1.71zm-2.107-.872h-1.464V18h1.464v.838zm2.107 3.333h-.717v-1.71h.717v1.71zm-4.215-3.333h-1.463V18h1.463v.838zm4.215 5.794h-.717v-1.709h.717v1.71zm-6.322-5.794h-1.463V18h1.463v.838zm6.322 8.256h-.717v-1.71h.717v1.71zm-8.43-8.256h-1.463V18h1.464v.838zm8.43 10.718h-.717v-1.71h.717v1.71zm0 2.444h-1.463v-.838h.746v-.871h.717V32zM18.713 18.838h-.746v.871h-.717V18h1.463v.838zM27.143 32h-1.464v-.838h1.464V32zm-9.176-9.83h-.717v-1.709h.717v1.71zM25.035 32h-1.463v-.838h1.463V32zm-7.068-7.367h-.717v-1.71h.717v1.71zM22.928 32h-1.463v-.838h1.463V32zm-4.96-4.906h-.718v-1.71h.717v1.71zM20.82 32h-1.464v-.838h1.464V32zm-2.854-2.444h-.717v-1.71h.717v1.71zM18.713 32H17.25v-1.71h.717v.872h.746V32zM31.5 13.924v.152c-1.863.628-3.339 1.76-4.62 2.924l-.388-.29c.446-.506 1.01-.996 1.591-1.47.175-.138.272-.306.272-.429 0-.153-.155-.306-.504-.306H18.63c-.194 0-.505.184-.505.337 0 .138.078.23.272.383.563.428 1.165.964 1.592 1.469l-.388.29c-1.262-1.147-2.738-2.295-4.601-2.908v-.152c1.863-.628 3.339-1.76 4.62-2.924l.388.29c-.446.506-1.01.996-1.591 1.47-.175.138-.272.306-.272.429 0 .153.155.306.504.306h9.221c.194 0 .505-.184.505-.337 0-.138-.078-.23-.272-.383-.563-.428-1.165-.964-1.592-1.469l.388-.29c1.262 1.147 2.738 2.295 4.601 2.908z" fill="#333"/></svg>