<svg xmlns="http://www.w3.org/2000/svg" class="cel-icon cel-icon-stroke-width" viewBox="0 0 46 46"><path d="M28.62 26.095H29c0 1.655-1.04 3.802-2.841 3.802-1.447 0-2.334-1.475-2.334-3.156 0-2.25.228-4.758.405-6.569h-2.359C21.77 22.19 22.099 30 19.411 30c-1.193 0-1.7-.75-1.7-1.655 0-.285.228-.492.583-.595 1.04-.336 2.106-.88 2.41-7.578-1.446 0-2.41.156-3.298 1.475H17C17.863 19.19 18.979 18 21.668 18h7.256v2.172h-3.02A30.666 30.666 0 0025.652 24c0 .88 0 1.836.152 2.483.153.646.482 1.267 1.244 1.267.558 0 1.243-.233 1.572-1.655z" fill="#333"/></svg>