<svg xmlns="http://www.w3.org/2000/svg" class="cel-icon cel-icon-stroke-width" viewBox="0 0 46 46"><path d="M25.64 26.813l.355.287c-2.042 2.377-2.695 2.874-3.784 2.874-.762 0-1.089-.314-1.089-1.071 0-.653.055-.862.626-3.005C19.706 28.851 18.128 30 16.222 30c-1.524 0-2.722-1.045-2.722-3.03 0-4.05 4.165-8.778 7.785-8.778 1.17 0 1.96.548 2.178 1.515l.3-1.254.081-.078 1.66-.183.191.078c-.054.235-.081.287-.163.549-1.28 4.467-2.423 8.96-2.423 9.483 0 .183.163.34.381.34.245 0 .6-.21 1.416-1.072l.735-.757zm-2.667-6.531c0-.915-.572-1.516-1.524-1.516-1.225 0-2.423.81-3.566 2.404-1.144 1.646-2.096 3.97-2.096 5.617 0 1.437.653 1.933 1.633 1.933 1.361 0 2.64-1.437 3.457-2.56 1.28-1.777 2.096-4.024 2.096-5.878zM28.716 18.975l1.824-5.773c.19-.627.408-1.202 1.198-1.202.517 0 .762.418.762.862 0 .366-.218.706-.381 1.019l-2.886 5.33-.517-.236z" fill="#333"/></svg>