<svg xmlns="http://www.w3.org/2000/svg" class="cel-icon cel-icon-stroke-width" viewBox="0 0 46 46"><path d="M10.55 21.971l2.526 1.475c1.555.912 2.137 1.544 2.137 2.878 0 1.569-1.554 2.926-3.4 2.926-.51 0-1.214-.023-1.773-.21-.583-.188-.85-.211-1.117-.211-.292 0-.437.046-.583.28h-.316v-3.674h.389c.51 2.27 1.409 3.3 3.085 3.3 1.238 0 2.015-.772 2.015-1.732 0-.725-.485-1.334-1.287-1.755l-1.311-.702C8.899 23.469 8 22.346 8 21.152c0-1.849 1.36-2.879 3.352-2.879.583 0 1.117.024 1.627.258.267.117.51.187.68.187.097 0 .194-.023.389-.234h.267l.121 3.183h-.364c-.559-2.106-1.287-2.879-2.744-2.879-1.045 0-1.822.492-1.822 1.592 0 .515.364 1.193 1.044 1.591zM26.11 25.178l.39.163c-.948 2.552-2.648 3.909-5.077 3.909-2.866 0-4.614-2.083-4.614-5.313 0-3.3 1.967-5.687 5.027-5.687 1.506 0 2.599.562 3.376 1.615.486.655.729 1.404.826 2.668h-7.48c.12 1.779.242 2.691 1.116 3.815.68.866 1.58 1.287 2.697 1.287 1.627 0 2.55-.725 3.74-2.457zm-7.504-3.394h4.955c-.268-1.896-.778-2.691-2.38-2.691-1.36 0-2.308.936-2.575 2.691zM36.66 25.365l.34.21c-.777 1.452-1.263 2.13-1.992 2.692-.825.655-1.748.983-2.793.983-2.696 0-4.614-2.177-4.614-5.196 0-1.942.728-3.557 2.04-4.61.971-.773 2.137-1.194 3.279-1.194 2.04 0 3.74 1.1 3.74 2.41 0 .539-.51.984-1.142.984-.534 0-.971-.398-1.165-1.077l-.146-.515c-.243-.866-.559-1.123-1.433-1.123-1.967 0-3.303 1.638-3.303 4.072 0 2.692 1.53 4.564 3.764 4.564 1.385 0 2.26-.562 3.425-2.2z" fill="#333"/></svg>