<svg xmlns="http://www.w3.org/2000/svg" class="cel-icon cel-icon-stroke-width" viewBox="0 0 46 46"><path d="M24.527 26.933l.336.276c-1.938 2.288-2.558 2.766-3.592 2.766-.724 0-1.034-.302-1.034-1.031 0-.629.052-.83.594-2.892C18.893 28.894 17.394 30 15.585 30 14.137 30 13 28.994 13 27.083c0-3.897 3.954-8.448 7.392-8.448 1.111 0 1.86.528 2.068 1.458l.284-1.206.078-.076 1.576-.176.181.075c-.052.227-.078.277-.155.529-1.215 4.3-2.3 8.624-2.3 9.127 0 .176.155.326.361.326.233 0 .57-.2 1.345-1.03l.697-.73zm-2.533-6.286c0-.88-.542-1.459-1.447-1.459-1.163 0-2.3.78-3.386 2.314-1.085 1.584-1.99 3.821-1.99 5.405 0 1.383.62 1.861 1.55 1.861 1.293 0 2.508-1.383 3.283-2.464 1.215-1.71 1.99-3.872 1.99-5.657zM27.068 14.532l-.355-.105c.406-.884.795-1.393 1.386-1.798.66-.45 1.386-.629 2.163-.629C31.885 12 33 13.109 33 14.532c0 1.004-.524 1.693-2.518 3.505l-3.177 2.877v.075h3.059c.997 0 1.335-.225 1.74-.974l.288.105-.845 2.007h-5.983v-.254l3.55-3.356c1.114-1.049 1.875-1.993 2.28-2.802.102-.194.153-.48.153-.809 0-1.033-.676-1.812-2.012-1.812-1.013 0-1.875.434-2.467 1.438z" fill="#333"/></svg>