<svg xmlns="http://www.w3.org/2000/svg" class="cel-icon cel-icon-stroke-width" viewBox="0 0 46 46"><path d="M24.15 26.486l.325.283C22.6 29.109 22 29.597 21 29.597c-.7 0-1-.308-1-1.054 0-.643.05-.849.575-2.957-1.875 2.905-3.325 4.037-5.075 4.037-1.4 0-2.5-1.029-2.5-2.983 0-3.986 3.825-8.64 7.15-8.64 1.075 0 1.8.54 2 1.491l.275-1.234.075-.077 1.525-.18.175.077c-.05.232-.075.283-.15.54-1.175 4.397-2.225 8.82-2.225 9.334 0 .18.15.335.35.335.225 0 .55-.206 1.3-1.055l.675-.745zm-2.45-6.429c0-.9-.525-1.491-1.4-1.491-1.125 0-2.225.797-3.275 2.365-1.05 1.62-1.925 3.909-1.925 5.529 0 1.414.6 1.903 1.5 1.903 1.25 0 2.425-1.414 3.175-2.52 1.175-1.749 1.925-3.96 1.925-5.786zM33.342 28.594h-.623v-.667h-.648v-.641h1.27v1.308zm-1.83-.667h-1.27v-.641h1.27v.64zm1.83 2.55h-.623V29.17h.623v1.309zm-3.66-2.55h-1.27v-.641h1.27v.64zm3.66 4.435h-.623v-1.309h.623v1.309zm0 1.883h-1.27v-.64h.647v-.668h.623v1.308zm-5.488-6.318h-.648v.667h-.623v-1.308h1.27v.64zm3.658 6.318h-1.27v-.64h1.27v.64zm-4.306-3.767h-.623v-1.309h.623v1.309zm2.477 3.767h-1.27v-.64h1.27v.64zm-2.477-1.883h-.623v-1.309h.623v1.309zm.648 1.883h-1.27v-1.308h.622v.667h.648v.641z" fill="#333"/></svg>