<svg xmlns="http://www.w3.org/2000/svg" class="cel-icon cel-icon-stroke-width" viewBox="0 0 46 46"><path d="M27.43 5.736h-.854v-.885h-.888V4h1.741v1.736zm-2.508-.885h-1.741V4h1.741v.85zm2.507 3.386h-.853V6.501h.853v1.736zm-5.014-3.386h-1.741V4h1.74v.85zm5.014 5.887h-.853V9h.853v1.737zm0 2.483h-1.74v-.851h.887v-.886h.853v1.737zm-7.521-8.37h-.888v.885h-.853V4h1.74v.85zm5.014 8.37h-1.741v-.851h1.741v.85zM19.02 8.237h-.853V6.501h.853v1.736zm3.395 4.984h-1.741v-.851h1.74v.85zm-3.395-2.483h-.853V9h.853v1.737zm.888 2.483h-1.741v-1.737h.853v.886h.888v.85zM38.75 20.638h-.853v-.885h-.888v-.851h1.741v1.736zm-2.507-.885h-1.741v-.851h1.74v.85zm2.507 3.386h-.853v-1.736h.853v1.736zm-5.014-3.386h-1.741v-.851h1.74v.85zm5.014 5.886h-.853v-1.736h.853v1.736zm0 2.484h-1.741v-.851h.888v-.886h.853v1.737zm-7.521-8.37h-.888v.885h-.854v-1.736h1.742v.85zm5.014 8.37h-1.741v-.851h1.74v.85zm-5.902-4.984h-.854v-1.736h.854v1.736zm3.395 4.984h-1.741v-.851h1.74v.85zm-3.395-2.484h-.854v-1.736h.854v1.736zm.888 2.484h-1.741v-1.737h.853v.886h.888v.85zM27.43 34.516h-.854v-.886h-.888v-.85h1.741v1.736zm-2.508-.886h-1.741v-.85h1.741v.85zm2.507 3.386h-.853V35.28h.853v1.736zm-5.014-3.386h-1.741v-.85h1.74v.85zm5.014 5.887h-.853V37.78h.853v1.736zm0 2.483h-1.74v-.85h.887v-.886h.853V42zm-7.521-8.37h-.888v.886h-.853v-1.737h1.74v.851zM24.922 42h-1.741v-.85h1.741V42zm-5.902-4.984h-.853V35.28h.853v1.736zM22.415 42h-1.741v-.85h1.74V42zm-3.395-2.483h-.853V37.78h.853v1.736zM19.908 42h-1.741v-1.736h.853v.885h.888V42zM27.667 26.613l-.842 5.095H15l6.222-8.69-5.825-8.726h11.857v4.277h-.476c-.333-2.3-.937-3.152-3.048-3.152h-5.08l4.604 6.663-5.333 7.396h6.571c1.778 0 2.35-1.159 2.698-2.863h.477z" fill="#333"/></svg>