<svg xmlns="http://www.w3.org/2000/svg" class="cel-icon cel-icon-stroke-width" viewBox="0 0 46 46"><path d="M29 16.363c0 4.232-1.542 7.994-3.443 10.58C23.887 29.19 22.087 30 20.289 30 18.208 30 17 28.276 17 25.506c0-5.616 2.904-10.24 5.704-12.409C23.835 12.235 24.813 12 25.84 12 27.664 12 29 13.254 29 16.363zm-8.916 4.284h5.987a19.73 19.73 0 00.77-5.355c0-1.672-.462-2.743-1.361-2.743-2.236 0-4.754 5.773-5.396 8.098zm5.807.836h-5.987c-.489 1.307-.746 2.665-.746 4.31 0 2.326.489 3.658 1.44 3.658 2.466 0 4.676-5.407 5.293-7.968z" fill="#333"/></svg>