<svg xmlns="http://www.w3.org/2000/svg" class="cel-icon cel-icon-stroke-width" viewBox="0 0 46 46"><path d="M31 12.053l-.95 5.263-.463-.08c-.308-2.815-1.566-4.289-3.826-4.289-1.9 0-3.698 1-5.11 2.553-1.85 2.026-2.775 5.026-2.775 7.921 0 3.684 1.644 5.395 4.495 5.395 2.106 0 3.647-.763 5.881-3.132l.462.395C26.403 28.869 24.348 30 21.704 30 17.773 30 15 27.474 15 23.132c0-3.71 1.977-7.158 4.803-9.21C21.446 12.71 23.398 12 25.427 12c.848 0 1.926.053 3.005.447.513.185.822.185 1.053.185.513 0 .77-.158.976-.58H31z" fill="#333"/></svg>