<svg xmlns="http://www.w3.org/2000/svg" class="cel-icon cel-icon-stroke-width" viewBox="0 0 46 46"><path d="M18.861 13h6.374C29.122 13 31 14.274 31 16.626c0 1.323-.714 2.671-1.798 3.504-1.217.931-3.068 1.397-5.422 1.397-1.11 0-1.692-.05-2.38-.196l-1.402 4.729c-.185.661-.37 1.176-.37 1.543 0 .564.397.858 1.825 1.005V29H15v-.392c1.507-.196 1.745-.417 2.221-2.01l3.068-10.143c.344-1.152.45-1.666.45-2.034 0-.661-.37-.857-1.878-1.029V13zm4.602 1.495l-1.825 6.003c.767.122.9.122 1.375.122 1.64 0 2.565-.147 3.385-.588 1.164-.612 1.878-1.69 1.878-3.283 0-2.18-1.27-3.014-3.438-3.014-.74 0-1.216.196-1.375.76z" fill="#333"/></svg>