<svg xmlns="http://www.w3.org/2000/svg" class="cel-icon cel-icon-stroke-width" viewBox="0 0 46 46"><path d="M18.705 13h6.711C29.148 13 31 14.25 31 16.675c0 1.323-.752 2.181-1.718 2.77-.832.514-1.826.734-2.98.955v.024c2.309.637 3.383 1.936 3.383 3.675 0 3.284-3.034 4.901-7.383 4.901H15v-.392c1.477-.196 1.772-.441 2.228-1.96l3.248-10.683c.188-.613.296-1.2.296-1.568 0-.71-.376-.883-2.067-1.005V13zm3.168 7.106h1.02c3.516 0 5.396-1.299 5.396-3.725 0-1.813-.967-2.646-3.141-2.646-1.047 0-1.316 0-1.584.882l-1.692 5.489zm-.269.784l-.859 2.915c-.537 1.863-.94 3.112-.94 3.43 0 .687.672 1.03 1.799 1.03 3.087 0 5.181-1.446 5.181-4.166 0-1.519-.778-2.597-1.798-2.915-.537-.172-1.692-.294-3.383-.294z" fill="#333"/></svg>