<svg xmlns="http://www.w3.org/2000/svg" class="cel-icon cel-icon-stroke-width" viewBox="0 0 46 46"><path d="M34 12v.416c-1.409.235-1.656.6-2.002 1.927l-3.04 11.533c-.174.65-.347 1.197-.347 1.614 0 .677.445 1.041 2.002 1.094L30.59 29h-6.7v-.416c1.608-.183 2.102-.625 2.522-2.24l3.115-11.949L20.232 29h-.42l-1.533-14.214-2.917 11.142c-.124.469-.223 1.12-.223 1.406 0 .729.47 1.145 1.73 1.25V29H12v-.416c1.285-.157 1.68-.573 2.472-3.49l2.818-10.439c.198-.702.297-1.145.297-1.353 0-.495-.594-.807-1.83-.886V12h4.475l1.384 12.809L29.896 12H34z" fill="#333"/></svg>