<svg xmlns="http://www.w3.org/2000/svg" class="cel-icon cel-icon-stroke-width" viewBox="0 0 46 46"><path d="M33 12v.416c-.664 0-1.276.391-2.046.964l-7.919 5.857 4.464 7.628c.824 1.406 1.09 1.562 2.764 1.719V29h-7.308v-.416l.77-.079c.825-.078 1.223-.39 1.223-.833 0-.546-.505-1.301-.983-2.134l-3.268-5.598-1.728 6.17c-.212.73-.292 1.042-.292 1.328 0 .807.425 1.015 1.887 1.146V29H14v-.416c1.594-.183 1.754-.47 2.152-1.849l3.296-11.585c.186-.65.372-1.197.372-1.614 0-.703-.452-1.041-2.1-1.12V12h7.175v.416c-1.382.105-2.232.47-2.63 1.927l-1.41 5.05 4.067-2.837c2.365-1.64 3.8-2.942 3.8-3.567 0-.286-.32-.416-.957-.494l-.638-.079V12H33z" fill="#333"/></svg>