<svg xmlns="http://www.w3.org/2000/svg" class="cel-icon cel-icon-stroke-width" viewBox="0 0 46 46"><path d="M33 13v.392c-1.394.245-1.663.392-2.054 1.813l-3.228 11.786a2.421 2.421 0 00-.073.588c0 .686.342.857 1.932 1.029V29h-6.7v-.392c1.736-.123 2.176-.686 2.494-1.887l1.565-5.709h-6.97l-1.613 5.979a2.045 2.045 0 00-.074.539c0 .71.245.882 1.712 1.078V29H14v-.392c1.37-.147 1.663-.515 2.103-2.107l2.885-10.536c.172-.662.294-1.2.294-1.568 0-.71-.343-.858-1.883-1.005V13h6.627v.392c-1.467.098-2.128.564-2.446 1.74l-1.32 4.851h6.97l1.124-4.018c.171-.637.342-1.152.342-1.544 0-.588-.391-.931-1.76-1.029V13H33z" fill="#333"/></svg>