<svg xmlns="http://www.w3.org/2000/svg" class="cel-icon cel-icon-stroke-width" viewBox="0 0 46 46"><path d="M30 13v.392c-.68.245-.867.49-1.64 1.495l-5.13 6.615-.843 3.014c-.538 1.936-.702 2.597-.702 3.112 0 .612.328.833 1.241.907l.843.073V29H17v-.392c1.546-.098 2.085-.417 2.506-1.985l1.382-5.023-1.78-6.542c-.351-1.274-.492-1.47-1.803-1.666V13h5.598v.392c-1.406.147-1.687.343-1.687.882 0 .368.281 1.446.843 3.528l.727 2.696.913-1.127c2.46-3.039 3.49-4.558 3.49-5.22 0-.416-.258-.612-.937-.685l-.679-.074V13H30z" fill="#333"/></svg>