<svg xmlns="http://www.w3.org/2000/svg" class="cel-icon cel-icon-stroke-width" viewBox="0 0 46 46"><path d="M34 13v.405c-1.001.304-1.265.507-2.029 1.9L24.041 30h-.527l-1.318-11.477h-.131L16.215 30h-.5l-1.607-13.022c-.29-2.382-.395-2.813-.764-3.193-.237-.228-.5-.278-1.344-.38V13h6.192v.405c-1.344.127-1.897.33-1.897 1.293 0 .126 0 .329.026.506l1.16 10.236 4.531-8.817-.21-1.647c-.159-1.292-.449-1.52-1.977-1.57V13h6.218v.405c-1.344.127-1.791.406-1.791 1.216 0 .152.052.304.052.38l1.054 10.439 4.953-9.248c.343-.633.606-1.241.606-1.723 0-.633-.448-1.038-1.765-1.064V13H34z" fill="#333"/></svg>