<svg xmlns="http://www.w3.org/2000/svg" class="cel-icon cel-icon-stroke-width" viewBox="0 0 46 46"><path d="M17.534 13h7.042C29.026 13 32 15.303 32 19.591c0 3.038-1.576 5.513-4.068 7.375C26.076 28.363 23.51 29 20.534 29H14v-.392c1.424-.245 1.678-.417 2.085-1.862l3.101-10.904c.178-.612.28-1.078.28-1.445 0-.662-.381-.956-1.932-1.005V13zm4.55 1.69l-3 10.34c-.431 1.52-.559 2.01-.559 2.328 0 .637.56.907 1.73.907 2.567 0 4.55-.735 6.126-2.205 1.805-1.69 2.797-4.582 2.797-7.057 0-1.96-.737-3.504-1.983-4.41-.788-.564-1.856-.858-3.33-.858-.967 0-1.526.098-1.78.956z" fill="#333"/></svg>