<svg xmlns="http://www.w3.org/2000/svg" class="cel-icon cel-icon-stroke-width" viewBox="0 0 46 46"><path d="M32 13v.392c-1.132.343-1.974.907-3.29 2.328l-4.447 4.753 2.658 6.248c.632 1.47.974 1.69 2.763 1.887V29h-7.131v-.392c1.579-.024 2.026-.319 2.026-.907 0-.318-.158-.76-.369-1.25l-1.763-4.042-3.973 4.214c-.369.392-.606.833-.606 1.176 0 .54.474.809 1.737.809V29H14v-.392c1.474-.245 2.184-.98 5.79-4.9l2.184-2.377-2.71-6.248c-.5-1.176-.974-1.569-2.5-1.691V13h6.92v.392c-1.447.172-1.868.392-1.868 1.005 0 .318.131.71.42 1.372l1.553 3.602 3.816-4.092c.369-.392.553-.76.553-1.054 0-.465-.474-.784-1.605-.833V13H32z" fill="#333"/></svg>