<svg xmlns="http://www.w3.org/2000/svg" class="cel-icon cel-icon-stroke-width" viewBox="0 0 46 46"><path d="M30 12l-1.06 5.256-.476-.08c0-2.68-.582-4.283-3.15-4.283-1.827 0-2.966.973-2.966 2.628 0 1.288.212 1.708 2.621 4.1 2.41 2.417 2.992 3.547 2.992 5.255 0 2.995-2.303 5.124-5.348 5.124-.82 0-1.536-.184-2.753-.604-.715-.263-.954-.316-1.245-.316-.53 0-.953.237-1.138.841H17l.9-5.886.53.053c-.053.236-.053.42-.053.604 0 2.575 1.588 4.388 3.812 4.388 2.04 0 3.469-1.366 3.469-3.363 0-1.13-.37-1.918-1.589-3.232l-1.032-1.104c-.371-.394-.689-.762-1.033-1.104-1.588-1.681-1.986-2.522-1.986-3.941 0-2.76 2.171-4.31 4.713-4.31.82 0 1.695.132 2.25.368.557.21.874.29 1.219.29.582 0 .82-.132 1.191-.684H30z" fill="#333"/></svg>