<svg xmlns="http://www.w3.org/2000/svg" class="cel-icon cel-icon-stroke-width" viewBox="0 0 46 46"><path d="M19.619 13h6.29C29.203 13 31 14.372 31 16.455c0 1.176-.624 2.377-1.647 3.136-.774.588-1.598.882-3.27 1.25l2.222 5.758c.549 1.445 1.048 2.009 2.17 2.009V29h-3.668l-3.07-7.939-1.647-.122-1.373 4.974c-.274.955-.324 1.298-.324 1.543 0 .735.25 1.005 1.672 1.152V29H16v-.392c1.373-.172 1.722-.637 2.122-2.083l2.97-10.56c.174-.662.299-1.127.299-1.544a.928.928 0 00-.35-.686c-.274-.171-.374-.196-1.422-.343V13zm4.343 1.47l-1.573 5.562c.624.098.824.123 1.273.123 2.97 0 4.717-1.397 4.717-3.676 0-1.69-1.048-2.744-2.995-2.744-.773 0-1.297.27-1.422.735z" fill="#333"/></svg>