<svg xmlns="http://www.w3.org/2000/svg" viewBox="0 0 88 29"><path d="M25.398 11.314l3.302 8.6h2.862L27.008 8.649h-3.222l-4.552 11.267h7.184l-.896-2.343h-2.526l2.402-6.258zM62.304 11.314l-3.3 8.6h-2.862l4.552-11.266h3.222l4.553 11.267h-7.185l.897-2.343h2.526l-2.402-6.258zM31.163 8.648l4.552 11.267h3.223L43.49 8.648h-2.86l-3.303 8.6-3.302-8.6h-2.862zM44.211 8.648l4.553 11.267h3.223L56.54 8.648h-2.862l-3.302 8.6-3.302-8.6h-2.862zM14.118 13.136l-.591-.09c-1.379-.214-2.363-.411-2.363-1.107 0-.697.806-1.096 1.987-1.096a6.539 6.539 0 013.321.96l.917-2.271a8.782 8.782 0 00-4.346-1.082c-2.738 0-4.707 1.45-4.707 3.703 0 1.931 1.468 2.986 3.687 3.286l.609.09c1.504.214 2.363.445 2.363 1.107 0 .734-.86 1.11-1.988 1.11a6.46 6.46 0 01-3.766-1.193l-.94 2.348c1.253.81 2.974 1.225 4.68 1.225 2.504 0 4.885-1.145 4.885-3.774-.008-1.82-1.529-2.84-3.748-3.216zM75.964 13.136l-.59-.09c-1.378-.214-2.362-.411-2.362-1.107 0-.697.805-1.096 1.987-1.096a6.54 6.54 0 013.32.96l.918-2.271A8.785 8.785 0 0074.89 8.45c-2.739 0-4.707 1.45-4.707 3.703 0 1.931 1.468 2.986 3.687 3.286l.608.09c1.504.214 2.363.445 2.363 1.107 0 .734-.859 1.11-1.987 1.11a6.456 6.456 0 01-3.767-1.193l-.939 2.348c1.252.81 2.974 1.225 4.678 1.225 2.504 0 4.887-1.145 4.887-3.774-.008-1.82-1.529-2.84-3.75-3.216z" fill="#6F777B"/></svg>