<svg xmlns="http://www.w3.org/2000/svg" class="cel-icon cel-icon-stroke-width" viewBox="0 0 32 32"><path d="M29.333 0H2.667A2.667 2.667 0 000 2.667v26.666A2.667 2.667 0 002.667 32h26.666A2.667 2.667 0 0032 29.333V2.667A2.667 2.667 0 0029.333 0z" fill="#00A2AD"/><path fill-rule="evenodd" clip-rule="evenodd" d="M22.207 13.784a.21.21 0 00-.278.197v1.769a.417.417 0 01-.834 0v-2.083a1.35 1.35 0 00-1.246-.834h-.213a.208.208 0 00-.209.209v1.875a.417.417 0 01-.833 0v-2.084A1.35 1.35 0 0017.348 12h-.213a.208.208 0 00-.208.208v2.709a.417.417 0 01-.834 0v-6.25a1.666 1.666 0 10-3.333 0v9.231a.208.208 0 01-.377.121h-.001l-1.394-1.957a1.653 1.653 0 00-2.69 1.921l-.004-.005 4.96 7c.152.215.4.354.68.354h7.261a.835.835 0 00.8-.598l.002-.006 1.265-4.41c.21-.72.331-1.546.333-2.401v-2.17c0-.901-.572-1.669-1.374-1.959l-.014-.005v.001z" fill="#fff"/></svg>