<svg xmlns="http://www.w3.org/2000/svg" viewBox="0 0 50 40"><mask id="a" style="mask-type:luminance" maskUnits="userSpaceOnUse" x="0" y="0" width="50" height="40"><path d="M50 0H0v40h50V0z" fill="#fff"/></mask><g mask="url(#a)"><mask id="b" style="mask-type:luminance" maskUnits="userSpaceOnUse" x="5" y="0" width="40" height="40"><path d="M45 0v40H9.167a4.256 4.256 0 01-2.947-1.172A3.92 3.92 0 015 36V4a3.92 3.92 0 011.22-2.828A4.256 4.256 0 019.167 0H45z" fill="#fff"/></mask><g mask="url(#b)"><path d="M9.167 40a6.384 6.384 0 01-4.42-1.757A5.88 5.88 0 012.917 34V6a5.88 5.88 0 011.83-4.243A6.385 6.385 0 019.167 0C8.016 0 7.083 1.79 7.083 4v32c0 2.21.933 4 2.084 4z" fill="#00A2AD"/></g><mask id="c" style="mask-type:luminance" maskUnits="userSpaceOnUse" x="0" y="0" width="40" height="40"><path d="M40 0v40H4.167a4.256 4.256 0 01-2.947-1.172A3.92 3.92 0 010 36V4a3.92 3.92 0 011.22-2.828A4.256 4.256 0 014.167 0H40z" fill="#fff"/></mask><g mask="url(#c)"><path d="M4.167 40a6.384 6.384 0 01-4.42-1.757A5.88 5.88 0 01-2.083 34V6a5.88 5.88 0 011.83-4.243A6.385 6.385 0 014.167 0C3.016 0 2.083 1.79 2.083 4v32c0 2.21.933 4 2.084 4z" fill="#00A2AD"/></g><path d="M45.833 0H14.167C11.866 0 10 1.79 10 4v32c0 2.21 1.866 4 4.167 4h31.666C48.135 40 50 38.21 50 36V4c0-2.21-1.865-4-4.167-4z" fill="#00A2AD"/><path fill-rule="evenodd" clip-rule="evenodd" d="M37.38 16.08c-.03-.01-.05-.01-.08-.01-.14 0-.25.12-.25.26v2.21c0 .29-.22.52-.5.52s-.5-.23-.5-.52v-2.6c-.25-.62-.83-1.04-1.5-1.04h-.26c-.14 0-.25.12-.25.26v2.34c0 .29-.22.52-.5.52s-.5-.23-.5-.52v-2.6c-.25-.62-.83-1.04-1.5-1.04h-.26c-.14 0-.25.12-.25.26v3.39c0 .29-.22.52-.5.52s-.5-.23-.5-.52V9.7c0-1.15-.9-2.08-2.01-2.08-1.11 0-2.01.93-2.01 2.08v11.54c0 .14-.11.26-.25.26a.23.23 0 01-.2-.11l-1.68-2.45c-.37-.52-.95-.85-1.61-.85-1.1 0-1.99.93-1.99 2.07 0 .44.13.85.36 1.18v-.01l5.97 8.75c.18.27.48.44.82.44h8.74c.46 0 .84-.32.96-.75v-.01l1.52-5.51c.25-.9.4-1.93.4-3v-2.71c0-1.13-.69-2.09-1.65-2.45l-.02-.01z" fill="#fff"/></g></svg>