<svg xmlns="http://www.w3.org/2000/svg" class="cel-icon cel-icon-stroke-width" viewBox="0 0 48 48"><path d="M44 0H4a4 4 0 00-4 4v40a4 4 0 004 4h40a4 4 0 004-4V4a4 4 0 00-4-4z" fill="#00A2AD"/><path fill-rule="evenodd" clip-rule="evenodd" d="M33.31 20.676a.315.315 0 00-.418.295v2.654a.625.625 0 01-1.25 0V20.5a2.025 2.025 0 00-1.868-1.25h-.32a.313.313 0 00-.313.313v2.812a.625.625 0 01-1.25 0V19.25A2.025 2.025 0 0026.023 18h-.321a.313.313 0 00-.312.313v4.062a.625.625 0 01-1.25 0V13a2.5 2.5 0 10-5 0v13.848a.313.313 0 01-.566.18h-.002l-2.09-2.935a2.48 2.48 0 00-4.036 2.882l-.005-.008 7.439 10.5c.229.323.6.53 1.02.532h10.893c.568 0 1.048-.379 1.2-.898l.003-.008 1.896-6.616c.316-1.08.498-2.32.5-3.602v-3.254a3.125 3.125 0 00-2.06-2.938l-.022-.008v.001z" fill="#fff"/></svg>