<svg xmlns="http://www.w3.org/2000/svg" class="cel-icon cel-icon-stroke-width" viewBox="0 0 44 44"><rect width="44" height="44" rx="8" fill="#04A3B9"/><path fill-rule="evenodd" clip-rule="evenodd" d="M31.315 11.1l.895.894h-.005a4.78 4.78 0 011.406 3.393 4.782 4.782 0 01-1.406 3.395l-5.815 5.815A4.747 4.747 0 0123.013 26h-.033a4.75 4.75 0 01-3.377-1.404 1.003 1.003 0 111.42-1.416A2.765 2.765 0 0022.99 24h.014c.77 0 1.466-.313 1.969-.819l5.815-5.815c.506-.505.82-1.204.82-1.976s-.314-1.47-.82-1.976l-.895-.896a2.787 2.787 0 00-1.977-.817c-.771 0-1.47.312-1.976.818l-2.907 2.907a1.003 1.003 0 01-1.418-1.418l2.913-2.907c.87-.865 2.07-1.4 3.394-1.4 1.324 0 2.523.535 3.393 1.4zM17.366 30.79l2.744-2.743.003-.004a1.003 1.003 0 011.418 1.419l-2.743 2.742a4.78 4.78 0 01-3.394 1.406 4.782 4.782 0 01-3.395-1.406l-.894-.894a4.785 4.785 0 01-1.406-3.393c0-1.326.538-2.526 1.406-3.394l5.815-5.815a4.79 4.79 0 013.395-1.405c1.324 0 2.524.536 3.394 1.405l.895.894a1.006 1.006 0 11-1.422 1.422l-.895-.895a2.788 2.788 0 00-1.976-.818c-.772 0-1.47.313-1.976.818l-5.816 5.815a2.788 2.788 0 00-.818 1.977c0 .771.313 1.47.819 1.976l.893.892a2.85 2.85 0 001.977.793 2.85 2.85 0 001.976-.792z" fill="#fff"/></svg>