<svg xmlns="http://www.w3.org/2000/svg" viewBox="0 0 48 40"><mask id="a" fill="#fff"><path d="M43.2 0v40H8.8a4 4 0 01-4-4V4a4 4 0 014-4h34.4z"/></mask><path d="M43.2 0v40V0zM8.8 40a6 6 0 01-6-6V6a6 6 0 016-6c-1.105 0-2 1.79-2 4v32c0 2.21.895 4 2 4zm-4-40h38.4H4.8zm38.4 40H4.8h38.4z" fill="#D9222B" mask="url(#a)"/><mask id="b" fill="#fff"><path d="M38.4 0v40H4a4 4 0 01-4-4V4a4 4 0 014-4h34.4z"/></mask><path d="M38.4 0v40V0zM4 40a6 6 0 01-6-6V6a6 6 0 016-6C2.895 0 2 1.79 2 4v32c0 2.21.895 4 2 4zM0 0h38.4H0zm38.4 40H0h38.4z" fill="#D9222B" mask="url(#b)"/><rect x="9.6" width="38.4" height="40" rx="4" fill="#D9222B"/><path fill-rule="evenodd" clip-rule="evenodd" d="M38.5 8.853a.97.97 0 01.627.23l.002.001.001.002c.226.19.37.482.37.809 0 .248-.083.477-.222.654l-10 12.917-.001.002a.995.995 0 01-.779.38.988.988 0 01-.706-.3l-4-4.166a1.062 1.062 0 01-.293-.737c0-.575.448-1.042 1-1.042.276 0 .527.117.707.305l3.214 3.348 9.3-12.014.002-.002a.981.981 0 01.778-.387zm-3.6 10.209c0-.46.358-.834.8-.834.44 0 .8.374.8.834v7.916c0 .921-.717 1.667-1.6 1.667H22.1c-.885 0-1.6-.746-1.6-1.667V13.645c0-.92.715-1.667 1.6-1.667h9.2c.44 0 .8.374.8.834 0 .46-.36.833-.8.833h-9c-.111 0-.2.093-.2.208V26.77c0 .115.089.208.2.208h12.4c.11 0 .2-.093.2-.208v-7.708z" fill="#fff"/></svg>