<svg xmlns="http://www.w3.org/2000/svg" class="cel-icon cel-icon-stroke-width" viewBox="0 0 32 32"><path d="M29.333 0H2.667A2.667 2.667 0 000 2.667v26.666A2.667 2.667 0 002.667 32h26.666A2.667 2.667 0 0032 29.333V2.667A2.667 2.667 0 0029.333 0z" fill="#E7F0F8"/><path fill-rule="evenodd" clip-rule="evenodd" d="M24.083 7.082c.2 0 .382.07.523.185h.001l.002.002a.832.832 0 01.123 1.17L16.4 18.773l-.002.001a.842.842 0 01-1.237.065l-3.333-3.334a.834.834 0 011.179-1.179l2.677 2.679 7.751-9.612.001-.001a.83.83 0 01.648-.31zm-3 8.167a.667.667 0 011.333 0v6.334c0 .736-.597 1.333-1.333 1.333H10.416a1.333 1.333 0 01-1.333-1.333V10.916c0-.737.596-1.333 1.333-1.333h7.667a.667.667 0 010 1.333h-7.5a.167.167 0 00-.167.167v10.333c0 .092.075.167.167.167h10.333a.167.167 0 00.167-.167v-6.167z" fill="#2A6BD8"/></svg>