<svg xmlns="http://www.w3.org/2000/svg" class="cel-icon cel-icon-stroke-width" viewBox="0 0 56 56"><path d="M51.333 0H4.667A4.667 4.667 0 000 4.667v46.666A4.667 4.667 0 004.667 56h46.666A4.667 4.667 0 0056 51.333V4.667A4.667 4.667 0 0051.333 0z" fill="#2150A3"/><path fill-rule="evenodd" clip-rule="evenodd" d="M40.624 18.783a.585.585 0 01-.393-.552v-.148a2.333 2.333 0 00-2.333-2.333h-6.38a4.903 4.903 0 00-3.15.957l.015-.01a.579.579 0 01-.728 0 4.891 4.891 0 00-3.146-.945h.012-6.417a2.333 2.333 0 00-2.333 2.334v.152c0 .255-.162.47-.389.551l-.003.001a2.037 2.037 0 00-1.375 1.92v15.167a2.044 2.044 0 002.041 2.042h7.292c1.895 0 3.5.505 3.5 1.167a1.167 1.167 0 002.333 0c0-.66 1.617-1.167 3.536-1.167h7.256a2.044 2.044 0 002.041-2.042V20.711v-.002c0-.887-.568-1.642-1.361-1.92l-.014-.005h-.004zm-13.79 1.839V34.06a.585.585 0 01-.746.562l.005.001a5.65 5.65 0 00-1.53-.205h-.048.002-5.851a.584.584 0 01-.584-.584V18.668c0-.322.261-.584.584-.584h5.851c2.326 0 2.315 1.376 2.315 2.54l.001-.002zm4.685-2.539h5.796c.322 0 .583.262.583.584v15.166a.584.584 0 01-.583.584H31.473c-.556 0-1.095.077-1.605.221l.042-.01a.583.583 0 01-.742-.561V20.622c0-1.217.126-2.539 2.35-2.539z" fill="#fff"/></svg>