<svg xmlns="http://www.w3.org/2000/svg" viewBox="0 0 50 40"><mask id="a" style="mask-type:luminance" maskUnits="userSpaceOnUse" x="0" y="0" width="50" height="40"><path d="M50 0H0v40h50V0z" fill="#fff"/></mask><g mask="url(#a)"><mask id="b" style="mask-type:luminance" maskUnits="userSpaceOnUse" x="5" y="0" width="40" height="40"><path d="M45 0v40H9.167a4.256 4.256 0 01-2.947-1.172A3.92 3.92 0 015 36V4a3.92 3.92 0 011.22-2.828A4.256 4.256 0 019.167 0H45z" fill="#fff"/></mask><g mask="url(#b)"><path d="M9.167 40a6.384 6.384 0 01-4.42-1.757A5.88 5.88 0 012.917 34V6a5.88 5.88 0 011.83-4.243A6.385 6.385 0 019.167 0C8.016 0 7.083 1.79 7.083 4v32c0 2.21.933 4 2.084 4z" fill="#2150A3"/></g><mask id="c" style="mask-type:luminance" maskUnits="userSpaceOnUse" x="0" y="0" width="40" height="40"><path d="M40 0v40H4.167a4.256 4.256 0 01-2.947-1.172A3.92 3.92 0 010 36V4a3.92 3.92 0 011.22-2.828A4.256 4.256 0 014.167 0H40z" fill="#fff"/></mask><g mask="url(#c)"><path d="M4.167 40a6.384 6.384 0 01-4.42-1.757A5.88 5.88 0 01-2.083 34V6a5.88 5.88 0 011.83-4.243A6.385 6.385 0 014.167 0C3.016 0 2.083 1.79 2.083 4v32c0 2.21.933 4 2.084 4z" fill="#2150A3"/></g><path d="M45.833 0H14.167C11.866 0 10 1.79 10 4v32c0 2.21 1.866 4 4.167 4h31.666C48.135 40 50 38.21 50 36V4c0-2.21-1.865-4-4.167-4z" fill="#2150A3"/><path fill-rule="evenodd" clip-rule="evenodd" d="M39.02 13.17a.408.408 0 01-.28-.39v-.11c0-.92-.75-1.67-1.67-1.67h-4.72c-.78 0-1.5.25-2.09.69l.01-.01c-.07.06-.16.09-.26.09s-.19-.03-.26-.09c-.57-.42-1.3-.68-2.08-.68h-.17.01-4.58c-.92 0-1.67.75-1.67 1.67v.11c0 .18-.12.34-.28.39-.58.2-.98.74-.98 1.37v10.83c0 .81.65 1.46 1.46 1.46h5.21c1.35 0 2.5.36 2.5.83 0 .46.37.83.83.83.46 0 .83-.37.83-.83 0-.47 1.15-.83 2.53-.83h5.18c.81 0 1.46-.65 1.46-1.46V14.54c0-.63-.41-1.17-.97-1.37h-.01zm-9.85 1.31v9.6c0 .23-.19.42-.42.42-.04 0-.08-.01-.12-.02-.33-.09-.7-.15-1.09-.15h-4.21c-.23 0-.42-.19-.42-.42V13.08c0-.23.19-.42.42-.42h4.18c1.66.01 1.65.99 1.66 1.82zm3.34-1.81h4.14c.23 0 .42.19.42.42v10.83c0 .23-.19.42-.42.42h-4.17c-.4 0-.78.06-1.15.16l.03-.01a.36.36 0 01-.11.02c-.23 0-.42-.19-.42-.42v-9.6c0-.88.09-1.82 1.68-1.82z" fill="#fff"/></g></svg>