<svg xmlns="http://www.w3.org/2000/svg" class="cel-icon cel-icon-stroke-width" viewBox="0 0 48 48"><path d="M44 0H4a4 4 0 00-4 4v40a4 4 0 004 4h40a4 4 0 004-4V4a4 4 0 00-4-4z" fill="#3D4149"/><path fill-rule="evenodd" clip-rule="evenodd" d="M20.109 17.574l.146.007a1.532 1.532 0 011.352 1.22l.284 1.422a.51.51 0 00.499.407h12.085c.474 0 .896.217 1.178.56l.086.114a1.522 1.522 0 01.23 1.16L33.932 32.65l-.002.01a1.528 1.528 0 01-1.495 1.212H16.177l-.146-.007a1.53 1.53 0 01-1.352-1.215l-2.646-13.232a1.528 1.528 0 011.495-1.844h6.581zM32.373 13.5l.152.006a2.037 2.037 0 011.885 2.031v3.056l-.007.119a1.019 1.019 0 01-2.03-.12v-2.545l-.008-.092a.51.51 0 00-.502-.418H16.302a.268.268 0 00-.247.226 1.02 1.02 0 01-2.017-.226l.006-.152a2.037 2.037 0 012.031-1.885h16.298z" fill="#fff"/></svg>