<svg xmlns="http://www.w3.org/2000/svg" class="cel-icon cel-icon-stroke-width" viewBox="0 0 32 32"><path d="M29.333 0H2.667A2.667 2.667 0 000 2.667v26.666A2.667 2.667 0 002.667 32h26.666A2.667 2.667 0 0032 29.333V2.667A2.667 2.667 0 0029.333 0z" fill="#3D4149"/><path fill-rule="evenodd" clip-rule="evenodd" d="M13.406 11.716l.097.005c.448.042.812.375.902.813l.189.948a.34.34 0 00.332.271h8.057c.316 0 .598.145.785.373l.058.077a1.014 1.014 0 01.154.773l-1.358 6.79-.002.007a1.019 1.019 0 01-.997.808H10.784l-.097-.004a1.02 1.02 0 01-.901-.81l-1.764-8.822a1.019 1.019 0 01.997-1.229h4.387zM21.582 9l.101.004a1.358 1.358 0 011.257 1.354v2.037l-.005.08a.68.68 0 01-1.353-.08v-1.697l-.006-.061a.34.34 0 00-.334-.279H10.868a.179.179 0 00-.165.15.68.68 0 01-1.344-.15l.004-.101A1.358 1.358 0 0110.717 9h10.865z" fill="#fff"/></svg>