<svg xmlns="http://www.w3.org/2000/svg" class="cel-icon cel-icon-stroke-width" viewBox="0 0 32 32"><path d="M29.333 0H2.667A2.667 2.667 0 000 2.667v26.666A2.667 2.667 0 002.667 32h26.666A2.667 2.667 0 0032 29.333V2.667A2.667 2.667 0 0029.333 0z" fill="#767676"/><path fill-rule="evenodd" clip-rule="evenodd" d="M18.057 8c.184 0 .351.075.472.195l3.609 3.61c.12.12.195.287.195.471v10.39l-.003.1A1.333 1.333 0 0121 24H10.333l-.1-.004A1.333 1.333 0 019 22.666V9.334l.004-.1C9.054 8.544 9.63 8 10.334 8h7.723zm-.414 1.333h-6.976l-.06.006a.334.334 0 00-.274.328v12.666l.006.06a.334.334 0 00.328.274h10l.06-.006a.334.334 0 00.273-.328V12.69l-.004-.054a.333.333 0 00-.093-.181L17.879 9.43a.332.332 0 00-.236-.098zm-2.31 10a.667.667 0 010 1.334h-3a.667.667 0 01-.077-1.33l.077-.004h3zm3-2.666a.667.667 0 010 1.333h-6a.667.667 0 01-.077-1.329l.077-.004h6zm0-2.667a.667.667 0 010 1.333h-6a.667.667 0 01-.077-1.329l.077-.004h6z" fill="#fff"/></svg>