<svg xmlns="http://www.w3.org/2000/svg" class="cel-icon cel-icon-stroke-width" viewBox="0 0 48 48"><path d="M44 0H4a4 4 0 00-4 4v40a4 4 0 004 4h40a4 4 0 004-4V4a4 4 0 00-4-4z" fill="#767676"/><path fill-rule="evenodd" clip-rule="evenodd" d="M27.086 12c.276 0 .526.112.707.293l5.414 5.414a.997.997 0 01.293.707V34l-.005.15A2 2 0 0131.5 36h-16l-.15-.005A2 2 0 0113.5 34V14l.005-.15A2 2 0 0115.5 12h11.586zm-.621 2H16l-.09.008a.5.5 0 00-.41.492v19l.008.09A.5.5 0 0016 34h15l.09-.008a.5.5 0 00.41-.492V19.035l-.006-.081a.499.499 0 00-.14-.272l-4.536-4.536a.498.498 0 00-.353-.146zM23 29a1 1 0 010 2h-4.5a1 1 0 01-.117-1.993L18.5 29H23zm4.5-4a1 1 0 010 2h-9a1 1 0 01-.117-1.993L18.5 25h9zm0-4a1 1 0 010 2h-9a1 1 0 01-.117-1.993L18.5 21h9z" fill="#fff"/></svg>