<svg xmlns="http://www.w3.org/2000/svg" class="cel-icon cel-icon-stroke-width" viewBox="0 0 56 56"><path d="M51.333 0H4.667A4.667 4.667 0 000 4.667v46.666A4.667 4.667 0 004.667 56h46.666A4.667 4.667 0 0056 51.333V4.667A4.667 4.667 0 0051.333 0z" fill="#767676"/><path fill-rule="evenodd" clip-rule="evenodd" d="M31.6 14c.322 0 .614.13.825.342l6.317 6.316c.21.211.341.503.341.825v18.184l-.006.174A2.333 2.333 0 0136.75 42H18.083l-.174-.006a2.333 2.333 0 01-2.159-2.327V16.333l.006-.174A2.333 2.333 0 0118.083 14H31.6zm-.724 2.333h-12.21l-.104.01a.584.584 0 00-.479.574v22.166l.01.105c.05.272.288.479.574.479h17.5l.104-.01a.584.584 0 00.479-.574V22.208l-.008-.095a.582.582 0 00-.162-.317l-5.292-5.292a.581.581 0 00-.412-.17zm-4.043 17.5a1.167 1.167 0 010 2.334h-5.25a1.167 1.167 0 01-.136-2.326l.136-.008h5.25zm5.25-4.666a1.167 1.167 0 010 2.333h-10.5a1.167 1.167 0 01-.136-2.326l.136-.007h10.5zm0-4.667a1.167 1.167 0 010 2.333h-10.5a1.167 1.167 0 01-.136-2.325l.136-.008h10.5z" fill="#fff"/></svg>