<svg xmlns="http://www.w3.org/2000/svg" class="cel-icon cel-icon-stroke-width" viewBox="0 0 32 32"><path d="M29.333 0H2.667A2.667 2.667 0 000 2.667v26.666A2.667 2.667 0 002.667 32h26.666A2.667 2.667 0 0032 29.333V2.667A2.667 2.667 0 0029.333 0z" fill="#699F00"/><path fill-rule="evenodd" clip-rule="evenodd" d="M21 10.42H11c-1.657 0-3 1.362-3 3.043v6.711a1.402 1.402 0 001.4 1.407h.02c1.299-.017 1.498-.406 2.794-2.95l.482-.942c.3-.52.85-.841 1.444-.842h3.72c.585 0 1.128.311 1.43.821.213.415.4.785.568 1.114 1.204 2.37 1.421 2.8 2.715 2.8a1.41 1.41 0 001.01-.423c.266-.266.417-.631.417-1.011v-6.683c0-1.682-1.343-3.044-3-3.044v-.002zm-8.167 4.058h-.5a.336.336 0 00-.333.338v.507c0 .28-.224.508-.5.508a.504.504 0 01-.5-.508v-.507a.336.336 0 00-.333-.338h-.5a.504.504 0 01-.5-.507c0-.28.224-.508.5-.508h.5a.336.336 0 00.333-.338v-.507c0-.28.224-.507.5-.507s.5.227.5.507v.507c0 .187.15.338.333.338h.5c.276 0 .5.228.5.508s-.224.507-.5.507zm5.834 0a.672.672 0 01-.667-.677c0-.374.299-.676.667-.676.368 0 .666.302.666.676a.672.672 0 01-.666.677zm1.666 1.353a.672.672 0 01-.666-.677c0-.374.298-.677.666-.677.368 0 .667.303.667.677a.672.672 0 01-.667.677zm0-2.706a.672.672 0 01-.666-.676c0-.374.298-.677.666-.677.368 0 .667.303.667.677a.672.672 0 01-.667.676zM22 14.478a.672.672 0 01-.667-.677c0-.374.299-.676.667-.676.368 0 .667.302.667.676a.672.672 0 01-.667.677z" fill="#fff"/></svg>