<svg xmlns="http://www.w3.org/2000/svg" viewBox="0 0 50 40"><mask id="a" style="mask-type:luminance" maskUnits="userSpaceOnUse" x="0" y="0" width="50" height="40"><path d="M50 0H0v40h50V0z" fill="#fff"/></mask><g mask="url(#a)"><mask id="b" style="mask-type:luminance" maskUnits="userSpaceOnUse" x="5" y="0" width="40" height="40"><path d="M45 0v40H9.167a4.256 4.256 0 01-2.947-1.172A3.92 3.92 0 015 36V4a3.92 3.92 0 011.22-2.828A4.256 4.256 0 019.167 0H45z" fill="#fff"/></mask><g mask="url(#b)"><path d="M9.167 40a6.384 6.384 0 01-4.42-1.757A5.88 5.88 0 012.917 34V6a5.88 5.88 0 011.83-4.243A6.385 6.385 0 019.167 0C8.016 0 7.083 1.79 7.083 4v32c0 2.21.933 4 2.084 4z" fill="#699F00"/></g><mask id="c" style="mask-type:luminance" maskUnits="userSpaceOnUse" x="0" y="0" width="40" height="40"><path d="M40 0v40H4.167a4.256 4.256 0 01-2.947-1.172A3.92 3.92 0 010 36V4a3.92 3.92 0 011.22-2.828A4.256 4.256 0 014.167 0H40z" fill="#fff"/></mask><g mask="url(#c)"><path d="M4.167 40a6.384 6.384 0 01-4.42-1.757A5.88 5.88 0 01-2.083 34V6a5.88 5.88 0 011.83-4.243A6.385 6.385 0 014.167 0C3.016 0 2.083 1.79 2.083 4v32c0 2.21.933 4 2.084 4z" fill="#699F00"/></g><path d="M45.833 0H14.167C11.866 0 10 1.79 10 4v32c0 2.21 1.866 4 4.167 4h31.666C48.135 40 50 38.21 50 36V4c0-2.21-1.865-4-4.167-4z" fill="#699F00"/><path fill-rule="evenodd" clip-rule="evenodd" d="M36.25 13h-12.5C21.68 13 20 14.7 20 16.81v8.39a1.739 1.739 0 001.75 1.76h.02c1.62-.02 1.87-.51 3.49-3.69l.6-1.18c.38-.65 1.06-1.05 1.81-1.05h4.65c.73 0 1.41.39 1.79 1.03.27.52.5.98.71 1.39 1.51 2.96 1.78 3.5 3.39 3.5a1.795 1.795 0 001.78-1.79v-8.35C40 14.7 38.32 13 36.25 13zm-10.21 5.07h-.62c-.23 0-.42.19-.42.42v.63c0 .35-.28.63-.62.63-.34 0-.62-.28-.62-.63v-.63c0-.23-.19-.42-.42-.42h-.62c-.35 0-.62-.28-.62-.63s.28-.63.62-.63h.62c.23 0 .42-.19.42-.42v-.63a.619.619 0 111.24 0v.63c0 .23.19.42.42.42h.62c.34 0 .62.28.62.63s-.28.63-.62.63zm7.29 0c-.46 0-.83-.38-.83-.85s.37-.85.83-.85c.46 0 .83.38.83.85s-.37.85-.83.85zm2.08 1.69c-.46 0-.83-.38-.83-.85s.37-.85.83-.85c.46 0 .83.38.83.85s-.37.85-.83.85zm0-3.38c-.46 0-.83-.38-.83-.85s.37-.85.83-.85c.46 0 .83.38.83.85.01.47-.37.85-.83.85zm2.09 1.69c-.46 0-.83-.38-.83-.85s.37-.85.83-.85c.46 0 .83.38.83.85s-.37.85-.83.85z" fill="#fff"/></g></svg>