<svg xmlns="http://www.w3.org/2000/svg" viewBox="0 0 50 40"><mask id="a" style="mask-type:luminance" maskUnits="userSpaceOnUse" x="0" y="0" width="50" height="40"><path d="M50 0H0v40h50V0z" fill="#fff"/></mask><g mask="url(#a)"><mask id="b" style="mask-type:luminance" maskUnits="userSpaceOnUse" x="5" y="0" width="40" height="40"><path d="M45 0v40H9.167a4.256 4.256 0 01-2.947-1.172A3.92 3.92 0 015 36V4a3.92 3.92 0 011.22-2.828A4.256 4.256 0 019.167 0H45z" fill="#fff"/></mask><g mask="url(#b)"><path d="M9.167 40a6.384 6.384 0 01-4.42-1.757A5.88 5.88 0 012.917 34V6a5.88 5.88 0 011.83-4.243A6.385 6.385 0 019.167 0C8.016 0 7.083 1.79 7.083 4v32c0 2.21.933 4 2.084 4z" fill="#161616"/></g><mask id="c" style="mask-type:luminance" maskUnits="userSpaceOnUse" x="0" y="0" width="40" height="40"><path d="M40 0v40H4.167a4.256 4.256 0 01-2.947-1.172A3.92 3.92 0 010 36V4a3.92 3.92 0 011.22-2.828A4.256 4.256 0 014.167 0H40z" fill="#fff"/></mask><g mask="url(#c)"><path d="M4.167 40a6.384 6.384 0 01-4.42-1.757A5.88 5.88 0 01-2.083 34V6a5.88 5.88 0 011.83-4.243A6.385 6.385 0 014.167 0C3.016 0 2.083 1.79 2.083 4v32c0 2.21.933 4 2.084 4z" fill="#161616"/></g><path d="M45.833 0H14.167C11.866 0 10 1.79 10 4v32c0 2.21 1.866 4 4.167 4h31.666C48.135 40 50 38.21 50 36V4c0-2.21-1.865-4-4.167-4z" fill="#161616"/><path fill-rule="evenodd" clip-rule="evenodd" d="M39.14 18.71h-6.96a.87.87 0 00-.87.87v9.57c0 .48.39.87.87.87l6.96-.01c.48 0 .87-.39.87-.87v-9.55c0-.49-.39-.88-.87-.88zm-18.88-8.45c-.16.16-.26.38-.26.61v9.58c0 .48.39.87.87.87h6.96c.48 0 .87-.39.87-.87v-9.57a.87.87 0 00-.87-.87L20.87 10c-.23 0-.45.1-.61.26zM39.14 10l-6.96.01a.87.87 0 00-.87.87v4.35c0 .48.39.87.87.87h6.96c.48 0 .87-.39.87-.87v-4.36a.87.87 0 00-.87-.87zM28.45 29.76c.16-.16.25-.38.25-.62v-4.35a.87.87 0 00-.87-.87h-6.96a.87.87 0 00-.87.87v4.34c0 .48.39.87.87.87l6.96.01c.25.01.46-.09.62-.25z" fill="#fff"/></g></svg>