<svg xmlns="http://www.w3.org/2000/svg" class="cel-icon cel-icon-stroke-width" viewBox="0 0 48 48"><path d="M44 0H4a4 4 0 00-4 4v40a4 4 0 004 4h40a4 4 0 004-4V4a4 4 0 00-4-4z" fill="#161616"/><path fill-rule="evenodd" clip-rule="evenodd" d="M34.957 22.45h-8.348c-.576 0-1.043.468-1.043 1.044v11.478c0 .576.467 1.043 1.043 1.043L34.957 36c.576 0 1.043-.467 1.043-1.043V23.494c0-.576-.467-1.044-1.043-1.044zM12.306 12.306a1.04 1.04 0 00-.306.738v11.494c0 .576.467 1.044 1.043 1.044h8.348c.576 0 1.043-.468 1.043-1.044V13.06c0-.576-.467-1.043-1.043-1.043l-8.348-.016a1.04 1.04 0 00-.738.306l.001-.001zM34.957 12l-8.348.015c-.576 0-1.043.467-1.043 1.043v5.217c0 .576.467 1.043 1.043 1.043h8.348c.576 0 1.043-.467 1.043-1.043v-5.232c0-.576-.467-1.043-1.043-1.043zM22.129 35.709a1.04 1.04 0 00.306-.738v-5.217c0-.576-.467-1.043-1.043-1.043h-8.348c-.576 0-1.043.467-1.043 1.043v5.202c0 .576.467 1.043 1.043 1.043l8.348.015c.288 0 .548-.116.737-.305z" fill="#fff"/></svg>