<svg xmlns="http://www.w3.org/2000/svg" viewBox="0 0 50 40"><mask id="a" style="mask-type:luminance" maskUnits="userSpaceOnUse" x="0" y="0" width="50" height="40"><path d="M50 0H0v40h50V0z" fill="#fff"/></mask><g mask="url(#a)"><mask id="b" style="mask-type:luminance" maskUnits="userSpaceOnUse" x="5" y="0" width="40" height="40"><path d="M45 0v40H9.167a4.256 4.256 0 01-2.947-1.172A3.92 3.92 0 015 36V4a3.92 3.92 0 011.22-2.828A4.256 4.256 0 019.167 0H45z" fill="#fff"/></mask><g mask="url(#b)"><path d="M9.167 40a6.384 6.384 0 01-4.42-1.757A5.88 5.88 0 012.917 34V6a5.88 5.88 0 011.83-4.243A6.385 6.385 0 019.167 0C8.016 0 7.083 1.79 7.083 4v32c0 2.21.933 4 2.084 4z" fill="#355198"/></g><mask id="c" style="mask-type:luminance" maskUnits="userSpaceOnUse" x="0" y="0" width="40" height="40"><path d="M40 0v40H4.167a4.256 4.256 0 01-2.947-1.172A3.92 3.92 0 010 36V4a3.92 3.92 0 011.22-2.828A4.256 4.256 0 014.167 0H40z" fill="#fff"/></mask><g mask="url(#c)"><path d="M4.167 40a6.384 6.384 0 01-4.42-1.757A5.88 5.88 0 01-2.083 34V6a5.88 5.88 0 011.83-4.243A6.385 6.385 0 014.167 0C3.016 0 2.083 1.79 2.083 4v32c0 2.21.933 4 2.084 4z" fill="#355198"/></g><path d="M45.833 0H14.167C11.866 0 10 1.79 10 4v32c0 2.21 1.866 4 4.167 4h31.666C48.135 40 50 38.21 50 36V4c0-2.21-1.865-4-4.167-4z" fill="#355198"/><path d="M19.5 29.54V10.25h5.55l2.84 7.56-2.15 4.93-1.66-4.93v11.72H19.5v.01z" fill="#fff"/><path d="M26.09 23.79l2.22-4.99 1.8 4.51 4.86-13.04h3.75l-6.59 19.29h-4.09l-1.95-5.77z" fill="url(#paint0_linear_27402_114)"/><path d="M36.01 29.54v-8.95l3.54-10.34h1.04v19.29h-4.58z" fill="#fff"/></g><defs><linearGradient id="paint0_linear_27402_114" x1="26.161" y1="19.901" x2="38.787" y2="19.901" gradientUnits="userSpaceOnUse"><stop stop-color="#C4C66C"/><stop offset="1" stop-color="#7CBCC8"/></linearGradient></defs></svg>