<svg xmlns="http://www.w3.org/2000/svg" class="cel-icon cel-icon-stroke-width" viewBox="0 0 56 56"><path d="M51.333 0H4.667A4.667 4.667 0 000 4.667v46.666A4.667 4.667 0 004.667 56h46.666A4.667 4.667 0 0056 51.333V4.667A4.667 4.667 0 0051.333 0z" fill="#355198"/><path d="M13 41V14h7.77l3.982 10.586-3.011 6.896-2.33-6.896V41H13z" fill="#fff"/><path d="M22.227 32.939l3.107-6.993 2.526 6.313L34.658 14h5.245l-9.227 27h-5.73l-2.72-8.061z" fill="url(#paint0_linear_17556_2582)"/><path d="M36.115 41V28.471L41.068 14h1.457v27h-6.41z" fill="#fff"/><defs><linearGradient id="paint0_linear_17556_2582" x1="22.324" y1="30.122" x2="40" y2="30.122" gradientUnits="userSpaceOnUse"><stop stop-color="#C4C66C"/><stop offset="1" stop-color="#7CBCC8"/></linearGradient></defs></svg>