<svg xmlns="http://www.w3.org/2000/svg" viewBox="0 0 50 40"><mask id="a" style="mask-type:luminance" maskUnits="userSpaceOnUse" x="0" y="0" width="50" height="40"><path d="M50 0H0v40h50V0z" fill="#fff"/></mask><g mask="url(#a)"><mask id="b" style="mask-type:luminance" maskUnits="userSpaceOnUse" x="5" y="0" width="40" height="40"><path d="M45 0v40H9.167a4.256 4.256 0 01-2.947-1.172A3.92 3.92 0 015 36V4a3.92 3.92 0 011.22-2.828A4.256 4.256 0 019.167 0H45z" fill="#fff"/></mask><g mask="url(#b)"><path d="M9.167 40a6.384 6.384 0 01-4.42-1.757A5.88 5.88 0 012.917 34V6a5.88 5.88 0 011.83-4.243A6.385 6.385 0 019.167 0C8.016 0 7.083 1.79 7.083 4v32c0 2.21.933 4 2.084 4z" fill="#B8008C"/></g><mask id="c" style="mask-type:luminance" maskUnits="userSpaceOnUse" x="0" y="0" width="40" height="40"><path d="M40 0v40H4.167a4.256 4.256 0 01-2.947-1.172A3.92 3.92 0 010 36V4a3.92 3.92 0 011.22-2.828A4.256 4.256 0 014.167 0H40z" fill="#fff"/></mask><g mask="url(#c)"><path d="M4.167 40a6.384 6.384 0 01-4.42-1.757A5.88 5.88 0 01-2.083 34V6a5.88 5.88 0 011.83-4.243A6.385 6.385 0 014.167 0C3.016 0 2.083 1.79 2.083 4v32c0 2.21.933 4 2.084 4z" fill="#B8008C"/></g><path d="M45.833 0H14.167C11.866 0 10 1.79 10 4v32c0 2.21 1.866 4 4.167 4h31.666C48.135 40 50 38.21 50 36V4c0-2.21-1.865-4-4.167-4z" fill="#B8008C"/><path fill-rule="evenodd" clip-rule="evenodd" d="M22.75 18.26c1.4.01 2.54-1.11 2.55-2.51.01-1.41-1.1-2.55-2.49-2.58-1.4-.03-2.58 1.14-2.6 2.54 0 1.37 1.16 2.53 2.54 2.55zm8.43.67c-.17-.86-1.08-.53-1.08-.53s-3.76.98-4.55.98h-4.37c-.77 0-1.18.5-1.18 1.27v4.97c0 .77.41 1.74 1.18 1.74h2.87c.77 0 1.19-.97 1.19-1.74v-4.1l4.86-1.4s1.25-.33 1.08-1.19zM36.6 13h-6.03a3.41 3.41 0 00-3.4 3.4v1.47l1.48-.25V16.4c0-1.06.86-1.92 1.92-1.92h6.04c1.06 0 1.92.86 1.92 1.92v7.58c0 1.06-.86 1.92-1.92 1.92h-6.04a1.92 1.92 0 01-1.92-1.92v-2.21l-1.48.3v1.9c0 1.87 1.52 3.4 3.4 3.4h6.04c1.87 0 3.4-1.52 3.4-3.4v-7.58C39.99 14.52 38.47 13 36.6 13z" fill="#fff"/></g></svg>