<svg xmlns="http://www.w3.org/2000/svg" class="cel-icon cel-icon-stroke-width" viewBox="0 0 56 56"><path d="M51.333 0H4.667A4.667 4.667 0 000 4.667v46.666A4.667 4.667 0 004.667 56h46.666A4.667 4.667 0 0056 51.333V4.667A4.667 4.667 0 0051.333 0z" fill="#B8008C"/><path fill-rule="evenodd" clip-rule="evenodd" d="M17.86 25.304a3.533 3.533 0 003.565-3.514c.01-1.976-1.533-3.571-3.484-3.606-1.955-.037-3.612 1.59-3.633 3.554-.015 1.92 1.611 3.55 3.551 3.566zm11.792.941c-.242-1.208-1.518-.736-1.518-.736s-5.258 1.38-6.364 1.38h-6.112c-1.08 0-1.657.693-1.657 1.774v6.946c0 1.08.577 2.434 1.657 2.434h4.018c1.08 0 1.661-1.354 1.661-2.434v-5.737l6.808-1.96c.004 0 1.748-.458 1.507-1.667zm7.59-8.304h-8.449a4.76 4.76 0 00-4.754 4.754v2.058l2.069-.355v-1.703a2.688 2.688 0 012.685-2.686h8.454a2.688 2.688 0 012.686 2.686v10.61a2.688 2.688 0 01-2.686 2.685h-8.454a2.688 2.688 0 01-2.685-2.685v-3.087l-2.069.427v2.66a4.76 4.76 0 004.754 4.754h8.454a4.76 4.76 0 004.754-4.754v-10.61a4.766 4.766 0 00-4.759-4.754z" fill="#fff"/></svg>