<svg xmlns="http://www.w3.org/2000/svg" viewBox="0 0 50 40"><mask id="a" style="mask-type:luminance" maskUnits="userSpaceOnUse" x="0" y="0" width="50" height="40"><path d="M50 0H0v40h50V0z" fill="#fff"/></mask><g mask="url(#a)"><mask id="b" style="mask-type:luminance" maskUnits="userSpaceOnUse" x="5" y="0" width="40" height="40"><path d="M45 0v40H9.167a4.256 4.256 0 01-2.947-1.172A3.92 3.92 0 015 36V4a3.92 3.92 0 011.22-2.828A4.256 4.256 0 019.167 0H45z" fill="#fff"/></mask><g mask="url(#b)"><path d="M9.167 40a6.384 6.384 0 01-4.42-1.757A5.88 5.88 0 012.917 34V6a5.88 5.88 0 011.83-4.243A6.385 6.385 0 019.167 0C8.016 0 7.083 1.79 7.083 4v32c0 2.21.933 4 2.084 4z" fill="#590892"/></g><mask id="c" style="mask-type:luminance" maskUnits="userSpaceOnUse" x="0" y="0" width="40" height="40"><path d="M40 0v40H4.167a4.256 4.256 0 01-2.947-1.172A3.92 3.92 0 010 36V4a3.92 3.92 0 011.22-2.828A4.256 4.256 0 014.167 0H40z" fill="#fff"/></mask><g mask="url(#c)"><path d="M4.167 40a6.384 6.384 0 01-4.42-1.757A5.88 5.88 0 01-2.083 34V6a5.88 5.88 0 011.83-4.243A6.385 6.385 0 014.167 0C3.016 0 2.083 1.79 2.083 4v32c0 2.21.933 4 2.084 4z" fill="#590892"/></g><path d="M45.833 0H14.167C11.866 0 10 1.79 10 4v32c0 2.21 1.866 4 4.167 4h31.666C48.135 40 50 38.21 50 36V4c0-2.21-1.865-4-4.167-4z" fill="#590892"/><path fill-rule="evenodd" clip-rule="evenodd" d="M23.623 22.903c-.19.04-.4-.09-.45-.28l-1.67-7.52c-.04-.19.09-.4.28-.45l9.5-2.11c.19-.04.4.09.45.28l.32 1.44 1.64-.17-.36-1.63a1.88 1.88 0 00-2.23-1.42l-9.64 2.14a1.88 1.88 0 00-1.42 2.23l1.67 7.51c.22 1 1.23 1.64 2.23 1.42l.19-.04-.15-1.5-.36.1zm14.5-5.53h-1.01l-.18-1.72a1.873 1.873 0 00-2.05-1.67l-9.82 1.01c-1.02.11-1.78 1.03-1.67 2.05l.79 7.66c.11 1.02 1.03 1.78 2.05 1.67l.15-.02v.58c0 1.03.84 1.87 1.87 1.87h9.87c1.03 0 1.87-.84 1.87-1.87v-7.7c0-1.02-.84-1.86-1.87-1.86zm-11.74 1.87v5.61l-.3.03c-.2.02-.39-.14-.41-.33l-.79-7.66c-.02-.2.14-.39.33-.41l9.68-1c.2-.02.39.14.41.33l.16 1.55h-7.22c-1.02.01-1.86.85-1.86 1.88zm11.98 7.7c0 .2-.18.37-.37.37h-9.74c-.2 0-.38-.17-.38-.37v-7.7c0-.2.18-.37.38-.37h9.74c.2 0 .37.18.37.37v7.7z" fill="#fff"/></g></svg>