<svg xmlns="http://www.w3.org/2000/svg" class="cel-icon cel-icon-stroke-width" viewBox="0 0 32 32"><path d="M29.333 0H2.667A2.667 2.667 0 000 2.667v26.666A2.667 2.667 0 002.667 32h26.666A2.667 2.667 0 0032 29.333V2.667A2.667 2.667 0 0029.333 0z" fill="#590892"/><path fill-rule="evenodd" clip-rule="evenodd" d="M10.9 18.607a.308.308 0 01-.357-.227l-1.338-6.012a.309.309 0 01.228-.357l7.602-1.691a.308.308 0 01.357.227l.257 1.153 1.31-.135-.29-1.303a1.502 1.502 0 00-1.787-1.137l-7.71 1.715a1.502 1.502 0 00-1.137 1.787l1.338 6.012a1.502 1.502 0 001.787 1.136l.155-.035-.124-1.2-.291.065v.002zm11.603-4.427h-.81l-.142-1.377a1.502 1.502 0 00-1.644-1.336l-7.856.81c-.82.085-1.421.824-1.336 1.643l.631 6.127c.085.818.824 1.42 1.643 1.336l.117-.012v.465c0 .823.674 1.497 1.498 1.497h7.898c.824 0 1.497-.674 1.497-1.497v-6.16c0-.823-.674-1.497-1.497-1.497v.001zm-9.396 1.497v4.489l-.24.025a.308.308 0 01-.328-.268l-.632-6.126a.308.308 0 01.268-.328l7.747-.799a.308.308 0 01.329.267l.128 1.242h-5.774c-.824 0-1.498.674-1.498 1.498zm9.584 6.159c0 .159-.14.299-.299.299h-7.788c-.16 0-.3-.14-.3-.299v-6.16c0-.158.14-.299.3-.299h7.788c.16 0 .3.141.3.3v6.159z" fill="#fff"/></svg>