<svg xmlns="http://www.w3.org/2000/svg" class="cel-icon cel-icon-stroke-width" viewBox="0 0 44 44"><rect width="44" height="44" rx="8" fill="#333"/><path fill-rule="evenodd" clip-rule="evenodd" d="M31.085 31.435h-.691a.278.278 0 01-.263-.19l-6.917-20.48a1.667 1.667 0 00-1.57-1.14h-.009a1.671 1.671 0 00-1.579 1.142l-6.894 20.476a.279.279 0 01-.264.19h-.668a1.113 1.113 0 00-.995.553 1.136 1.136 0 000 1.147c.207.354.589.566.995.552h3.35c.295 0 .579-.118.787-.33.21-.21.326-.498.326-.796a1.086 1.086 0 00-.921-1.095.276.276 0 01-.188-.136.284.284 0 01-.023-.23l1.706-5.07a.279.279 0 01.264-.19h8.218a.28.28 0 01.264.19l1.712 5.073a.287.287 0 01-.022.23.278.278 0 01-.183.136c-.526.09-.908.554-.902 1.093 0 .298.117.585.326.797.209.211.492.33.788.33h3.35c.406.013.787-.199.994-.553a1.137 1.137 0 000-1.147 1.111 1.111 0 00-.994-.552l.002-.001zm-12.604-7.85a.279.279 0 01-.227-.117.284.284 0 01-.037-.255l3.155-9.37a.279.279 0 01.264-.191c.12 0 .226.077.264.191l3.164 9.37a.277.277 0 01-.265.37l-6.318.002z" fill="#fff"/></svg>