<svg xmlns="http://www.w3.org/2000/svg" class="cel-icon cel-icon-stroke-width" viewBox="0 0 48 48"><path d="M44 0H4a4 4 0 00-4 4v40a4 4 0 004 4h40a4 4 0 004-4V4a4 4 0 00-4-4z" fill="#850C09"/><path fill-rule="evenodd" clip-rule="evenodd" d="M22 14.5a3 3 0 013 3v.677c0 .083.041.161.11.208a.247.247 0 00.234.024A6.901 6.901 0 0128 18c3.364 0 6 3.294 6 7.5 0 3.956-3.038 10.5-6.5 10.5-1.801 0-2.331-.342-2.793-.754A.806.806 0 0024 35a.806.806 0 00-.707.246c-.462.412-.993.754-2.793.754-3.462 0-6.5-6.544-6.5-10.5 0-4.206 2.636-7.5 6-7.5.904-.039 1.806.1 2.656.409a.25.25 0 00.344-.232V17.5a1 1 0 00-1-1h-2a1 1 0 010-2h2zm2.471 7.625h-.692a.692.692 0 00-.692.692v2.596a.172.172 0 01-.173.173h-2.596a.692.692 0 00-.692.692v.692c0 .382.31.692.692.692h2.596c.096 0 .173.077.173.173v2.596c0 .382.31.692.692.692h.692c.382 0 .692-.31.692-.692v-2.596c0-.096.077-.173.173-.173h2.596c.382 0 .692-.31.692-.692v-.692a.692.692 0 00-.692-.692h-2.596a.172.172 0 01-.173-.173v-2.596a.692.692 0 00-.692-.692zM29.8 12.01a1.017 1.017 0 011.152 1.15 5.014 5.014 0 01-4.252 4.254l-.119.011a1.015 1.015 0 01-1.035-1.159A5.016 5.016 0 0129.8 12.01z" fill="#fff"/></svg>