<svg xmlns="http://www.w3.org/2000/svg" class="cel-icon cel-icon-stroke-width" viewBox="0 0 56 56"><path d="M51.333 0H4.667A4.667 4.667 0 000 4.667v46.666A4.667 4.667 0 004.667 56h46.666A4.667 4.667 0 0056 51.333V4.667A4.667 4.667 0 0051.333 0z" fill="#E07500"/><path fill-rule="evenodd" clip-rule="evenodd" d="M28 14c7.731 0 14 6.268 14 14 0 7.731-6.269 14-14 14-7.732 0-14-6.269-14-14 0-7.732 6.268-14 14-14zm-4.513 7.784a1.14 1.14 0 00-.578.992v10.448a1.141 1.141 0 001.726.978l10.449-5.224a1.144 1.144 0 000-1.956l-10.449-5.224a1.141 1.141 0 00-1.148-.014z" fill="#fff"/></svg>