<svg xmlns="http://www.w3.org/2000/svg" viewBox="0 0 50 40"><mask id="a" style="mask-type:luminance" maskUnits="userSpaceOnUse" x="0" y="0" width="50" height="40"><path d="M50 0H0v40h50V0z" fill="#fff"/></mask><g mask="url(#a)"><mask id="b" style="mask-type:luminance" maskUnits="userSpaceOnUse" x="5" y="0" width="40" height="40"><path d="M45 0v40H9.167a4.256 4.256 0 01-2.947-1.172A3.92 3.92 0 015 36V4a3.92 3.92 0 011.22-2.828A4.256 4.256 0 019.167 0H45z" fill="#fff"/></mask><g mask="url(#b)"><path d="M9.167 40a6.384 6.384 0 01-4.42-1.757A5.88 5.88 0 012.917 34V6a5.88 5.88 0 011.83-4.243A6.385 6.385 0 019.167 0C8.016 0 7.083 1.79 7.083 4v32c0 2.21.933 4 2.084 4z" fill="#E07500"/></g><mask id="c" style="mask-type:luminance" maskUnits="userSpaceOnUse" x="0" y="0" width="40" height="40"><path d="M40 0v40H4.167a4.256 4.256 0 01-2.947-1.172A3.92 3.92 0 010 36V4a3.92 3.92 0 011.22-2.828A4.256 4.256 0 014.167 0H40z" fill="#fff"/></mask><g mask="url(#c)"><path d="M4.167 40a6.384 6.384 0 01-4.42-1.757A5.88 5.88 0 01-2.083 34V6a5.88 5.88 0 011.83-4.243A6.385 6.385 0 014.167 0C3.016 0 2.083 1.79 2.083 4v32c0 2.21.933 4 2.084 4z" fill="#E07500"/></g><path d="M45.833 0H14.167C11.866 0 10 1.79 10 4v32c0 2.21 1.866 4 4.167 4h31.666C48.135 40 50 38.21 50 36V4c0-2.21-1.865-4-4.167-4z" fill="#E07500"/><path fill-rule="evenodd" clip-rule="evenodd" d="M30 10c5.52 0 10 4.48 10 10s-4.48 10-10 10-10-4.48-10-10 4.48-10 10-10zm-3.22 5.56c-.25.14-.41.42-.41.71v7.46c0 .29.16.56.41.71.26.14.57.14.82-.01l7.46-3.73a.823.823 0 000-1.4l-7.46-3.73a.828.828 0 00-.82-.01z" fill="#fff"/></g></svg>