<svg xmlns="http://www.w3.org/2000/svg" class="cel-icon cel-icon-stroke-width" viewBox="0 0 24 24"><path d="M20.15 4.04a.5.5 0 01-.4-.489V2a2 2 0 00-2-2H5.25a3 3 0 00-3 3v18a3 3 0 003 3h14.5a2 2 0 002-2V6a2 2 0 00-1.587-1.957l-.013-.002zM12.241 14.5h.009a5.011 5.011 0 014.998 4.651l.001.016.001.021a.305.305 0 01-.085.212.31.31 0 01-.229.1H7.748a.5.5 0 01-.497-.558v.002a5.018 5.018 0 014.98-4.444h.011-.001zm-3.011-4v-.012a3.013 3.013 0 113.012 3.012h-.005a3.007 3.007 0 01-3.007-3zM4.25 3a1 1 0 011-1H17.5a.25.25 0 01.25.25v1.5a.25.25 0 01-.25.25H5.25a1 1 0 01-1-1z"/></svg>