<svg xmlns="http://www.w3.org/2000/svg" class="cel-icon cel-icon-stroke-width" viewBox="0 0 24 24"><path d="M8.277 8.626q.786 0 1.605.377t1.834.868q1.474.688 2.375.983t1.752.295q1.343 0 2.375-.966t.901-3.357h-1.703q0 1.179-.377 1.785t-1.163.606-1.638-.344-1.933-.835q-1.441-.688-2.276-.999t-1.752-.311q-1.474 0-2.473 1.097t-.933 3.226h1.703q.033-1.277.491-1.851t1.212-.573zm9.138 4.324q0 1.179-.377 1.785t-1.163.606-1.638-.344-1.933-.835q-1.441-.688-2.276-.999t-1.752-.311q-1.474 0-2.473 1.097t-.933 3.226h1.703q.033-1.277.491-1.851t1.212-.573q.786 0 1.605.377t1.834.868q1.474.688 2.375.983t1.752.295q1.343 0 2.375-.966t.901-3.357h-1.703z"/></svg>