<svg xmlns="http://www.w3.org/2000/svg" class="cel-icon cel-icon-stroke-width" viewBox="0 0 24 24"><path d="M22.333 3H8.283a1.505 1.505 0 00-1.124.506l-.001.002-6.617 7.5c-.233.263-.375.611-.375.993s.142.729.377.994l-.001-.002 6.618 7.5c.277.311.677.506 1.124.507h14.05a1.5 1.5 0 001.5-1.5v-15a1.5 1.5 0 00-1.5-1.5zM19.54 15.293a1 1 0 01-1.414 1.414l-3.117-3.116a.25.25 0 00-.353 0l-3.117 3.116a1 1 0 01-1.414-1.414l3.117-3.116a.25.25 0 000-.354l-3.117-3.116a1 1 0 011.414-1.414l3.117 3.116a.25.25 0 00.353 0l3.117-3.116a1 1 0 011.414 1.414l-3.116 3.116a.247.247 0 000 .354z"/></svg>