<svg xmlns="http://www.w3.org/2000/svg" class="cel-icon cel-icon-stroke-width" viewBox="0 0 14 14"><path d="M12.607 6.863a.818.818 0 011.155 0 .82.82 0 01-.004 1.159l-2.036 2.036 2.036 2.038a.818.818 0 01-1.154 1.158l-2.037-2.038-2.037 2.037a.82.82 0 01-1.158-1.158l2.037-2.037L7.372 8.02A.818.818 0 018.53 6.863L10.57 8.9zM9.677.875c.35 0 .68.068.99.204.31.136.581.32.812.552.23.232.41.5.537.804.135.312.203.648.203 1.007 0 .352-.068.684-.203.996a2.604 2.604 0 01-.543.81c-.227.228-.495.41-.805.546a2.44 2.44 0 01-.99.204c-.335 0-.651-.062-.95-.186a2.752 2.752 0 01-.793-.498l-2.864 1.44a1.608 1.608 0 010 .54l1.246.756c.207.207.517.75.103 1.267-.414.518-.936.233-.932.207L4.284 8.89a2.533 2.533 0 01-1.742.684c-.35 0-.68-.064-.99-.192a2.538 2.538 0 01-.806-.552 2.68 2.68 0 01-.543-.815A2.476 2.476 0 010 7.018c0-.352.068-.684.203-.996.127-.312.306-.584.537-.816a2.61 2.61 0 01.811-.552c.31-.128.64-.192.99-.192a2.518 2.518 0 011.743.684l2.864-1.44a1.742 1.742 0 01-.024-.276c0-.351.067-.683.203-.995.135-.312.318-.584.548-.816.231-.232.498-.412.8-.54A2.47 2.47 0 019.677.875z" fill="currentColor" fill-rule="evenodd"/></svg>