<svg xmlns="http://www.w3.org/2000/svg" class="cel-icon cel-icon-stroke-width" viewBox="0 0 24 24"><path d="M10.383 16.85H8.145a4.11 4.11 0 01-4.104-4.104v-1.492A4.11 4.11 0 018.145 7.15h2.238a1.118 1.118 0 110 2.238H8.145a1.867 1.867 0 00-1.865 1.865v1.492c0 1.029.837 1.865 1.865 1.865h2.238a1.118 1.118 0 110 2.238zM18.84 16.85h-2.238a4.11 4.11 0 01-4.104-4.104v-1.492a4.11 4.11 0 014.104-4.104h2.238a1.118 1.118 0 110 2.238h-2.238a1.867 1.867 0 00-1.865 1.865v1.492c0 1.029.837 1.865 1.865 1.865h2.238a1.118 1.118 0 110 2.238z"/></svg>