<svg xmlns="http://www.w3.org/2000/svg" class="cel-icon cel-icon-stroke-width" viewBox="0 0 24 24"><path d="M22.441 3.607L19.37.554A1.912 1.912 0 0018.027 0H9.4a1.9 1.9 0 00-1.9 1.9V5H3.9A1.9 1.9 0 002 6.9v15.21A1.9 1.9 0 003.9 24h11.7a1.9 1.9 0 001.9-1.895V19h3.6a1.9 1.9 0 001.9-1.895V4.949c0-.504-.2-.988-.559-1.342zM15 22H4.5a.5.5 0 01-.5-.5v-14a.5.5 0 01.5-.5h7.784a.5.5 0 01.35.143L15.35 9.8a.5.5 0 01.15.357V21.5a.5.5 0 01-.5.5zm5.5-5h-2.75a.25.25 0 01-.25-.25v-6.8c0-.503-.201-.986-.558-1.341L13.87 5.554A1.9 1.9 0 0012.528 5H9.75a.25.25 0 01-.25-.25V2.5A.5.5 0 0110 2l7.756-.026a.5.5 0 01.351.143L20.85 4.8a.5.5 0 01.15.357V16.5a.5.5 0 01-.5.5z" fill="currentColor" fill-rule="evenodd"/></svg>