<svg xmlns="http://www.w3.org/2000/svg" class="cel-icon cel-icon-stroke-width" viewBox="0 0 24 24"><path d="M23.414 3L21 .585A1.996 1.996 0 0019.587 0H8a2 2 0 00-2 2v7.277c0 .135.108.245.242.248a19.68 19.68 0 011.511.084A.248.248 0 008 9.362V2.499a.5.5 0 01.5-.5h10.879c.138 0 .263.056.353.146l2.122 2.122c.09.09.146.215.146.353v13.379a.5.5 0 01-.5.5h-6.858a.246.246 0 00-.241.209v.001a7.933 7.933 0 01-.381 1.513l.017-.055a.245.245 0 00.228.331H22a2 2 0 002-2V4.413c0-.552-.224-1.052-.586-1.414z"/><path d="M6.5 11a6.5 6.5 0 106.5 6.5A6.509 6.509 0 006.5 11zm1 9a.5.5 0 010 1 3.5 3.5 0 110-7 .5.5 0 010 1 2.5 2.5 0 100 5z"/></svg>