<svg xmlns="http://www.w3.org/2000/svg" class="cel-icon cel-icon-stroke-width" viewBox="0 0 24 24"><path d="M21.5 17.034a.25.25 0 00-.408-.193c-1.937 1.577-5.592 2.41-9.092 2.41s-7.156-.833-9.093-2.41a.248.248 0 00-.407.192v1.718c0 2.21 4.254 4 9.5 4s9.5-1.79 9.5-4z"/><path d="M2.5 14.25c0 2.21 4.254 4 9.5 4s9.5-1.79 9.5-4v-1.716a.25.25 0 00-.408-.193c-1.937 1.577-5.592 2.41-9.092 2.41s-7.156-.833-9.093-2.41a.248.248 0 00-.407.192v.002z"/><path d="M12 10.25c-3.5 0-7.156-.833-9.093-2.411a.248.248 0 00-.407.192V9.75c0 2.21 4.254 4 9.5 4s9.5-1.79 9.5-4V8.034a.25.25 0 00-.408-.192C19.154 9.419 15.5 10.251 12 10.251z"/><path d="M21.5 5.25c0 2.209-4.253 4-9.5 4s-9.5-1.791-9.5-4 4.253-4 9.5-4 9.5 1.791 9.5 4z"/></svg>