<svg xmlns="http://www.w3.org/2000/svg" class="cel-icon cel-icon-stroke-width" viewBox="0 0 24 24"><path d="M11.286 20.781v-2.169q-.952 0-1.838-.265t-1.442-.661l.503-1.428q.582.37 1.389.635t1.706.265q1.137 0 1.838-.582t.701-1.508q0-.873-.622-1.468t-1.812-1.071q-1.613-.635-2.566-1.468t-.952-2.235q0-1.322.873-2.261t2.354-1.177V3.219h1.322v2.063q.979.053 1.653.265t1.124.503l-.529 1.402q-.344-.185-1.005-.45t-1.693-.265q-1.217 0-1.732.595t-.516 1.23q0 .846.622 1.362t2.023 1.071q1.64.688 2.473 1.587t.833 2.328q0 1.27-.86 2.328t-2.526 1.322v2.222h-1.322z"/></svg>