<svg xmlns="http://www.w3.org/2000/svg" viewBox="0 0 132 90"><defs><filter x="-9.1%" y="-7.5%" width="118.2%" height="115%" filterUnits="objectBoundingBox" id="b"><feGaussianBlur stdDeviation="2" in="SourceAlpha" result="shadowBlurInner1"/><feOffset dy="2" in="shadowBlurInner1" result="shadowOffsetInner1"/><feComposite in="shadowOffsetInner1" in2="SourceAlpha" operator="arithmetic" k2="-1" k3="1" result="shadowInnerInner1"/><feColorMatrix values="0 0 0 0 0 0 0 0 0 0 0 0 0 0 0 0 0 0 0.5 0" in="shadowInnerInner1"/></filter><path d="M80.206 31.733a.836.836 0 01-.675-.815v-2.585c0-1.84-1.51-3.333-3.375-3.333H55.062C52.267 25 50 27.239 50 30v30c0 2.761 2.267 5 5.063 5H79.53c1.864 0 3.375-1.492 3.375-3.333V35c0-1.584-1.128-2.95-2.7-3.267zm-4.894 15.422c0 .168-.102.32-.26.384a.426.426 0 01-.458-.089l-3.207-3.167a.429.429 0 00-.597 0l-3.206 3.167a.426.426 0 01-.46.089.417.417 0 01-.26-.384V34.583a.42.42 0 01.423-.416h7.604a.42.42 0 01.421.416v12.572zm.844-15.905a.42.42 0 01-.422.417H55.063A1.677 1.677 0 0153.374 30c0-.92.756-1.667 1.688-1.667h20.671a.42.42 0 01.422.417v2.5z" id="a"/></defs><g fill="none" fill-rule="evenodd"><path fill="#F9F9F9" d="M0 0h132v90H0z"/><g fill-rule="nonzero"><use fill="#767676" href="#a"/><use fill="currentColor" filter="url(#b)" href="#a"/></g></g></svg>