<svg xmlns="http://www.w3.org/2000/svg" class="cel-icon cel-icon-stroke-width" viewBox="0 0 24 24"><path d="M8.451 12.322c-.105-.046-.326-.048-.326.164v3.978a.238.238 0 00.329.209l-.002.001a2.375 2.375 0 00.015-4.346l-.015-.006zM4 12.123h-.623a.252.252 0 00-.252.252v1.246c0 .139.113.252.252.252H4a.875.875 0 000-1.75z"/><path d="M18 19v-9a1 1 0 00-1-1H1a1 1 0 00-1 1v9a1 1 0 001 1h16a1 1 0 001-1zM4 15.123h-.623a.252.252 0 00-.252.252V17.5a.625.625 0 01-1.25 0v-6c0-.345.28-.625.625-.625H4a2.124 2.124 0 110 4.25zm3.5 3a.625.625 0 01-.625-.625v-6c0-.345.28-.625.625-.625a3.625 3.625 0 010 7.25zm8-6h-2a.375.375 0 00-.375.375v1.123c0 .139.113.252.252.252H14.5a.625.625 0 010 1.25h-1.123a.252.252 0 00-.252.252V17.5a.625.625 0 01-1.25 0v-5c0-.898.727-1.626 1.625-1.627h2a.625.625 0 010 1.25z"/><path d="M23.707 5.705L18.293.291A.996.996 0 0017.588 0H6a2 2 0 00-2 2v5.75c0 .138.112.25.25.25h1.5A.25.25 0 006 7.75V2.5a.5.5 0 01.5-.5h10.25a.25.25 0 01.25.25V5a2 2 0 002 2h2.75a.25.25 0 01.25.25V21.5a.5.5 0 01-.5.5H6.25a.25.25 0 01-.25-.25v-.5-.002A.248.248 0 005.752 21H4.25a.25.25 0 00-.25.25V22a2 2 0 002 2h16a2 2 0 002-2V6.412a.997.997 0 00-.293-.707z"/></svg>