<svg xmlns="http://www.w3.org/2000/svg" class="cel-icon cel-icon-stroke-width" viewBox="0 0 24 24"><path d="M12 0C5.373 0 0 5.373 0 12s5.373 12 12 12 12-5.373 12-12C23.993 5.376 18.624.007 12.001 0H12zm6.469 12.5a1 1 0 01-1 1h-6.5c-.55 0-.7.336-.334.746l2.3 2.573a1.069 1.069 0 01-.042 1.452l-.295.3a.97.97 0 01-1.4-.019v-.001l-5.51-5.83a1.061 1.061 0 01.006-1.447v.001L11.3 5.45a.98.98 0 011.4-.014l.3.3a1.053 1.053 0 01.03 1.444l.001-.001-2.371 2.585c-.372.4-.226.737.324.737h6.485a1 1 0 011 1z"/></svg>