<svg xmlns="http://www.w3.org/2000/svg" viewBox="0 0 132 90"><g fill="none" fill-rule="evenodd"><path fill="#F9F9F9" d="M0 0h132v90H0z"/><g fill-rule="nonzero"><path d="M69.993 14H52.998C51.4 14 50 15.399 50 17v37.985c0 1.599 1.399 3 3 3h25.99c1.599 0 3-1.4 3-3v-28.99l-6.997-4.998-5-6.997z" fill="#4285F4"/><path d="M57.996 45.988H73.99v-1.999H57.998l-.002 1.999zm0 3.998h11.995v-1.998H57.996v1.998zm0-13.995v1.999H73.99V35.99H57.996zm0 5.998H73.99V39.99H57.998l-.002 1.999z" fill="#F1F1F1"/><path d="M69.993 14v8.997c0 1.6 1.398 2.998 2.997 2.998h8.998L69.993 14z" fill="#A1C2FA"/></g><path d="M57.91 66.422c.955 0 1.711.423 2.106.894h.062v-.65h1.667v7.175c0 2.953-1.742 4.159-3.8 4.159-1.938 0-3.104-1.296-3.544-2.356l1.529-.636c.272.65.939 1.418 2.013 1.418 1.318 0 2.135-.813 2.135-2.343v-.575h-.062c-.393.485-1.15.909-2.105.909-2 0-3.831-1.742-3.831-3.983 0-2.256 1.832-4.012 3.83-4.012zm-17.12 0c2.21 0 4.01 1.68 4.01 3.998 0 2.302-1.8 3.998-4.01 3.998s-4.011-1.696-4.011-3.998c0-2.318 1.8-3.998 4.01-3.998zm8.652 0c2.21 0 4.01 1.68 4.01 3.998 0 2.302-1.8 3.998-4.01 3.998s-4.01-1.696-4.01-3.998c0-2.316 1.8-3.998 4.01-3.998zm19.56-.002c2.075 0 3.09 1.65 3.421 2.544l.183.454-5.345 2.214c.41.801 1.045 1.21 1.938 1.21.894 0 1.514-.44 1.968-1.106l1.363.908c-.44.65-1.5 1.773-3.33 1.773-2.273 0-3.969-1.756-3.969-4 0-2.377 1.71-3.997 3.771-3.997zM30.298 62c1.893 0 3.242.742 4.254 1.71l-1.196 1.197c-.727-.68-1.711-1.21-3.06-1.21-2.498 0-4.452 2.012-4.452 4.511s1.954 4.512 4.452 4.512c1.621 0 2.544-.651 3.135-1.242.48-.48.795-1.164.92-2.1l-4.055.002v-1.696h5.716c.056.295.085.645.085 1.024 0 1.272-.348 2.846-1.47 3.967-1.09 1.135-2.483 1.741-4.329 1.741-3.422 0-6.298-2.787-6.298-6.208C24 64.787 26.876 62 30.298 62zm59.82 4.533c1.098 0 2.004.373 2.718 1.118.725.744 1.087 1.686 1.087 2.823 0 1.148-.362 2.089-1.087 2.823-.714.745-1.62 1.118-2.717 1.118-1.098 0-2.008-.373-2.733-1.118-.715-.744-1.072-1.685-1.072-2.823 0-1.137.357-2.079 1.072-2.823.725-.745 1.635-1.118 2.733-1.118zm8.455 0c.755 0 1.415.189 1.978.567.564.377.987.898 1.269 1.562l-1.269.529c-.392-.926-1.082-1.39-2.068-1.39-.634 0-1.183.257-1.646.77-.452.514-.68 1.148-.68 1.903 0 .755.228 1.389.68 1.903.463.513 1.012.77 1.646.77 1.016 0 1.73-.464 2.144-1.39l1.238.529a3.314 3.314 0 01-1.276 1.562c-.579.378-1.25.567-2.016.567-1.097 0-2.007-.373-2.732-1.118-.715-.765-1.072-1.706-1.072-2.823 0-1.137.357-2.079 1.072-2.823.725-.745 1.635-1.118 2.732-1.118zm7.157 0c.654 0 1.245.157 1.774.468.529.313.898.73 1.11 1.254l-1.239.513a1.56 1.56 0 00-.687-.732 2.152 2.152 0 00-1.064-.265c-.362 0-.687.09-.974.272-.286.181-.43.403-.43.665 0 .422.397.724 1.193.905l1.117.287c1.47.363 2.204 1.102 2.204 2.22 0 .644-.281 1.187-.845 1.63-.564.443-1.274.665-2.129.665-.745 0-1.4-.194-1.963-.582a3.198 3.198 0 01-1.207-1.532l1.237-.528c.182.442.446.787.793 1.034.347.247.727.37 1.14.37.443 0 .812-.096 1.11-.287.296-.191.445-.418.445-.68 0-.473-.362-.82-1.087-1.041l-1.268-.318c-1.44-.362-2.159-1.056-2.159-2.083 0-.674.274-1.215.822-1.623.55-.408 1.25-.612 2.107-.612zm-41.236-4.077v11.717h-1.713V62.456h1.713zm15.584.907c1.651 0 2.977.498 3.979 1.495 1.002.996 1.502 2.3 1.502 3.91 0 1.62-.5 2.927-1.502 3.918-1.002.991-2.328 1.487-3.979 1.487h-3.306v-10.81h3.306zm10.04 4.439c-.674 0-1.248.251-1.72.755-.464.493-.695 1.132-.695 1.917 0 .796.231 1.44.695 1.932.462.494 1.036.74 1.72.74.685 0 1.259-.246 1.722-.74.463-.492.695-1.136.695-1.932 0-.785-.232-1.424-.695-1.917-.473-.504-1.047-.755-1.721-.755zm-10.04-3.11h-1.917v8.153h1.917c1.259 0 2.25-.36 2.975-1.08.725-.72 1.087-1.718 1.087-2.997 0-1.268-.362-2.264-1.087-2.99-.725-.724-1.716-1.087-2.975-1.087zM40.79 67.996c-1.212 0-2.255.984-2.255 2.423 0 1.424 1.043 2.423 2.255 2.423 1.21 0 2.255-1 2.255-2.423 0-1.439-1.044-2.423-2.255-2.423zm8.652 0c-1.212 0-2.255.984-2.255 2.423 0 1.424 1.043 2.423 2.255 2.423s2.255-1 2.255-2.423c0-1.439-1.043-2.423-2.255-2.423zm8.626 0c-1.212 0-2.227 1.03-2.227 2.437 0 1.394 1.015 2.409 2.227 2.409 1.194 0 2.134-1.015 2.134-2.409 0-1.408-.939-2.437-2.134-2.437zm10.993-.03c-.892 0-2.133.787-2.088 2.33l3.572-1.483c-.196-.5-.788-.847-1.484-.847z" fill="#787879"/></g></svg>