<svg xmlns="http://www.w3.org/2000/svg" class="cel-icon cel-icon-stroke-width" viewBox="0 0 24 24"><path d="M19.801 20.944c.071 0 .141 0 .212-.004.071 0 .137-.009.208-.013a4.197 4.197 0 003.775-4.177H24V7.252a4.189 4.189 0 00-4.194-4.194H4.204c-.075 0-.146 0-.217.004-.071 0-.137.009-.208.013A4.197 4.197 0 00.004 7.252H0v9.498a4.194 4.194 0 004.194 4.194h15.607zm-13.79-2.365H4.84a2.479 2.479 0 01-2.48-2.48V7.891c0-1.37 1.109-2.48 2.48-2.48h14.32c1.37 0 2.48 1.109 2.48 2.48l.004 8.217c0 1.37-1.109 2.48-2.48 2.48L6.01 18.579zM4.172 8.303c0-.265.115-.393.38-.393h.888c.256 0 .371.128.371.393v3.12l2.714-3.187c.194-.278.301-.323.645-.323h1.202c.128 0 .243.057.243.186 0 .093-.044.172-.128.278l-3.014 3.408 3.293 3.987c.071.093.128.186.128.265 0 .137-.106.186-.23.186H9.312c-.345 0-.451-.044-.645-.314l-2.855-3.58v3.514c0 .265-.115.38-.371.38h-.888c-.265 0-.38-.115-.38-.38v-7.54zm6.193 4.194c-.243 0-.358-.115-.358-.38v-.601c0-.256.115-.371.358-.371h2.506c.221 0 .336.115.336.371v.601c0 .265-.115.38-.336.38h-2.506zm8.795-4.725c.256 0 .371.128.371.393v.588c0 .265-.115.393-.371.393h-3.006l-.044 1.71c.278-.057.601-.093.902-.093 1.56 0 2.82.822 2.82 2.577 0 1.94-1.397 2.877-3.315 2.877-.601 0-1.304-.071-1.781-.265-.208-.08-.278-.164-.256-.415l.057-.729c.013-.172.106-.243.23-.243.345 0 .729.358 1.653.345 1.003 0 1.755-.464 1.755-1.454 0-1.017-.738-1.49-1.905-1.49-.703 0-1.017.164-1.339.164-.23 0-.336-.128-.336-.393l.044-3.571c0-.265.128-.393.38-.393h4.141z"/></svg>