<svg xmlns="http://www.w3.org/2000/svg" class="cel-icon cel-icon-stroke-width" viewBox="0 0 24 24"><path d="M3.448 18a.254.254 0 00-.178-.073h-.006a.25.25 0 00-.179.083L.192 21.247A.75.75 0 00.748 22.5H4a.75.75 0 00.507-.2L6 20.929a.243.243 0 00.081-.178v-.006a.252.252 0 00-.073-.177zM7.27 20.035a1.253 1.253 0 001.702.067l-.002.001c.611-.524 1.8-1.278 2.894-.447a1.265 1.265 0 001.699-.17l.001-.001.182-.227a.249.249 0 00-.018-.333l-8.673-8.667a.248.248 0 00-.341-.011l-.273.238a1.254 1.254 0 00-.109 1.644l-.002-.003c.832 1.094.078 2.282-.444 2.894a1.25 1.25 0 00.065 1.7zM14.312 18.1a.25.25 0 00.372-.02v-.001L23.1 7.6a1.87 1.87 0 00.405-1.167c0-.514-.205-.979-.539-1.319L18.378.523a1.835 1.835 0 00-1.283-.521c-.458 0-.876.167-1.198.443l.002-.002L5.843 9.256a.25.25 0 00-.012.365zM24 23a1 1 0 00-1-1H9a1 1 0 000 2h14a1 1 0 001-1z"/></svg>