<svg xmlns="http://www.w3.org/2000/svg" class="cel-icon cel-icon-stroke-width" viewBox="0 0 24 24"><path d="M14.552 1.149c-5.21 0-9.447 4.239-9.447 9.448s4.238 9.448 9.447 9.448c5.21 0 9.448-4.238 9.448-9.448s-4.237-9.448-9.448-9.448zm7.235 4.911c-.648-.02-1.553.029-2.34.351l.032.079c-1.166-1.107-2.501-1.775-3.111-2.047l.085-.019-.497-2.253a8.561 8.561 0 015.83 3.889zM8.781 4.304a8.51 8.51 0 016.226-2.238l.531 2.4c-.804.382-2.018 1.338-2.644 1.917-1.566-.381-3.097-.389-4.117-.326-.039-.486-.08-1.256.004-1.753zm-2.772 6.292c0-.34.022-.674.061-1.003l.122.097c.289 2.955 1.099 4.54 1.642 5.297-.009.273-.009.593.017.899a8.495 8.495 0 01-1.842-5.289zm2.637 3.966c-.458-.595-1.38-2.193-1.605-5.596.3-.617.732-1.384 1.245-1.961.864-.086 2.581-.167 4.317.238.195.766.655 2.385 1.333 3.585l-.048-.032-2.777 4.164.055.037c-.545-.033-1.536-.133-2.52-.435zm5.906 4.578c-.804 0-1.58-.114-2.317-.322.299-.068.629-.163.931-.29a11.736 11.736 0 005.222-.301 8.504 8.504 0 01-3.837.913zm4.325-2.028c-2.401.908-4.631.678-5.502.532-.455-.541-1.153-1.43-1.582-2.228l.071.048 2.774-4.161c1.147.139 3.021.028 3.915-.039l1.779 3.715a12.507 12.507 0 01-1.456 2.134zm2.172-2.732l-1.803-3.765c.198-.709.49-1.966.543-3.367.897-.367 2.048-.295 2.51-.247a8.527 8.527 0 01.133 6.899 6.84 6.84 0 01-1.383.481zM2.356 11.437s.187 6.918 7.828 10.833c0 0-9.691.139-7.828-10.833zM.138 16.581s.108 4.005 4.53 6.27c0 0-5.609.08-4.53-6.27z"/></svg>