<svg xmlns="http://www.w3.org/2000/svg" viewBox="0 0 127 24"><path d="M86.617 5.957a2.485 2.485 0 100-4.97 2.485 2.485 0 000 4.97zM94.068 5.957a2.485 2.485 0 100-4.97 2.485 2.485 0 000 4.97zM101.516 5.957a2.486 2.486 0 100-4.971 2.486 2.486 0 000 4.97zM44.647 2.038l1.712 4.466h1.488L45.484.654h-1.675l-2.366 5.85h3.731l-.462-1.216h-1.316l1.25-3.25zM63.813 2.038l-1.716 4.466h-1.484l2.363-5.85h1.675l2.363 5.85h-3.732l.467-1.216h1.31l-1.245-3.25zM47.64.654l2.363 5.85h1.675L54.04.654h-1.484L50.84 5.12 49.128.654H47.64zM54.416.654l2.366 5.85h1.671L60.82.654h-1.488L57.616 5.12 55.903.654h-1.487zM38.789 2.986l-.306-.046c-.715-.11-1.227-.214-1.227-.577s.417-.566 1.032-.566c.61.008 1.205.18 1.725.497l.477-1.178a4.588 4.588 0 00-2.255-.562c-1.423 0-2.444.765-2.444 1.912 0 1.002.765 1.552 1.912 1.71l.317.045c.765.11 1.228.233 1.228.577 0 .345-.447.578-1.032.578a3.353 3.353 0 01-1.958-.62l-.493 1.22a4.588 4.588 0 002.428.635c1.3 0 2.538-.593 2.538-1.962 0-.94-.791-1.468-1.942-1.663zM70.906 2.986L70.6 2.94c-.715-.11-1.227-.214-1.227-.577s.416-.566 1.032-.566c.61.008 1.205.18 1.724.497l.478-1.178a4.588 4.588 0 00-2.255-.562c-1.423 0-2.444.765-2.444 1.912 0 1.002.765 1.552 1.912 1.71l.317.045c.765.11 1.228.233 1.228.577 0 .345-.448.578-1.033.578a3.353 3.353 0 01-1.957-.62l-.493 1.22a4.588 4.588 0 002.427.635c1.3 0 2.54-.593 2.54-1.962 0-.94-.788-1.468-1.943-1.663zM44.857 9.226l-.692 2.86a5.161 5.161 0 00-2.214-.486c-1.881 0-3.15 1.354-3.15 3.552v7.265H35.91V9.199h2.864v1.491c.883-1.258 2.225-1.839 3.823-1.839.77-.027 1.54.1 2.26.375zM58.816 16.884h-9.773c.383 2.363 2.061 3.373 3.927 3.373a6.313 6.313 0 003.824-1.396l1.437 2.06c-1.617 1.385-3.44 1.867-5.444 1.867-3.954 0-6.772-2.75-6.772-6.955 0-4.206 2.696-6.966 6.596-6.966 3.705 0 6.263 2.821 6.263 6.954 0 .36-.027.73-.058 1.063zm-2.902-2.198c-.317-2.061-1.53-3.262-3.36-3.262-2.046 0-3.193 1.327-3.51 3.262h6.87zM73.33 14.548v7.892h-2.902v-1.59c-.703 1.024-2.114 1.934-4.26 1.934-3 0-4.672-1.797-4.672-4.206 0-2.585 1.95-4.133 5.353-4.133h3.567c-.137-1.912-1.215-2.986-3.387-2.986a6.187 6.187 0 00-3.667 1.346l-1.189-2.294a8.546 8.546 0 015.212-1.671c3.846.011 5.945 2.183 5.945 5.708zm-2.902 2.677v-.563h-3.277c-1.961 0-2.542.857-2.542 1.798 0 .94.65 1.67 2.114 1.67 1.61.004 3.705-.856 3.705-2.913v.008zM77.727 0h2.902v22.44h-2.902V0zM88.066 22.44h-2.91V9.2h2.902l.007 13.24zM91.923 20.34l7.353-8.514H92.14V9.199h10.851v2.103l-7.23 8.515h7.364v2.627H91.92V20.34h.003zM118.561 16.884h-9.772c.382 2.363 2.06 3.373 3.926 3.373a6.315 6.315 0 003.824-1.396l1.437 2.06c-1.617 1.385-3.441 1.867-5.444 1.867-3.969 0-6.775-2.765-6.775-6.967s2.695-6.966 6.595-6.966c3.705 0 6.263 2.822 6.263 6.955 0 .37-.027.742-.054 1.074zm-2.902-2.198c-.317-2.061-1.529-3.262-3.361-3.262-2.045 0-3.192 1.327-3.509 3.262h6.87zM126.17 18.88a2.55 2.55 0 00-1.037-1.02 2.723 2.723 0 00-1.356-.36 2.8 2.8 0 00-1.372.36c-.434.236-.794.59-1.037 1.02A2.85 2.85 0 00121 20.27a2.9 2.9 0 00.359 1.372c.239.422.593.768 1.021.996.422.238.897.365 1.381.368.481-.003.953-.13 1.372-.368a2.554 2.554 0 001.029-1.029 2.757 2.757 0 000-2.752l.008.024zm-.188 1.38a2.215 2.215 0 01-.294 1.087c-.19.343-.473.626-.817.816a2.235 2.235 0 01-2.197 0 2.01 2.01 0 01-.816-.816 2.118 2.118 0 01-.294-1.087c-.002-.387.1-.767.294-1.102.19-.344.473-.627.816-.817a2.295 2.295 0 011.087-.286 2.45 2.45 0 011.094.286c.348.185.632.47.817.817.201.333.308.714.31 1.102z" fill="#fff"/><path d="M124.291 20.563a.385.385 0 00-.106-.082c.176-.044.337-.134.466-.261a.814.814 0 00.245-.596.815.815 0 00-.547-.76 2.396 2.396 0 00-.76-.082h-1.07v3.038h.596v-1.24h.221a.548.548 0 01.335.089c.198.189.358.413.473.662l.286.481h.711l-.409-.661a4.06 4.06 0 00-.441-.588zm-1.184-1.274h.482c.145 0 .289.029.425.081a.437.437 0 01.171.131.338.338 0 01.066.196.32.32 0 01-.131.278c-.057.057-.196.114-.515.114h-.522l.024-.8z" fill="#fff"/><path fill-rule="evenodd" clip-rule="evenodd" d="M22.18 10.098a.96.96 0 00.948-.949v-7.6A.956.956 0 0022.18.6h-7.574a.956.956 0 00-.948.948.928.928 0 00.279.666L16.54 4.82l-9.647 9.65a.512.512 0 00-.15.341c.005.128.058.25.15.34l1.686 1.686c.09.09.212.144.34.15a.497.497 0 00.34-.15l9.647-9.642 2.604 2.603c.175.183.416.29.67.299zm-5.3 13.24a4.263 4.263 0 004.264-4.263v-6.584a.475.475 0 00-.47-.482h-1.45a.478.478 0 00-.474.474v5.942a2.52 2.52 0 01-2.52 2.52H5.247a2.52 2.52 0 01-2.523-2.52V7.421a2.52 2.52 0 012.523-2.523h5.59a.478.478 0 00.474-.474v-1.45a.474.474 0 00-.474-.473H4.573A4.263 4.263 0 00.31 6.764v12.311a4.263 4.263 0 004.263 4.263h12.308z" fill="#fff"/></svg>