<svg xmlns="http://www.w3.org/2000/svg" class="cel-icon cel-icon-stroke-width" viewBox="0 0 24 24"><path d="M10.458 18.374L7.721 21.11c-.511.489-1.206.79-1.971.79s-1.46-.301-1.972-.791l.001.001-.892-.891c-.504-.504-.816-1.201-.816-1.971s.312-1.466.816-1.971l5.8-5.8c.505-.504 1.201-.816 1.971-.816s1.466.312 1.971.816l.893.892a1.003 1.003 0 101.418-1.418l-.893-.892c-.867-.866-2.064-1.401-3.385-1.401s-2.519.535-3.386 1.401l-5.8 5.8C.61 15.725.074 16.922.074 18.244s.536 2.519 1.402 3.385l.892.891c.866.867 2.063 1.403 3.386 1.403s2.519-.536 3.385-1.403l2.736-2.735a1 1 0 00-1.414-1.415z"/><path d="M22.526 2.363l-.892-.892C20.766.608 19.57.074 18.249.074s-2.517.534-3.385 1.397l-2.905 2.9a1 1 0 001.414 1.414l2.9-2.9c.505-.504 1.201-.815 1.971-.815s1.466.311 1.971.815l.893.893c.505.504.817 1.201.817 1.971s-.312 1.467-.817 1.971l-5.8 5.8a2.76 2.76 0 01-1.964.817h-.014a2.758 2.758 0 01-1.962-.816 1 1 0 10-1.416 1.412 4.737 4.737 0 003.368 1.4h.017-.001.017a4.735 4.735 0 003.368-1.4l5.8-5.8c.867-.866 1.403-2.063 1.403-3.386s-.536-2.519-1.403-3.385z"/></svg>