<svg xmlns="http://www.w3.org/2000/svg" class="cel-icon cel-icon-stroke-width" viewBox="0 0 24 24"><path d="M5.672 8.515c0-.492.38-.886.853-.886.469 0 .853.398.853.886 0 .492-.38.886-.853.886-.473.005-.853-.394-.853-.886zm.848-3.492c.469 0 .853-.398.853-.886 0-.492-.38-.886-.853-.886-.469 0-.853.398-.853.886.005.488.384.886.853.886zm5.967 5.981V3.302h-.975v7.697H3.051v.952h8.461v8.705h.975v-8.705h8.4v-.947h-8.4zm1.458-3.97h6.938V5.67h-6.938v1.364zm-10.893 0H9.99V5.67H3.052v1.364zm6.937 9.595H7.252v-2.723H5.85v2.723H3.052v1.364H5.85v2.662h1.402v-2.662h2.737v-1.364zm10.959-1.256l-.961-.961-2.194 2.194-2.25-2.25-.966.956 2.25 2.25-2.227 2.227.961.961 2.227-2.227 2.166 2.166.961-.961-2.166-2.166 2.198-2.189z"/></svg>