<svg xmlns="http://www.w3.org/2000/svg" class="cel-icon cel-icon-stroke-width" viewBox="0 0 24 24"><path d="M18.055 12.772h-.054c-.42 0-.818 0-1.147.226-.364.253-.534.713-.534 1.455 0 .74.17 1.202.534 1.455.326.226.724.226 1.147.226h.054a.25.25 0 00.248-.248v-.11a.25.25 0 00-.248-.248h-.054c-.337 0-.63 0-.802-.118-.183-.127-.273-.44-.273-.956s.089-.829.273-.957c.172-.118.463-.118.802-.118h.054a.25.25 0 00.248-.248v-.11a.246.246 0 00-.248-.248zm-4.668 1.357h-2.758a.264.264 0 00-.264.264v.116c0 .145.118.264.264.264h2.758a.264.264 0 00.264-.264v-.116a.264.264 0 00-.264-.264zm5.352 5.003h-2.758a.264.264 0 00-.264.264v.116c0 .145.118.264.264.264h2.758a.264.264 0 00.264-.264v-.116a.264.264 0 00-.264-.264zm0 1.125h-2.758a.264.264 0 00-.264.264v.116c0 .145.118.264.264.264h2.758a.264.264 0 00.264-.264v-.116a.264.264 0 00-.264-.264zm-6.318-1.366a.413.413 0 11-.826 0 .413.413 0 01.826 0zm0 2.251a.413.413 0 11-.826 0 .413.413 0 01.826 0zm.966-1.446h-2.758a.264.264 0 00-.264.264v.116c0 .145.118.264.264.264h2.758a.264.264 0 00.264-.264v-.118a.262.262 0 00-.264-.261zm-5.409-5.567H6.921v-1.057a.264.264 0 00-.264-.264h-.116a.264.264 0 00-.264.264v1.057H5.22a.264.264 0 00-.264.264v.116c0 .145.118.264.264.264h1.057v1.057c0 .145.118.264.264.264h.116a.264.264 0 00.264-.264v-1.057h1.057a.264.264 0 00.264-.264v-.116a.264.264 0 00-.264-.264zm-.176 4.767l-.083-.083a.264.264 0 00-.373 0l-.749.749-.749-.749a.264.264 0 00-.373 0l-.083.083a.264.264 0 000 .373l.749.749-.749.749a.264.264 0 000 .373l.083.083c.103.103.27.103.373 0l.749-.749.749.749c.103.103.27.103.373 0l.083-.083a.264.264 0 000-.373l-.749-.749.749-.749a.264.264 0 000-.373zM19.76 0H4.241c-.8 0-1.448.648-1.448 1.448v21.104c0 .8.648 1.448 1.448 1.448h15.517c.8 0 1.448-.648 1.448-1.448V1.448A1.446 1.446 0 0019.76 0zM4.461 1.828h15.083V9.4H4.461V1.828zm4.418 19.407a.943.943 0 01-.943.943H5.359a.943.943 0 01-.943-.943v-2.577c0-.521.422-.943.943-.943h2.577c.521 0 .943.422.943.943v2.577zm0-5.515a.943.943 0 01-.943.943H5.359a.943.943 0 01-.943-.943v-2.579c0-.521.422-.943.943-.943h2.577c.521 0 .943.422.943.943v2.579zm5.355 5.515a.943.943 0 01-.943.943h-2.579a.943.943 0 01-.943-.943v-2.577c0-.521.422-.943.943-.943h2.577c.521 0 .943.422.943.943v2.577h.002zm0-5.515a.943.943 0 01-.943.943h-2.579a.943.943 0 01-.943-.943v-2.579c0-.521.422-.943.943-.943h2.577c.521 0 .943.422.943.943v2.579h.002zm5.354 5.515a.943.943 0 01-.943.943h-2.579a.943.943 0 01-.943-.943v-2.577c0-.521.422-.943.943-.943h2.577c.521 0 .943.422.943.943v2.577h.002zm0-5.515a.943.943 0 01-.943.943h-2.579a.943.943 0 01-.943-.943v-2.579c0-.521.422-.943.943-.943h2.577c.521 0 .943.422.943.943v2.579h.002z"/></svg>