<svg xmlns="http://www.w3.org/2000/svg" class="cel-icon cel-icon-stroke-width" viewBox="0 0 24 24"><path d="M21.084 18.849a4.11 4.11 0 01-4.109 4.109H5.113a4.11 4.11 0 01-4.109-4.109V6.983a4.11 4.11 0 014.109-4.109h6.036c.251 0 .457.205.457.457v1.397a.458.458 0 01-.457.457H5.743a2.428 2.428 0 00-2.429 2.429V18.22a2.428 2.428 0 002.429 2.429h10.606a2.428 2.428 0 002.429-2.429v-5.716c0-.251.205-.457.457-.457h1.397c.251 0 .457.205.457.457v6.346zm1.912-9.584a.921.921 0 01-.913.913c-.242 0-.47-.1-.644-.269l-2.511-2.511-9.296 9.296c-.087.087-.215.142-.329.142s-.242-.059-.329-.142l-1.625-1.625a.49.49 0 01-.142-.329c0-.114.059-.242.142-.329l9.3-9.3L14.138 2.6a.908.908 0 01-.269-.644c0-.498.415-.913.913-.913h7.301c.498 0 .913.415.913.913v7.31z"/></svg>