<svg xmlns="http://www.w3.org/2000/svg" class="cel-icon cel-icon-stroke-width" viewBox="0 0 24 24"><path d="M12 0C5.384 0 0 5.384 0 12s5.384 12 12 12 12-5.383 12-12S18.617 0 12 0zm5.649 21.248l-.638-1.111a10.44 10.44 0 01-.509.28l.645 1.121a10.77 10.77 0 01-4.765 1.294V21.44c-.281.006-.256.021-.396.021-.252 0-.449-.019-.73-.037v1.389a10.769 10.769 0 01-4.457-1.306l.727-1.248a9.186 9.186 0 01-.495-.301l-.732 1.256a10.916 10.916 0 01-3.394-3.326l1.252-.763a9.624 9.624 0 01-.301-.496l-1.254.765a10.765 10.765 0 01-1.412-4.626h1.436c-.016-.281-.035-.444-.035-.68 0-.156.016-.446.023-.446H1.169A10.757 10.757 0 012.53 6.736l1.165.689c.09-.171.191-.336.291-.502l-1.161-.686a10.94 10.94 0 013.527-3.484l.625 1.088c.163-.105.327-.206.496-.302l-.619-1.077a10.762 10.762 0 014.4-1.275v1.156c.281-.019.478-.037.73-.037.14 0 .114.015.396.021V1.169c1.742.06 3.38.533 4.821 1.324l-.543.933c.171.091.335.193.5.294l.544-.934a10.927 10.927 0 013.394 3.326l-.904.551c.105.162.205.328.301.496l.906-.553a10.762 10.762 0 011.432 5.034h-3.606c.016 0 .03.367.03.563s-.014.281-.03.563h3.585a10.76 10.76 0 01-1.34 4.498l-1.014-.6a9.67 9.67 0 01-.302.497l1.019.602a10.927 10.927 0 01-3.527 3.483zM7.406 9.297h1.282v6.361h1.119V8.245H8.021zm6.721 1.206a2.281 2.281 0 00-.293.019l.365-1.224h2.285V8.247h-3.063l-1.166 3.898h.369c.365-.438.799-.658 1.301-.658.451 0 .828.155 1.128.466.301.301.451.689.451 1.162 0 .461-.152.853-.456 1.177a1.51 1.51 0 01-1.129.47c-.342 0-.632-.08-.869-.24-.237-.163-.472-.443-.706-.84l-.845.716c.566.922 1.341 1.383 2.324 1.383.797 0 1.458-.253 1.983-.759s.787-1.149.787-1.93c0-.755-.232-1.375-.696-1.858-.461-.486-1.051-.73-1.771-.73z"/></svg>