<svg xmlns="http://www.w3.org/2000/svg" class="cel-icon cel-icon-stroke-width" viewBox="0 0 24 24"><path d="M12 0C5.384 0 0 5.384 0 12s5.383 12 12 12 12-5.383 12-12S18.617 0 12 0zm5.893 21.093l-1.788-3.112a7.155 7.155 0 01-1.009.574l1.792 3.118a10.754 10.754 0 01-4.388 1.154V21.44c-.328.006-.279.021-.419.021-.252 0-.472-.019-.753-.037v1.394c-1.633-.1-3.17-.563-4.53-1.31l.727-1.248a9.624 9.624 0 01-.496-.301l-.732 1.256a10.927 10.927 0 01-3.394-3.326l1.252-.763a10.403 10.403 0 01-.302-.496l-1.254.765a10.76 10.76 0 01-1.411-4.62h1.436c-.017-.281-.036-.491-.036-.726 0-.156.016-.492.023-.492H1.169a10.77 10.77 0 011.357-4.819l1.165.689c.09-.171.191-.336.291-.502l-1.161-.686a10.92 10.92 0 013.527-3.484l.625 1.088c.163-.105.327-.206.496-.302l-.618-1.077a10.763 10.763 0 014.474-1.28v1.16c.281-.019.501-.037.753-.037.14 0 .091.015.419.021V1.175c1.697.077 3.294.547 4.701 1.32l-.543.933c.172.091.335.193.5.294l.544-.934a10.927 10.927 0 013.394 3.326l-.904.551c.105.162.205.328.3.497l.907-.553a10.76 10.76 0 011.429 4.947h-1.107c.007 0 .023.336.023.492 0 .235-.019.445-.035.726h1.101a10.766 10.766 0 01-1.34 4.492l-1.014-.6a9.23 9.23 0 01-.302.496l1.019.602a10.93 10.93 0 01-3.281 3.328zm-8.075-7.787c.32-.378.585-.705.794-.982s.369-.516.478-.718a2.43 2.43 0 00.322-1.186c0-.634-.23-1.165-.691-1.594-.458-.429-1.024-.643-1.7-.643-1.399 0-2.188.781-2.367 2.343h1.114c.109-.886.538-1.33 1.287-1.33.358 0 .659.117.903.35s.365.524.365.869c0 .24-.091.511-.274.811-.089.154-.22.344-.391.572s-.384.496-.636.806L6.449 15.72h4.979v-1.051H8.667l1.152-1.364zm5.267-2.741a2.31 2.31 0 00-.293.019l.365-1.224h2.285V8.308h-3.063l-1.166 3.898h.37c.365-.438.799-.657 1.301-.657.451 0 .827.155 1.128.465.301.301.451.688.451 1.162 0 .461-.152.853-.456 1.177-.304.313-.68.471-1.128.471-.343 0-.632-.08-.869-.24-.237-.163-.472-.443-.706-.841l-.845.716c.567.922 1.341 1.383 2.323 1.383.797 0 1.458-.253 1.983-.759s.787-1.149.787-1.93c0-.756-.232-1.375-.696-1.858-.461-.486-1.052-.73-1.772-.73z"/></svg>