<svg xmlns="http://www.w3.org/2000/svg" class="cel-icon cel-icon-stroke-width" viewBox="0 0 24 24"><path d="M12 0C5.383 0 0 5.383 0 12s5.383 12 12 12c6.616 0 12-5.383 12-12S18.616 0 12 0zm5.648 21.248l-.638-1.111a9.655 9.655 0 01-.509.28l.645 1.121a10.752 10.752 0 01-4.679 1.29V21.44c-.25.006-.294.021-.433.021-.252 0-.417-.019-.768-.037v1.39a10.746 10.746 0 01-4.467-1.307l.727-1.248a8.984 8.984 0 01-.496-.302l-.731 1.257a10.916 10.916 0 01-3.394-3.326l1.252-.764a9.49 9.49 0 01-.302-.496l-1.254.765a10.764 10.764 0 01-1.419-4.742h3.593c-.015 0-.03-.405-.03-.601s.014-.3.03-.601H1.176A10.761 10.761 0 012.53 6.734l1.165.689c.09-.171.191-.336.291-.502l-1.16-.686a10.94 10.94 0 013.527-3.484l.625 1.088c.163-.105.327-.207.496-.302L6.855 2.46a10.753 10.753 0 014.411-1.276V2.34c.35-.019.516-.037.768-.037.14 0 .183.015.433.021V1.169a10.77 10.77 0 014.735 1.321l-.543.932c.171.091.335.193.5.294l.544-.934a10.927 10.927 0 013.394 3.326l-.904.551c.106.162.205.328.301.496l.907-.553a10.766 10.766 0 011.425 4.843h-1.104c.008.3.023.327.023.484 0 .236-.019.467-.035.718h1.109a10.775 10.775 0 01-1.347 4.614l-1.014-.6a9.67 9.67 0 01-.302.497l1.019.602a10.927 10.927 0 01-3.527 3.483z"/></svg>