<svg xmlns="http://www.w3.org/2000/svg" class="cel-icon cel-icon-stroke-width" viewBox="0 0 24 24"><path d="M12 0C5.384 0 0 5.384 0 12s5.384 12 12 12 12-5.383 12-12c0-6.616-5.383-12-12-12zm5.649 21.248l-.638-1.111a10.44 10.44 0 01-.509.28l.645 1.121a10.758 10.758 0 01-4.705 1.291V21.44c-.3.006-.268.021-.407.021-.252 0-.442-.019-.742-.037v1.392A10.765 10.765 0 016.8 21.508l.727-1.248a9.186 9.186 0 01-.495-.301L6.3 21.215a10.916 10.916 0 01-3.394-3.326l1.252-.763a9.624 9.624 0 01-.301-.496l-1.254.765a10.77 10.77 0 01-1.41-4.595h1.434c-.016-.35-.035-.481-.035-.716 0-.157.016-.482.023-.482H1.171c.064-1.76.55-3.414 1.359-4.864l1.165.689c.09-.171.191-.336.291-.502l-1.161-.686a10.94 10.94 0 013.527-3.484l.625 1.088c.163-.105.327-.206.496-.302l-.619-1.077a10.761 10.761 0 014.437-1.277v1.158c.3-.019.489-.037.742-.037.14 0 .107.015.407.021V1.173c1.72.069 3.337.54 4.761 1.322l-.543.933c.171.091.335.193.5.294l.544-.934a10.927 10.927 0 013.394 3.326l-.904.551c.105.162.205.328.301.497l.906-.553a10.757 10.757 0 011.431 4.992h-3.604c.016 0 .03.403.03.599s-.014.25-.03.599h3.583a10.76 10.76 0 01-1.338 4.467l-1.014-.6a9.67 9.67 0 01-.302.497l1.019.602a10.94 10.94 0 01-3.527 3.484z"/></svg>