<svg xmlns="http://www.w3.org/2000/svg" class="cel-icon cel-icon-stroke-width" viewBox="0 0 24 24"><path d="M12 0C5.384 0 0 5.383 0 12s5.383 12 12 12 12-5.383 12-12S18.617 0 12 0zm5.648 21.248l-.639-1.111a9.272 9.272 0 01-.509.28l.644 1.121a10.768 10.768 0 01-4.812 1.296v-1.393c0 .006-.268.021-.408.021-.252 0-.442-.019-.742-.037v1.385a10.774 10.774 0 01-4.385-1.301l.727-1.248a8.984 8.984 0 01-.496-.302l-.732 1.257a10.927 10.927 0 01-3.394-3.326l1.252-.764a8.838 8.838 0 01-.301-.496l-1.254.765a10.776 10.776 0 01-1.42-4.755h1.444c-.016-.25-.035-.456-.035-.692 0-.156.016-.108.023-.458H1.172c.08-1.719.563-3.333 1.355-4.753l1.165.689c.09-.171.191-.336.291-.502l-1.161-.686a10.94 10.94 0 013.527-3.484l.625 1.088c.163-.105.327-.207.496-.302l-.619-1.077a10.756 10.756 0 014.329-1.27v3.582c.3-.016.379-.03.575-.03s.575.014.575.03V1.168a10.76 10.76 0 014.868 1.326l-.543.933c.171.091.335.193.5.294l.544-.934a10.927 10.927 0 013.394 3.326l-.904.551c.105.162.205.328.301.496l.907-.553a10.772 10.772 0 011.427 4.881h-1.105c.007.35.023.302.023.458 0 .236-.019.442-.035.692h1.11a10.769 10.769 0 01-1.348 4.627l-1.014-.6a9.652 9.652 0 01-.301.497l1.019.602a10.927 10.927 0 01-3.527 3.483z"/></svg>