<svg xmlns="http://www.w3.org/2000/svg" class="cel-icon cel-icon-stroke-width" viewBox="0 0 24 24"><path d="M12 0C5.384 0 0 5.383 0 12s5.384 12 12 12 12-5.383 12-12S18.616 0 12 0zm5.648 21.248l-.638-1.111a9.272 9.272 0 01-.509.28l.645 1.122a10.75 10.75 0 01-4.644 1.289v-1.387c-.3.006-.293.021-.433.021-.252 0-.467-.019-.767-.037v1.392a10.752 10.752 0 01-4.246-1.172l1.81-3.108a7.253 7.253 0 01-1.005-.581l-1.807 3.103a10.909 10.909 0 01-3.149-3.17l1.252-.764a9.624 9.624 0 01-.301-.496l-1.254.765c-.807-1.402-1.309-3-1.417-4.704h1.441c-.016-.3-.035-.481-.035-.717 0-.156.016-.183.023-.483H1.175c.08-1.719.563-3.334 1.355-4.754l1.165.689c.09-.171.191-.336.291-.502l-1.161-.686a10.94 10.94 0 013.527-3.484l.625 1.088a9.23 9.23 0 01.496-.302l-.618-1.077a10.753 10.753 0 014.447-1.278v1.158c.3-.019.515-.037.767-.037.14 0 .133.015.433.021V1.173c1.697.078 3.293.547 4.7 1.32l-.543.933c.171.091.335.193.5.294l.544-.934a10.927 10.927 0 013.394 3.326l-.904.551c.105.162.205.328.301.497l.907-.553a10.772 10.772 0 011.427 4.882h-1.105c.007.3.023.327.023.483 0 .236-.018.417-.035.717h1.107a10.761 10.761 0 01-1.345 4.576l-1.014-.6a9.67 9.67 0 01-.302.497l1.019.602a10.927 10.927 0 01-3.527 3.483z"/></svg>