<svg xmlns="http://www.w3.org/2000/svg" class="cel-icon cel-icon-stroke-width" viewBox="0 0 24 24"><path d="M5.75 2.75A.25.25 0 016 3v1.526c.006.29.063 2.851 0 2.85 8.031.031 12.031.031 12 0-.047-.047 0-2.81 0-2.876V3a.25.25 0 01.25-.25h1.25a2 2 0 012 2v17c0 1.105-.895 2.25-2 2.25h-15c-1.105 0-2-1.145-2-2.25v-17a2 2 0 012-2zm8.966 8.067l-3.34 4.57a.21.21 0 01-.323.024L9.491 13.81c-.42-.432-1.101-.433-1.522-.002s-.422 1.13-.002 1.561l1.859 1.908c.376.384.885.6 1.415.6.047 0 .094 0 .141-.005a1.983 1.983 0 001.462-.817l3.593-4.913c.231-.315.28-.733.129-1.095s-.479-.615-.86-.662a1.065 1.065 0 00-.989.433zM11.321.091A2.508 2.508 0 0114.5 2.5v.25h1.75a.25.25 0 01.25.25v3a.25.25 0 01-.25.25h-8.5A.25.25 0 017.5 6V3a.25.25 0 01.25-.25H9.5v-.162A2.558 2.558 0 0111.321.091zM12 1.5A.75.75 0 1012 3a.75.75 0 000-1.5z"/></svg>