<svg xmlns="http://www.w3.org/2000/svg" class="cel-icon cel-icon-stroke-width" viewBox="0 0 24 24"><path d="M20.437 9.151a1.906 1.906 0 00-1.905 1.905c0 .098.015.192.029.286-1.328.279-4.035.845-6.227 1.283a4.06 4.06 0 00-3.169-2.688c.145-1.808.341-3.838.402-4.604a2.666 2.666 0 00-.14-5.329 2.668 2.668 0 00-.856 5.193l-.59 4.716a4.058 4.058 0 00-3.545 4.024c0 1.082.427 2.138 1.118 2.866l-1.643 2.816h-.01c-1.239 0-2.244.93-2.244 2.169 0 1.24 1.005 2.208 2.244 2.208s2.245-1.023 2.245-2.263a2.26 2.26 0 00-.418-1.31c.343-.748.836-1.832 1.24-2.721a4.06 4.06 0 005.586-3.763c0-.067-.007-.134-.01-.2l6.295-1.65a1.904 1.904 0 003.506-1.032 1.906 1.906 0 00-1.907-1.905z"/></svg>