<svg xmlns="http://www.w3.org/2000/svg" class="cel-icon cel-icon-stroke-width" viewBox="0 0 24 24"><path d="M8.742 10.423c1.669 0 3.103-1.35 3.103-3.103 0-1.748-1.35-3.103-3.103-3.103-1.669 0-3.103 1.35-3.103 3.103 0 1.748 1.35 3.103 3.103 3.103zm0-4.828a1.7 1.7 0 011.725 1.725 1.73 1.73 0 01-1.725 1.725A1.7 1.7 0 017.017 7.32c0-.97.797-1.725 1.725-1.725zm6.516 8.105c-1.669 0-3.103 1.35-3.103 3.103 0 1.748 1.35 3.103 3.103 3.103 1.669 0 3.103-1.35 3.103-3.103s-1.35-3.103-3.103-3.103zm0 4.823a1.7 1.7 0 01-1.725-1.725c0-.97.797-1.725 1.725-1.725.97 0 1.725.75 1.725 1.725s-.797 1.725-1.725 1.725zM6.18 19.946L16.59 3.287l1.228.768-10.41 16.659-1.228-.768z"/></svg>