<svg xmlns="http://www.w3.org/2000/svg" class="cel-icon cel-icon-stroke-width" viewBox="0 0 24 24"><path d="M18.913 17.695h-1.218v1.218h-1.192v-1.218h-1.192v-1.192h1.192v-1.192h1.192v1.192h1.218v1.192zm-5.165-9.218h-.477q-.026-.185-.053-.331t-.053-.252q-.026-.132-.079-.225t-.106-.172-.119-.132-.119-.106-.119-.079-.146-.053q-.053-.026-.119-.04t-.119-.04h-1.218v5.165q0 .079.013.146t.013.119.013.106.013.106q.026.053.053.079l.053.053q.053.026.093.066t.093.066.132.04.159.013q.079.026.172.026h.199v.477H8.504v-.477q.159 0 .291-.013t.238-.04q.106 0 .185-.04t.106-.093q.079-.053.119-.119t.04-.146q.026-.079.04-.172t.013-.199V7.045H8.371q-.079.026-.172.026t-.146.026q-.079.026-.146.066t-.146.066l-.119.119-.119.146-.093.172-.066.225q-.026.106-.053.252t-.053.331h-.477V6.461h6.966v2.013zm3.364 5.006V5.087q0-.371-.132-.689t-.397-.556q-.265-.265-.583-.397t-.715-.132H5.088q-.371 0-.689.132t-.556.397q-.265.238-.397.556t-.132.689v10.197q0 .397.132.715t.397.583q.238.265.556.397t.689.132h8.396q0 .742.265 1.377t.795 1.139q.53.53 1.179.795t1.391.265 1.377-.265 1.139-.795q.53-.503.795-1.139t.265-1.377-.265-1.391-.795-1.179q-.503-.53-1.139-.795t-1.377-.265z"/></svg>