<svg xmlns="http://www.w3.org/2000/svg" class="cel-icon cel-icon-stroke-width" viewBox="0 0 24 24"><path d="M3.308 9.689a3.028 3.028 0 003.056-3.012c.009-1.694-1.314-3.061-2.986-3.091C1.702 3.555.282 4.949.264 6.633c-.013 1.645 1.38 3.043 3.043 3.056zm10.108.807c-.207-1.036-1.301-.631-1.301-.631s-4.507 1.182-5.455 1.182H1.421c-.926 0-1.42.595-1.42 1.521v5.954c0 .926.494 2.086 1.42 2.086h3.444c.926 0 1.424-1.16 1.424-2.086v-4.917l5.835-1.68c.004 0 1.499-.393 1.292-1.429zm6.505-7.118H12.68a4.08 4.08 0 00-4.075 4.075v1.764l1.773-.304v-1.46a2.304 2.304 0 012.302-2.302h7.246a2.304 2.304 0 012.302 2.302v9.094a2.304 2.304 0 01-2.302 2.302H12.68a2.304 2.304 0 01-2.302-2.302v-2.646l-1.773.366v2.28a4.08 4.08 0 004.075 4.075h7.246a4.08 4.08 0 004.075-4.075V7.453a4.086 4.086 0 00-4.079-4.075z"/></svg>