<svg xmlns="http://www.w3.org/2000/svg" class="cel-icon cel-icon-stroke-width" viewBox="0 0 24 24"><path d="M6.117 8.344H15V6.305q0-.14.035-.246l.082-.246q.188-.352.563-.446t.703.094l6 3.305q.14.093.234.188t.188.234q.164.352.024.715t-.516.527l-6 2.648q-.094.047-.176.059t-.176.011q-.398 0-.679-.281t-.281-.679v-1.992H6.118q-1.664 0-2.425 1.043t-.762 2.262q0 .679.211 1.254t.587 1.02q.398.491 1.007.761t1.383.27H21.19v1.851H6.119q-1.171 0-2.145-.422t-1.698-1.194q-.633-.727-.938-1.641t-.305-1.899q0-.961.329-1.898.328-.914.972-1.641T3.94 8.791q.938-.446 2.18-.446z"/></svg>