<svg xmlns="http://www.w3.org/2000/svg" class="cel-icon cel-icon-stroke-width" viewBox="0 0 24 24"><path d="M21.997 9.487V7.341l-1.699 1.663v.483h-.483l-.447.429a1.34 1.34 0 01-1.896 0l-.465-.429h-3.469V2.852h6.76v1.073l1.556-1.538c.018 0 .018-.018.036-.018a1.675 1.675 0 00-1.592-1.18h-6.76c-.93 0-1.699.751-1.699 1.663v6.635c0 .912.751 1.663 1.699 1.663h6.76c.948 0 1.699-.733 1.699-1.663zM8.459 1.189h-6.76C.769 1.189 0 1.94 0 2.852v6.635c0 .912.751 1.663 1.699 1.663h6.76c.93 0 1.699-.751 1.699-1.663V2.852c0-.93-.751-1.663-1.699-1.663zm0 8.298h-6.76V2.852h6.76v6.635zM8.459 12.832h-6.76c-.93 0-1.699.751-1.699 1.663v6.653c0 .912.751 1.663 1.699 1.663h6.76c.93 0 1.699-.751 1.699-1.663v-6.671c0-.912-.751-1.645-1.699-1.645zm0 8.316h-6.76v-6.671h6.76v6.671zM20.298 12.832h-6.76c-.93 0-1.699.751-1.699 1.663v6.653c0 .912.751 1.663 1.699 1.663h6.76c.93 0 1.699-.751 1.699-1.663v-6.671c0-.912-.751-1.645-1.699-1.645zm0 8.316h-6.76v-6.671h6.76v6.671z"/><path d="M18.778 9.344c-.107.107-.215.143-.358.143s-.25-.054-.358-.143l-2.683-2.629a.478.478 0 010-.716l.68-.68c.089-.089.215-.143.358-.143s.25.054.358.143l1.645 1.61 4.024-3.97c.107-.089.215-.143.358-.143s.25.054.358.143l.68.68a.478.478 0 010 .716l-5.061 4.99z"/></svg>