<svg xmlns="http://www.w3.org/2000/svg" class="cel-icon cel-icon-stroke-width" viewBox="0 0 24 24"><path d="M15.201 8.363a2.756 2.756 0 11-5.512 0 2.756 2.756 0 015.512 0zm2.705 10.03v-2.19c-.839-2.209-2.812-3.853-5.727-3.853s-5.222 1.988-5.861 4.198l.122 1.845h11.466zm4.269-10.357a2.43 2.43 0 11-2.428-2.429 2.427 2.427 0 012.428 2.429zm-14.421 0a2.43 2.43 0 11-4.86.002 2.43 2.43 0 014.86-.002zm11.476 3.516c-.937 0-1.594.186-2.356.511 2.285 1.505 3.042 3.906 3.052 3.94l.135.313h3.94v-1.368c-.265-1.948-2.2-3.397-4.77-3.397zM4.864 16.005c.009-.034.648-2.35 2.895-3.857a5.85 5.85 0 00-2.515-.568c-2.57 0-4.681 1.458-5.244 3.406l.031 1.332h4.831l.003-.312z"/></svg>