<svg xmlns="http://www.w3.org/2000/svg" class="cel-icon cel-icon-stroke-width" viewBox="0 0 24 24"><path d="M20.001 9.001c0 .271-.099.507-.296.705s-.434.296-.705.296H5.001c-.271 0-.507-.099-.705-.296S4 9.272 4 9.001c0-.271.099-.507.296-.705l7-7c.198-.198.434-.296.705-.296s.507.099.705.296l7 7a.964.964 0 01.296.705zm-.297 5.298c.198.198.296.434.296.705s-.099.507-.296.705l-7 6.995c-.198.198-.434.296-.705.296s-.507-.099-.705-.296l-7-7c-.198-.198-.296-.434-.296-.705s.099-.507.296-.705a.964.964 0 01.705-.296h13.999c.271 0 .507.103.705.301z"/></svg>