<svg xmlns="http://www.w3.org/2000/svg" class="cel-icon cel-icon-stroke-width" viewBox="0 0 24 24"><path d="M22.5 21h-21a.5.5 0 00-.5.5v1A1.5 1.5 0 002.5 24h19a1.5 1.5 0 001.5-1.5v-1a.5.5 0 00-.5-.5zM21.5 14c-3.72 0-5.955-.579-6.644-1.723-.7-1.16.243-2.939 1.073-4.508a6.947 6.947 0 001.066-2.762l.005-.04.002-.143A4.827 4.827 0 0011.991 0H12a4.814 4.814 0 00-5 4.975v-.008a7.06 7.06 0 001.099 2.859L8.083 7.8c.829 1.562 1.768 3.334 1.074 4.485S6.231 14 2.5 14C.944 14 0 16.778 0 18a1.5 1.5 0 001.5 1.5h21A1.5 1.5 0 0024 18c0-1.222-.944-4-2.5-4z"/></svg>