<svg xmlns="http://www.w3.org/2000/svg" class="cel-icon cel-icon-stroke-width" viewBox="0 0 24 24"><path d="M17.553 20.487h-.606a.245.245 0 01-.23-.164l-.001-.002-6.069-17.775a1.464 1.464 0 00-1.378-.989h-.007c-.639 0-1.182.41-1.382.981l-.003.01-6.049 17.773a.247.247 0 01-.231.166H.979a.977.977 0 000 1.954l.033-.001H1.01h2.94a.976.976 0 00.976-.976v-.001-.014a.947.947 0 00-.804-.936l-.005-.001a.24.24 0 01-.164-.117l-.001-.001a.237.237 0 01-.02-.201l-.001.002 1.496-4.402a.247.247 0 01.231-.166h7.211c.107 0 .197.069.231.164l.001.002 1.503 4.404a.245.245 0 01-.179.317h-.002a.952.952 0 00-.791.937v.012-.001.001c0 .539.437.976.976.976h2.971a.977.977 0 000-1.954l-.033.001h.002zm-11.06-6.813a.244.244 0 01-.23-.325l-.001.002 2.769-8.133c.034-.097.125-.166.231-.166s.198.069.231.164l.001.002 2.777 8.132a.247.247 0 01-.033.222l.001-.001a.243.243 0 01-.197.1h-.003z"/><path d="M22.991 20.487h-.219a.246.246 0 01-.231-.164l-.001-.002-4.245-12.425c-.21-.609-.778-1.039-1.446-1.039s-1.237.43-1.443 1.028l-.003.011-1.146 3.375a.977.977 0 001.847.637l.002-.007.515-1.509a.244.244 0 01.461-.001l.001.002 1.462 4.289a.243.243 0 01-.23.323H16.957a.977.977 0 00-.001 1.954H19.152c.107 0 .197.069.231.164l.001.002 1.097 3.204a.243.243 0 01-.115.298l-.001.001a.954.954 0 00-.519.846v.001c0 .539.437.976.976.976h2.201a.977.977 0 000-1.954l-.033.001h.002z"/></svg>