<svg xmlns="http://www.w3.org/2000/svg" class="cel-icon cel-icon-stroke-width" viewBox="0 0 24 24"><path d="M19.223 19.322h-.529a.213.213 0 01-.201-.143L13.194 3.845a1.276 1.276 0 00-1.203-.854h-.006c-.547 0-1.033.344-1.21.855L5.494 19.178a.215.215 0 01-.202.143H4.78c-.311-.01-.603.149-.762.413s-.159.594 0 .859.45.423.762.413h2.566c.226 0 .444-.088.604-.247s.25-.373.25-.596a.82.82 0 00-.706-.82c-.061-.011-.113-.048-.144-.102s-.037-.115-.017-.172l1.306-3.797a.215.215 0 01.202-.143h6.296c.091 0 .172.058.202.143l1.312 3.799a.211.211 0 01-.158.274.824.824 0 00-.691.818c0 .224.09.438.25.596s.377.247.604.247h2.566c.311.01.603-.149.762-.413s.159-.594 0-.859a.855.855 0 00-.762-.413l.002-.001zm-9.655-5.878c-.069 0-.133-.033-.174-.088s-.051-.126-.028-.191l2.417-7.016a.214.214 0 01.404 0l2.424 7.015a.21.21 0 01-.203.277l-4.841.003z"/></svg>