<svg xmlns="http://www.w3.org/2000/svg" class="cel-icon cel-icon-stroke-width" viewBox="0 0 46 46"><path d="M29 19.71h-.717v-.872h-.746V18H29v1.71zm-2.107-.872h-1.464V18h1.464v.838zM29 22.17h-.717v-1.71H29v1.71zm-4.215-3.333h-1.463V18h1.463v.838zM29 24.632h-.717v-1.709H29v1.71zm-6.322-5.794h-1.463V18h1.463v.838zM29 27.094h-.717v-1.71H29v1.71zm-8.43-8.256h-1.463V18h1.464v.838zM29 29.556h-.717v-1.71H29v1.71zM29 32h-1.463v-.838h.746v-.871H29V32zM18.463 18.838h-.746v.871H17V18h1.463v.838zM26.893 32h-1.464v-.838h1.464V32zm-9.176-9.83H17v-1.709h.717v1.71zM24.785 32h-1.463v-.838h1.463V32zm-7.068-7.367H17v-1.71h.717v1.71zM22.678 32h-1.463v-.838h1.463V32zm-4.96-4.906H17v-1.71h.717v1.71zM20.57 32h-1.464v-.838h1.464V32zm-2.854-2.444H17v-1.71h.717v1.71zM18.463 32H17v-1.71h.717v.872h.746V32zM15 34h-1V16h1v18zM32 34h-1V16h1v18z" fill="#333"/></svg>