<svg xmlns="http://www.w3.org/2000/svg" class="cel-icon cel-icon-stroke-width" viewBox="0 0 46 46"><path fill-rule="evenodd" clip-rule="evenodd" d="M16.74 18.455v-1.067h.938v.677h-.243v.39h-.696zm3.443-1.067h-1.879v.677h1.879v-.678zm.626 0v.677h1.878v-.678h-1.878zm2.504 0v.677h1.878v-.678h-1.878zm2.504 0v.677h1.879v-.678h-1.879zm2.505 0v.677h.243v.39h.696v-1.067h-.94zm.939 1.778h-.696V21.3h.696v-2.134zm0 2.846h-.696v2.134h.696v-2.134zm0 2.845h-.696v2.134h.696v-2.134zm0 2.846h-.696v2.134h.696v-2.134zm0 2.845h-.696v.39h-.243v.677h.939v-1.067zm-1.565 1.067v-.677h-1.879v.677h1.879zm-2.505 0v-.677h-1.878v.677h1.878zm-2.504 0v-.677h-1.878v.677h1.878zm-2.504 0v-.677h-1.879v.677h1.879zm-2.505 0v-.677h-.243v-.39h-.696v1.067h.94zm-.939-1.778h.696v-2.134h-.696v2.134zm0-2.846h.696v-2.134h-.696v2.134zm0-2.845h.696v-2.134h-.696v2.134zm0-2.846h.696v-2.134h-.696V21.3z" fill="#333"/><path d="M15.26 34.732V35c-1.677-.024-2.328-.17-3.03-.61-.7-.439-1.101-1.439-1.101-2.805v-4.317c0-1.683-.451-2.268-2.129-2.78 1.678-.488 2.129-1.049 2.129-2.756V17.39c0-1.39.375-2.341 1.102-2.78.726-.44 1.377-.586 3.03-.61v.268c-1.728.44-2.28 1.171-2.28 3v4.098c0 2.024-.475 2.658-2.353 3.146 1.878.464 2.354 1.098 2.354 3.122v4.098c0 1.829.55 2.56 2.279 3zM34.871 17.415v4.317c0 1.707.451 2.268 2.129 2.756-1.678.512-2.129 1.073-2.129 2.78v4.342c0 1.39-.375 2.341-1.102 2.78-.726.44-1.377.586-3.03.61v-.268c1.728-.44 2.28-1.171 2.28-3v-4.098c0-2.024.475-2.658 2.353-3.146-1.878-.464-2.354-1.073-2.354-3.122v-4.098c0-1.829-.55-2.56-2.279-3V14c1.678.024 2.33.17 3.03.61.702.439 1.102 1.439 1.102 2.805z" fill="#333"/></svg>