<svg xmlns="http://www.w3.org/2000/svg" class="cel-icon cel-icon-stroke-width" viewBox="0 0 46 46"><path fill-rule="evenodd" clip-rule="evenodd" d="M16.067 18.215v-1.118h.954v.71h-.248v.408h-.706zm3.498-1.118h-1.908v.71h1.908v-.71zm.636 0v.71h1.907v-.71h-1.907zm2.543 0v.71h1.909v-.71h-1.909zm2.544 0v.71h1.909v-.71h-1.909zm2.544 0v.71h.248v.408h.707v-1.118h-.954zm.954 1.863h-.706v2.235h.707V18.96zm0 2.98h-.706v2.236h.707V21.94zm0 2.981h-.706v2.236h.707V24.92zm0 2.98h-.706v2.236h.707v-2.235zm0 2.981h-.706v.408h-.247V32h.954v-1.118zM27.197 32v-.71h-1.908V32h1.909zm-2.544 0v-.71h-1.908V32h1.909zm-2.544 0v-.71h-1.907V32h1.907zm-2.543 0v-.71h-1.908V32h1.908zm-2.544 0v-.71h-.248v-.408h-.706V32h.954zm-.954-1.863h.706v-2.235h-.706v2.235zm0-2.98h.706V24.92h-.706v2.236zm0-2.981h.706V21.94h-.706v2.236zm0-2.98h.706V18.96h-.706v2.235z" fill="#333"/><path d="M10.628 22.241H9V11h5.8v1.482h-4.172v9.76zM34.372 22.241v-9.76H30.2V11H36v11.241h-1.628z" fill="#333"/></svg>