<svg xmlns="http://www.w3.org/2000/svg" class="cel-icon cel-icon-stroke-width" viewBox="0 0 46 46"><path d="M16.418 25.365l.354.21c-.808 1.452-1.313 2.13-2.07 2.692a4.647 4.647 0 01-2.905.983C8.995 29.25 7 27.073 7 24.054c0-1.942.758-3.557 2.121-4.61 1.01-.773 2.222-1.194 3.409-1.194 2.12 0 3.888 1.1 3.888 2.41 0 .539-.53.984-1.187.984-.555 0-1.01-.398-1.212-1.077l-.151-.515c-.252-.866-.58-1.123-1.49-1.123-2.045 0-3.434 1.638-3.434 4.072 0 2.692 1.591 4.564 3.914 4.564 1.44 0 2.348-.562 3.56-2.2zM29.456 23.61c0 3.253-2.273 5.64-5.682 5.64-3.055 0-5.454-2.317-5.454-5.57s2.273-5.43 5.682-5.43c3.08 0 5.454 2.13 5.454 5.36zm-2.273.631c0-1.591-.454-3.206-1.262-4.165-.606-.703-1.313-1.17-2.4-1.17-1.741 0-2.928 1.38-2.928 3.72 0 1.85.404 3.535 1.338 4.798.556.75 1.364 1.17 2.273 1.17 1.868 0 2.98-1.638 2.98-4.353zM34.152 21.971l2.626 1.475C38.394 24.358 39 24.99 39 26.324c0 1.569-1.616 2.926-3.535 2.926-.53 0-1.263-.023-1.843-.21-.606-.188-.884-.211-1.162-.211-.303 0-.454.046-.606.28h-.328v-3.674h.404c.53 2.27 1.465 3.3 3.207 3.3 1.288 0 2.096-.772 2.096-1.732 0-.725-.505-1.334-1.339-1.755l-1.363-.702c-2.096-1.077-3.03-2.2-3.03-3.394 0-1.849 1.414-2.879 3.484-2.879.606 0 1.162.024 1.692.258.278.117.53.187.707.187.101 0 .202-.023.404-.234h.278l.126 3.183h-.379c-.58-2.106-1.338-2.879-2.853-2.879-1.086 0-1.894.492-1.894 1.592 0 .515.379 1.193 1.086 1.591z" fill="#333"/></svg>