<svg xmlns="http://www.w3.org/2000/svg" class="cel-icon cel-icon-stroke-width" viewBox="0 0 46 46"><path d="M23.717 26.813l.327.287c-1.886 2.377-2.49 2.874-3.496 2.874-.704 0-1.006-.314-1.006-1.071 0-.653.05-.862.579-3.005C18.234 28.851 16.776 30 15.015 30c-1.408 0-2.515-1.045-2.515-3.03 0-4.05 3.848-8.778 7.193-8.778 1.081 0 1.81.548 2.012 1.515l.277-1.254.075-.078 1.534-.183.176.078c-.05.235-.075.287-.15.549-1.183 4.467-2.239 8.96-2.239 9.483 0 .183.151.34.352.34.226 0 .553-.21 1.308-1.072l.679-.757zm-2.465-6.531c0-.915-.528-1.516-1.408-1.516-1.132 0-2.239.81-3.295 2.404-1.056 1.646-1.936 3.97-1.936 5.617 0 1.437.603 1.933 1.509 1.933 1.257 0 2.44-1.437 3.194-2.56 1.182-1.777 1.936-4.024 1.936-5.878zM30.004 18.975l1.66-5.8c.176-.626.402-1.175 1.132-1.175.478 0 .704.392.704.836 0 .366-.201.705-.352 1.019l-2.691 5.355-.453-.235zm-3.446.026l1.66-5.8c.177-.626.403-1.201 1.132-1.201.478 0 .704.418.704.862 0 .366-.2.706-.352 1.019l-2.69 5.356-.454-.235z" fill="#333"/></svg>