<svg xmlns="http://www.w3.org/2000/svg" class="cel-icon cel-icon-stroke-width" viewBox="0 0 46 46"><path d="M28.542 24.962l.458.487C26.343 28.297 24.008 30 21.58 30c-1.626 0-2.427-1.07-2.427-2.701 0-.73.137-1.485.412-2.24-1.03-.12-2.061-.778-2.565-1.752l.527-.413c.48.998 1.35 1.436 2.313 1.509C21.145 21.507 24.168 19 26.916 19c.939 0 1.626.438 1.626 1.338 0 1.68-2.588 3.992-7.1 4.722-.549 1.022-.961 2.166-.961 2.871 0 .852.527 1.339 1.236 1.339 2.016 0 4.26-1.606 6.825-4.308zm-6.618-.754l.023.024c3.366-.51 5.908-2.506 5.908-3.845 0-.487-.435-.657-.825-.657-1.374 0-3.251 1.412-5.106 4.478z" fill="#333"/></svg>