<svg xmlns="http://www.w3.org/2000/svg" class="cel-icon cel-icon-stroke-width" viewBox="0 0 46 46"><path d="M4.638 21.971l2.613 1.475c1.608.912 2.211 1.544 2.211 2.878 0 1.569-1.608 2.926-3.517 2.926-.528 0-1.257-.023-1.835-.21-.603-.188-.879-.211-1.155-.211-.302 0-.453.046-.603.28h-.327v-3.674h.402c.528 2.27 1.457 3.3 3.191 3.3 1.281 0 2.085-.772 2.085-1.732 0-.725-.502-1.334-1.331-1.755l-1.357-.702C2.93 23.469 2 22.346 2 21.152c0-1.849 1.407-2.879 3.467-2.879.603 0 1.156.024 1.684.258.276.117.527.187.703.187.1 0 .201-.023.402-.234h.277l.125 3.183h-.377c-.578-2.106-1.331-2.879-2.839-2.879-1.08 0-1.884.492-1.884 1.592 0 .515.377 1.193 1.08 1.591zM20.735 25.178l.402.163c-.98 2.552-2.738 3.909-5.25 3.909-2.966 0-4.775-2.083-4.775-5.313 0-3.3 2.036-5.687 5.201-5.687 1.558 0 2.689.562 3.493 1.615.502.655.753 1.404.854 2.668H12.92c.126 1.779.252 2.691 1.156 3.815.704.866 1.633 1.287 2.789 1.287 1.683 0 2.638-.725 3.87-2.457zm-7.763-3.394h5.125c-.276-1.896-.804-2.691-2.462-2.691-1.407 0-2.387.936-2.663 2.691zM31.648 25.365l.352.21c-.804 1.452-1.306 2.13-2.06 2.692a4.61 4.61 0 01-2.89.983c-2.789 0-4.774-2.177-4.774-5.196 0-1.942.754-3.557 2.11-4.61 1.006-.773 2.212-1.194 3.393-1.194 2.11 0 3.87 1.1 3.87 2.41 0 .539-.528.984-1.182.984-.552 0-1.005-.398-1.206-1.077l-.15-.515c-.252-.866-.578-1.123-1.483-1.123-2.035 0-3.417 1.638-3.417 4.072 0 2.692 1.583 4.564 3.895 4.564 1.432 0 2.336-.562 3.542-2.2zM38.818 16.624H34v-1.046h4.818v1.046z" fill="#333"/><path d="M43.494 22.37H38.7v-.572c1.08-.071 1.33-.237 1.33-.784v-6.041c0-.547-.075-.714-.226-.714-.175 0-.401.048-1.053.333v-.57l2.96-1.309.351.096v8.062c0 .618.352.927 1.43.927v.571z" fill="#333"/></svg>