<svg xmlns="http://www.w3.org/2000/svg" class="cel-icon cel-icon-stroke-width" viewBox="0 0 46 46"><path d="M11.4 25.304l.352.214c-.806 1.474-1.31 2.163-2.066 2.734a4.586 4.586 0 01-2.898.998C3.99 29.25 2 27.04 2 23.973c0-1.973.756-3.613 2.117-4.682 1.008-.785 2.217-1.213 3.402-1.213 2.116 0 3.88 1.118 3.88 2.449 0 .546-.529.998-1.184.998-.555 0-1.008-.404-1.21-1.093l-.15-.523c-.253-.88-.58-1.141-1.488-1.141-2.04 0-3.427 1.664-3.427 4.136 0 2.733 1.588 4.635 3.906 4.635 1.436 0 2.344-.57 3.553-2.235zM24.41 23.522c0 3.304-2.268 5.728-5.67 5.728-3.048 0-5.442-2.353-5.442-5.657s2.268-5.515 5.67-5.515c3.074 0 5.442 2.163 5.442 5.444zm-2.268.641c0-1.616-.453-3.256-1.26-4.23-.604-.714-1.31-1.189-2.393-1.189-1.74 0-2.923 1.402-2.923 3.78 0 1.877.403 3.588 1.335 4.872.555.76 1.36 1.188 2.268 1.188 1.865 0 2.973-1.663 2.973-4.42zM31.672 27.182l.328.262c-.832 1.236-1.79 1.806-3.05 1.806-1.46 0-2.216-1.022-2.216-3.019v-7.154h-1.336c-.076-.048-.1-.095-.1-.167 0-.142.15-.285.427-.451.656-.357 1.487-1.236 2.445-2.543.151-.214.353-.428.504-.666.126 0 .176.071.176.309v2.757h2.545v.76H28.85v6.799c0 1.521.378 2.139 1.31 2.139.555 0 .958-.214 1.512-.832zM38.818 16.624H34v-1.046h4.818v1.046z" fill="#333"/><path d="M43.494 22.37H38.7v-.572c1.08-.071 1.33-.237 1.33-.784v-6.041c0-.547-.075-.714-.226-.714-.175 0-.401.048-1.053.333v-.57l2.96-1.309.351.096v8.062c0 .618.352.927 1.43.927v.571z" fill="#333"/></svg>