<svg xmlns="http://www.w3.org/2000/svg" class="cel-icon cel-icon-stroke-width" viewBox="0 0 46 46"><path d="M7.575 21.62l2.55 1.546c1.57.957 2.158 1.62 2.158 3.018 0 1.643-1.57 3.066-3.433 3.066-.515 0-1.226-.024-1.79-.22-.589-.197-.858-.222-1.128-.222-.294 0-.442.05-.589.295h-.318V25.25h.392c.515 2.38 1.422 3.46 3.114 3.46 1.251 0 2.036-.81 2.036-1.816 0-.76-.49-1.398-1.3-1.84l-1.324-.736C5.907 23.191 5 22.013 5 20.762c0-1.938 1.373-3.017 3.384-3.017.589 0 1.128.024 1.643.27.27.122.515.196.687.196.098 0 .196-.024.392-.245h.27l.123 3.336h-.368c-.564-2.208-1.3-3.017-2.771-3.017-1.055 0-1.84.515-1.84 1.668 0 .54.368 1.25 1.055 1.668zM17.695 13.501c0 .712-.54 1.251-1.275 1.251-.687 0-1.226-.54-1.226-1.25 0-.688.564-1.252 1.25-1.252.712 0 1.251.564 1.251 1.251zm1.79 15.504h-5.812v-.368c1.692-.098 1.938-.32 1.938-2.184v-5.568c0-1.153-.197-1.546-.81-1.546-.22 0-.588 0-1.03.123v-.392l3.801-1.35.099.099v8.61c0 1.815.196 2.085 1.814 2.208v.368zM32 29.005h-5.1l.024-.368c1.226-.098 1.52-.589 1.52-2.208v-4.882c0-1.741-.588-2.477-1.79-2.477-.81 0-1.398.294-2.526 1.398v6.77c0 .957.343 1.3 1.594 1.399v.368h-5.174v-.368c1.25-.098 1.52-.49 1.52-1.938v-5.961c0-1.202-.172-1.595-.858-1.595-.27 0-.54.025-.711.098v-.417a45.037 45.037 0 003.36-1.104l.195.074v1.913h.025c1.275-1.447 2.403-1.987 3.531-1.987 1.864 0 2.894 1.35 2.894 3.778v5.422c0 1.324.294 1.594 1.496 1.717v.368zM35.818 16.624H31v-1.046h4.818v1.046z" fill="#333"/><path d="M40.494 22.37H35.7v-.572c1.08-.071 1.33-.237 1.33-.784v-6.041c0-.547-.075-.714-.226-.714-.175 0-.401.048-1.053.333v-.57l2.96-1.309.351.096v8.062c0 .618.352.927 1.43.927v.571z" fill="#333"/></svg>