<svg xmlns="http://www.w3.org/2000/svg" class="cel-icon cel-icon-stroke-width" viewBox="0 0 46 46"><path d="M8.925 29.8H3.05v-.368c1.568-.123 1.917-.541 1.917-1.894V16c0-1.18-.25-1.574-1.046-1.574-.199 0-.523 0-.921.049v-.394c1.718-.418 2.639-.664 3.934-1.082l.124.098V27.66c0 1.353.274 1.673 1.867 1.772v.369zM21.157 24.118c0 3.42-2.24 5.929-5.601 5.929-3.013 0-5.378-2.436-5.378-5.855 0-3.419 2.24-5.707 5.602-5.707 3.037 0 5.377 2.239 5.377 5.633zm-2.24.665c0-1.673-.449-3.37-1.245-4.379-.598-.738-1.295-1.23-2.365-1.23-1.718 0-2.888 1.451-2.888 3.911 0 1.944.398 3.715 1.32 5.043.547.787 1.344 1.23 2.24 1.23 1.842 0 2.938-1.722 2.938-4.576zM33.605 20.256H31.54c.348.788.473 1.353.473 2.067 0 1.279-.398 2.189-1.295 2.853-.796.59-1.717.96-2.589.96-.15 0-.498-.025-.946-.074l-.473-.05c-.672.197-1.494 1.058-1.494 1.55 0 .394.598.59 1.942.664l3.212.148c1.842.074 3.012 1.107 3.012 2.632 0 .984-.473 1.796-1.493 2.583-1.295.984-3.187 1.574-4.98 1.574-2.39 0-4.307-1.082-4.307-2.386 0-.91.648-1.722 2.44-3.001-1.046-.492-1.32-.763-1.32-1.304 0-.492.324-.984 1.146-1.697.373-.32.722-.64 1.07-.984-1.668-.812-2.315-1.746-2.315-3.296 0-2.239 1.842-4.01 4.158-4.01.647 0 1.32.123 1.991.37l.548.196c.498.172.871.246 1.37.246h1.916v.96zm-7.917 1.23v.074c0 2.362 1.021 3.96 2.565 3.96 1.12 0 1.842-.86 1.842-2.213 0-1.009-.274-2.116-.747-2.977-.398-.738-1.046-1.156-1.817-1.156-1.145 0-1.843.861-1.843 2.312zm6.996 9.889c0-.91-.821-1.205-3.087-1.205-1.22 0-3.187-.148-4.033-.32-.996 1.18-1.22 1.55-1.22 2.115 0 1.083 1.42 1.796 3.61 1.796 2.838 0 4.73-.96 4.73-2.386zM42.357 29.002h-.62v-.638h-.645v-.613h1.265v1.251zm-1.822-.638H39.27v-.613h1.265v.613zm-1.822 0h-1.265v-.613h1.265v.613zm3.644 2.44h-.62v-1.251h.62v1.251zm0 1.802h-.62v-1.251h.62v1.251zm0 1.79h-1.265v-.613h.645v-.639h.62v1.252zm-5.465-6.032h-.646v.638h-.62v-1.251h1.266v.613zm3.643 6.032H39.27v-.613h1.265v.613zm-1.822 0h-1.265v-.613h1.265v.613zm-2.467-3.592h-.62v-1.251h.62v1.251zm0 1.802h-.62v-1.251h.62v1.251zm.646 1.79h-1.265v-1.252h.62v.639h.645v.613z" fill="#333"/></svg>