<svg xmlns="http://www.w3.org/2000/svg" class="cel-icon cel-icon-stroke-width" viewBox="0 0 46 46"><path d="M28.66 26.697l.34.338C27.405 29.298 26.516 30 25.183 30c-.706 0-1.15-.416-1.15-1.093 0-.312.183-1.118.523-2.392l1.438-5.385c.104-.416.183-.754.183-.858 0-.39-.131-.65-.733-.65-.94 0-2.614 1.586-3.973 3.641-1.046 1.587-1.465 2.497-2.51 6.503H17l3.817-14.41c.21-.807.34-1.25.34-1.613 0-.442-.601-.65-1.072-.65h-.706v-.39A35.564 35.564 0 0023.484 12l.183.156-3.164 11.627c2.353-3.798 4.392-5.488 6.013-5.488 1.203 0 1.7.78 1.7 1.743 0 .65-.47 2.575-1.255 5.02-.445 1.352-.863 2.965-.863 3.251 0 .26.183.468.418.468.419 0 .732-.312 2.144-2.08z" fill="#333"/></svg>