<svg xmlns="http://www.w3.org/2000/svg" class="cel-icon cel-icon-stroke-width" viewBox="0 0 46 46"><path d="M32 26.467l-.13.155C30.49 28.267 29.347 29 28.124 29c-.676 0-1.04-.356-1.04-1.022 0-.222.078-.6.338-1.467l1.509-5.044c.13-.445.182-.734.182-.845 0-.266-.234-.466-.52-.466-.78 0-2.108 1.044-3.408 2.6-1.275 1.533-1.795 2.622-2.81 6.044h-1.95l.702-2.067c1.145-3.377 1.769-5.733 1.769-6.022 0-.355-.234-.555-.572-.555-.885 0-2.42 1.288-3.876 3.177-.884 1.156-1.249 1.956-2.497 5.467H14l1.118-3.2c1.041-2.956 1.431-4.8 1.431-5.067 0-.333-.364-.489-1.066-.489h-.65v-.355c2.132-.333 2.783-.445 4.213-.689l.078.044-1.508 4.645C19.93 20.467 21.75 19 23.338 19c1.04 0 1.56.533 1.56 1.333 0 .423-.337 1.667-1.04 3.378 1.821-2.467 2.888-3.578 4.162-4.267.625-.333 1.119-.444 1.639-.444.962 0 1.509.6 1.509 1.4 0 .156-.052.511-.078.622L29.32 26.6c-.155.511-.26.911-.26 1 0 .244.105.356.313.356.442 0 .91-.356 1.69-1.178l.547-.578.39.267z" fill="#333"/></svg>