<svg xmlns="http://www.w3.org/2000/svg" class="cel-icon cel-icon-stroke-width" viewBox="0 0 46 46"><path d="M28 17.614v.415c-1.052.078-1.745.596-5.034 3.994l.828 2.282c.873 2.387 1.387 3.346 1.812 3.346.336 0 .604-.285 1.007-1.089.112-.207.224-.441.335-.674l.336.285C26.255 28.352 25.696 29 24.801 29c-.649 0-1.096-.493-1.812-2.127-.403-.908-.985-2.516-1.343-3.657l-.894.83-1.074 4.669H18l3.154-13.695c.291-1.245.358-1.841.403-2.282-.045-.467-.38-.623-1.14-.623h-.404V11.7c1.32-.181 2.193-.363 3.513-.7l.134.156-2.685 11.827.962-.856c2.103-1.868 3.2-3.113 3.2-3.631 0-.286-.269-.467-.828-.467h-.314v-.415H28z" fill="#333"/></svg>