<svg xmlns="http://www.w3.org/2000/svg" class="cel-icon cel-icon-stroke-width" viewBox="0 0 46 46"><path d="M23.835 21.093l.304 1.387c1.772-2.604 2.71-3.48 3.823-3.48.608 0 1.038.365 1.038.9 0 .512-.354.877-.86.877-.482 0-.71-.414-1.317-.414-.456 0-1.367 1.07-2.481 2.945 0 .17.05.51.202 1.095l.81 3.26c.178.682.405.998.76.998.329 0 .607-.243 1.19-.973.228-.292.329-.438.531-.681l.38.219C26.747 29.416 26.09 30 25.127 30c-.81 0-1.19-.438-1.494-1.655l-.734-2.896-2.228 2.896C19.557 29.781 19.05 30 18.266 30 17.48 30 17 29.61 17 28.978c0-.487.354-.876.86-.876.229 0 .482.097.81.267.254.146.507.22.66.22.278 0 .759-.463 1.29-1.193l2.076-2.823-.709-3.018c-.354-1.46-.531-1.655-1.164-1.655-.203 0-.506.05-.988.17l-.455.122-.076-.389.278-.097c1.545-.536 2.38-.706 2.962-.706.633 0 .937.438 1.291 2.093z" fill="#333"/></svg>