<svg xmlns="http://www.w3.org/2000/svg" class="cel-icon cel-icon-stroke-width" viewBox="0 0 46 46"><path d="M28.61 26.252l.39.168c-.599 1.127-1.562 2.614-2.863 2.614-1.198 0-1.588-.887-1.588-1.942h-.052c-1.172 1.559-2.5 1.943-3.254 1.943-.703 0-1.38-.192-1.64-.672h-.052v3.574c0 .864-.234 1.703-.416 2.063H17c.234-.504.416-1.223.416-2.039V18h2.187v7.484c0 1.392 1.171 2.16 2.239 2.16.546 0 1.457-.193 2.108-.744.443-.36.599-.552.599-1.368V18h2.186v8.084c0 1.103.235 1.367.521 1.367.494 0 .78-.216 1.354-1.2z" fill="#333"/></svg>