<svg xmlns="http://www.w3.org/2000/svg" class="cel-icon cel-icon-stroke-width" viewBox="0 0 46 46"><path d="M29.884 25.763l.484.454c-1.48 2.096-3.955 3.207-6.966 3.207-2.322 0-4.542-.808-6.022-2.247-1.557-1.515-2.45-3.813-2.45-6.313 0-2.526.842-4.622 2.297-6.238C18.86 12.833 21.053 12 23.427 12c.996 0 2.016.101 3.037.379.536.151 1.327.454 1.76.454.486 0 .92-.303 1.073-.833h.51l.23 5.732h-.587c-.306-1.389-.69-2.12-1.327-2.803-1.123-1.187-2.45-1.919-4.109-1.919-3.853 0-6.124 3.08-6.124 7.45 0 2.777.638 4.747 1.837 6.035 1.123 1.187 2.782 1.818 4.543 1.818 2.296 0 3.7-.757 5.614-2.55zM38.29 27.36v1.255c.744-.982 1.16-1.282 1.786-1.282.506 0 .819.273.819.723 0 .382-.224.614-.58.614-.194 0-.358-.069-.596-.273-.164-.136-.298-.205-.387-.205-.417 0-1.042.682-1.042 1.119v3.068c0 .777.253.982 1.265 1.023v.204h-3.572v-.205c.952-.163 1.056-.259 1.056-.94v-3.41c0-.6-.134-.818-.506-.818-.178 0-.312.014-.52.055v-.218c.878-.26 1.413-.45 2.202-.737l.075.028zM43 27.046h-.587v-.564h-.611v-.543H43v1.107zm-1.725-.564h-1.198v-.543h1.198v.543zM43 28.639h-.587v-1.107H43v1.107zm-3.45-2.157H38.35v-.543h1.198v.543zm3.45 3.75h-.587v-1.107H43v1.107zm-5.176-3.75h-1.198v-.543h1.198v.543zM43 31.825h-.587v-1.106H43v1.106zm-6.901-5.343H34.9v-.543h1.198v.543zM43 33.418h-.587v-1.106H43v1.106zM43 35h-1.198v-.542h.61v-.564H43V35zm-8.626-8.518h-.611v.564h-.588v-1.107h1.199v.543zm6.9 8.518h-1.197v-.542h1.198V35zm-7.511-6.361h-.588v-1.107h.588v1.107zM39.549 35h-1.198v-.542h1.198V35zm-5.786-4.768h-.588v-1.107h.588v1.107zM37.824 35h-1.198v-.542h1.198V35zm-4.061-3.175h-.588v-1.106h.588v1.106zM36.099 35H34.9v-.542h1.198V35zm-2.336-1.582h-.588v-1.106h.588v1.106zm.61 1.582h-1.198v-1.106h.588v.564h.61V35zM11.421 33.606H8.31l.015-.205c.748-.054.927-.327.927-1.227v-2.713c0-.969-.359-1.378-1.092-1.378-.494 0-.853.164-1.541.778v3.763c0 .532.21.723.973.777v.205H4.433v-.205c.764-.054.928-.272.928-1.077v-3.313c0-.669-.105-.887-.524-.887-.164 0-.329.014-.433.055v-.232a29.395 29.395 0 002.05-.614l.12.041v1.064h.014c.778-.805 1.466-1.105 2.155-1.105 1.137 0 1.765.75 1.765 2.1v3.014c0 .736.18.886.913.954v.205zM12.825 27.046h-.587v-.564h-.612v-.543h1.199v1.107zm-1.726-.564H9.901v-.543H11.1v.543zm1.726 2.157h-.587v-1.107h.587v1.107zm-3.451-2.157H8.176v-.543h1.198v.543zm3.45 3.75h-.586v-1.107h.587v1.107zm-5.175-3.75H6.45v-.543h1.198v.543zm5.176 5.343h-.587v-1.106h.587v1.106zm-6.902-5.343H4.725v-.543h1.198v.543zm6.902 6.936h-.587v-1.106h.587v1.106zm0 1.582h-1.199v-.542h.612v-.564h.587V35zm-8.627-8.518h-.61v.564H3v-1.107h1.198v.543zM11.1 35H9.901v-.542H11.1V35zm-7.512-6.361H3v-1.107h.587v1.107zM9.374 35H8.176v-.542h1.198V35zm-5.787-4.768H3v-1.107h.587v1.107zM7.65 35H6.45v-.542h1.198V35zm-4.062-3.175H3v-1.106h.587v1.106zM5.923 35H4.725v-.542h1.198V35zm-2.336-1.582H3v-1.106h.587v1.106zM4.198 35H3v-1.106h.587v.564h.611V35z" fill="#333"/></svg>