<svg xmlns="http://www.w3.org/2000/svg" class="cel-icon cel-icon-stroke-width" viewBox="0 0 46 46"><path d="M28 19.71h-.717v-.872h-.746V18H28v1.71zm-2.107-.872h-1.464V18h1.464v.838zM28 22.17h-.717v-1.71H28v1.71zm-4.215-3.333h-1.463V18h1.463v.838zM28 24.632h-.717v-1.709H28v1.71zm-6.322-5.794h-1.463V18h1.463v.838zM28 27.094h-.717v-1.71H28v1.71zm-8.43-8.256h-1.463V18h1.464v.838zM28 29.556h-.717v-1.71H28v1.71zM28 32h-1.463v-.838h.746v-.871H28V32zM17.463 18.838h-.746v.871H16V18h1.463v.838zM25.893 32h-1.464v-.838h1.464V32zm-9.176-9.83H16v-1.709h.717v1.71zM23.785 32h-1.463v-.838h1.463V32zm-7.068-7.367H16v-1.71h.717v1.71zM21.678 32h-1.463v-.838h1.463V32zm-4.96-4.906H16v-1.71h.717v1.71zM19.57 32h-1.464v-.838h1.464V32zm-2.854-2.444H16v-1.71h.717v1.71zM17.463 32H16v-1.71h.717v.872h.746V32zM30 13.916v.153c-1.832.63-3.282 1.765-4.542 2.931l-.382-.292c.44-.506.993-.997 1.565-1.473.172-.138.267-.307.267-.43 0-.153-.152-.306-.496-.306H15v-1.013h11.431c.191 0 .496-.184.496-.338 0-.138-.076-.23-.267-.383-.553-.43-1.145-.967-1.565-1.473l.382-.292c1.24 1.15 2.69 2.302 4.523 2.916z" fill="#333"/></svg>