<svg xmlns="http://www.w3.org/2000/svg" class="cel-icon cel-icon-stroke-width" viewBox="0 0 46 46"><path d="M22.444 16.4l-5.866 15.318h-.393l-2.48-6.59c-.208-.56-.453-.733-.76-.733-.209 0-.528.137-.798.385L12 24.532l1.915-1.542h.233l2.503 6.664h.05L21.78 16.4h.663zM32.71 21.174h-.538v-.623h-.56v-.598h1.098v1.22zm-1.58-.623h-1.098v-.598h1.097v.598zm1.58 2.381h-.538v-1.22h.538v1.22zm-3.161-2.38H28.45v-.6h1.098v.6zm3.16 4.138h-.537v-1.22h.538v1.22zm-4.74-4.139H26.87v-.598h1.097v.598zm4.74 5.898h-.537v-1.221h.538v1.22zm-6.321-5.898H25.29v-.598h1.098v.598zm6.322 7.656h-.538v-1.221h.538v1.22zm0 1.746h-1.098v-.598h.56v-.623h.538v1.22zm-7.903-9.402h-.56v.623h-.537v-1.221h1.097v.598zm6.322 9.402h-1.097v-.598h1.097v.598zm-6.881-7.02h-.538V21.71h.538v1.221zm5.3 7.02h-1.097v-.598h1.098v.598zm-5.3-5.263h-.538v-1.22h.538v1.22zm3.72 5.263h-1.097v-.598h1.097v.598zm-3.72-3.504h-.538v-1.221h.538v1.22zm2.14 3.504H25.29v-.598h1.098v.598zm-2.14-1.746h-.538v-1.221h.538v1.22zm.56 1.746H23.71v-1.221h.538v.623h.56v.598z" fill="#333"/><path fill-rule="evenodd" clip-rule="evenodd" d="M34.782 17.096h-13V16.4h13v.696z" fill="#333"/></svg>