<svg xmlns="http://www.w3.org/2000/svg" class="cel-icon cel-icon-stroke-width" viewBox="0 0 46 46"><path d="M24.15 26.915l.325.278C22.6 29.494 22 29.975 21 29.975c-.7 0-1-.304-1-1.037 0-.632.05-.835.575-2.909C18.7 28.887 17.25 30 15.5 30c-1.4 0-2.5-1.012-2.5-2.934 0-3.92 3.825-8.497 7.15-8.497 1.075 0 1.8.53 2 1.466l.275-1.213.075-.076 1.525-.177.175.076c-.05.227-.075.278-.15.53-1.175 4.325-2.225 8.675-2.225 9.181 0 .177.15.329.35.329.225 0 .55-.202 1.3-1.037l.675-.733zm-2.45-6.323c0-.885-.525-1.467-1.4-1.467-1.125 0-2.225.784-3.275 2.327-1.05 1.593-1.925 3.844-1.925 5.437 0 1.391.6 1.872 1.5 1.872 1.25 0 2.425-1.391 3.175-2.479 1.175-1.72 1.925-3.895 1.925-5.69zM33.342 16.992h-.623v-.656h-.648v-.63h1.27v1.286zm0 1.853h-.623v-1.287h.623v1.287zm0 1.853h-.623V19.41h.623v1.287zm-1.83-4.362h-1.27v-.63h1.27v.63zm-1.83 0h-1.27v-.63h1.27v.63zm3.66 6.202h-1.27v-.63h.647v-.657h.623v1.287zm-5.488-6.202h-.648v.656h-.623v-1.286h1.27v.63zm-.648 2.509h-.623v-1.287h.623v1.287zm0 1.853h-.623V19.41h.623v1.287zm4.306 1.84h-1.27v-.63h1.27v.63zm-1.83 0h-1.27v-.63h1.27v.63zm-1.828 0h-1.27V21.25h.622v.656h.648v.63z" fill="#333"/></svg>