<svg xmlns="http://www.w3.org/2000/svg" class="cel-icon cel-icon-stroke-width" viewBox="0 0 46 46"><path d="M22.054 26.813l.307.287c-1.774 2.377-2.342 2.874-3.289 2.874-.662 0-.946-.314-.946-1.071 0-.653.047-.862.544-3.005C16.895 28.851 15.523 30 13.866 30c-1.325 0-2.366-1.045-2.366-3.03 0-4.05 3.62-8.778 6.768-8.778 1.017 0 1.703.548 1.893 1.515l.26-1.254.071-.078 1.444-.183.165.078c-.047.235-.07.287-.142.549-1.112 4.467-2.106 8.96-2.106 9.483 0 .183.142.34.331.34.213 0 .521-.21 1.23-1.072l.64-.757zm-2.32-6.531c0-.915-.496-1.516-1.324-1.516-1.065 0-2.106.81-3.1 2.404-.994 1.646-1.822 3.97-1.822 5.617 0 1.437.568 1.933 1.42 1.933 1.183 0 2.295-1.437 3.005-2.56 1.112-1.777 1.822-4.024 1.822-5.878zM31.21 18.975l1.563-5.8c.165-.626.378-1.175 1.064-1.175.45 0 .663.392.663.836 0 .366-.19.705-.331 1.019l-2.532 5.355-.426-.235zm-3.241 0l1.562-5.8c.165-.626.378-1.175 1.065-1.175.45 0 .662.392.662.836 0 .366-.19.705-.331 1.019l-2.532 5.355-.426-.235zm-3.242.026l1.562-5.8c.166-.626.378-1.201 1.065-1.201.45 0 .662.418.662.862 0 .366-.189.706-.331 1.019l-2.532 5.356-.426-.235z" fill="#333"/></svg>