<svg xmlns="http://www.w3.org/2000/svg" class="cel-icon cel-icon-stroke-width" viewBox="0 0 46 46"><path d="M31 21.132v.42c-1.552.106-1.958.395-2.316 1.895l-1.17 4.921C25.673 29.5 23.954 30 21.853 30c-2.078 0-3.869-.658-5.087-2C15.645 26.737 15 24.71 15 22.921c0-3.71 1.791-7.053 4.37-9.026C20.922 12.71 22.737 12 24.624 12c.979 0 2.15.184 3.2.632.55.236.788.263 1.05.263.622 0 1.027-.263 1.434-.895l.358.132-1.17 5.184-.43-.08c-.048-1.13-.358-2.078-.884-2.789-.74-1-1.886-1.552-3.367-1.552-1.887 0-3.51 1-4.657 2.605-1.552 2.184-2.531 5.105-2.531 8.026 0 3.448 1.743 5.5 4.824 5.5 1.074 0 1.982-.316 2.507-.894.287-.316.406-.632.932-2.658.477-1.764.62-2.395.62-2.974 0-.474-.334-.79-1.122-.868l-.764-.08v-.42H31z" fill="#333"/></svg>