<svg xmlns="http://www.w3.org/2000/svg" class="cel-icon cel-icon-stroke-width" viewBox="0 0 46 46"><path d="M31 13l-.781 3.773-.554-.049a9.69 9.69 0 00.075-1.127c0-1.47-.882-1.788-4.838-1.788-1.436 0-1.688.098-1.839.637L21.4 20.155h1.965c2.268 0 2.545-.294 3.503-2.377l.453.098-1.713 5.684-.504-.122c.126-.54.176-.833.176-1.274 0-.417-.05-.637-.176-.76-.277-.245-.957-.367-1.965-.367h-1.966l-.806 2.744c-.63 2.156-.907 3.283-.907 3.577 0 .588.58.833 1.99.833 2.47 0 3.83-.294 5.115-.955.807-.417 1.411-1.103 2.369-2.401l.403.196L27.775 29H15v-.392c1.411-.245 1.638-.392 2.04-1.813l3.1-10.83c.151-.49.277-1.274.277-1.568 0-.662-.378-.858-1.94-1.005V13H31z" fill="#333"/></svg>