<svg xmlns="http://www.w3.org/2000/svg" class="cel-icon cel-icon-stroke-width" viewBox="0 0 48 48"><path d="M44 0H4a4 4 0 00-4 4v40a4 4 0 004 4h40a4 4 0 004-4V4a4 4 0 00-4-4z" fill="#699F00"/><path fill-rule="evenodd" clip-rule="evenodd" d="M31.5 15.629h-15c-2.485 0-4.5 2.044-4.5 4.566v10.066a2.104 2.104 0 002.1 2.111h.029c1.949-.026 2.248-.609 4.192-4.425l.723-1.414a2.512 2.512 0 012.166-1.263h5.579c.879 0 1.693.467 2.145 1.232.321.623.6 1.178.853 1.671 1.806 3.555 2.132 4.2 4.072 4.2a2.116 2.116 0 001.515-.634c.4-.4.626-.947.626-1.517V20.197c0-2.522-2.015-4.566-4.5-4.566v-.002zm-12.25 6.088h-.75c-.276 0-.5.227-.5.507v.761c0 .42-.336.761-.75.761a.756.756 0 01-.75-.761v-.761a.504.504 0 00-.5-.507h-.75a.756.756 0 01-.75-.761c0-.42.336-.761.75-.761H16c.276 0 .5-.227.5-.507v-.761c0-.42.336-.761.75-.761s.75.341.75.761v.761c0 .28.224.507.5.507h.75c.414 0 .75.341.75.761s-.336.761-.75.761zm8.75 0c-.552 0-1-.454-1-1.015 0-.561.448-1.015 1-1.015s1 .454 1 1.015c0 .561-.448 1.015-1 1.015zm2.5 2.029c-.552 0-1-.454-1-1.015 0-.561.448-1.015 1-1.015s1 .454 1 1.015c0 .561-.448 1.015-1 1.015zm0-4.058c-.552 0-1-.454-1-1.015 0-.561.448-1.015 1-1.015s1 .454 1 1.015c0 .561-.448 1.015-1 1.015zm2.5 2.029c-.552 0-1-.454-1-1.015 0-.561.448-1.015 1-1.015s1 .454 1 1.015c0 .561-.448 1.015-1 1.015z" fill="#fff"/></svg>