<svg xmlns="http://www.w3.org/2000/svg" class="cel-icon cel-icon-stroke-width" viewBox="0 0 32 32"><path d="M29.333 0H2.667A2.667 2.667 0 000 2.667v26.666A2.667 2.667 0 002.667 32h26.666A2.667 2.667 0 0032 29.333V2.667A2.667 2.667 0 0029.333 0z" fill="#B8008C"/><path fill-rule="evenodd" clip-rule="evenodd" d="M10.205 14.46a2.019 2.019 0 002.038-2.009 2.031 2.031 0 00-1.991-2.06c-1.117-.021-2.064.908-2.076 2.031-.009 1.097.92 2.029 2.03 2.037zm6.739.537c-.138-.69-.867-.42-.867-.42s-3.005.788-3.637.788H8.947c-.617 0-.946.396-.946 1.014v3.969c0 .617.329 1.39.946 1.39h2.296c.618 0 .95-.773.95-1.39V17.07l3.89-1.12c.002 0 .999-.262.861-.953zm4.337-4.745h-4.828a2.72 2.72 0 00-2.716 2.717v1.176l1.182-.203v-.973c0-.847.688-1.535 1.534-1.535h4.831c.847 0 1.535.688 1.535 1.535v6.062c0 .847-.688 1.535-1.535 1.535h-4.83a1.536 1.536 0 01-1.535-1.535v-1.764l-1.182.244v1.52a2.72 2.72 0 002.716 2.717h4.831a2.72 2.72 0 002.717-2.717V12.97a2.724 2.724 0 00-2.72-2.717z" fill="#fff"/></svg>