<svg xmlns="http://www.w3.org/2000/svg" class="cel-icon cel-icon-stroke-width" viewBox="0 0 56 56"><path d="M51.333 0H4.667A4.667 4.667 0 000 4.667v46.666A4.667 4.667 0 004.667 56h46.666A4.667 4.667 0 0056 51.333V4.667A4.667 4.667 0 0051.333 0z" fill="#590892"/><path fill-rule="evenodd" clip-rule="evenodd" d="M19.075 32.562a.538.538 0 01-.625-.397l-2.34-10.521a.54.54 0 01.397-.625l13.304-2.959a.538.538 0 01.625.397l.45 2.018 2.292-.237-.507-2.28a2.63 2.63 0 00-3.127-1.989L16.05 18.97a2.629 2.629 0 00-1.99 3.127l2.341 10.52a2.628 2.628 0 003.128 1.989l.27-.061-.215-2.1-.51.113v.004zm20.305-7.747h-1.418l-.248-2.41a2.629 2.629 0 00-2.876-2.337l-13.75 1.417a2.628 2.628 0 00-2.337 2.875l1.104 10.722a2.63 2.63 0 002.876 2.338l.204-.021v.814c0 1.44 1.18 2.62 2.622 2.62h13.822c1.442 0 2.62-1.18 2.62-2.62V27.434c0-1.44-1.18-2.62-2.62-2.62v.001zm-16.443 2.62v7.856l-.42.043a.538.538 0 01-.574-.468l-1.105-10.722a.539.539 0 01.468-.574l13.558-1.398a.54.54 0 01.575.467l.224 2.175H25.559a2.63 2.63 0 00-2.622 2.62zM39.71 38.212a.538.538 0 01-.524.523H25.557a.539.539 0 01-.525-.523V27.434c0-.277.245-.524.525-.524h13.629c.279 0 .524.247.524.524v10.779z" fill="#fff"/></svg>