<svg xmlns="http://www.w3.org/2000/svg" viewBox="0 0 50 40"><mask id="a" style="mask-type:luminance" maskUnits="userSpaceOnUse" x="0" y="0" width="50" height="40"><path d="M50 0H0v40h50V0z" fill="#fff"/></mask><g mask="url(#a)"><mask id="b" style="mask-type:luminance" maskUnits="userSpaceOnUse" x="5" y="0" width="40" height="40"><path d="M45 0v40H9.167a4.256 4.256 0 01-2.947-1.172A3.92 3.92 0 015 36V4a3.92 3.92 0 011.22-2.828A4.256 4.256 0 019.167 0H45z" fill="#fff"/></mask><g mask="url(#b)"><path d="M9.167 40a6.384 6.384 0 01-4.42-1.757A5.88 5.88 0 012.917 34V6a5.88 5.88 0 011.83-4.243A6.385 6.385 0 019.167 0C8.016 0 7.083 1.79 7.083 4v32c0 2.21.933 4 2.084 4z" fill="#850C09"/></g><mask id="c" style="mask-type:luminance" maskUnits="userSpaceOnUse" x="0" y="0" width="40" height="40"><path d="M40 0v40H4.167a4.256 4.256 0 01-2.947-1.172A3.92 3.92 0 010 36V4a3.92 3.92 0 011.22-2.828A4.256 4.256 0 014.167 0H40z" fill="#fff"/></mask><g mask="url(#c)"><path d="M4.167 40a6.384 6.384 0 01-4.42-1.757A5.88 5.88 0 01-2.083 34V6a5.88 5.88 0 011.83-4.243A6.385 6.385 0 014.167 0C3.016 0 2.083 1.79 2.083 4v32c0 2.21.933 4 2.084 4z" fill="#850C09"/></g><path d="M45.833 0H14.167C11.866 0 10 1.79 10 4v32c0 2.21 1.866 4 4.167 4h31.666C48.135 40 50 38.21 50 36V4c0-2.21-1.865-4-4.167-4z" fill="#850C09"/><path fill-rule="evenodd" clip-rule="evenodd" d="M28.69 11.09a2.5 2.5 0 012.5 2.5v.56c0 .07.03.13.09.17.06.04.13.05.19.02.71-.26 1.46-.37 2.21-.34 2.8 0 5 2.74 5 6.25 0 3.3-2.53 8.75-5.42 8.75-1.5 0-1.94-.29-2.33-.63a.684.684 0 00-.59-.21.657.657 0 00-.59.21c-.39.34-.83.63-2.33.63-2.89 0-5.42-5.45-5.42-8.75 0-3.51 2.2-6.25 5-6.25.75-.03 1.51.08 2.21.34.06.03.14.02.19-.02.06-.04.09-.1.09-.17v-.56c0-.46-.37-.83-.83-.83h-1.67c-.46 0-.83-.37-.83-.83 0-.46.37-.83.83-.83h1.7v-.01zm2.06 6.35h-.58a.58.58 0 00-.58.58v2.16c0 .08-.06.14-.14.14h-2.16a.58.58 0 00-.58.58v.58c0 .32.26.58.58.58h2.16c.08 0 .14.06.14.14v2.16c0 .32.26.58.58.58h.58c.32 0 .58-.26.58-.58V22.2c0-.08.06-.14.14-.14h2.16c.32 0 .58-.26.58-.58v-.58a.58.58 0 00-.58-.58h-2.16c-.08 0-.14-.06-.14-.14v-2.16a.58.58 0 00-.58-.58zm4.44-8.43c.26-.04.53.05.72.24.19.19.28.45.24.72a4.168 4.168 0 01-3.54 3.54l-.1.01a.808.808 0 01-.62-.25.844.844 0 01-.24-.72c.26-1.83 1.7-3.27 3.54-3.54z" fill="#fff"/></g></svg>