<svg xmlns="http://www.w3.org/2000/svg" viewBox="0 0 50 40"><mask id="a" style="mask-type:luminance" maskUnits="userSpaceOnUse" x="0" y="0" width="50" height="40"><path d="M50 0H0v40h50V0z" fill="#fff"/></mask><g mask="url(#a)"><mask id="b" style="mask-type:luminance" maskUnits="userSpaceOnUse" x="5" y="0" width="40" height="40"><path d="M45 0v40H9.167a4.256 4.256 0 01-2.947-1.172A3.92 3.92 0 015 36V4a3.92 3.92 0 011.22-2.828A4.256 4.256 0 019.167 0H45z" fill="#fff"/></mask><g mask="url(#b)"><path d="M9.167 40a6.384 6.384 0 01-4.42-1.757A5.88 5.88 0 012.917 34V6a5.88 5.88 0 011.83-4.243A6.385 6.385 0 019.167 0C8.016 0 7.083 1.79 7.083 4v32c0 2.21.933 4 2.084 4z" fill="#3D4149"/></g><mask id="c" style="mask-type:luminance" maskUnits="userSpaceOnUse" x="0" y="0" width="40" height="40"><path d="M40 0v40H4.167a4.256 4.256 0 01-2.947-1.172A3.92 3.92 0 010 36V4a3.92 3.92 0 011.22-2.828A4.256 4.256 0 014.167 0H40z" fill="#fff"/></mask><g mask="url(#c)"><path d="M4.167 40a6.384 6.384 0 01-4.42-1.757A5.88 5.88 0 01-2.083 34V6a5.88 5.88 0 011.83-4.243A6.385 6.385 0 014.167 0C3.016 0 2.083 1.79 2.083 4v32c0 2.21.933 4 2.084 4z" fill="#3D4149"/></g><path d="M45.833 0H14.167C11.866 0 10 1.79 10 4v32c0 2.21 1.866 4 4.167 4h31.666C48.135 40 50 38.21 50 36V4c0-2.21-1.865-4-4.167-4z" fill="#3D4149"/><path fill-rule="evenodd" clip-rule="evenodd" d="M26.77 15.41l.12.01c.56.05 1.01.47 1.13 1.02l.24 1.18c.04.2.21.34.42.34h10.06c.39 0 .75.18.98.47l.07.1c.14.2.22.45.22.71 0 .09-.01.18-.03.25l-1.7 8.49v.01c-.12.58-.63 1.01-1.25 1.01H23.49l-.12-.01c-.56-.05-1.01-.47-1.13-1.01l-2.21-11.03a1.09 1.09 0 01-.03-.26c0-.7.57-1.27 1.27-1.27h5.5v-.01zm10.22-3.4h.13c.88.06 1.57.8 1.57 1.69v2.55l-.01.1c-.05.42-.41.75-.84.75a.85.85 0 01-.85-.85v-2.12l-.01-.08a.429.429 0 00-.42-.35H23.59c-.1.01-.19.09-.21.19-.09.38-.43.66-.83.66a.85.85 0 01-.85-.85v-.13c.06-.88.8-1.57 1.69-1.57h13.6v.01z" fill="#fff"/></g></svg>