<svg xmlns="http://www.w3.org/2000/svg" class="cel-icon cel-icon-stroke-width" viewBox="0 0 32 32"><path d="M29.333 0H2.667A2.667 2.667 0 000 2.667v26.666A2.667 2.667 0 002.667 32h26.666A2.667 2.667 0 0032 29.333V2.667A2.667 2.667 0 0029.333 0z" fill="#161616"/><path fill-rule="evenodd" clip-rule="evenodd" d="M23.305 14.967h-5.566a.695.695 0 00-.695.695v7.653c0 .384.311.695.695.695l5.566-.01a.695.695 0 00.695-.695v-7.643a.695.695 0 00-.695-.695zM8.204 8.204A.694.694 0 008 8.696v7.663c0 .384.311.695.695.695h5.566a.695.695 0 00.695-.695V8.707a.695.695 0 00-.695-.696l-5.566-.01a.694.694 0 00-.492.204l.001-.001zM23.304 8l-5.565.01a.695.695 0 00-.695.695v3.479c0 .384.311.695.695.695h5.566a.695.695 0 00.695-.695V8.695A.695.695 0 0023.305 8zm-8.551 15.806a.694.694 0 00.204-.492v-3.478a.695.695 0 00-.695-.695H8.696a.695.695 0 00-.695.695v3.468c0 .384.311.695.695.695l5.566.01a.692.692 0 00.49-.203z" fill="#fff"/></svg>