<svg xmlns="http://www.w3.org/2000/svg" class="cel-icon cel-icon-stroke-width" viewBox="0 0 56 56"><path d="M51.333 0H4.667A4.667 4.667 0 000 4.667v46.666A4.667 4.667 0 004.667 56h46.666A4.667 4.667 0 0056 51.333V4.667A4.667 4.667 0 0051.333 0z" fill="#005D18"/><path fill-rule="evenodd" clip-rule="evenodd" d="M29.247 36.167a.294.294 0 01.207.5l-.467.466a2.257 2.257 0 00-.583.956.583.583 0 01-.558.412h-9.18a2.333 2.333 0 01-2.333-2.334V18.083a2.334 2.334 0 012.334-2.333H35a2.333 2.333 0 012.333 2.334v10.218c0 .31-.123.607-.342.825L35.5 30.621a.291.291 0 01-.498-.206V18.667a.583.583 0 00-.584-.584H19.25a.583.583 0 00-.583.584v16.917c0 .322.26.583.583.583h9.997zM24.21 21.583h7a.875.875 0 010 1.75h-7a.875.875 0 110-1.75zm7 4.084a.875.875 0 110 1.75h-9.334a.875.875 0 010-1.75h9.334zm-9.334 4.083a.875.875 0 000 1.75h6.417a.875.875 0 000-1.75h-6.417zm8.531 9.487a.293.293 0 00-.492.15l-.733 3.664a.584.584 0 00.688.688l3.667-.734a.291.291 0 00.148-.492l-3.278-3.276zm8.71-9.76a3.057 3.057 0 015.217 2.16c.002.811-.319 1.59-.892 2.164l-7.583 7.584a.583.583 0 01-.825 0l-3.5-3.5a.584.584 0 010-.825l7.584-7.584z" fill="#fff"/></svg>