<svg xmlns="http://www.w3.org/2000/svg" class="cel-icon cel-icon-stroke-width" viewBox="0 0 24 24"><path d="M19.7 9.141a.252.252 0 00-.334.236V11.5a.5.5 0 01-1 0V9a1.62 1.62 0 00-1.495-1h-.256a.25.25 0 00-.25.25v2.25a.5.5 0 01-1 0V8a1.62 1.62 0 00-1.495-1h-.256a.25.25 0 00-.25.25v3.25a.5.5 0 01-1 0V3a2 2 0 10-4 0v11.078a.25.25 0 01-.453.145l-.001-.001-1.673-2.348a1.984 1.984 0 00-3.228 2.306l-.004-.006 5.951 8.4a1 1 0 00.816.425h8.715c.454 0 .838-.303.96-.718l.002-.007 1.517-5.292c.252-.864.398-1.856.4-2.882v-2.601-.002a2.5 2.5 0 00-1.649-2.351L19.7 9.14z"/></svg>