<svg xmlns="http://www.w3.org/2000/svg" class="cel-icon cel-icon-stroke-width" viewBox="0 0 24 24"><path d="M.375 6.749v.001c0 .69.56 1.25 1.25 1.25H6.4a3.415 3.415 0 012.591 1.643L9 9.658a1.25 1.25 0 002.037-1.449l.003.004C10.05 6.64 8.357 5.588 6.412 5.5H1.625a1.25 1.25 0 00-1.25 1.249z"/><path d="M23.457 7.3a1.002 1.002 0 00-.002-1.114l.002.004-1.909-2.859a1 1 0 00-1.832.555v1.363a.25.25 0 01-.25.25h-1.614c-3.072 0-4.958 2.963-6.782 5.829C9.609 13.624 8.1 16 6.4 16H1.625a1.25 1.25 0 000 2.5H6.4c3.072 0 4.958-2.963 6.782-5.829C14.641 10.374 16.152 8 17.852 8h1.614a.25.25 0 01.25.25v1.362a1 1 0 00.703.955l.007.002a.952.952 0 00.285.043h.005c.345 0 .65-.175.83-.441l.002-.004z"/><path d="M20.426 21.069a.952.952 0 00.285.043h.005c.345 0 .65-.175.83-.441l.002-.004 1.909-2.867a1.002 1.002 0 00-.002-1.114l.002.004-1.909-2.863a1 1 0 00-1.832.555v1.363a.25.25 0 01-.25.25h-1.614a4.58 4.58 0 01-3.116-1.572l-.005-.006a1.25 1.25 0 10-1.8 1.738 6.97 6.97 0 004.902 2.339l.015.001h1.614a.25.25 0 01.25.25V20.111a1 1 0 00.707.956l.007.002z"/></svg>