<svg xmlns="http://www.w3.org/2000/svg" class="cel-icon cel-icon-stroke-width" viewBox="0 0 24 24"><path d="M11.983 0a12.172 12.172 0 00-8.508 3.651l-.002.002A11.766 11.766 0 000 12.217v-.01.014C0 18.726 5.274 24 11.779 24h.235C18.649 23.93 24 18.535 24 11.89v-.104-.023C24 5.265 18.732-.003 12.234-.003L11.97 0h.013zM10.5 16.542l-.001-.054c0-.806.646-1.461 1.449-1.476h.028a1.527 1.527 0 011.523 1.467v.003a1.475 1.475 0 01-1.448 1.53h-.028a1.53 1.53 0 01-1.523-1.467v-.003zM11 12.5v-6a1 1 0 012 0v6a1 1 0 01-2 0z"/></svg>