<svg xmlns="http://www.w3.org/2000/svg" class="cel-icon cel-icon-stroke-width" viewBox="0 0 24 24"><path d="M17.074 2.755c1.257-.605 1.892-1.049 2.726-.519.434.272.698.748.7 1.26l-.003 12.88c.003.51-.254.987-.683 1.264-.818.535-1.38.147-2.756-.5a21.913 21.913 0 00-8.55-2.47 6.288 6.288 0 003.48 5.421 1 1 0 11-.888 1.792 8.312 8.312 0 01-4.6-7.334V5.943a.5.5 0 01.472-.5 22.5 22.5 0 0010.102-2.688zM4.5 5.513a.5.5 0 01.5.5v8.008a.5.5 0 01-.5.5h-.975a3.5 3.5 0 01-3.516-3.483l-.009-2a3.505 3.505 0 013.487-3.517zM22.212 7.68a.5.5 0 01.458-.062A2 2 0 0124 9.491v1.005a2 2 0 01-1.323 1.886.5.5 0 01-.67-.469L22 8.09a.5.5 0 01.212-.41z" fill="currentColor" fill-rule="evenodd"/></svg>