<svg xmlns="http://www.w3.org/2000/svg" class="cel-icon cel-icon-stroke-width" viewBox="0 0 24 24"><g clip-path="url(#clip0_10296_10664)" fill-rule="evenodd" clip-rule="evenodd" fill="currentColor"><path d="M17.549 17.98a.763.763 0 00-.467-.154c-.211 0-.4.08-.53.21l-3.724 3.703a.135.135 0 01-.093.037c-.07 0-.125-.05-.126-.11V14.12c0-.341-.316-.618-.706-.618-.39 0-.706.277-.706.618v7.548c0 .06-.056.11-.125.11a.134.134 0 01-.094-.037l-3.725-3.703a.749.749 0 00-.546-.227c-.39 0-.707.277-.707.618 0 .165.074.315.194.426l4.826 4.797c.216.215.532.35.883.35s.667-.135.883-.349v-.001l4.827-4.798a.572.572 0 00.175-.408.587.587 0 00-.239-.464v-.001zM17.605 5.147L12.778.35a1.408 1.408 0 00-.881-.35h-.003a1.41 1.41 0 00-.883.35h-.001L6.184 5.147A.575.575 0 006 5.563c0 .341.316.618.707.618a.75.75 0 00.536-.216l.001-.001 3.725-3.704a.133.133 0 01.094-.037c.069 0 .124.05.124.11v7.549c0 .341.317.618.707.618.39 0 .707-.277.707-.618v-7.55c0-.06.055-.109.124-.109.038 0 .072.015.095.038l3.724 3.703c.13.133.323.217.537.217.39 0 .707-.277.707-.618 0-.16-.07-.306-.184-.416z"/></g><defs><clipPath id="clip0_10296_10664"><path fill="#fff" d="M0 0h24v24H0z"/></clipPath></defs></svg>