<svg xmlns="http://www.w3.org/2000/svg" class="cel-icon cel-icon-stroke-width" viewBox="0 0 24 24"><path d="M23.409.4a1.245 1.245 0 00-1.756.188l-.002.002-11.626 14.417-4.017-4.017a1.25 1.25 0 00-1.768 1.768l5 5a1.26 1.26 0 001.856-.097l.002-.002 12.5-15.5a1.249 1.249 0 00-.185-1.756l-.002-.002z"/><path d="M19.124 11.374a1 1 0 00-1 1v9.25a.25.25 0 01-.25.25h-15.5a.25.25 0 01-.25-.25v-15.5a.25.25 0 01.25-.25h11.25a1 1 0 000-2h-11.5a2 2 0 00-2 2v16a2 2 0 002 2h16a2 2 0 002-2v-9.5a1 1 0 00-1-1z"/></svg>