<svg xmlns="http://www.w3.org/2000/svg" class="cel-icon cel-icon-stroke-width" viewBox="0 0 24 24"><path d="M11.813 20.07a.251.251 0 01.25.062l2.81 2.808a.25.25 0 01-.128.422l-3.143.629a.5.5 0 01-.59-.59l.628-3.141a.251.251 0 01.173-.19zm7.716-8.305a2.62 2.62 0 013.707 3.707l-6.5 6.5a.5.5 0 01-.708 0l-3-3a.5.5 0 010-.707zM16 0a2 2 0 012 2v8.76a1 1 0 01-.293.706l-1.28 1.28A.25.25 0 0116 12.57V2.5a.5.5 0 00-.5-.5h-13a.5.5 0 00-.5.5V17a.5.5 0 00.5.5h8.57a.25.25 0 01.177.428l-.4.4a1.934 1.934 0 00-.5.82.5.5 0 01-.479.353H2a2 2 0 01-2-2V2A2 2 0 012 0zm-5.75 12a.75.75 0 010 1.5h-5.5a.75.75 0 110-1.5zm2.5-3.5a.75.75 0 110 1.5h-8a.75.75 0 110-1.5zm0-3.5a.75.75 0 110 1.5h-6a.75.75 0 010-1.5z" fill="currentColor" fill-rule="evenodd"/></svg>