<svg xmlns="http://www.w3.org/2000/svg" class="cel-icon cel-icon-stroke-width" viewBox="0 0 24 24"><path d="M8 1a1 1 0 010 2H3a1 1 0 00-1 1v17a1 1 0 001 1h15a1 1 0 001-1v-5.5a1 1 0 012 0V21a3 3 0 01-3 3H3a3 3 0 01-3-3V4a3 3 0 013-3zm9.973-1a.85.85 0 01.605.256l5.17 5.17a.849.849 0 010 1.21l-5.17 5.164a.804.804 0 01-.605.256.97.97 0 01-.338-.066.876.876 0 01-.527-.794V8.612h-1.205c-2.959 0-4.844.564-5.894 1.761-1.091 1.251-1.412 3.272-.996 6.367.029.189-.094.379-.268.457-.053.012-.107.029-.16.029a.446.446 0 01-.35-.173c-.094-.136-2.234-3.161-2.234-5.853l.001-.157.006-.316c.106-3.485 1.506-7.277 9.896-7.277h1.205V.861c0-.35.214-.659.527-.794a.972.972 0 01.338-.066z"/></svg>