<svg xmlns="http://www.w3.org/2000/svg" class="cel-icon cel-icon-stroke-width" viewBox="0 0 24 24"><path d="M18.128 11.953c0-.794-.143-1.619-.429-2.476s-.714-1.682-1.285-2.476c.857.793 1.524 1.619 2 2.476s.714 1.683.715 2.476c.001.793-.23 1.611-.691 2.452s-1.136 1.675-2.024 2.501c.571-.762 1-1.564 1.286-2.406s.429-1.691.428-2.547zm0 5.047c.635-.793 1.087-1.619 1.357-2.476s.405-1.683.405-2.476c.001-.793-.15-1.619-.453-2.476s-.739-1.683-1.31-2.476c.889.794 1.572 1.619 2.048 2.476s.714 1.682.714 2.476c-.001.794-.231 1.596-.69 2.406s-1.15 1.659-2.072 2.547zM9.365 7.524H7.793c-.159 0-.277.048-.357.143s-.135.206-.167.333l-5.143 8.096c-.032.096-.016.191.048.286s.127.143.19.143h.857c.159 0 .277-.048.357-.143s.135-.191.167-.286l1.048-1.762h3.143v1.762c0 .096.048.191.143.286s.206.143.333.143h.762c.127 0 .246-.048.357-.143s.167-.191.167-.286V7.905c.032-.096-.001-.183-.096-.262s-.175-.119-.238-.119zm-1.191 5.428h-2.38l2.38-3.81v3.81zm4.334-5.428h-1.81c-.096 0-.159.032-.19.095s-.047.19-.048.381v8.144c0 .127.016.238.048.333s.096.143.19.143h1.81c1.365 0 2.437-.389 3.215-1.167s1.151-1.913 1.119-3.404c0-1.619-.389-2.778-1.166-3.477s-1.833-1.048-3.167-1.048zm.239 7.429h-.715V9h.619c.381 0 .746.048 1.095.143s.666.302.952.619c.286.222.484.531.595.928s.166.817.167 1.262c-.032 1.048-.278 1.81-.738 2.286s-1.119.714-1.976.715z"/></svg>