<svg xmlns="http://www.w3.org/2000/svg" class="cel-icon cel-icon-stroke-width" viewBox="0 0 24 24"><path d="M20.706 1.626H3.3c-.983 0-1.744.833-1.744 1.744v17.406c0 .983.833 1.744 1.744 1.744h17.406c.911 0 1.744-.833 1.744-1.744V3.364c-.006-.983-.839-1.738-1.744-1.738zm1.978 10.505L11.972 22.836H7.441L22.684 7.593v4.538zm0 1.223v4.497l-4.985 4.985h-4.497l9.481-9.481zM1.316 22.031v-4.469L17.405 1.473h4.469L1.316 22.031zm0-15.875l4.689-4.689h4.469l-9.158 9.158V6.156zm0 5.7L11.705 1.467h4.476L1.316 16.332v-4.476zM2.01 1.474h2.764L1.316 4.932V2.168c0-.433.351-.694.694-.694zm-.227 21.32l20.853-20.86a.682.682 0 01.041.234v4.201L6.203 22.843H2.002a1.117 1.117 0 01-.22-.048zm20.207.042h-3.066l3.761-3.754v3.06a.687.687 0 01-.694.694z"/><path d="M24 1.955A1.96 1.96 0 0022.044 0H1.957A1.958 1.958 0 000 1.955v20.088A1.96 1.96 0 001.957 24h20.087A1.96 1.96 0 0024 22.043V1.955zM2 21.041V3a1 1 0 011-1l18-.04a1 1 0 011 1L22.041 21a1 1 0 01-1 1L3 22.041a1 1 0 01-1-1z"/></svg>