<svg xmlns="http://www.w3.org/2000/svg" class="cel-icon cel-icon-stroke-width" viewBox="0 0 24 24"><path d="M16.522 3.765a1.007 1.007 0 01-.633-.699l-.001-.007C15.45 1.29 13.876-.001 12-.001a4 4 0 00-3.882 3.033l-.006.028c-.081.33-.318.591-.626.705l-.007.002c-1.75.644-2.976 2.295-2.979 4.234v14.462a1.54 1.54 0 001.538 1.538h11.924a1.54 1.54 0 001.538-1.538V8.001a4.51 4.51 0 00-2.947-4.225l-.031-.01zm-6.329-.622a2 2 0 013.632.037l.005.013a.217.217 0 01-.017.208V3.4a.22.22 0 01-.183.1h-3.211a.25.25 0 01-.225-.358l-.001.001zM16.5 18.578v.001A1.42 1.42 0 0115.079 20H8.922h-.001A1.42 1.42 0 017.5 18.579V17a.5.5 0 01.5-.5h4.75a.5.5 0 01.5.5v.5a.75.75 0 001.5 0V17a.5.5 0 01.5-.5H16a.5.5 0 01.5.5zm0-4.078a.5.5 0 01-.5.5H8a.5.5 0 01-.5-.5v-.411A1.591 1.591 0 019.089 12.5h5.822a1.591 1.591 0 011.589 1.589zM2.5 14A2.5 2.5 0 000 16.5v5A2.5 2.5 0 002.5 24a.5.5 0 00.5-.5v-9a.5.5 0 00-.5-.5zM21.5 14a.5.5 0 00-.5.5v9a.5.5 0 00.5.5 2.5 2.5 0 002.5-2.5v-5a2.5 2.5 0 00-2.5-2.5z"/></svg>