<svg xmlns="http://www.w3.org/2000/svg" class="cel-icon cel-icon-stroke-width" viewBox="0 0 24 24"><path d="M20.487 3.535A11.965 11.965 0 0012.002.022C5.373.022-.001 5.396-.001 12.025c0 3.316 1.345 6.318 3.518 8.49a12.096 12.096 0 008.488 3.462c3.164 0 6.044-1.21 8.205-3.193l-.009.008a12.126 12.126 0 002.439-3.194l.032-.066a11.679 11.679 0 001.192-3.678l.008-.066c.082-.529.129-1.14.13-1.762v-.001-.033c0-3.305-1.344-6.296-3.515-8.457zM5.294 5.293a9.591 9.591 0 016.733-2.748c2.057 0 3.964.646 5.528 1.745l-.031-.02a.264.264 0 01.031.4L4.669 17.562a.265.265 0 01-.4-.03l-.001-.001a9.427 9.427 0 01-1.764-5.514 9.47 9.47 0 012.789-6.724zm13.457 13.464a9.49 9.49 0 01-6.722 2.779 9.474 9.474 0 01-5.538-1.776l.029.02a.266.266 0 01-.032-.4L19.375 6.487a.265.265 0 01.4.03l.001.001a9.424 9.424 0 011.765 5.516 9.471 9.471 0 01-2.788 6.723z"/></svg>