<svg xmlns="http://www.w3.org/2000/svg" class="cel-icon cel-icon-stroke-width" viewBox="0 0 24 24"><path d="M21.702 5.106a.255.255 0 00.255-.255v-.766a.766.766 0 00-.766-.766H7.914l-.184-.078-1.371-1.419a1.785 1.785 0 00-1.287-.546H2.078A2.08 2.08 0 00-.001 3.355V16.341c0 .987.8 1.786 1.786 1.786h.256a.255.255 0 00.255-.255V8.17A3.064 3.064 0 015.36 5.106z"/><path d="M22.213 6.894H5.873a1.789 1.789 0 00-1.787 1.787v12.255a1.789 1.789 0 001.787 1.787h16.341a1.789 1.789 0 001.787-1.787V8.681a1.789 1.789 0 00-1.787-1.787zm-11.132 3.319a1.532 1.532 0 11-1.532 1.532c0-.846.686-1.532 1.532-1.532zm7.395 9.191H9.958a.51.51 0 01-.432-.782l-.001.002 1.51-2.438a1.02 1.02 0 011.304-.209l-.005-.003 1.613 1.233a.252.252 0 00.356-.045v-.001l1.543-1.986a1.02 1.02 0 011.619.066l.002.003 1.478 3.447a.511.511 0 01-.466.712z"/></svg>