<svg xmlns="http://www.w3.org/2000/svg" class="cel-icon cel-icon-stroke-width" viewBox="0 0 24 24"><path d="M21.702 5.106a.255.255 0 00.255-.255v-.766a.766.766 0 00-.766-.766H7.914l-.184-.078-1.371-1.419a1.785 1.785 0 00-1.287-.546H2.078A2.08 2.08 0 00-.001 3.355V16.341c0 .987.8 1.786 1.786 1.786h.256a.255.255 0 00.255-.255V8.17A3.064 3.064 0 015.36 5.106z"/><path d="M22.213 6.894H5.873a1.789 1.789 0 00-1.787 1.787v12.255a1.789 1.789 0 001.787 1.787h16.341a1.789 1.789 0 001.787-1.787V8.681a1.789 1.789 0 00-1.787-1.787zM7.915 10.468H20.17a.766.766 0 010 1.532H7.915a.766.766 0 010-1.532zm4.596 8.681H7.915a.766.766 0 010-1.532h4.596a.766.766 0 010 1.532zm0-3.575H7.915a.766.766 0 010-1.532h4.596a.766.766 0 010 1.532zm8.936-.255a.766.766 0 01-1.532 0v-.128a.128.128 0 00-.128-.128h-.766a.128.128 0 00-.128.128v2.811c0 .069.056.126.126.126h.13a.766.766 0 010 1.532h-2.043a.766.766 0 010-1.532h.128a.128.128 0 00.128-.128v-2.808a.128.128 0 00-.128-.128h-.766a.128.128 0 00-.128.128v.128a.766.766 0 01-1.532 0v-1.021c0-.423.343-.766.766-.766h5.106c.423 0 .766.343.766.766z"/></svg>