<svg xmlns="http://www.w3.org/2000/svg" class="cel-icon cel-icon-stroke-width" viewBox="0 0 24 24"><path d="M24 18a.5.5 0 00-.5-.5H.5a.5.5 0 00-.5.5v1a2.5 2.5 0 002.5 2.5V23a1 1 0 002 0v-1.25a.25.25 0 01.25-.25h14.5a.25.25 0 01.25.25V23a1 1 0 002 0v-1.5A2.5 2.5 0 0024 19zM9.25 16.5h4a.5.5 0 00.5-.5V1a1 1 0 00-1-1h-3a1 1 0 00-1 1v15a.5.5 0 00.5.5zM2.25 16.5h4a.5.5 0 00.5-.5V1a1 1 0 00-1-1h-3a1 1 0 00-1 1v15a.5.5 0 00.5.5zM18.276 16.491l3.842-.717a.49.49 0 00.39-.573v.003L19.818.8a.98.98 0 00-1.146-.78l.006-.001-2.879.536a.978.978 0 00-.78 1.146l-.001-.006 2.687 14.406a.488.488 0 00.573.39h-.003z"/></svg>