<svg xmlns="http://www.w3.org/2000/svg" class="cel-icon cel-icon-stroke-width" viewBox="0 0 24 24"><path d="M18.727 0c.601-.002 1.178.208 1.604.583s.666.884.666 1.416v20.503c.027.424-.144.839-.473 1.148-.13.116-.284.209-.454.273-.639.216-1.262-.043-1.797-.421l-5.869-3.183c-.106-.094-.25-.147-.4-.147s-.294.053-.4.147l-5.666 3.183c-.535.377-1.359.636-1.997.422-.623-.248-.999-.82-.933-1.421V2.001c-.001-.53.238-1.039.662-1.414s1-.586 1.6-.585zM12 6.5a1 1 0 00-1 1V10H8.5a1 1 0 000 2H11v2.5a1 1 0 002 0V12h2.5a1 1 0 000-2H13V7.5a1 1 0 00-1-1z"/></svg>