<svg xmlns="http://www.w3.org/2000/svg" class="cel-icon cel-icon-stroke-width" viewBox="0 0 24 24"><path d="M7.688 10.038H6.73a.958.958 0 000 1.916h.958a.958.958 0 000-1.916zM12.479 10.038h-.958a.958.958 0 000 1.916h.958a.958.958 0 000-1.916zM17.271 10.038h-.958a.958.958 0 000 1.916h.958a.958.958 0 000-1.916zM7.688 13.871H6.73a.958.958 0 000 1.916h.958a.958.958 0 000-1.916zM12.479 13.871h-.958a.958.958 0 000 1.916h.958a.958.958 0 000-1.916zM17.271 13.871h-.958a.958.958 0 000 1.916h.958a.958.958 0 000-1.916zM7.688 17.704H6.73a.958.958 0 000 1.916h.958a.958.958 0 000-1.916zM12.479 17.704h-.958a.958.958 0 000 1.916h.958a.958.958 0 000-1.916zM17.271 17.704h-.958a.958.958 0 000 1.916h.958a.958.958 0 000-1.916z"/><path d="M21.104 2.85h-2.635a.24.24 0 01-.24-.24V.933a.958.958 0 00-1.916 0v4.552a.72.72 0 01-1.438 0V3.329a.48.48 0 00-.479-.479h-5.99a.24.24 0 01-.24-.239V.933a.958.958 0 00-1.916 0v4.552a.72.72 0 01-1.438 0V3.329a.48.48 0 00-.479-.479H2.896A1.917 1.917 0 00.979 4.767v16.292c0 1.059.858 1.917 1.917 1.917h18.208a1.917 1.917 0 001.917-1.917V4.767a1.917 1.917 0 00-1.917-1.917zm0 17.729a.48.48 0 01-.479.479H3.375a.48.48 0 01-.479-.479v-11.5a.48.48 0 01.479-.479h17.25a.48.48 0 01.479.479z"/></svg>