<svg xmlns="http://www.w3.org/2000/svg" class="cel-icon cel-icon-stroke-width" viewBox="0 0 24 24"><path d="M18.5 13.125a3.75 3.75 0 11-7.5 0 3.75 3.75 0 017.5 0z"/><path d="M21.444 6.125h-1.316a.536.536 0 01-.48-.342l-.001-.004C19.029 4.475 18.39 3.125 17 3.125h-5c-1.071 0-1.636.778-2.659 2.191-.384.527-.51.809-.844.809h-6C.434 6.125 0 7.334 0 8.348v10.388a2.254 2.254 0 002.568 2.388l-.012.001h18.888a2.254 2.254 0 002.555-2.396v.007V8.348c0-1.014-.443-2.223-2.556-2.223zm-.944 7a5.75 5.75 0 11-11.5 0 5.75 5.75 0 015.75-5.75 5.756 5.756 0 015.75 5.75zM5 9.875a1.25 1.25 0 11-1.25-1.25c.69 0 1.25.56 1.25 1.25z"/><path d="M2.5 5.109l3 .016a.5.5 0 00.5-.5v-.25a1.5 1.5 0 00-1.5-1.5h-1a1.5 1.5 0 00-1.5 1.5v.234a.5.5 0 00.5.5z"/></svg>