<svg xmlns="http://www.w3.org/2000/svg" class="cel-icon cel-icon-stroke-width" viewBox="0 0 24 24"><path d="M23.563 19.897l-3.052-5.27a.255.255 0 00-.447.011 4.742 4.742 0 01-4.392 2.592.253.253 0 00-.194.079 4.55 4.55 0 01-.98.778.254.254 0 00-.087.347l2.993 5.065a1.018 1.018 0 001.831-.173l.847-2.328 2.434.412a1.016 1.016 0 001.049-1.514h-.001zM8.522 17.311a.253.253 0 00-.194-.079 4.748 4.748 0 01-4.393-2.59.254.254 0 00-.447-.011L.436 19.902a1.016 1.016 0 001.05 1.513l2.433-.412.848 2.329a1.018 1.018 0 001.831.17l2.992-5.063a.256.256 0 00-.087-.347 4.672 4.672 0 01-.98-.78zM14.861 15.557c1.148.364 2.391.057 3.243-.794s1.168-2.106.805-3.253a3.226 3.226 0 000-5.724c.364-1.148.046-2.402-.805-3.253s-2.095-1.157-3.243-.794a3.225 3.225 0 00-5.726 0 3.225 3.225 0 00-4.048 4.044 3.225 3.225 0 000 5.724 3.226 3.226 0 004.048 4.051 3.223 3.223 0 005.724 0z"/></svg>