<svg xmlns="http://www.w3.org/2000/svg" class="cel-icon cel-icon-stroke-width" viewBox="0 0 24 24"><path d="M6.352.235A1.178 1.178 0 004.705.47L2.697 3.152l-.454-.453A1.177 1.177 0 00.58 4.36l1.412 1.412a1.187 1.187 0 001.773-.126l2.824-3.765A1.177 1.177 0 006.353.235zM6.352 8.706a1.178 1.178 0 00-1.647.235l-2.008 2.682-.454-.453a1.175 1.175 0 00-1.984.52c-.108.411.015.849.321 1.144l1.412 1.412c.244.236.577.357.916.333s.651-.193.857-.462l2.824-3.765a1.177 1.177 0 00-.236-1.646zM6.352 17.411a1.178 1.178 0 00-1.647.235l-2.008 2.682-.454-.453a1.175 1.175 0 00-1.984.52c-.108.411.015.849.321 1.144l1.412 1.412c.244.236.577.357.916.333s.651-.193.857-.462l2.824-3.765a1.177 1.177 0 00-.236-1.646zM8.941 5.029h14.118c.52 0 .941-.448.941-1s-.421-1-.941-1H8.941c-.52 0-.941.448-.941 1s.421 1 .941 1zM23.059 11.029H8.941c-.52 0-.941.448-.941 1s.421 1 .941 1h14.118c.52 0 .941-.448.941-1s-.421-1-.941-1zM23.059 19.029H8.941c-.52 0-.941.448-.941 1s.421 1 .941 1h14.118c.52 0 .941-.448.941-1s-.421-1-.941-1z"/></svg>