<svg xmlns="http://www.w3.org/2000/svg" class="cel-icon cel-icon-stroke-width" viewBox="0 0 24 24"><path d="M20 2c2.484.003 3.997 1.634 4 4v12c0 2.367-1.515 4-4 4H4c-2.485 0-4-1.633-4-4V6c.003-2.366 1.516-3.997 4-4zm-9.625 5.125h-2.25A4.13 4.13 0 004 11.25v1.5a4.13 4.13 0 004.125 4.125h2.25a1.125 1.125 0 100-2.25h-2.25A1.877 1.877 0 016.25 12.75v-1.5c0-1.034.841-1.875 1.875-1.875h2.25a1.125 1.125 0 100-2.25zm8.5 0h-2.25A4.13 4.13 0 0012.5 11.25v1.5a4.13 4.13 0 004.125 4.125h2.25a1.125 1.125 0 100-2.25h-2.25a1.877 1.877 0 01-1.875-1.875v-1.5c0-1.034.841-1.875 1.875-1.875h2.25a1.125 1.125 0 100-2.25z"/></svg>