<svg xmlns="http://www.w3.org/2000/svg" class="cel-icon cel-icon-stroke-width" viewBox="0 0 24 24"><path d="M23.3 9.006a.513.513 0 00-.231-.299l-.002-.001L22 8.086a4.957 4.957 0 00-.006-2.203l.006.033 1.051-.616a.5.5 0 00.18-.686l.001.002-1.014-1.737a.5.5 0 00-.68-.178l.002-.001-1.105.625a3.614 3.614 0 00-1.911-1.09l-.024-.004V1a.5.5 0 00-.5-.5h-2a.5.5 0 00-.5.5v1.23a3.63 3.63 0 00-1.934 1.088l-.002.002-1.104-.62a.5.5 0 00-.677.181l-.001.002-1.014 1.733a.499.499 0 00.179.683l.002.001 1.059.615a4.9 4.9 0 00.007 2.203l-.006-.033-1.07.616a.5.5 0 00-.181.686l-.001-.002 1 1.738a.5.5 0 00.678.186l-.002.001 1.132-.629a3.628 3.628 0 001.913 1.086l.024.004v1.228a.5.5 0 00.5.5h2a.5.5 0 00.5-.5v-1.228a3.63 3.63 0 001.934-1.088l.002-.002 1.133.629a.5.5 0 00.675-.185l.001-.002 1-1.738a.499.499 0 00.055-.383l.001.003zM17 9.5A2.5 2.5 0 1119.5 7 2.5 2.5 0 0117 9.5zM13.065 18.7L12 18.086a4.957 4.957 0 00-.006-2.203l.006.033 1.059-.615a.5.5 0 00.18-.686l.001.002-1.014-1.738a.5.5 0 00-.68-.183l.002-.001-1.1.625a3.606 3.606 0 00-1.925-1.085l-.023-.004V11a.5.5 0 00-.5-.5H6a.5.5 0 00-.5.5v1.23a3.63 3.63 0 00-1.934 1.088l-.002.002-1.104-.62a.5.5 0 00-.677.181l-.001.002-1.014 1.733a.499.499 0 00.179.683l.002.001 1.059.615a4.9 4.9 0 00.007 2.203l-.006-.033-1.073.614a.5.5 0 00-.181.686l-.001-.002 1 1.738a.5.5 0 00.678.186l-.002.001 1.132-.629a3.626 3.626 0 001.916 1.088l.024.004v1.228a.5.5 0 00.5.5h2a.5.5 0 00.5-.5v-1.228a3.63 3.63 0 001.934-1.088l.002-.002 1.133.629a.5.5 0 00.675-.185l.001-.002 1-1.738a.501.501 0 00-.181-.683l-.002-.001zM7 19.5A2.5 2.5 0 119.5 17 2.5 2.5 0 017 19.5z"/></svg>