<svg xmlns="http://www.w3.org/2000/svg" class="cel-icon cel-icon-stroke-width" viewBox="0 0 16 16"><path fill-rule="evenodd" clip-rule="evenodd" d="M.869 3.221h11.595c.48 0 .87.39.87.87v7.734a.846.846 0 01-.87.839h-1.906v2.491a.29.29 0 01-.455.238l-3.527-2.73H.87a.87.87 0 01-.869-.87V4.09c0-.48.39-.87.87-.87l-.001.001zm2.464 3.89H10a.556.556 0 000-1.112H3.333a.556.556 0 000 1.111zm0 2.777H10a.556.556 0 000-1.111H3.333a.556.556 0 000 1.111z" fill="#006BE0"/><circle cx="12.666" cy="3.333" r="2.833" fill="#C6720C" stroke="#fff"/></svg>