<svg xmlns="http://www.w3.org/2000/svg" class="cel-icon cel-icon-stroke-width" viewBox="0 0 24 24"><path d="M12.322 24C5.641 24 .226 18.806.226 12.127S5.641 0 12.322 0c5.245 0 9.71 3.127 11.386 8.046h-3.345c-1.49-2.904-4.53-4.923-8.042-4.923-4.982 0-9.019 3.974-9.019 8.956s4.037 8.775 9.019 8.775c3.589 0 6.687-1.94 8.14-5.406h3.312c-1.621 5.902-6.134 8.553-11.451 8.553zm-.001-8.013c1.281 0 2.407-.962 3.064-1.524h2.385c-.822 2.014-2.951 3.673-5.449 3.673-3.21 0-5.811-2.668-5.811-5.878 0-3.209 2.601-5.835 5.811-5.835 2.426 0 4.502 1.155 5.373 3.59h-2.445c-.67-.843-1.732-1.469-2.928-1.469-2.028 0-3.673 1.669-3.673 3.698s1.645 3.746 3.673 3.746z"/></svg>