<svg xmlns="http://www.w3.org/2000/svg" class="cel-icon cel-icon-stroke-width" viewBox="0 0 24 24"><path d="M.306.299A1.04 1.04 0 000 1.037v11.494c0 .576.467 1.043 1.043 1.043h8.348c.576 0 1.043-.467 1.043-1.043V1.053C10.434.477 9.967.01 9.391.01L1.043-.006A1.04 1.04 0 00.305.3zM22.956-.007l-8.348.015c-.576 0-1.043.467-1.043 1.043v5.217c0 .576.467 1.043 1.043 1.043h8.348c.576 0 1.043-.467 1.043-1.043V1.036c0-.576-.467-1.043-1.043-1.043zM10.129 23.701a1.04 1.04 0 00.306-.738v-5.217c0-.576-.467-1.043-1.043-1.043H1.044c-.576 0-1.043.467-1.043 1.043v5.202c0 .576.467 1.043 1.043 1.043l8.348.015h.001c.288 0 .548-.116.737-.305zM22.956 10.443h-8.348c-.576 0-1.043.467-1.043 1.043v11.478c0 .576.467 1.043 1.043 1.043l8.348-.015c.576 0 1.043-.467 1.043-1.043V11.486c0-.576-.467-1.043-1.043-1.043z"/></svg>