<svg xmlns="http://www.w3.org/2000/svg" class="cel-icon cel-icon-stroke-width" viewBox="0 0 24 24"><path d="M15.492 8.414q0 .68-.223 1.242t-.691 1.008q-.469.469-1.043.691t-1.23.223q-.68 0-1.242-.223t-1.031-.691q-.469-.445-.703-1.008t-.234-1.242q0-.656.234-1.219t.703-1.031q.469-.445 1.031-.68t1.242-.234 1.242.234 1.031.68q.469.469.691 1.031t.223 1.219zm-1.711 0q0-.305-.105-.574t-.316-.48q-.211-.234-.48-.34t-.574-.105-.574.105-.48.34q-.211.211-.316.48t-.105.574q0 .328.105.598t.316.48.48.328.574.117.574-.117.48-.328q.211-.234.316-.492t.105-.586z"/></svg>