<svg xmlns="http://www.w3.org/2000/svg" class="cel-icon cel-icon-stroke-width" viewBox="0 0 24 24"><path d="M12 1.143c5.987 0 10.857 4.87 10.857 10.857S17.987 22.857 12 22.857c-5.987 0-10.857-4.87-10.857-10.857S6.013 1.143 12 1.143zM12 0C5.373 0 0 5.373 0 12s5.373 12 12 12c6.628 0 12-5.373 12-12S18.627 0 12 0zm.094 18.265a1.67 1.67 0 10-.002-3.34 1.67 1.67 0 00.002 3.34zm-.065.746c-1.767 0-3.339.963-3.761 2.302v.034c1.219.415 2.386.652 3.626.652 1.332 0 2.707-.267 3.871-.742-.593-1.292-2.009-2.247-3.735-2.247zm4.564-8.774a1.67 1.67 0 100 3.34 1.67 1.67 0 000-3.34zm4.665-2.002c-1.292.593-2.247 2.077-2.247 3.804 0 1.767.963 3.406 2.302 3.828h.034c.415-1.219.652-2.453.652-3.693 0-1.333-.267-2.775-.742-3.939zm-9.352-2.499c-.922 0-1.669.747-1.669 1.671a1.669 1.669 0 103.34 0 1.67 1.67 0 00-1.671-1.671zM12.054 2c-1.333 0-2.655.266-3.819.742.593 1.292 1.957 2.247 3.683 2.247 1.767 0 3.287-.963 3.709-2.303v-.034C14.455 2.238 13.293 2 12.054 2zm-4.648 8.423a1.67 1.67 0 10-.002 3.34 1.67 1.67 0 00.002-3.34zM2.686 8.18h-.034C2.238 9.68 2 10.61 2 11.85c0 1.333.266 2.751.742 3.915 1.292-.593 2.247-2.053 2.247-3.78 0-1.767-.963-3.008-2.303-3.805z"/></svg>