<svg xmlns="http://www.w3.org/2000/svg" class="cel-icon cel-icon-stroke-width" viewBox="0 0 24 24"><path d="M23.6 11.189l-4-3a1 1 0 00-1.6.8v1.25a.25.25 0 01-.25.25h-4a.25.25 0 01-.25-.25v-4a.25.25 0 01.25-.25H15a1 1 0 00.798-1.603l.002.003-3-4a1.036 1.036 0 00-1.599-.002L11.2.389l-3 4a1 1 0 00.8 1.6h1.25a.25.25 0 01.25.25v4a.25.25 0 01-.25.25h-4a.25.25 0 01-.25-.25v-1.25a1 1 0 00-1.603-.798l.003-.002-4 3a1 1 0 00-.003 1.598l.003.002 4 3a1 1 0 001.6-.8v-1.25a.25.25 0 01.25-.25h4a.25.25 0 01.25.25v4a.25.25 0 01-.25.25H9a1 1 0 00-.798 1.603l-.002-.003 3 4a1 1 0 001.598.003l.002-.003 3-4a1 1 0 00-.8-1.6h-1.25a.25.25 0 01-.25-.25v-4a.25.25 0 01.25-.25h4a.25.25 0 01.25.25v1.25a1 1 0 001.603.798l-.003.002 4-3a1 1 0 00.003-1.598l-.003-.002z"/></svg>