<svg xmlns="http://www.w3.org/2000/svg" class="cel-icon cel-icon-stroke-width" viewBox="0 0 24 24"><path d="M16.3 9.7c4.246 0 7.7 2.884 7.7 6.429a5.777 5.777 0 01-1.788 4.125l1.179 2.344c.185.369.116.813-.173 1.109s-.733.377-1.109.204l-3.538-1.638a9.114 9.114 0 01-2.272.284c-4.246 0-7.7-2.883-7.7-6.428s3.454-6.429 7.7-6.429zm.05 2c-3.17 0-5.75 2.006-5.75 4.47s2.58 4.469 5.75 4.469c.702.002 1.4-.1 2.072-.301a.976.976 0 01.695.048l1.33.613-.261-.517a.96.96 0 01.263-1.187 4.007 4.007 0 001.651-3.126c0-2.465-2.58-4.47-5.75-4.47zM11.55 0C17.919 0 23.1 4.31 23.1 9.607c0 .501-.1.793-.307.778s-.179.002-.241-.063C21.101 9.1 18.601 7.9 16.001 8c-5.4 0-9.1 3.858-9.1 7.9 0 1.3.542 2.562.416 2.519l-5.365 2.442a.485.485 0 01-.657-.581l1.366-4.548A8.677 8.677 0 010 9.607C0 4.31 5.181 0 11.55 0z"/></svg>