<svg xmlns="http://www.w3.org/2000/svg" class="cel-icon cel-icon-stroke-width" viewBox="0 0 24 24"><path d="M17.106 18.805c-.329.198-.756.321-1.283.367-.791.07-1.409-.064-1.875-.133-.31-.047-.718-.208-1.223-.485.173 1.372.607 2.456 1.303 3.253 1.044 1.196 3.163 1.48 2.422 1.48s-2.125 0-2.822-.181a8.903 8.903 0 01-1.174-.38l-.664.712a6.918 6.918 0 01-.594-.203c-.294-.127-.487-.261-.638-.28-.168-.021-.381.117-.683.204-.33.095-.763.141-1.295.172-1.02.059-2.328 0-2.247 0s1.657-.589 2.13-.859c.315-.18.567-.523.756-1.03.401-1.836.55-2.715.447-2.638-.155.116-.572.211-.973.297s-1.382.022-1.935-.226c-.553-.248-.582-.388-.761-.438s-.217.367-1.124.367c-.907 0-1.154-.252-1.454-.432s-.786-.85-.861-1.329c-.075-.479.064-.943.173-1.12s-.581.131-1.343-.333c-.762-.465-1.001-.851-1.179-1.538s-.01-2.196.321-2.61c.221-.276.409-.495.564-.656C.54 10.623.186 10.201.03 9.52c-.233-1.021.891-2.055 1.197-2.257s.655-.256.655-.256-.53-.768-.347-1.603c.232-1.058.797-1.599 1.195-1.931.577-.481 1.055-.725 1.76-.924.47-.132.972-.177 1.506-.135.257-.54.664-.896 1.219-1.066.833-.256 1.208-.131 1.633 0s.546.47.685.247c.139-.223.285-.372.967-.689s1.811-.414 2.485-.294c.674.12 1.505.354 1.929.588.282.156.689.461 1.218.913.686-.358 1.486-.405 2.401-.14 1.372.397 2.139 1.277 2.38 1.631s.44.548.649 1.201c.072.226.059.425.068.6.006.108.006.249 0 .422.551.051.98.288 1.289.71.33.451.198 1.351-.057 1.593s-.299.372-.132.387c.403.25.657.444.762.585.522.701.505 1.286.505 1.439 0 .298-.274 1.053-.434 1.25s-.146.238-.376.412.103.288.156.601.208 1.207.073 1.842c-.068.321-.389.941-.687 1.277-.351.397-.69.496-.839.641-.252.245-1.678.229-1.53.229s.137 1.187-.044 1.452c-.102.149-.575.607-1.087.793-.4.145-.894.133-1.107.133-.323 0-.663-.122-1.021-.367zM8.207 12.57v-1.094h1.439c.24 0 .396-.007.468-.022s.142-.046.209-.094c.182-.144.273-.465.273-.964 0-.211-.017-.384-.05-.518s-.089-.254-.166-.36c-.048-.058-.086-.101-.115-.13s-.072-.05-.13-.065a1.087 1.087 0 00-.245-.022H8.206v-.806c0-.345.024-.559.072-.641s.173-.122.374-.122c.086 0 .206.007.36.022s.314.031.482.05a15.292 15.292 0 01.914.13c.173.038.293.062.36.072s.125.014.173.014c.192 0 .331-.074.417-.223s.13-.396.13-.741c0-.537-.077-.883-.23-1.036-.125-.125-.441-.223-.95-.295s-1.128-.108-1.857-.108c-.288 0-.576.005-.864.014a17.331 17.331 0 00-1.454.108c-.192.024-.336.05-.432.079-.192.058-.317.166-.374.324s-.086.449-.086.871c0 .576.082.878.245.907.106.019.168.034.187.043a.166.166 0 01.08.116c.005.02.01.055.014.108.005.053.007.132.007.238v5.585c0 .192.002.35.007.475s.019.223.043.295c.024.072.055.13.094.173s.091.084.158.122c.154.086.439.156.856.209s.9.079 1.447.079c.72 0 1.327-.034 1.821-.101s.808-.158.943-.273c.192-.163.288-.561.288-1.195 0-.297-.043-.511-.13-.641s-.225-.194-.417-.194a1.548 1.548 0 00-.259.029l-.489.065c-.182.024-.365.046-.547.065-.182.019-.353.034-.511.043s-.285.014-.381.014c-.221 0-.357-.031-.41-.094s-.079-.233-.079-.511zm5.01-3.843v5.196c0 .221.002.393.007.518s.014.223.029.295c.014.072.041.13.079.173s.086.089.144.137c.288.211 1.099.317 2.433.317.269 0 .533-.005.792-.014a9.46 9.46 0 001.282-.129c.164-.029.283-.058.36-.086.192-.077.326-.209.403-.396s.115-.463.115-.828c0-.326-.043-.561-.13-.705s-.225-.216-.417-.216a.535.535 0 00-.144.014c-.47.067-.864.118-1.18.151s-.557.05-.72.05c-.288 0-.475-.034-.561-.101l-.05-.05c-.014-.014-.024-.043-.029-.086s-.007-.108-.007-.194V6.152c0-.086-.005-.151-.014-.194s-.019-.074-.029-.094a.327.327 0 00-.058-.072c-.086-.086-.278-.13-.576-.13-.134 0-.283.005-.446.014s-.329.026-.497.05c-.168.024-.326.048-.475.072s-.266.05-.353.079c-.192.058-.329.168-.41.331s-.122.422-.122.777c0 .365.022.621.065.77s.122.233.238.252c.067.01.118.022.151.036s.06.046.079.094c.019.048.031.118.036.209s.007.218.007.381z"/></svg>