<svg xmlns="http://www.w3.org/2000/svg" class="cel-icon cel-icon-stroke-width" viewBox="0 0 24 24"><path d="M13 1l.117.007A1 1 0 0113 3l-10.117.007A1 1 0 002 4v17l.007.117A1 1 0 003 22l15.117-.007A1 1 0 0019 21v-8.5l.007-.117A1 1 0 0121 12.5V21l-.005.176A3 3 0 0118 24l-15.176-.005A3 3 0 010 21V4l.005-.176A3 3 0 013 1h10zm-2.554 10.213c.138 0 .264.056.354.147l1.821 1.818a.499.499 0 01-.168.818l-3.03 1.212a.526.526 0 01-.539-.111l-.05-.059a.497.497 0 01-.061-.48l1.212-3.035a.507.507 0 01.364-.3l-.002-.001.048-.007zm7.63-7.924c.137 0 .262.053.354.14l2.122 2.122.05.059a.497.497 0 01-.05.649l-6.364 6.364a.5.5 0 01-.708 0l-2.121-2.12-.05-.058a.501.501 0 01.05-.65l6.363-6.366.075-.059a.512.512 0 01.279-.081zM22.001 0c.549 0 1.047.215 1.414.566l.001.001.115.126a1.994 1.994 0 01-.115 2.702l-1.061 1.061a.5.5 0 01-.708 0l-2.121-2.121a.5.5 0 010-.708l1.06-1.06A2.043 2.043 0 0122.001 0z"/></svg>