<svg xmlns="http://www.w3.org/2000/svg" class="cel-icon cel-icon-stroke-width" viewBox="0 0 24 24"><path d="M22.085 9.248a2 2 0 00.584-1.415 2 2 0 00-.584-1.415l-5.171-5.17c-.362-.362-.862-.586-1.415-.586s-1.053.224-1.415.586L10.56 4.772a.499.499 0 000 .708l7.292 7.293a.499.499 0 00.708 0zM4.085 18.418a5.527 5.527 0 003.401 1.414l.014.001h2a5.552 5.552 0 003.419-1.419l-.005.004 3.525-3.525a.499.499 0 000-.708L9.147 6.892a.499.499 0 00-.708 0l-6.525 6.525a2 2 0 00-.584 1.415 2 2 0 00.584 1.415zM23 21.333H1a1 1 0 000 2h22a1 1 0 000-2z"/></svg>