<svg xmlns="http://www.w3.org/2000/svg" viewBox="0 0 161 68"><path opacity=".06" fill-rule="evenodd" clip-rule="evenodd" d="M10.5 27.972h30c2.761 0 5-2.236 5-4.995a4.998 4.998 0 00-5-4.995h-.223a9.015 9.015 0 00.223-1.998c0-4.966-4.03-8.99-9-8.99-.578 0-1.142.053-1.69.157A11.004 11.004 0 0019.5 0C13.688 0 8.93 4.503 8.527 10.207 4.506 11.105 1.5 14.693 1.5 18.98c0 4.28 2.992 7.86 7 8.769v.222h2zM135.5 5.994l-.001.09c2.283.416 4.001 2.23 4.001 4.406 0 2.175-1.718 3.989-4 4.405v.09h-17v-.05a2.499 2.499 0 110-4.895v-.05h.1a4.998 4.998 0 015.237-5.983A6.003 6.003 0 01129.5 0c3.314 0 6 2.684 6 5.994zM101.132 44.167H53.605v-.009a7.903 7.903 0 01-.368.009c-4.273 0-7.737-3.46-7.737-7.73 0-4.222 3.39-7.654 7.6-7.727a14.432 14.432 0 01-.232-2.578c0-7.928 6.433-14.354 14.369-14.354.456 0 .907.021 1.353.063C71 4.946 77.566 0 85.29 0c9.556 0 17.342 7.573 17.673 17.04 7.071.853 12.537 6.576 12.537 13.509 0 6.93-5.461 12.65-12.526 13.507v.11h-1.842zM75.676 19.812c2.327-4.075 8.226-4.022 10.48.094l13.281 24.26h-37.67l13.909-24.354z" fill="currentColor"/><g filter="url(#filter0_d_10172_58)"><path fill-rule="evenodd" clip-rule="evenodd" d="M101.409 56.417l-17.343-33.41C83.43 21.805 82.199 21 80.778 21a3.704 3.704 0 00-3.277 1.986l-.009.021-17.345 33.41a3.718 3.718 0 00-.423 1.737c0 2.068 1.661 3.744 3.711 3.744h34.686c2.05 0 3.711-1.676 3.711-3.744a3.73 3.73 0 00-.435-1.757l.01.02h.002z" fill="#fff"/></g><path fill-rule="evenodd" clip-rule="evenodd" d="M101.409 56.417l-17.343-33.41C83.43 21.805 82.199 21 80.778 21a3.704 3.704 0 00-3.277 1.986l-.009.021-17.345 33.41a3.718 3.718 0 00-.423 1.737c0 2.068 1.661 3.744 3.711 3.744h34.686c2.05 0 3.711-1.676 3.711-3.744a3.73 3.73 0 00-.435-1.757l.01.02h.002zM78.922 34.748c0-1.033.832-1.871 1.856-1.871s1.855.838 1.855 1.871v11.23a1.864 1.864 0 01-1.855 1.872 1.864 1.864 0 01-1.856-1.871v-11.23zm1.949 21.544h-.052c-1.523-.006-2.765-1.222-2.824-2.746v-.006c-.002-.03-.002-.065-.002-.1 0-1.51 1.199-2.735 2.687-2.763h.053c1.524.002 2.767 1.218 2.828 2.74v.005a2.751 2.751 0 01-2.688 2.87h-.002z" fill="url(#paint0_radial_10172_58)"/><defs><radialGradient id="paint0_radial_10172_58" cx="0" cy="0" r="1" gradientUnits="userSpaceOnUse" gradientTransform="matrix(54.23711 -19.67736 19.24535 53.04636 66.985 55.182)"><stop stop-color="#F8961E"/><stop offset="1" stop-color="#F57512"/></radialGradient><filter id="filter0_d_10172_58" x="55.724" y="19" width="50.107" height="48.897" filterUnits="userSpaceOnUse" color-interpolation-filters="sRGB"><feFlood flood-opacity="0" result="BackgroundImageFix"/><feColorMatrix in="SourceAlpha" values="0 0 0 0 0 0 0 0 0 0 0 0 0 0 0 0 0 0 127 0" result="hardAlpha"/><feOffset dy="2"/><feGaussianBlur stdDeviation="2"/><feColorMatrix values="0 0 0 0 0 0 0 0 0 0 0 0 0 0 0 0 0 0 0.15 0"/><feBlend in2="BackgroundImageFix" result="effect1_dropShadow_10172_58"/><feBlend in="SourceGraphic" in2="effect1_dropShadow_10172_58" result="shape"/></filter></defs></svg>