<svg xmlns="http://www.w3.org/2000/svg" class="cel-icon cel-icon-stroke-width" viewBox="0 0 24 24"><path d="M23.8 8.66a1.54 1.54 0 00-1.436-1.001h-6.216a.512.512 0 01-.481-.338l-.001-.004L13.435.993a1.532 1.532 0 00-2.866-.01l-.004.01-.005.016-2.226 6.308a.511.511 0 01-.481.341H1.635h-.001a1.532 1.532 0 00-.985 2.705l.002.002 5.294 4.391a.51.51 0 01.158.558l.001-.004-2.224 6.669a1.532 1.532 0 002.363 1.717l-.004.003 5.459-4.003a.504.504 0 01.605.001l-.001-.001 5.457 4.002a1.532 1.532 0 002.358-1.73l.003.011-2.224-6.674a.505.505 0 01.158-.554l5.305-4.398a1.53 1.53 0 00.438-1.707l.003.011z"/></svg>