<svg xmlns="http://www.w3.org/2000/svg" class="cel-icon cel-icon-stroke-width" viewBox="0 0 24 24"><path d="M23.798 8.657a1.605 1.605 0 00-1.499-1.046h-6.481l-2.321-6.573a1.6 1.6 0 00-2.997.009l-.004.011-2.313 6.553H1.702a1.6 1.6 0 00-1.029 2.822l.002.002 5.488 4.547-2.303 6.909a1.597 1.597 0 002.464 1.795l-.004.003 5.681-4.162 5.68 4.164a1.597 1.597 0 002.457-1.804l.003.011-2.304-6.913 5.5-4.558a1.602 1.602 0 00.457-1.78l.004.011zm-7.927 5.126a1.089 1.089 0 00-.337 1.192l-.002-.008 1.69 5.069a.273.273 0 01-.421.307l.001.001-4.158-3.052c-.178-.132-.402-.211-.645-.211s-.467.079-.648.213l.003-.002-4.152 3.046a.273.273 0 01-.42-.307l-.001.002 1.688-5.069a1.09 1.09 0 00-.336-1.183l-.002-.001-4.23-3.503a.273.273 0 01.174-.484h4.881a1.09 1.09 0 001.026-.721l.002-.008 1.758-4.983a.273.273 0 01.514-.002l.001.002 1.757 4.983c.154.428.556.728 1.029.729h4.881a.273.273 0 01.174.483z"/></svg>