<svg xmlns="http://www.w3.org/2000/svg" class="cel-icon cel-icon-stroke-width" viewBox="0 0 24 24"><path d="M23.44 9.549A1.491 1.491 0 0022.284 9H10.42h-.001a.499.499 0 01-.489-.397L9.929 8.6l-.278-1.395A1.503 1.503 0 008.18 6H1.72h-.001A1.5 1.5 0 00.251 7.81L.249 7.8l2.6 13c.144.69.747 1.2 1.47 1.2h15.962a1.5 1.5 0 001.468-1.19l.002-.01 2-10a1.497 1.497 0 00-.313-1.254l.002.003zM3.22 5h.005a1 1 0 00.974-.771l.001-.007A.263.263 0 014.442 4H19.72a.5.5 0 01.5.5V7a1 1 0 002 0V4a2 2 0 00-2-2h-16a2 2 0 00-2 2 1 1 0 001 1z"/></svg>