<svg xmlns="http://www.w3.org/2000/svg" class="cel-icon cel-icon-stroke-width" viewBox="0 0 24 24"><path d="M10.35 8.377a2.207 2.207 0 01-2.229 2.197c-1.215-.007-2.23-1.027-2.219-2.228.013-1.231 1.047-2.245 2.271-2.223a2.218 2.218 0 012.178 2.254zm.775 8.169v-1.839l.114-.047.037-.052s-.09.035-.075.052c.019.012-.076.025-.076.037v.01s.505.492.731.722c.577.585 1.041.611 1.629.046a127.7 127.7 0 002.668-2.639c.346-.351.336-.772.016-1.08-.329-.316-.689-.316-1.061.051-.778.766-1.531 1.549-2.313 2.34-.642-.633-1.254-1.237-1.869-1.84l-.023-.024c-.366-.712-1.193-.992-2.511-.901-.361.025-.715-.006-1.078.007-1.176.041-1.916.765-1.954 1.943-.015.485-.167 4.296-.164 7.579 1.825.994 4.1 1.591 5.928 1.715v-6.079zM.861 5.659v10.71H3.86v-1.285H2.146V2.66h19.707v12.424H16.39l-1.654 1.285h8.402V1.375H.861z"/></svg>