<svg xmlns="http://www.w3.org/2000/svg" class="cel-icon cel-icon-stroke-width" viewBox="0 0 24 24"><path d="M11 11.25a.25.25 0 00.25-.25V.25A.25.25 0 0011 0H2.5A2.5 2.5 0 000 2.5V11c0 .138.112.25.25.25zM2.97 4.03a.75.75 0 111.059-1.061L5.541 4.48a.25.25 0 00.354 0l1.511-1.511a.75.75 0 111.062 1.06L6.956 5.541a.25.25 0 000 .354l1.512 1.511a.75.75 0 11-1.061 1.061L5.9 6.955a.25.25 0 00-.354 0L4.03 8.467a.75.75 0 01-1.06-1.062l1.511-1.507a.25.25 0 000-.354zM12.75 11c0 .138.112.25.25.25h10.75A.25.25 0 0024 11V2.5A2.5 2.5 0 0021.5 0H13a.25.25 0 00-.25.25zM13 12.75a.25.25 0 00-.25.25v10.75c0 .138.112.25.25.25h8.5a2.5 2.5 0 002.5-2.5V13a.25.25 0 00-.25-.25zm5.25 8.75A2.75 2.75 0 1121 18.75a2.75 2.75 0 01-2.75 2.75zM11.25 13a.25.25 0 00-.25-.25H.25A.25.25 0 000 13v8.5A2.5 2.5 0 002.5 24H11a.25.25 0 00.25-.25z"/></svg>