<svg xmlns="http://www.w3.org/2000/svg" class="cel-icon cel-icon-stroke-width" viewBox="0 0 24 24"><path d="M6.992 6.241l3.156 9.179c.128.363.251.601.372.713s.334.168.645.168h.192v1.457H6.631v-1.457h.664c.246 0 .369-.112.369-.337 0-.08-.035-.227-.104-.44a76.53 76.53 0 01-.336-1.049H3.692c-.198.534-.32.89-.369 1.069-.048.179-.072.3-.072.364 0 .144.056.246.168.304s.331.088.657.088h.176v1.457H-.001V16.3c.412 0 .683-.052.817-.156.133-.104.272-.364.417-.781l3.195-9.122h2.563zM5.447 8.804l-1.362 3.981H6.84L5.478 8.804h-.032zm9.9 2.235v1.685h-4.614v-1.685h4.614zm8.404-4.662v1.802l-5.982 7.809h3.564c.47 0 .721-.109.753-.328s.048-.51.048-.873v-.441H24v3.412h-9.251v-1.77l5.967-7.809h-3.123c-.299 0-.498.04-.597.12s-.149.229-.149.448V9.7h-1.85V6.376h8.754z"/></svg>