<svg xmlns="http://www.w3.org/2000/svg" class="cel-icon cel-icon-stroke-width" viewBox="0 0 24 24"><path d="M3.734 19.5h3.281c.062 0 .122-.03.166-.084s.069-.128.068-.204v-2.308c0-.637-.42-1.154-.938-1.154H4.436c-.518 0-.937.517-.937 1.154v2.308c0 .077.024.15.068.204s.104.084.166.084zM9.688 10.5c-.518 0-.938.488-.938 1.091v7.636c0 .072.024.142.068.193s.104.08.166.08h3.281c.062 0 .122-.028.166-.08s.069-.121.068-.193v-7.636c0-.602-.42-1.091-.938-1.091H9.686zM15.188 12.75c-.518 0-.938.484-.938 1.08v5.4c0 .072.024.141.068.191s.104.079.166.079h3.281c.062 0 .122-.028.166-.079s.069-.12.068-.191v-5.4c0-.596-.42-1.08-.938-1.08h-1.875zM23.016 19.5c.062 0 .122-.029.166-.083s.069-.125.068-.2V5.632c0-.625-.42-1.132-.938-1.132h-1.875c-.518 0-.938.507-.938 1.132v13.585c0 .075.024.147.068.2s.104.083.166.083h3.281z"/><path d="M23 21H2.5a.5.5 0 01-.5-.5V2a1 1 0 00-2 0v19.5A1.5 1.5 0 001.5 23H23a1 1 0 000-2z"/></svg>