<svg xmlns="http://www.w3.org/2000/svg" class="cel-icon cel-icon-stroke-width" viewBox="0 0 24 24"><path d="M22.16 4a1.84 1.84 0 00-1.791 2.265.233.233 0 01-.05.203L17.32 9.966a.233.233 0 01-.232.074 1.84 1.84 0 00-1.755.488.227.227 0 01-.236.055l-2.005-.667a.232.232 0 01-.156-.184 1.841 1.841 0 10-3.613.679.231.231 0 01-.077.23l-2.669 2.228a.235.235 0 01-.241.034 1.84 1.84 0 101.046 1.258.23.23 0 01.076-.23l2.669-2.228a.23.23 0 01.24-.034 1.838 1.838 0 002.047-.388.23.23 0 01.237-.055l2.004.666a.234.234 0 01.155.184 1.84 1.84 0 003.667-.251c0-.247-.05-.492-.147-.719a.23.23 0 01.038-.24l2.802-3.27a.231.231 0 01.265-.062 1.84 1.84 0 10.724-3.533z"/><path d="M23 21H2.5a.5.5 0 01-.5-.5V2a1 1 0 00-2 0v19.5A1.5 1.5 0 001.5 23H23a1 1 0 000-2z"/></svg>