<svg xmlns="http://www.w3.org/2000/svg" viewBox="0 0 49 47"><g fill="none" fill-rule="evenodd"><path d="M25.918 26l.118.004c5.341.065 8.339 2.178 9.844 3.01.08.044.13.129.13.22v17.512a.25.25 0 01-.13.222.258.258 0 01-.258-.006c-1.234-.74-4.093-2.96-9.612-3.03a1.017 1.017 0 01-1.01-1.01V27.013c0-.271.111-.531.307-.722a.863.863 0 01.729-.287zm22.775.291c.196.191.306.45.307.722v15.91c0 .551-.45 1-1.01 1.009-5.519.07-8.378 2.29-9.612 3.03a.258.258 0 01-.259.006.25.25 0 01-.13-.222V29.234c0-.091.05-.176.131-.22 1.505-.832 4.503-2.945 9.844-3.01a.863.863 0 01.729.287z" fill="#2150A3" fill-rule="nonzero"/><path d="M42.035 19.75C41.01 11.796 33.85 2 22.49 2 10.196 2 2 12.342 2 21.671 2 31 8.205 39.888 18.671 41.04" stroke="#6F777B" stroke-width="4" stroke-linecap="round" stroke-linejoin="round"/><path stroke="#6F777B" stroke-width="4" stroke-linecap="round" stroke-linejoin="round" d="M15.114 18.553l6.882 3.824v-13"/></g></svg>