<svg xmlns="http://www.w3.org/2000/svg" class="cel-icon cel-icon-stroke-width" viewBox="0 0 24 24"><path d="M18.239.134l.764.441a1 1 0 01.366 1.366L6.921 23.501a1 1 0 01-1.366.366l-.763-.441a1 1 0 01-.366-1.366L5.614 20H4.351a.423.423 0 01-.425-.422c.005-3.883 2.782-7.12 6.471-7.862l.859-1.485c-2.228-.354-3.93-2.273-3.93-4.586 0-2.565 2.093-4.644 4.675-4.644 1.453 0 2.75.658 3.608 1.691l1.265-2.19A1 1 0 0118.24.136zm1.836 19.443c0 .207-.15.38-.349.415l-.076.007h-8.064l4.302-7.451c2.494 1.366 4.184 4.001 4.187 7.029z"/></svg>