<svg xmlns="http://www.w3.org/2000/svg" class="cel-icon cel-icon-stroke-width" viewBox="0 0 24 24"><path d="M21.681 1.454c.256-.262.636-.368.993-.275s.636.368.729.721c.093.353-.013.728-.278.981l-4.083 4.032a21.31 21.31 0 014.389 3.633c.757.83.76 2.091.007 2.925-2.615 2.842-6.936 5.853-11.281 5.853h-.306a11.601 11.601 0 01-4.4-.948L3.219 22.56c-.344.339-.883.391-1.287.125s-.562-.778-.378-1.223c.008-.008.018-.01.027-.017l19.906-19.68a.746.746 0 00.177-.294zm-9.683 3.239a10.723 10.723 0 013.308.503.254.254 0 01.102.425l-1.981 1.96c-.064.063-.158.087-.245.063a4.434 4.434 0 00-1.184-.175c-2.537 0-4.594 2.033-4.594 4.541.006.396.066.79.18 1.171a.246.246 0 01-.062.242l-3.108 3.078a.263.263 0 01-.333.029 21.58 21.58 0 01-3.51-3.058 2.151 2.151 0 01.007-2.927c2.641-2.875 7.03-5.911 11.42-5.852zm4.007 5.369a.262.262 0 00-.226.073l-5.676 5.61c-.059.058-.086.142-.073.223s.067.152.142.188a4.44 4.44 0 003.165.192 4.648 4.648 0 003.062-3.056 4.295 4.295 0 00-.205-3.089.257.257 0 00-.19-.141z"/></svg>