<svg xmlns="http://www.w3.org/2000/svg" class="cel-icon cel-icon-stroke-width" viewBox="0 0 24 24"><path fill-rule="evenodd" clip-rule="evenodd" d="M20.5 22h-1v-3.5a7.505 7.505 0 00-3.761-6.5A7.5 7.5 0 0019.5 5.5V2h1a1 1 0 100-2h-17a1 1 0 000 2h1v3.5A7.5 7.5 0 008.261 12 7.505 7.505 0 004.5 18.5V22h-1a1 1 0 000 2h17a1 1 0 000-2zm-14-3.5a5.507 5.507 0 016.051-5.473 5.668 5.668 0 014.949 5.72V21.5a.5.5 0 01-.5.5H7a.5.5 0 01-.5-.5v-3zM7 2h10a.5.5 0 01.5.5v2.756a5.667 5.667 0 01-4.949 5.718A5.505 5.505 0 016.5 5.5v-3A.5.5 0 017 2zm5 7.626a4.042 4.042 0 003.433-2.165A.5.5 0 0015 6.71H9a.5.5 0 00-.433.751A4.042 4.042 0 0012 9.626zm.406 5.726c.129.055.245.136.342.238l3.328 3.746A1 1 0 0115.329 21H8.671a1 1 0 01-.746-1.663l3.323-3.747a1.034 1.034 0 011.158-.238z" fill="currentColor"/></svg>