<svg xmlns="http://www.w3.org/2000/svg" class="cel-icon cel-icon-stroke-width" viewBox="0 0 48 48"><defs><linearGradient x1="0%" y1="0%" x2="0%" y2="100%" id="a"><stop stop-color="#179048" offset="0%"/><stop stop-color="#116735" offset="100%"/></linearGradient></defs><g fill="none" fill-rule="evenodd"><path fill="#FFF" fill-rule="nonzero" d="M0 0h48v48H0z"/><path fill="url(#a)" fill-rule="nonzero" d="M0 0h48v48H0z"/><path d="M37.715 20.51l-3.226-5.887.036-.093a14.155 14.155 0 013.19 5.98zM37.9 26.61c-1.238 6.56-7.011 11.537-13.925 11.537-6.932 0-12.717-5.004-13.933-11.59a2.752 2.752 0 002.245-.207c1.088 5.457 5.916 9.583 11.688 9.583 2.854 0 5.616-1.025 7.776-2.886a11.935 11.935 0 003.906-6.653 2.763 2.763 0 002.242.216zM30.29 11.324a2.779 2.779 0 00-1.123 1.926 11.847 11.847 0 00-5.192-1.192c-5.57 0-10.26 3.841-11.56 9.015-.038.149-.073.299-.104.45a2.762 2.762 0 00-2.242-.23c1.272-6.517 7.024-11.449 13.906-11.449 2.225 0 4.37.506 6.316 1.48zM37.244 21.212a2.763 2.763 0 00-2.146.766l-3.09-5.64a2.712 2.712 0 001.13-.278c.347-.169.653-.409.9-.7l3.206 5.852zM34.244 23.978c0 .4.085.78.24 1.125H13.445c.16-.342.253-.724.26-1.125v-.049a2.757 2.757 0 00-1.025-2.15l16.469-8.17a2.754 2.754 0 00.948 2.042l-14.52 7.202h18.905c-.154.344-.239.724-.239 1.125zM33.922 13.896a2.022 2.022 0 01-3.84.507 2.002 2.002 0 01-.18-.734l-.001-.03c-.002-.025-.002-.05-.002-.074a2.019 2.019 0 011.156-1.83l.028-.011a2.025 2.025 0 012.866 1.841c0 .024 0 .047-.002.07-.002.089-.011.176-.025.261zM39.017 24.309a2.023 2.023 0 01-3.84.507 2.006 2.006 0 01-.18-.734v-.001l-.001-.03c-.002-.024-.002-.049-.002-.073a2.018 2.018 0 011.184-1.841 2.025 2.025 0 012.866 1.841c0 .023 0 .047-.002.07a1.86 1.86 0 01-.025.26zM12.93 24.309a2.023 2.023 0 01-4.02-.227v-.001c-.002-.01-.002-.02-.002-.03-.002-.024-.002-.049-.002-.073a2.018 2.018 0 011.184-1.841 2.025 2.025 0 012.866 1.841c0 .023 0 .047-.002.07a1.846 1.846 0 01-.025.26z" fill="#FFF"/></g></svg>