<svg xmlns="http://www.w3.org/2000/svg" class="cel-icon cel-icon-stroke-width" viewBox="0 0 24 24"><path fill-rule="evenodd" clip-rule="evenodd" d="M3.25 14.5A2.252 2.252 0 011 12.25v-7A2.252 2.252 0 013.25 3h18a2.252 2.252 0 012.25 2.25v5a.75.75 0 01-1.5 0v-5a.75.75 0 00-.75-.75h-18a.75.75 0 00-.75.75v7c0 .414.336.75.75.75H10a.75.75 0 010 1.5H3.25zm3-4.625a1.127 1.127 0 01-.798-1.919 1.127 1.127 0 011.922.794c0 .62-.504 1.125-1.124 1.125zm4.875-1.125c0 .62.505 1.125 1.125 1.125a1.126 1.126 0 10-.798-1.919 1.115 1.115 0 00-.327.794zm7.125 1.125a1.125 1.125 0 110-2.25 1.125 1.125 0 010 2.25zM23 17.5a5.5 5.5 0 11-11 0 5.5 5.5 0 0111 0zm-6.222 3.175a1.483 1.483 0 01-1.059-.44l-1.5-1.5a.752.752 0 01.53-1.281c.2 0 .389.078.53.22l1.5 1.5 2.906-3.874a.753.753 0 011.049-.151.75.75 0 01.15 1.051l-2.905 3.874a1.493 1.493 0 01-1.201.601z" fill="currentColor"/></svg>