<svg xmlns="http://www.w3.org/2000/svg" class="cel-icon cel-icon-stroke-width" viewBox="0 0 24 24"><path d="M10.941 10H1.235v8.647h16.058v-2.294h1.236l-.001 2.294c0 .685-.55 1.235-1.235 1.235H1.235C.55 19.882 0 19.332 0 18.647V10c0-.685.55-1.235 1.235-1.235h9.706V10zm-7.39 6.176c.087 0 .154.068.154.154v.926a.152.152 0 01-.154.154h-.926a.152.152 0 01-.154-.154v-.926c0-.087.068-.154.154-.154h.926zm9.882 0c.087 0 .154.068.154.154v.926a.152.152 0 01-.154.154H5.095a.152.152 0 01-.154-.154v-.926c0-.087.068-.154.154-.154h8.338zm2.471 0c.087 0 .154.068.154.154v.926a.152.152 0 01-.154.154h-.926a.152.152 0 01-.154-.154v-.926c0-.087.068-.154.154-.154h.926zm-11.117-2.47c.087 0 .154.068.154.154v.926a.152.152 0 01-.154.154H2.625a.152.152 0 01-.154-.154v-.926c0-.087.068-.154.154-.154h2.162zm2.47 0c.087 0 .154.068.154.154v.926a.152.152 0 01-.154.154h-.926a.152.152 0 01-.154-.154v-.926c0-.087.068-.154.154-.154h.926zm2.471 0c.087 0 .154.068.154.154v.926a.152.152 0 01-.154.154h-.926a.152.152 0 01-.154-.154v-.926c0-.087.068-.154.154-.154h.926zm2.47 0c.087 0 .154.068.154.154v.926a.152.152 0 01-.154.154h-.926a.152.152 0 01-.154-.154v-.926c0-.087.068-.154.154-.154h.926zm-8.647-2.471c.087 0 .154.068.154.154v.926a.152.152 0 01-.154.154h-.926a.152.152 0 01-.154-.154v-.926c0-.087.068-.154.154-.154h.926zm2.471 0c.087 0 .154.068.154.154v.926a.152.152 0 01-.154.154h-.926a.152.152 0 01-.154-.154v-.926c0-.087.068-.154.154-.154h.926zm2.47 0c.087 0 .154.068.154.154v.926a.152.152 0 01-.154.154h-.926a.152.152 0 01-.154-.154v-.926c0-.087.068-.154.154-.154h.926zm2.471 0c.087 0 .154.068.154.154v.926a.152.152 0 01-.154.154h-.926a.152.152 0 01-.154-.154v-.926c0-.087.068-.154.154-.154h.926z"/><path d="M18 3.118c3.313 0 6 2.688 6 6s-2.688 6-6 6c-3.313 0-6-2.688-6-6s2.688-6 6-6zm-.354 4.343h-.686l-.101.007a.685.685 0 00.102 1.364h.686v2.743h-.686l-.101.007a.685.685 0 00.102 1.364h2.743l.101-.007a.685.685 0 00-.102-1.364h-.686V8.832l-.006-.132a1.371 1.371 0 00-1.365-1.239zm.343-2.743a1.03 1.03 0 100 2.059 1.03 1.03 0 000-2.059z"/></svg>