<svg xmlns="http://www.w3.org/2000/svg" class="cel-icon cel-icon-stroke-width" viewBox="0 0 24 24"><path d="M18.408 6.948l-7.792 16.691a.685.685 0 01-.605.361c-.056 0-.127-.014-.202-.028-.319-.103-.506-.403-.431-.708l2.841-11.655-5.856 1.458c-.056.014-.117.014-.173.014a.704.704 0 01-.45-.159.57.57 0 01-.188-.563L8.454.46c.07-.277.328-.459.633-.459h4.731c.361 0 .652.277.652.605a.598.598 0 01-.07.258l-2.466 6.681 5.71-1.416a.743.743 0 01.173-.028c.188 0 .361.084.492.216a.58.58 0 01.098.633z"/></svg>