<svg xmlns="http://www.w3.org/2000/svg" class="cel-icon cel-icon-stroke-width" viewBox="0 0 24 24"><path d="M11.114 14.556a1.25 1.25 0 001.768 0l9.686-9.686a.499.499 0 00-.278-.848h-.003A1.953 1.953 0 0022 4.001H1.998c-.101 0-.2.008-.297.022l.011-.001a.5.5 0 00-.281.849z"/><path d="M23.888 5.832a.182.182 0 00-.2.039l-6.2 6.2a.25.25 0 000 .354l5.043 5.043a.75.75 0 11-1.06 1.062l-5.043-5.043a.25.25 0 00-.354 0l-2.129 2.129c-.498.497-1.185.805-1.944.805s-1.446-.308-1.944-.805l-2.131-2.127a.25.25 0 00-.354 0l-5.043 5.043a.75.75 0 01-1.06-1.062l5.043-5.043a.25.25 0 000-.354l-6.2-6.2a.18.18 0 00-.201-.039h.001A.183.183 0 000 6v12a2 2 0 002 2h20a2 2 0 002-2V6v-.001a.182.182 0 00-.111-.167h-.001z"/></svg>