<svg xmlns="http://www.w3.org/2000/svg" class="cel-icon cel-icon-stroke-width" viewBox="0 0 24 24"><path d="M9.414 17.688c.11.042.227.063.345.063h4.52a.967.967 0 00.345-.063 6.74 6.74 0 004.249-6.335A6.948 6.948 0 0012.014 4.5a6.948 6.948 0 00-6.854 6.858 6.741 6.741 0 004.254 6.33zm4.733 3.313c.471 0 .853.448.853 1.001 0 .551-.38.998-.85 1h-1.084c-.103 0-.193.085-.213.204-.083.463-.431.795-.835.795s-.752-.332-.835-.795c-.02-.119-.11-.205-.213-.204H9.881c-.311.012-.603-.176-.762-.491s-.159-.705 0-1.019c.159-.314.45-.502.762-.491zm0-2.5c.226 0 .443.105.603.292s.25.442.25.707c0 .265-.09.52-.25.707s-.377.293-.603.293H9.881c-.311.012-.603-.176-.762-.49s-.159-.704 0-1.018c.159-.314.45-.502.762-.49zM12.014 6.454a5.026 5.026 0 014.9 4.9 4.8 4.8 0 01-2.776 4.419.25.25 0 01-.1.021h-.791a.25.25 0 01-.25-.25v-1.953a.25.25 0 01.073-.177l1.6-1.6a.98.98 0 00-1.385-1.385l-1.094 1.091a.252.252 0 01-.354 0l-1.089-1.089a.979.979 0 00-1.386 1.386l1.6 1.6a.25.25 0 01.073.177v1.952a.25.25 0 01-.25.25h-.792a.246.246 0 01-.1-.021 4.802 4.802 0 01-2.78-4.421 5.026 5.026 0 014.9-4.899zm-8.822 3.547c.357-.012.693.176.875.49s.182.704 0 1.018a.974.974 0 01-.875.49H.949C.42 11.982 0 11.539 0 11s.42-.982.949-.999zM23.053 10c.529.017.949.46.949 1s-.42.983-.949 1H20.81c-.26 0-.509-.105-.693-.293s-.287-.442-.287-.708c0-.265.103-.52.287-.707s.433-.293.693-.292zM3.003 2.906a.98.98 0 011.365-.019l1.87 1.869a.979.979 0 01-1.386 1.386l-1.869-1.87a.978.978 0 01.019-1.365zm16.449-.019a.979.979 0 111.384 1.384l-1.869 1.87a.98.98 0 01-1.385-1.385zM12 0c.552 0 1 .458 1 1.023v1.953c0 .565-.448 1.023-1 1.023-.265 0-.52-.108-.707-.3S11 3.247 11 2.975V1.022c0-.565.448-1.023 1-1.023z"/></svg>