<svg xmlns="http://www.w3.org/2000/svg" class="cel-icon cel-icon-stroke-width" viewBox="0 0 24 24"><path d="M22.875 19.5c.621 0 1.125.504 1.125 1.125v.75c0 .621-.504 1.125-1.125 1.125H1.125A1.125 1.125 0 010 21.375v-.75c0-.621.504-1.125 1.125-1.125h21.75zm0-6c.621 0 1.125.504 1.125 1.125v.75c0 .621-.504 1.125-1.125 1.125H1.125A1.125 1.125 0 010 15.375v-.75c0-.621.504-1.125 1.125-1.125h21.75zm0-6c.621 0 1.125.504 1.125 1.125v.75c0 .621-.504 1.125-1.125 1.125H1.125A1.125 1.125 0 010 9.375v-.75C0 8.004.504 7.5 1.125 7.5h21.75zm0-6c.621 0 1.125.504 1.125 1.125v.75c0 .621-.504 1.125-1.125 1.125H1.125A1.125 1.125 0 010 3.375v-.75C0 2.004.504 1.5 1.125 1.5h21.75z"/></svg>