<svg xmlns="http://www.w3.org/2000/svg" class="cel-icon cel-icon-stroke-width" viewBox="0 0 16 16"><g clip-path="url(#clip0_551_17401)"><path fill-rule="evenodd" clip-rule="evenodd" d="M14 1.25H2a.75.75 0 00-.75.75v2.194h13.5V2a.75.75 0 00-.75-.75zM1.25 9.528V7.36h2.944v2.167H1.25zm0 .5v2.166h2.944v-2.166H1.25zm3.444 0v2.166H7.75v-2.166H4.694zm3.556 0v2.166h3.056v-2.166H8.25zm3.056-.5H8.25V7.36h3.056v2.167zm.5.5v2.166h2.944v-2.166h-2.944zm2.944-.5h-2.944V7.36h2.944v2.167zm-7 0H4.694V7.36H7.75v2.167zM4.194 6.86H1.25V4.694h2.944v2.167zm.5 0H7.75V4.694H4.694v2.167zm3.556 0h3.056V4.694H8.25v2.167zm3.556 0h2.944V4.694h-2.944v2.167zM1.25 12.694V14c0 .414.336.75.75.75h12a.75.75 0 00.75-.75v-1.306H1.25zM2 0a2 2 0 00-2 2v12a2 2 0 002 2h12a2 2 0 002-2V2a2 2 0 00-2-2H2z" fill="#333"/></g><defs><clipPath id="clip0_551_17401"><path fill="#fff" d="M0 0h16v16H0z"/></clipPath></defs></svg>