<svg xmlns="http://www.w3.org/2000/svg" class="cel-icon cel-icon-stroke-width" viewBox="0 0 24 24"><path d="M12.863 3.913a1.16 1.16 0 011.161 1.156v.911c.804.271 1.545.7 2.18 1.262l.791-.457a1.155 1.155 0 011.578.422l.866 1.501a1.154 1.154 0 01-.423 1.578l-.791.458c.169.83.168 1.685-.002 2.514l.79.457a1.153 1.153 0 01.423 1.578l-.866 1.501a1.153 1.153 0 01-1.578.423l-.792-.458a6.307 6.307 0 01-2.176 1.255v.916a1.157 1.157 0 01-1.159 1.155h-1.732a1.161 1.161 0 01-1.158-1.155v-.911a6.385 6.385 0 01-2.179-1.262l-.791.457a1.151 1.151 0 01-1.577-.423L4.56 15.29a1.154 1.154 0 01.423-1.578l.792-.458a6.306 6.306 0 010-2.516l-.79-.457a1.153 1.153 0 01-.423-1.578l.866-1.501a1.156 1.156 0 011.578-.422l.793.457a6.304 6.304 0 012.175-1.252v-.916c0-.638.518-1.156 1.156-1.156h1.732zm-.864 5.051a3.037 3.037 0 100 6.075 3.037 3.037 0 000-6.075z"/></svg>