<svg xmlns="http://www.w3.org/2000/svg" class="cel-icon cel-icon-stroke-width" viewBox="0 0 24 24"><path d="M20 2H4C1.516 2.003.003 3.634 0 6v12c0 2.367 1.515 4 4 4h16c2.485 0 4-1.633 4-4V6c-.003-2.366-1.516-3.997-4-4zm-7.147 2.022A1.14 1.14 0 0114 5.164v.9a6.265 6.265 0 012.154 1.247l.781-.451a1.142 1.142 0 011.559.417l.856 1.483a1.144 1.144 0 01-.418 1.559l-.781.452c.167.82.166 1.665-.002 2.484l.78.451a1.138 1.138 0 01.418 1.559l-.856 1.483a1.141 1.141 0 01-1.559.418l-.782-.452a6.23 6.23 0 01-2.15 1.24v.905A1.14 1.14 0 0112.855 20h-1.711c-.303.001-.594-.119-.808-.333s-.335-.505-.336-.808v-.9a6.328 6.328 0 01-2.153-1.247l-.781.451a1.144 1.144 0 01-1.558-.418l-.857-1.483a1.144 1.144 0 01.418-1.559l.782-.452a6.23 6.23 0 010-2.486l-.78-.451a1.141 1.141 0 01-.418-1.559l.856-1.483a1.142 1.142 0 011.559-.417l.783.451A6.228 6.228 0 0110 6.069v-.905c0-.631.511-1.142 1.142-1.142h1.711zM12 9.012a3 3 0 100 6 3 3 0 000-6z"/></svg>