<svg xmlns="http://www.w3.org/2000/svg" class="cel-icon cel-icon-stroke-width" viewBox="0 0 24 24"><path d="M7.209 8.617c0-.498.416-.913.913-.913.242 0 .47.1.644.269l2.511 2.511 9.295-9.295c.087-.087.215-.141.329-.141s.242.059.329.141l1.625 1.625c.087.087.141.215.141.329s-.059.242-.141.329l-9.3 9.295 2.511 2.511a.908.908 0 01.269.644.922.922 0 01-.913.913h-7.3a.921.921 0 01-.913-.913V8.617zm13.874 10.227a4.11 4.11 0 01-4.109 4.109H5.113a4.11 4.11 0 01-4.109-4.109V6.978a4.11 4.11 0 014.109-4.109h6.036c.251 0 .457.205.457.457v1.397a.458.458 0 01-.457.457H5.743a2.428 2.428 0 00-2.429 2.429v10.606a2.428 2.428 0 002.429 2.429h10.606a2.428 2.428 0 002.429-2.429v-5.716c0-.251.205-.457.457-.457h1.397c.251 0 .457.205.457.457v6.346z"/></svg>