<svg xmlns="http://www.w3.org/2000/svg" class="cel-icon cel-icon-stroke-width" viewBox="0 0 24 24"><path d="M12 0C5.384 0 0 5.383 0 12s5.383 12 12 12c6.616 0 12-5.383 12-12S18.616 0 12 0zm5.648 21.248l-.639-1.111a9.272 9.272 0 01-.509.28l.645 1.121a10.772 10.772 0 01-4.916 1.298V21.44c0 .006-.256.021-.395.021-.252 0-.402-.019-.73-.037v1.378a10.747 10.747 0 01-4.306-1.295l.727-1.248a8.984 8.984 0 01-.496-.302l-.732 1.257a10.921 10.921 0 01-3.233-3.085l3.069-1.871a7.076 7.076 0 01-.606-.991l-3.069 1.872a10.76 10.76 0 01-1.276-4.46h1.442c-.017-.328-.036-.491-.036-.726 0-.156.016-.164.023-.492H1.173a10.768 10.768 0 011.354-4.726l1.165.689c.09-.171.191-.336.291-.502l-1.16-.686A10.94 10.94 0 016.35 2.752l.625 1.088c.163-.105.327-.207.496-.302l-.619-1.077a10.776 10.776 0 014.25-1.264v1.144c.328-.019.478-.037.73-.037.139 0 .395.015.395.021V1.163c1.798.038 3.49.515 4.972 1.329l-.543.932c.171.091.335.193.5.294l.544-.934a10.927 10.927 0 013.394 3.326l-.904.551c.106.162.206.328.301.497l.907-.553a10.77 10.77 0 011.426 4.854H21.72c.007.328.023.336.023.492 0 .235-.019.398-.035.726h1.107a10.75 10.75 0 01-1.346 4.585l-1.014-.6a9.67 9.67 0 01-.302.497l1.019.602a10.927 10.927 0 01-3.527 3.483zM10.943 7.942l-4.758 6.913h3.639v1.051h1.118v-1.051h.787v-1.018h-.787V7.941zm-1.118 5.895H8.116l1.709-2.482v2.482zm5.372-5.468c-.701 0-1.298.319-1.79.955-.551.704-.826 1.647-.826 2.828 0 1.242.275 2.215.826 2.919.499.637 1.097.955 1.796.955s1.293-.318 1.786-.955c.55-.704.826-1.661.826-2.871 0-1.213-.276-2.172-.826-2.876-.493-.637-1.09-.955-1.791-.955zm1.091 5.838c-.288.535-.65.802-1.088.802-.44 0-.803-.267-1.088-.802-.285-.544-.426-1.227-.426-2.05 0-.79.143-1.45.432-1.978.287-.531.648-.797 1.083-.797.438 0 .801.266 1.088.797.287.535.432 1.207.432 2.016s-.144 1.48-.432 2.012z"/></svg>