<svg xmlns="http://www.w3.org/2000/svg" class="cel-icon cel-icon-stroke-width" viewBox="0 0 24 24"><path d="M12 0C5.384 0 0 5.383 0 12s5.383 12 12 12c6.616 0 12-5.383 12-12S18.616 0 12 0zm5.648 21.248l-.639-1.111a9.272 9.272 0 01-.509.28l.645 1.122a10.768 10.768 0 01-4.795 1.295v-1.393c0 .006-.209.021-.349.021-.252 0-.355-.019-.683-.037v1.393a10.757 10.757 0 01-4.52-1.31l.727-1.248a8.984 8.984 0 01-.496-.302l-.732 1.257a10.927 10.927 0 01-3.394-3.326l1.252-.764a9.23 9.23 0 01-.302-.496l-1.254.765a10.758 10.758 0 01-1.42-4.761h1.445a7.766 7.766 0 01-.035-.656c0-.156.016-.235.023-.422H1.17c.067-1.641.5-3.189 1.219-4.564l3.095 1.83c.171-.35.367-.685.589-1L2.981 5.992a10.921 10.921 0 013.369-3.24l.625 1.088c.163-.105.327-.207.496-.302l-.619-1.077a10.751 10.751 0 014.464-1.279v1.16c.328-.019.431-.037.683-.037.139 0 .349.015.349.021V1.167a10.76 10.76 0 014.851 1.326l-.543.932c.171.091.334.193.5.294l.544-.934a10.927 10.927 0 013.394 3.326l-.904.551c.106.162.206.328.301.496l.907-.553a10.76 10.76 0 011.429 4.947H21.72c.007.188.023.266.023.422 0 .236-.019.469-.035.656h1.11a10.76 10.76 0 01-1.349 4.632l-1.014-.6a9.01 9.01 0 01-.302.497l1.019.602a10.927 10.927 0 01-3.527 3.483zM8.86 10.537a2.341 2.341 0 00-.293.019l.365-1.224h2.285V8.281H8.154l-1.167 3.898h.37c.365-.438.799-.658 1.301-.658.451 0 .827.155 1.129.466.301.301.451.688.451 1.162 0 .461-.152.853-.456 1.176-.304.314-.68.471-1.128.471-.343 0-.632-.08-.869-.24-.237-.163-.472-.443-.705-.84l-.845.715c.566.922 1.341 1.383 2.324 1.383.797 0 1.458-.253 1.983-.759s.787-1.149.787-1.93c0-.755-.232-1.375-.696-1.858-.461-.486-1.052-.73-1.772-.73zm6.289-2.381c-.701 0-1.298.319-1.791.955-.551.704-.826 1.647-.826 2.828 0 1.242.275 2.215.826 2.919.499.637 1.098.955 1.796.955s1.293-.318 1.786-.955c.55-.704.826-1.661.826-2.871 0-1.213-.276-2.172-.826-2.876-.493-.637-1.09-.955-1.791-.955zm1.091 5.838c-.288.535-.65.802-1.089.802-.44 0-.803-.267-1.088-.802-.285-.544-.427-1.227-.427-2.05 0-.79.143-1.45.432-1.978.288-.531.649-.797 1.083-.797.438 0 .801.266 1.089.797.288.535.432 1.207.432 2.016s-.144 1.48-.432 2.012z"/></svg>