<svg xmlns="http://www.w3.org/2000/svg" class="cel-icon cel-icon-stroke-width" viewBox="0 0 24 24"><path d="M12 0C5.384 0 0 5.383 0 12s5.384 12 12 12 12-5.383 12-12S18.617 0 12 0zm5.649 21.248l-.638-1.111a9.655 9.655 0 01-.509.28l.645 1.121a10.767 10.767 0 01-4.809 1.295V21.44c-.328.006-.256.021-.395.021-.252 0-.402-.019-.73-.037v1.387a10.78 10.78 0 01-4.156-1.166l1.81-3.108a7.253 7.253 0 01-1.005-.581l-1.807 3.103a10.918 10.918 0 01-3.149-3.169l1.251-.764a9.214 9.214 0 01-.301-.496l-1.254.765a10.757 10.757 0 01-1.417-4.714h1.441c-.016-.328-.036-.467-.036-.703 0-.157.016-.141.023-.469H1.174A10.77 10.77 0 012.53 6.737l1.165.689c.09-.171.191-.336.291-.502l-1.16-.686a10.94 10.94 0 013.527-3.484l.625 1.088a9.23 9.23 0 01.496-.302l-.619-1.077a10.758 10.758 0 014.357-1.272v1.153c.328-.019.478-.037.73-.037.139 0 .067.015.395.021V1.169c1.758.054 3.412.528 4.865 1.326l-.543.933c.172.091.335.193.5.294l.544-.934a10.927 10.927 0 013.394 3.326l-.904.551c.105.162.205.328.301.496l.907-.553a10.768 10.768 0 011.427 4.9h-1.105c.007.328.023.313.023.469 0 .236-.019.375-.036.703h1.108a10.76 10.76 0 01-1.346 4.586l-1.014-.6c-.098.168-.195.335-.302.497l1.019.602a10.927 10.927 0 01-3.527 3.483zm-7.312-9.461c.538-.378.807-.906.807-1.584 0-.602-.205-1.093-.615-1.474-.41-.384-.939-.576-1.589-.576-.643 0-1.144.162-1.503.487s-.595.836-.711 1.534H7.84c.08-.365.202-.624.365-.778.17-.15.41-.226.72-.226.333 0 .603.101.811.302.211.199.317.456.317.773 0 .41-.146.708-.437.893-.163.106-.482.158-.955.158v.955c.435 0 .757.061.965.182.355.211.533.567.533 1.066 0 .378-.118.69-.355.936-.237.24-.536.36-.898.36-.358 0-.649-.095-.871-.286s-.363-.465-.42-.823h-1.08c.048.487.162.868.341 1.143.432.656 1.095.984 1.988.984.701 0 1.276-.211 1.726-.634s.674-.967.674-1.632c0-.813-.309-1.4-.927-1.762zm4.661-1.248a2.31 2.31 0 00-.293.019l.365-1.224h2.285V8.283h-3.063l-1.167 3.898h.37c.365-.438.799-.658 1.301-.658.451 0 .827.155 1.128.466.301.301.451.688.451 1.162 0 .461-.152.853-.456 1.176-.304.314-.68.47-1.128.47-.343 0-.632-.08-.869-.24-.237-.163-.472-.443-.706-.84l-.845.715c.566.922 1.341 1.383 2.324 1.383.797 0 1.458-.253 1.983-.758s.787-1.149.787-1.93c0-.755-.232-1.375-.696-1.858-.461-.486-1.052-.73-1.772-.73z"/></svg>