<svg xmlns="http://www.w3.org/2000/svg" class="cel-icon cel-icon-stroke-width" viewBox="0 0 24 24"><path d="M12 0C5.384 0 0 5.384 0 12s5.383 12 12 12c6.616 0 12-5.383 12-12S18.616 0 12 0zm5.648 21.248l-.638-1.111a9.993 9.993 0 01-.509.28l.644 1.121a10.768 10.768 0 01-4.915 1.298v-3.61c0 .015-.366.029-.562.029s-.234-.014-.563-.029v3.575a10.756 10.756 0 01-4.307-1.295l.727-1.248a9.624 9.624 0 01-.496-.301l-.732 1.256a10.916 10.916 0 01-3.394-3.326l1.252-.763a9.956 9.956 0 01-.302-.497l-1.254.765a10.76 10.76 0 01-1.411-4.62h1.436c-.016-.234-.035-.444-.035-.679 0-.157.016-.446.023-.446H1.167a10.764 10.764 0 011.361-4.913l1.166.689c.09-.171.19-.336.291-.502l-1.161-.686a10.93 10.93 0 013.527-3.484l.625 1.088c.163-.105.327-.206.496-.302L6.853 2.46a10.759 10.759 0 014.251-1.264v1.145c.328-.019.477-.037.73-.037.14 0 .395.015.395.021V1.163A10.77 10.77 0 0117.2 2.492l-.542.932c.171.091.334.193.499.294l.544-.934a10.927 10.927 0 013.394 3.326l-.904.551c.106.162.206.328.301.497l.907-.553a10.776 10.776 0 011.433 5.041h-1.111c.007 0 .023.289.023.446 0 .236-.019.445-.035.679h1.101a10.766 10.766 0 01-1.34 4.492l-1.014-.6a9.01 9.01 0 01-.302.497l1.019.602a10.927 10.927 0 01-3.527 3.483zm-7.496-9.433c.538-.377.807-.905.807-1.584 0-.602-.205-1.093-.615-1.474-.41-.384-.939-.576-1.589-.576-.643 0-1.144.162-1.502.487s-.595.836-.711 1.534h1.114c.08-.365.202-.624.365-.778.169-.15.409-.225.72-.225.333 0 .603.101.811.302.211.199.317.456.317.773 0 .41-.146.707-.437.893-.163.106-.482.158-.956.158v.956c.435 0 .757.061.965.183.355.211.533.567.533 1.066 0 .378-.118.69-.355.936-.237.24-.536.36-.898.36-.359 0-.649-.095-.872-.286s-.363-.465-.42-.823h-1.08c.048.487.162.868.341 1.143.432.656 1.095.985 1.988.985.701 0 1.276-.211 1.726-.634s.674-.967.674-1.632c0-.813-.309-1.4-.926-1.762zm4.882-3.629c-.701 0-1.298.319-1.79.956-.551.704-.826 1.647-.826 2.828 0 1.242.275 2.215.826 2.919.499.637 1.097.956 1.796.956s1.293-.319 1.786-.956c.55-.704.826-1.661.826-2.871 0-1.213-.276-2.171-.826-2.876-.493-.637-1.09-.956-1.791-.956zm1.091 5.838c-.288.535-.65.802-1.088.802-.441 0-.803-.267-1.088-.802-.285-.544-.426-1.227-.426-2.05 0-.791.143-1.45.432-1.978.287-.532.648-.797 1.083-.797.438 0 .801.265 1.088.797.287.534.432 1.206.432 2.016s-.144 1.48-.432 2.011z"/></svg>