<svg xmlns="http://www.w3.org/2000/svg" class="cel-icon cel-icon-stroke-width" viewBox="0 0 24 24"><path d="M12 0C5.384 0 0 5.383 0 12s5.383 12 12 12 12-5.383 12-12S18.617 0 12 0zm5.648 21.248l-.639-1.111a9.272 9.272 0 01-.509.28l.645 1.121a10.768 10.768 0 01-4.915 1.298V21.44c0 .006-.256.021-.395.021-.252 0-.402-.019-.73-.037v1.378a10.756 10.756 0 01-4.307-1.295l.727-1.248a8.984 8.984 0 01-.496-.302l-.731 1.257a10.916 10.916 0 01-3.394-3.326l1.252-.764a9.214 9.214 0 01-.301-.496l-1.254.765a10.757 10.757 0 01-1.417-4.714h1.442c-.016-.328-.035-.467-.035-.703 0-.157.016-.188.023-.469h-1.44A10.774 10.774 0 012.53 6.734l1.165.689c.09-.171.191-.336.291-.502l-1.161-.686a10.94 10.94 0 013.527-3.484l.625 1.088c.163-.105.327-.207.496-.302L6.854 2.46a10.759 10.759 0 014.251-1.264v3.576c.328-.016.366-.03.563-.03s.563.014.563.03v-3.61a10.77 10.77 0 014.971 1.329l-.543.933c.171.091.335.193.5.294l.544-.934a10.927 10.927 0 013.394 3.326l-.904.551c.105.162.205.328.301.496l.907-.553a10.755 10.755 0 011.427 4.9h-1.106c.007.281.023.313.023.469 0 .235-.019.375-.035.703h1.107a10.76 10.76 0 01-1.346 4.586l-1.014-.6a9.652 9.652 0 01-.301.497l1.019.602a10.927 10.927 0 01-3.527 3.483zM9.182 11.075c-.038 0-.092.003-.159.01s-.148.016-.245.029l1.771-2.41-.821-.615-2.592 3.519c-.484.656-.725 1.277-.725 1.863 0 .653.248 1.218.744 1.695.506.477 1.095.715 1.767.715a2.37 2.37 0 001.742-.725c.487-.487.73-1.069.73-1.748 0-.64-.217-1.188-.653-1.642-.438-.461-.959-.691-1.56-.691zm.711 3.379c-.272.272-.6.408-.985.408-.394 0-.726-.136-.999-.408s-.408-.602-.408-.989.136-.717.408-.989.603-.408.994-.408c.387 0 .718.138.993.413.272.272.408.605.408.999 0 .374-.138.699-.413.975zm5.079-6.231c-.701 0-1.298.319-1.791.955-.55.704-.826 1.647-.826 2.828 0 1.242.276 2.215.826 2.919.499.637 1.098.955 1.796.955s1.294-.318 1.786-.955c.551-.704.826-1.661.826-2.871 0-1.213-.275-2.172-.826-2.876-.493-.637-1.09-.955-1.791-.955zm1.09 5.838c-.288.534-.65.802-1.088.802-.441 0-.804-.267-1.088-.802-.285-.544-.427-1.227-.427-2.05 0-.79.144-1.45.431-1.978.287-.531.648-.797 1.083-.797.438 0 .8.266 1.088.797.288.535.432 1.207.432 2.016s-.143 1.48-.432 2.012z"/></svg>