<svg xmlns="http://www.w3.org/2000/svg" class="cel-icon cel-icon-stroke-width" viewBox="0 0 24 24"><path d="M12 0C5.384 0 0 5.383 0 12s5.383 12 12 12c6.616 0 12-5.383 12-12S18.616 0 12 0zm5.648 21.248l-.639-1.111a9.655 9.655 0 01-.509.28l.644 1.122a10.763 10.763 0 01-4.8 1.295v-1.393c-.234.006-.256.021-.395.021-.252 0-.402-.019-.73-.037v1.387a10.758 10.758 0 01-4.422-1.304l.727-1.248a8.984 8.984 0 01-.496-.302l-.731 1.257a10.916 10.916 0 01-3.394-3.326l1.252-.764a9.925 9.925 0 01-.302-.496l-1.254.765a10.758 10.758 0 01-1.42-4.761h3.594c-.015 0-.029-.366-.029-.563s.014-.328.029-.563H1.172a10.77 10.77 0 011.356-4.772l1.165.689c.09-.171.191-.336.291-.502l-1.16-.686a10.94 10.94 0 013.527-3.484l.625 1.088c.163-.105.327-.207.496-.302l-.619-1.077a10.753 10.753 0 014.366-1.273v1.153c.328-.019.478-.037.73-.037.14 0 .161.015.395.021V1.166c1.755.055 3.406.529 4.856 1.326l-.543.932c.171.091.335.193.5.294l.544-.934a10.927 10.927 0 013.394 3.326l-.904.551c.106.162.206.328.301.496l.907-.553a10.755 10.755 0 011.427 4.9H21.72c.007.234.023.289.023.446 0 .236-.019.351-.035.679h1.11a10.772 10.772 0 01-1.348 4.632l-1.014-.6a9.01 9.01 0 01-.302.497l1.019.602a10.927 10.927 0 01-3.527 3.483zm-6.52-13.306L6.37 14.855h3.639v1.051h1.119v-1.051h.787v-1.018h-.787V7.941zm-1.118 5.895H8.301l1.709-2.482v2.482zm5.151-3.087a2.31 2.31 0 00-.293.019l.365-1.224h2.285V8.494h-3.063l-1.167 3.898h.37c.365-.438.799-.658 1.301-.658.451 0 .827.155 1.128.466.301.301.451.688.451 1.162 0 .461-.152.853-.456 1.176-.304.314-.68.47-1.128.47-.343 0-.632-.08-.869-.24-.237-.163-.472-.443-.706-.84l-.845.715c.567.922 1.341 1.383 2.324 1.383.797 0 1.458-.253 1.983-.759s.787-1.149.787-1.93c0-.755-.232-1.375-.696-1.858-.461-.486-1.051-.73-1.771-.73z"/></svg>