<svg xmlns="http://www.w3.org/2000/svg" class="cel-icon cel-icon-stroke-width" viewBox="0 0 24 24"><path d="M12 0C5.384 0 0 5.383 0 12s5.383 12 12 12 12-5.383 12-12S18.617 0 12 0zm5.648 21.248l-.638-1.111a9.655 9.655 0 01-.509.28l.645 1.121c-1.407.762-3 1.221-4.692 1.291V21.44c-.234.006-.256.021-.395.021-.252 0-.402-.019-.73-.037v1.394c-1.633-.1-3.17-.564-4.53-1.311l.727-1.248a8.984 8.984 0 01-.496-.302l-.731 1.256a10.916 10.916 0 01-3.394-3.326l1.252-.764a9.925 9.925 0 01-.302-.496l-1.254.765a10.757 10.757 0 01-1.417-4.714h1.442c-.016-.328-.035-.467-.035-.703 0-.157.016-.188.023-.469h-1.44A10.77 10.77 0 012.53 6.734l1.165.689c.09-.171.191-.336.291-.502l-1.16-.686a10.925 10.925 0 013.282-3.329l1.788 3.112a7.142 7.142 0 011.009-.574L7.113 2.326a10.762 10.762 0 014.217-1.145v1.16c.328-.019.477-.037.73-.037.14 0 .161.015.395.021V1.17c1.715.071 3.328.542 4.748 1.322l-.543.932c.171.091.335.193.5.294l.544-.934a10.927 10.927 0 013.394 3.326l-.904.551c.106.162.206.328.301.496l.907-.553a10.768 10.768 0 011.427 4.9h-1.105c.007.281.023.313.023.469 0 .235-.019.375-.035.703h1.107a10.764 10.764 0 01-1.345 4.585l-1.014-.6a9.01 9.01 0 01-.302.497l1.019.602a10.927 10.927 0 01-3.527 3.483zM9.045 10.474a2.31 2.31 0 00-.293.02l.365-1.225h2.285V8.218H8.339l-1.167 3.898h.37c.365-.439.799-.658 1.301-.658.451 0 .827.155 1.128.466.301.301.451.688.451 1.162 0 .461-.152.853-.456 1.176-.304.314-.68.47-1.128.47-.343 0-.632-.08-.869-.24-.237-.163-.472-.443-.706-.84l-.845.715c.567.922 1.341 1.383 2.324 1.383.797 0 1.458-.253 1.983-.759s.787-1.149.787-1.93c0-.755-.232-1.374-.696-1.858-.461-.487-1.051-.73-1.772-.73zm6.068 0a2.31 2.31 0 00-.293.02l.365-1.225h2.285V8.218h-3.063l-1.167 3.898h.37c.365-.439.799-.658 1.301-.658.451 0 .827.155 1.128.466.301.301.451.688.451 1.162 0 .461-.152.853-.456 1.176-.304.314-.68.47-1.128.47-.343 0-.632-.08-.869-.24-.237-.163-.472-.443-.706-.84l-.845.715c.567.922 1.341 1.383 2.324 1.383.797 0 1.458-.253 1.983-.759s.787-1.149.787-1.93c0-.755-.232-1.374-.696-1.858-.461-.487-1.052-.73-1.772-.73z"/></svg>