<svg xmlns="http://www.w3.org/2000/svg" class="cel-icon cel-icon-stroke-width" viewBox="0 0 24 24"><path d="M12 .012C5.39.012.012 5.391.012 12.001S5.39 23.989 12 23.989c6.61 0 11.989-5.378 11.989-11.988S18.61.012 12 .012zm5.643 21.227l-.638-1.11a9.61 9.61 0 01-.508.279l.644 1.12a10.767 10.767 0 01-4.876 1.297v-1.394c0 .006-.28.021-.419.021-.252 0-.472-.019-.753-.037v1.376a10.755 10.755 0 01-4.289-1.292l.726-1.247a9.596 9.596 0 01-.495-.301l-.731 1.255a10.918 10.918 0 01-3.391-3.323l1.251-.763a9.624 9.624 0 01-.301-.496l-1.253.764a10.752 10.752 0 01-1.41-4.616h1.435c-.017-.281-.035-.444-.035-.679 0-.156.016-.446.024-.446H1.18A10.751 10.751 0 012.54 6.74l1.164.689c.09-.171.191-.336.291-.502l-1.159-.686a10.909 10.909 0 013.524-3.48l.625 1.087c.162-.105.327-.206.495-.301l-.618-1.076a10.748 10.748 0 014.233-1.262v1.142c.281-.019.501-.037.753-.037.139 0 .419.015.419.021V1.174c1.783.043 3.461.519 4.932 1.327l-.542.932c.171.091.335.192.499.294l.543-.933a10.914 10.914 0 013.23 3.082l-3.065 1.87c.227.312.429.642.605.989l3.065-1.87a10.751 10.751 0 011.29 4.781h-1.11c.007 0 .024.289.024.446 0 .235-.019.398-.036.679h1.1a10.757 10.757 0 01-1.338 4.488l-1.013-.599a9.214 9.214 0 01-.301.496l1.018.602a10.915 10.915 0 01-3.523 3.48zM7.132 9.362h1.28v6.355H9.53V8.311H7.746zm7.122-1.175c-.7 0-1.297.318-1.789.954-.55.704-.825 1.645-.825 2.825 0 1.241.275 2.213.825 2.916.499.636 1.096.954 1.794.954s1.292-.318 1.784-.954c.55-.704.825-1.66.825-2.868 0-1.212-.275-2.17-.825-2.873-.493-.636-1.089-.954-1.789-.954zm1.09 5.833c-.287.534-.649.801-1.087.801-.44 0-.802-.267-1.087-.801-.284-.544-.426-1.226-.426-2.048 0-.79.143-1.448.431-1.976.287-.531.648-.796 1.082-.796.438 0 .8.265 1.087.796.287.534.431 1.206.431 2.014s-.144 1.479-.431 2.01z"/></svg>