<svg xmlns="http://www.w3.org/2000/svg" class="cel-icon cel-icon-stroke-width" viewBox="0 0 48 48"><g fill="none" fill-rule="evenodd"><rect width="48" height="48" rx="4" fill="#161616"/><path d="M34.956 23.443h-8.348c-.576 0-1.043.467-1.043 1.043v11.478c0 .576.467 1.043 1.043 1.043l8.348-.015c.576 0 1.043-.467 1.043-1.043V24.486c0-.576-.467-1.043-1.043-1.043zm-22.65-10.144a1.04 1.04 0 00-.306.738v11.494c0 .576.467 1.043 1.043 1.043h8.348c.576 0 1.043-.467 1.043-1.043V14.053c0-.576-.467-1.043-1.043-1.043l-8.348-.016a1.04 1.04 0 00-.738.306l.001-.001zm22.65-.306l-8.348.015c-.576 0-1.043.467-1.043 1.043v5.217c0 .576.467 1.043 1.043 1.043h8.348c.576 0 1.043-.467 1.043-1.043v-5.232c0-.576-.467-1.043-1.043-1.043zM22.129 36.701a1.04 1.04 0 00.306-.738v-5.217c0-.576-.467-1.043-1.043-1.043h-8.348c-.576 0-1.043.467-1.043 1.043v5.202c0 .576.467 1.043 1.043 1.043l8.348.015h.001c.288 0 .548-.116.737-.305h-.001z" fill="#FFF"/></g></svg>