<svg xmlns="http://www.w3.org/2000/svg" class="cel-icon cel-icon-stroke-width" viewBox="0 0 24 24"><path d="M12 0C5.383 0 0 5.383 0 12s5.383 12 12 12c6.616 0 12-5.383 12-12S18.616 0 12 0zm5.648 21.248l-.639-1.111a9.655 9.655 0 01-.509.28l.645 1.121a10.77 10.77 0 01-4.826 1.296V21.44c0 .006-.293.021-.432.021-.252 0-.417-.019-.767-.037v1.38a10.77 10.77 0 01-4.322-1.296l.727-1.248a8.984 8.984 0 01-.496-.302l-.732 1.257a10.927 10.927 0 01-3.394-3.326l1.252-.764a9.23 9.23 0 01-.302-.496l-1.254.765a10.752 10.752 0 01-1.417-4.715h1.442c-.016-.35-.035-.456-.035-.691 0-.156.016-.208.023-.458H1.171a10.76 10.76 0 011.218-4.538l3.095 1.83c.171-.35.367-.685.589-1L2.981 5.993a10.921 10.921 0 013.369-3.24l.625 1.088c.163-.105.327-.207.496-.302l-.619-1.077a10.744 10.744 0 014.266-1.265v1.146c.35-.019.515-.037.767-.037.14 0 .432.015.432.021v-1.16c1.765.051 3.424.526 4.882 1.327l-.543.933c.171.091.335.193.5.294l.544-.934a10.927 10.927 0 013.394 3.326l-.904.551c.105.162.205.328.301.496l.907-.553a10.773 10.773 0 011.428 4.921H21.72c.007.25.023.301.023.458 0 .235-.019.342-.035.691h1.108a10.764 10.764 0 01-1.346 4.588l-1.014-.6a9.652 9.652 0 01-.301.497l1.019.602a10.927 10.927 0 01-3.527 3.483z"/></svg>