<svg xmlns="http://www.w3.org/2000/svg" class="cel-icon cel-icon-stroke-width" viewBox="0 0 24 24"><path d="M12 0C5.384 0 0 5.384 0 12s5.384 12 12 12c6.617 0 12-5.383 12-12S18.617 0 12 0zm5.648 21.248l-.638-1.111a9.272 9.272 0 01-.509.28l.644 1.121a10.77 10.77 0 01-4.722 1.292v-1.39c-.299.006-.292.021-.432.021-.252 0-.417-.019-.766-.037v1.388a10.77 10.77 0 01-4.428-1.304l.727-1.248a10.072 10.072 0 01-.496-.301l-.731 1.256a10.916 10.916 0 01-3.394-3.326l1.252-.763a9.624 9.624 0 01-.301-.496l-1.254.765a10.764 10.764 0 01-1.411-4.608h1.435c-.016-.249-.035-.455-.035-.691 0-.156.016-.457.023-.457H1.167a10.772 10.772 0 011.361-4.902l1.166.689c.09-.171.191-.336.291-.502l-1.161-.686a10.94 10.94 0 013.527-3.484l.625 1.088c.163-.105.327-.206.496-.302l-.619-1.077a10.75 10.75 0 014.372-1.273v1.154c.349-.019.514-.037.766-.037.14 0 .132.015.432.021V1.172c1.623.063 3.156.483 4.521 1.186l-1.81 3.108c.351.169.688.36 1.005.582l1.808-3.103a10.918 10.918 0 013.149 3.169l-.904.551c.105.162.205.328.301.496l.907-.553a10.77 10.77 0 011.433 5.03h-1.111c.007 0 .023.3.023.457 0 .236-.019.441-.035.691h1.101a10.765 10.765 0 01-1.339 4.481l-1.014-.6a9.01 9.01 0 01-.302.497l1.019.602a10.94 10.94 0 01-3.527 3.484z"/></svg>