<svg xmlns="http://www.w3.org/2000/svg" class="cel-icon cel-icon-stroke-width" viewBox="0 0 24 24"><path d="M12 0C5.383 0 0 5.383 0 12s5.383 12 12 12c6.616 0 12-5.383 12-12S18.616 0 12 0zm5.648 21.248l-.638-1.111a9.272 9.272 0 01-.509.28l.645 1.121a10.762 10.762 0 01-4.831 1.296V21.44c0 .006-.268.021-.407.021-.252 0-.492-.019-.742-.037v1.384a10.757 10.757 0 01-4.367-1.3l.727-1.248a8.984 8.984 0 01-.496-.302l-.732 1.257a10.921 10.921 0 01-3.233-3.085l3.068-1.871a7.172 7.172 0 01-.606-.991L2.458 17.14a10.748 10.748 0 01-1.276-4.464h1.442c-.017-.3-.035-.481-.035-.716 0-.156.016-.183.023-.482H1.173a10.755 10.755 0 011.355-4.741l1.165.689c.09-.171.191-.336.291-.502l-1.16-.686a10.94 10.94 0 013.527-3.484l.625 1.088c.163-.105.327-.207.496-.302l-.619-1.077a10.76 10.76 0 014.311-1.269v1.15c.25-.019.489-.037.742-.037.139 0 .407.015.407.021v-1.16A10.77 10.77 0 0117.2 2.495l-.543.933c.171.091.335.193.5.294l.544-.934a10.927 10.927 0 013.394 3.326l-.904.551c.106.162.206.328.301.496l.907-.553a10.762 10.762 0 011.426 4.869h-1.104c.007.3.023.326.023.482 0 .235-.019.417-.035.716h1.107a10.758 10.758 0 01-1.346 4.59l-1.014-.6a9.67 9.67 0 01-.302.497l1.019.602a10.927 10.927 0 01-3.527 3.483z"/></svg>