<svg xmlns="http://www.w3.org/2000/svg" class="cel-icon cel-icon-stroke-width" viewBox="0 0 24 24"><path d="M12 0C5.384 0 0 5.384 0 12s5.384 12 12 12c6.617 0 12-5.383 12-12S18.617 0 12 0zm5.894 21.093l-1.788-3.112a7.255 7.255 0 01-1.009.574l1.792 3.118a10.772 10.772 0 01-4.395 1.155v-1.387c-.3.006-.293.021-.432.021-.252 0-.417-.019-.767-.037v1.392a10.779 10.779 0 01-4.496-1.308l.727-1.248a9.624 9.624 0 01-.496-.301l-.731 1.256a10.916 10.916 0 01-3.394-3.326l1.252-.763a10.403 10.403 0 01-.302-.496l-1.254.765a10.77 10.77 0 01-1.41-4.595h1.434c-.017-.3-.035-.456-.035-.691 0-.156.016-.457.023-.457H1.168c.057-1.779.544-3.45 1.361-4.914l1.165.689c.09-.171.191-.336.291-.502L2.824 6.24a10.92 10.92 0 013.527-3.484l.625 1.088c.163-.105.327-.206.496-.302l-.619-1.077a10.776 10.776 0 014.44-1.278v1.158c.35-.019.514-.037.767-.037.14 0 .132.015.432.021V1.175c1.7.077 3.299.546 4.708 1.32l-.543.933c.172.091.336.193.501.294l.544-.934a10.927 10.927 0 013.394 3.326l-.904.551c.105.162.205.328.3.497l.907-.553a10.78 10.78 0 011.433 5.042h-1.111c.007 0 .023.301.023.457 0 .236-.019.392-.035.691h1.1a10.76 10.76 0 01-1.338 4.467l-1.014-.6a9.23 9.23 0 01-.302.496l1.019.602a10.922 10.922 0 01-3.282 3.328z"/></svg>