<svg xmlns="http://www.w3.org/2000/svg" class="cel-icon cel-icon-stroke-width" viewBox="0 0 24 24"><path d="M12 0C5.383 0 0 5.384 0 12s5.383 12 12 12c6.616 0 12-5.383 12-12S18.616 0 12 0zm5.648 21.248l-.638-1.111a10.44 10.44 0 01-.509.28l.644 1.121a10.778 10.778 0 01-4.789 1.295v-3.606c0 .015-.378.029-.574.029s-.324-.014-.574-.029v3.584a10.757 10.757 0 01-4.411-1.303l.727-1.248a9.624 9.624 0 01-.496-.301l-.732 1.256a10.916 10.916 0 01-3.394-3.326l1.252-.763a10.403 10.403 0 01-.302-.496l-1.254.765a10.768 10.768 0 01-1.411-4.608h1.435c-.016-.299-.035-.455-.035-.691 0-.156.016-.457.023-.457H1.165a10.772 10.772 0 011.361-4.902l1.166.689c.09-.171.19-.336.291-.502l-1.161-.686a10.93 10.93 0 013.527-3.484l.625 1.088c.163-.105.327-.206.496-.302l-.619-1.077a10.753 10.753 0 014.355-1.272v1.153c.249-.019.489-.037.741-.037.139 0 .407.015.407.021V1.169c1.751.057 3.398.531 4.845 1.325l-.543.932c.171.091.334.193.499.294l.544-.934a10.927 10.927 0 013.394 3.326l-.904.551c.106.162.205.328.301.497l.907-.553a10.758 10.758 0 011.432 5.03h-1.111c.008 0 .024.3.024.457 0 .236-.019.391-.035.691h1.1a10.756 10.756 0 01-1.339 4.48l-1.014-.6a9.23 9.23 0 01-.302.496l1.019.602a10.927 10.927 0 01-3.527 3.483z"/></svg>