<svg xmlns="http://www.w3.org/2000/svg" class="cel-icon cel-icon-stroke-width" viewBox="0 0 24 24"><path d="M12 0C5.384 0 0 5.384 0 12s5.384 12 12 12 12-5.383 12-12S18.616 0 12 0zm5.648 21.248l-.638-1.111a9.272 9.272 0 01-.509.28l.644 1.121a10.771 10.771 0 01-4.816 1.296V21.44c0 .006-.268.021-.408.021-.252 0-.492-.019-.742-.037v1.385a10.771 10.771 0 01-4.381-1.301l.727-1.248a9.624 9.624 0 01-.496-.301l-.732 1.256a10.916 10.916 0 01-3.394-3.326l1.252-.763a9.624 9.624 0 01-.301-.496l-1.254.765a10.76 10.76 0 01-1.409-4.582h1.433c-.017-.3-.036-.456-.036-.692 0-.157.016-.458.023-.458H1.166a10.762 10.762 0 011.362-4.926l1.165.689c.091-.171.191-.336.292-.502l-1.161-.686a10.94 10.94 0 013.527-3.484l.625 1.088c.162-.105.327-.206.496-.302l-.618-1.077a10.753 10.753 0 014.325-1.27v1.151c.25-.019.49-.037.742-.037.14 0 .408.015.408.021v-1.16c1.761.053 3.417.527 4.872 1.326l-.543.932c.171.091.335.193.5.294l.544-.934a10.927 10.927 0 013.394 3.326l-.904.551c.105.162.205.328.301.496l.907-.553a10.763 10.763 0 011.433 5.054h-1.111c.007 0 .023.302.023.458 0 .235-.018.392-.035.692h1.099a10.763 10.763 0 01-1.199 4.198l-3.095-1.83c-.171.35-.367.685-.59 1l3.092 1.829a10.921 10.921 0 01-3.369 3.24z"/></svg>