<svg xmlns="http://www.w3.org/2000/svg" class="cel-icon cel-icon-stroke-width" viewBox="0 0 24 24"><g clip-path="url(#clip0_21256_7460)"><path fill-rule="evenodd" clip-rule="evenodd" d="M23.414.586A2 2 0 0124 2v14a1 1 0 01-.293.707l-7 7A1 1 0 0116 24H2a2 2 0 01-2-2V2a2 2 0 012-2h20a2 2 0 011.414.586zM2.146 2.146A.5.5 0 002 2.5v19a.5.5 0 00.5.5H15a.5.5 0 00.5-.5v-4a2 2 0 012-2h4a.5.5 0 00.5-.5V2.5a.5.5 0 00-.5-.5h-19a.5.5 0 00-.354.146zm16.561 7.061l1-1a1 1 0 10-1.414-1.414l-1 1a1 1 0 01-1.415 0 3.072 3.072 0 00-4.242 0 1 1 0 01-1.414 0 3.073 3.073 0 00-4.243 0l-1 1a1 1 0 001.415 1.414l1-1a1.024 1.024 0 011.414 0 3 3 0 004.242 0 1.024 1.024 0 011.414 0 3 3 0 004.243 0zm-7.071 4.586a1 1 0 01-1.414 0 3.073 3.073 0 00-4.243 0l-1 1a1 1 0 001.415 1.414l1-1a1.024 1.024 0 011.414 0 3 3 0 004.242 0 1 1 0 00-1.414-1.414z" fill="currentColor"/></g><defs><clipPath id="clip0_21256_7460"><path fill="#fff" d="M0 0h24v24H0z"/></clipPath></defs></svg>