<svg xmlns="http://www.w3.org/2000/svg" class="cel-icon cel-icon-stroke-width" viewBox="0 0 24 24"><path d="M5.75 2.75A.25.25 0 016 3v1.5a.25.25 0 01-.25.25H5a.5.5 0 00-.5.5V21.5a.5.5 0 00.5.5h14a.5.5 0 00.5-.5V5.25a.5.5 0 00-.5-.5h-.75A.25.25 0 0118 4.5V3a.25.25 0 01.25-.25h1.25a2 2 0 012 2V22a2 2 0 01-2 2h-15a2 2 0 01-2-2V4.75a2 2 0 012-2zm9.828 7.626l.127.008c.381.047.709.299.86.662s.102.78-.129 1.095l-3.593 4.913a1.983 1.983 0 01-1.462.817c-.047.005-.094.005-.141.005-.53 0-1.039-.216-1.415-.6l-1.859-1.908c-.42-.432-.419-1.131.002-1.561s1.102-.43 1.522.002l1.562 1.601a.21.21 0 00.323-.024l3.342-4.57a1.06 1.06 0 01.987-.433zM11.321.091A2.508 2.508 0 0114.5 2.5v.25h1.75a.25.25 0 01.25.25v3a.25.25 0 01-.25.25h-8.5A.25.25 0 017.5 6V3a.25.25 0 01.25-.25H9.5v-.162A2.558 2.558 0 0111.321.091zM12 1.5A.75.75 0 1012 3a.75.75 0 000-1.5z"/></svg>