<svg xmlns="http://www.w3.org/2000/svg" viewBox="0 0 132 90"><g fill="none" fill-rule="evenodd"><path fill="#F9F9F9" d="M0 0h132v90H0z"/><g fill-rule="nonzero"><path d="M72.715 51.99L85.6 39.667c-2.676-10.436-13.307-16.727-23.744-14.05a19.51 19.51 0 00-11.45 8.171c.2-.005 22.309 18.202 22.309 18.202z" fill="#0364B8"/><path d="M58.805 36.108l-.001.002a15.53 15.53 0 00-8.198-2.327c-.067 0-.133.004-.2.005-8.614.107-15.511 7.177-15.405 15.792a15.6 15.6 0 002.803 8.73l19.305-2.418 14.8-11.935-13.104-7.849z" fill="#0078D4"/><path d="M85.6 39.667a12.634 12.634 0 00-5.882 1.005l-7.809 3.286 8.609 10.633 15.39 3.741c3.32-6.165 1.015-13.856-5.15-17.177a12.68 12.68 0 00-5.158-1.488z" fill="#1490DF"/><path d="M37.804 58.31a15.584 15.584 0 0012.802 6.685h34.138a12.677 12.677 0 0011.164-6.663L71.909 43.957 37.804 58.31z" fill="#28A8EA"/></g></g></svg>