<svg xmlns="http://www.w3.org/2000/svg" class="cel-icon cel-icon-stroke-width" viewBox="0 0 24 24"><path d="M9.259 8.603c-.504-.887-.764-1.812-.784-2.619L5.974 7.405c-.777.442-.819 1.841-.092 3.12s1.962 1.954 2.724 1.521l2.512-1.429c-.686-.429-1.355-1.125-1.86-2.014zm-3.953 2.25c-.328-.578-.5-1.18-.517-1.707l-1.198.681c-.51.29-.54 1.204-.063 2.044s1.286 1.281 1.787.996l1.21-.689c-.45-.284-.887-.741-1.219-1.325zM15.962.177l-.01-.017-5.79 3.291c-1.174.667-1.234 2.785-.136 4.716s2.964 2.954 4.116 2.299l5.795-3.296c1.127-.698 1.171-2.773.089-4.677S17.138-.435 15.962.176zm3.265 5.869c-.756.43-1.943-.23-2.65-1.474s-.668-2.601.089-3.031c.756-.43 1.943.23 2.65 1.474s.667 2.601-.089 3.031zm-2.883 17.11l-3.003-8.215a1.943 1.943 0 10-3.046-.037l-3.017 8.252a.41.41 0 00.243.524l.681.249a.411.411 0 00.525-.243l2.255-6.166v6.068c0 .224.181.413.406.413h.725a.406.406 0 00.398-.413v-6.395l2.379 6.493c.077.211.315.32.526.243l.683-.249a.41.41 0 00.245-.524z"/></svg>