<svg xmlns="http://www.w3.org/2000/svg" class="cel-icon cel-icon-stroke-width" viewBox="0 0 24 24"><path fill-rule="evenodd" clip-rule="evenodd" d="M9.75 24h-5a1.5 1.5 0 01-1.5-1.5v-21A1.5 1.5 0 014.75 0h5a1.5 1.5 0 011.5 1.5v6.25A.25.25 0 0111 8H9.25a.5.5 0 100 1H11a.25.25 0 01.25.25v2.5A.25.25 0 0111 12H9.25a.5.5 0 000 1H11a.25.25 0 01.25.25v2.5A.25.25 0 0111 16H9.25a.5.5 0 000 1H11a.25.25 0 01.25.25v2.5A.25.25 0 0111 20H9.25a.5.5 0 000 1H11a.25.25 0 01.25.25v1.25a1.5 1.5 0 01-1.5 1.5zM6.556 4.29a1.25 1.25 0 101.388-2.08 1.25 1.25 0 00-1.388 2.08zm8.023 13.74A.25.25 0 0114.7 18h5.6a.25.25 0 01.222.358l-2.573 5.359a.521.521 0 01-.9 0l-2.575-5.359a.251.251 0 01.105-.327zM19.5 17h1a.25.25 0 00.25-.25V5a.25.25 0 00-.25-.25h-1a.25.25 0 00-.25.25v11.75c0 .138.112.25.25.25zM18 17h-1a.25.25 0 01-.25-.25V5a.25.25 0 01.25-.25h1a.25.25 0 01.25.25v11.75A.25.25 0 0118 17zm-2.5 0h-1a.25.25 0 01-.25-.25V5a.25.25 0 01.25-.25h1a.25.25 0 01.25.25v11.75a.25.25 0 01-.25.25zm5-13.25a.25.25 0 00.25-.25v-.25a3.25 3.25 0 10-6.5 0v.25a.25.25 0 00.25.25h6z" fill="currentColor"/></svg>