<svg xmlns="http://www.w3.org/2000/svg" class="cel-icon cel-icon-stroke-width" viewBox="0 0 24 24"><path d="M1.816 1.816v20.445h20.445V1.816H1.816zm18.861 18.861H3.427V3.427h17.25v17.25zM7.532 16.235q0-.935-.026-1.78t-.052-1.624h.026q.286.675.649 1.403t.727 1.351l1.663 3.014h1.844v-7.82h-1.611v2.286q0 .883.026 1.689t.104 1.559h-.026q-.26-.649-.598-1.351t-.675-1.325l-1.611-2.858H5.894v7.82h1.637v-2.364zm5.949.753q0 .675.481 1.208t1.338.533q.494 0 .922-.182t.688-.52h.052l.104.572h1.585q-.052-.234-.065-.611t-.013-.766v-1.974q0-1.013-.546-1.728t-1.948-.714q-.779 0-1.338.169t-.87.325l.338 1.143q.26-.182.688-.312t.87-.13q.649 0 .831.26t.182.468v.078q-1.481 0-2.39.533t-.909 1.65zm3.377-1.065v.598q0 .078-.013.156t-.039.156q-.078.26-.325.455t-.585.195q-.286 0-.494-.169t-.208-.507q0-.52.481-.714t1.182-.169zm-2.702-9.768h-.026l-.779.39-.156-.727 1.091-.52h.805v4.131h-.935V6.156zm3.196 0l-.779.39-.182-.727 1.117-.52h.779v4.131h-.935V6.156z"/></svg>