<svg xmlns="http://www.w3.org/2000/svg" class="cel-icon cel-icon-stroke-width" viewBox="0 0 24 24"><path d="M10.146 6.12q-.795 0-1.47.278t-1.205.834q-.556.556-.834 1.218t-.278 1.457q0 .768.278 1.43t.834 1.218q.53.556 1.205.834t1.47.278q.768 0 1.43-.278t1.218-.834.821-1.218.265-1.43q0-.795-.265-1.457t-.821-1.218-1.218-.834-1.43-.278zm8.767 11.575h-1.218v1.218h-1.192v-1.218h-1.218v-1.192h1.218v-1.218h1.192v1.218h1.218v1.192zm-8.767-2.967q-1.007 0-1.867-.358T6.73 13.297q-.715-.715-1.073-1.563t-.358-1.828q0-1.006.358-1.854t1.046-1.563q.715-.715 1.576-1.073t1.867-.358q.98 0 1.828.358t1.563 1.073 1.059 1.563.344 1.854q0 .98-.344 1.828t-1.059 1.563-1.563 1.073-1.828.358zm6.966-1.245V5.087q0-.371-.146-.675t-.411-.569-.583-.397-.689-.132H5.086q-.371 0-.675.132t-.569.397-.397.569-.132.675v10.197q0 .371.132.689t.397.583.569.397.675.132h8.396q0 .768.265 1.391t.795 1.152 1.165.795 1.377.265q.768 0 1.391-.265t1.152-.795.795-1.152.265-1.391q0-.742-.265-1.377t-.795-1.165-1.152-.795-1.364-.265z"/></svg>