<svg xmlns="http://www.w3.org/2000/svg" class="cel-icon cel-icon-stroke-width" viewBox="0 0 24 24"><path d="M12.258 13h1.023a.5.5 0 00.457-.297l.001-.003c.254-.588.8-1.843.81-1.87a3.3 3.3 0 012.952-1.832c1.274 0 2.38.724 2.928 1.783l.009.018c0 .01.07.158.153.351a.207.207 0 00.41-.026V4.499a1.5 1.5 0 00-1.5-1.5H9.62a.501.501 0 01-.446-.274l-.001-.003L8.226.829a1.503 1.503 0 00-1.342-.83H1.501a1.5 1.5 0 00-1.5 1.5v15a1.5 1.5 0 001.5 1.5h7.633a.25.25 0 00.215-.373l.001.001a3.122 3.122 0 01-.34-1.429c0-.432.086-.844.243-1.22l-.008.021a3.243 3.243 0 012.991-2h.026-.001z"/><path d="M23.608 17.139a1.26 1.26 0 00.297-1.386l.003.008A1.234 1.234 0 0022.769 15h-.031.002-2.5a.25.25 0 01-.229-.149l-.001-.002-1.344-3.116-.013-.028a1.294 1.294 0 00-2.297-.007l-.003.007-.013.028-1.344 3.116a.249.249 0 01-.229.151h-2.529c-.511 0-.95.311-1.137.754l-.003.008a1.256 1.256 0 00.3 1.377l2.203 1.97a.247.247 0 01.063.287l.001-.002-1.224 2.816a1.251 1.251 0 00.315 1.449l.001.001c.227.21.531.338.866.338.236 0 .457-.064.646-.175l-.006.003 3.113-1.752a.247.247 0 01.247.001l-.001-.001 3.112 1.752a1.273 1.273 0 001.506-.167l-.001.001a1.253 1.253 0 00.312-1.458l.003.008-1.219-2.812a.248.248 0 01.063-.286z"/></svg>