<svg xmlns="http://www.w3.org/2000/svg" class="cel-icon cel-icon-stroke-width" viewBox="0 0 24 24"><path d="M21.448 23.24v-7.828c0-.54-2.491-2.882-4.466-4.07v-2.62h1.131c.76 0 1.214-.45 1.322-.796.117-.365.333-1.156-.144-1.633L12.263 0l-7.14 6.249c-.477.476-.31 1.32-.198 1.684.112.346.508.789 1.268.789h.87v2.602c-1.316.85-4.513 3.629-4.513 4.088v7.828c0 .535.076.76.611.76h5.265v-5.571s.531-2.946 3.656-2.946c3.12 0 3.584 2.946 3.584 2.946V24h5.296c.54 0 .486-.225.486-.76zm-9.033-12.414a2.575 2.575 0 11-.001-5.15 2.575 2.575 0 01.001 5.15zM12 9.964h.846V8.521h1.41v-.814H12z"/></svg>