<svg xmlns="http://www.w3.org/2000/svg" class="cel-icon cel-icon-stroke-width" viewBox="0 0 24 24"><path d="M23.491 23.867a.343.343 0 01-.265.133h-5.253a.348.348 0 01-.266-.133.503.503 0 01-.109-.32V1.811C17.598.811 18.27 0 19.1 0h3c.829 0 1.501.811 1.501 1.811v21.736a.497.497 0 01-.109.32zM1.9 9.6c-.828 0-1.5.78-1.5 1.746v12.217c0 .115.038.227.109.309.07.082.166.128.265.128h5.25c.1 0 .195-.045.266-.128a.47.47 0 00.108-.309V11.346c0-.964-.672-1.746-1.5-1.746H1.9zM10.7 13.2c-.828 0-1.5.774-1.5 1.728v8.64c0 .115.038.226.109.306.07.08.166.126.265.126h5.25c.1 0 .195-.045.266-.126a.461.461 0 00.108-.306v-8.64c0-.954-.672-1.728-1.5-1.728H10.7z" fill="currentColor"/></svg>