<svg xmlns="http://www.w3.org/2000/svg" class="cel-icon cel-icon-stroke-width" viewBox="0 0 24 24"><path d="M21.357 15.82q0-.055.042-.097t.097-.042h1.55q0-.471-.055-.886t-.111-.886l-.775.166q-.055 0-.097-.055t-.042-.111.042-.138.097-.083l.775-.166q-.111-.443-.235-.872t-.291-.872l-1.384.609h-.083q-.055 0-.111-.055t-.055-.111q-.055-.055-.014-.138t.097-.083l1.384-.609q-.166-.415-.388-.803t-.443-.72l-.637.36h-.166l-.055-.055q-.055-.055-.014-.152t.097-.097l.609-.36q-.277-.415-.568-.761t-.568-.623l-1.08 1.052-.055.042-.111.042h-.069l-.069-.083q-.055-.055-.055-.152t.055-.152l1.08-1.052q-.36-.305-.678-.595t-.706-.568l-.471.609q0 .055-.042.069t-.097.014h-.083q-.055-.055-.069-.111t-.014-.111l.388-.609q-.415-.249-.817-.471t-.789-.388l-.554 1.301q0 .055-.042.111t-.097.055h-.083q-.055-.055-.097-.125t.014-.125l.609-1.357q-.388-.194-.831-.318t-.831-.235l-.166.775q0 .055-.042.097t-.097.042q-.083 0-.125-.083t-.042-.138l.166-.775q-.581-.111-1.024-.166t-.914-.055v1.55q0 .055-.042.097t-.097.042-.111-.042-.055-.097V4.72q-.443 0-.9.055t-.844.111l.138.747q0 .055-.042.152t-.097.097q-.055 0-.111-.055t-.055-.111l-.138-.775q-.471.138-.886.263t-.886.291L8.7 6.879q.055.055.014.138t-.097.083h-.055q-.083 0-.125-.042t-.042-.125l-.609-1.357q-.415.166-.803.388t-.72.443l.36.609q.055.055.028.138t-.083.083h-.194l-.055-.055-.388-.609q-.388.277-.734.568t-.623.568l1.052 1.08q.055.055.055.152t-.055.152l-.042.042-.097.042-.083-.014-.083-.069-1.052-1.08q-.304.36-.595.664t-.568.72l.609.471q.055.055.069.111t.014.111-.042.069-.125.014h-.055l-.609-.388q-.249.388-.471.789t-.388.817l1.08.609q.055.055.097.111t-.014.111q0 .055-.042.111l-.042.055h-.083l-1.44-.609q-.194.388-.318.803t-.235.886l.775.138q.055 0 .097.083t.042.138q0 .083-.042.125t-.097.042l-.775-.166v.083q-.111.415-.166.858t-.055.831h1.523q.055 0 .111.055t.055.111-.055.18-.111.125H.89q0 .443.042.858t.097.831h21.926q.055-.415.097-.858t.042-.831h-1.523q-.111 0-.166-.097t-.055-.152zM5.024 13.91q.332-1.135.997-2.132.664-.969 1.578-1.689t2.049-1.135q1.107-.415 2.353-.415t2.353.415q1.135.415 2.049 1.135t1.578 1.689q.664.997.997 2.132H5.025z"/></svg>