<svg xmlns="http://www.w3.org/2000/svg" class="cel-icon cel-icon-stroke-width" viewBox="0 0 24 24"><path d="M11.999 24c-1.472 0-2.666-1.173-2.666-2.619s1.194-2.619 2.666-2.619 2.666 1.173 2.666 2.619S13.471 24 11.999 24zm2.844-10.616a1.744 1.744 0 00-1.066 1.601c0 .964-.796 1.746-1.777 1.746s-1.777-.782-1.777-1.746c0-2.083 1.256-3.968 3.199-4.802 1.627-.698 2.481-2.468 2-4.147s-2.15-2.752-3.909-2.512c-1.759.239-3.068 1.717-3.067 3.461 0 .964-.796 1.746-1.777 1.746s-1.777-.782-1.777-1.746c0-3.488 2.62-6.442 6.137-6.919s6.853 1.669 7.815 5.026c.962 3.358-.745 6.898-3.999 8.293v-.002z"/></svg>