<svg xmlns="http://www.w3.org/2000/svg" class="cel-icon cel-icon-stroke-width" viewBox="0 0 24 24"><path d="M7.82 6.556c1.031-.004 1.82.123 2.593.432l-.805 3.329c-.711-.37-1.742-.563-2.564-.563-2.19 0-3.674 1.578-3.674 4.134v8.478H0V6.956h3.337v1.738C4.368 7.231 5.934 6.557 7.82 6.557zm13.587-.001c1.031 0 1.82.127 2.593.431l-.805 3.329c-.707-.37-1.738-.563-2.56-.563-2.141 0-3.674 1.512-3.674 4.13v8.473h-3.37V6.957h3.337v1.734c1.015-1.463 2.593-2.137 4.479-2.137zM1.512 1.635c.834 0 1.512.674 1.512 1.504a1.513 1.513 0 01-3.024 0c0-.834.678-1.504 1.512-1.504zm3.941 0c.834 0 1.516.674 1.516 1.504s-.678 1.508-1.512 1.508-1.516-.674-1.516-1.508.678-1.504 1.512-1.504zm3.945 0c.838 0 1.512.674 1.512 1.504a1.513 1.513 0 01-3.024 0c0-.834.674-1.504 1.512-1.504z"/></svg>