<svg xmlns="http://www.w3.org/2000/svg" class="cel-icon cel-icon-stroke-width" viewBox="0 0 24 24"><path d="M13.681 4.936a7.043 7.043 0 00-1.673-.196 7.224 7.224 0 00-5.42 2.44l-.007.008A1.25 1.25 0 114.71 5.529l-.001.001a9.72 9.72 0 017.3-3.294c.797 0 1.572.096 2.314.277l-.067-.014c3.558.915 6.328 3.6 7.347 7.037l.018.073c.031.105.126.18.239.18l.033-.002h-.001l1.033-.13a.491.491 0 01.473.217l.001.002a.496.496 0 01.018.528l.001-.002-2.476 4.342a.503.503 0 01-.371.248h-.002l-.031.001-.032-.001h.001a.497.497 0 01-.359-.152l-3.477-3.593a.498.498 0 01.297-.844h.002l1.878-.232a.25.25 0 00.199-.335l.001.002c-.871-2.421-2.854-4.25-5.315-4.891l-.054-.012zM.594 14.1a.493.493 0 01-.014-.528l-.001.002 2.5-4.329A.503.503 0 013.452 9h.002a.488.488 0 01.421.151l3.456 3.614a.5.5 0 01-.297.842h-.002l-1.848.221a.244.244 0 00-.182.116l-.001.001a.254.254 0 00-.022.218l-.001-.002c.87 2.421 2.853 4.25 5.316 4.888l.053.012a7.073 7.073 0 001.671.195 7.225 7.225 0 005.422-2.441l.007-.008a1.25 1.25 0 111.871 1.657l.001-.001a9.722 9.722 0 01-7.301 3.293 9.756 9.756 0 01-2.315-.277l.067.014c-3.563-.914-6.336-3.604-7.351-7.047l-.018-.073a.251.251 0 00-.271-.179h.001l-1.058.127-.03.001-.031-.001h.001-.002a.498.498 0 01-.414-.22l-.001-.002z"/></svg>