<svg xmlns="http://www.w3.org/2000/svg" class="cel-icon cel-icon-stroke-width" viewBox="0 0 24 24"><path d="M11.999 4.716c4.402-.061 8.79 2.967 11.436 5.831a2.15 2.15 0 01.003 2.901c-2.618 2.835-6.943 5.836-11.292 5.836h-.308c-4.334 0-8.66-3.001-11.275-5.835a2.15 2.15 0 010-2.902c2.646-2.864 7.035-5.893 11.436-5.831zm0 2.756c-2.541 0-4.602 2.027-4.602 4.528s2.06 4.528 4.602 4.528c2.541 0 4.602-2.027 4.602-4.528s-2.06-4.528-4.602-4.528zm0 2.56c1.105 0 2.001.881 2.001 1.969s-.896 1.969-2.001 1.969-2.001-.881-2.001-1.969.896-1.969 2.001-1.969z"/></svg>