<svg xmlns="http://www.w3.org/2000/svg" class="cel-icon cel-icon-stroke-width" viewBox="0 0 24 24"><path d="M10 22a1 1 0 010 2H7.5a1 1 0 010-2zm6.5 0a1 1 0 010 2H14a1 1 0 010-2zM1 19.5a1 1 0 011 1v1.25c0 .138.112.25.25.25H3.5a1 1 0 010 2H2a2 2 0 01-2-2v-1.5a1 1 0 011-1zm22 0a1 1 0 011 1V22a2 2 0 01-2 2h-1.5a1 1 0 010-2h1.25a.25.25 0 00.25-.25V20.5a1 1 0 011-1zM1 13a1 1 0 011 1v2.5a1 1 0 01-2 0V14a1 1 0 011-1zm22 0a1 1 0 011 1v2.5a1 1 0 01-2 0V14a1 1 0 011-1zM1 6.5a1 1 0 011 1V10a1 1 0 01-2 0V7.5a1 1 0 011-1zm22 0a1 1 0 011 1V10a1 1 0 01-2 0V7.5a1 1 0 011-1zM3.5 0a1 1 0 010 2H2.25a.25.25 0 00-.25.25V3.5a1 1 0 01-2 0V2a2 2 0 012-2zM22 0a2 2 0 012 2v1.5a1 1 0 01-2 0V2.25a.25.25 0 00-.25-.25H20.5a1 1 0 010-2zM10 0a1 1 0 010 2H7.5a1 1 0 010-2zm6.5 0a1 1 0 010 2H14a1 1 0 010-2z"/></svg>