<svg xmlns="http://www.w3.org/2000/svg" class="cel-icon cel-icon-stroke-width" viewBox="0 0 24 24"><path d="M2.883 12.375l-1.805 3.68 1.734-1.523 4.664 5.906 3.82-14.086H22.78l.539-2.039H9.702L6.679 16.219zm13.476-1.102q.539-.75.984-1.289t.773-.844.656-.457.633-.152q.375 0 .645.129t.41.387q.07.141.105.316t.035.363q0 .211-.07.387t-.234.34q-.164.188-.352.27t-.422.082q-.141 0-.293-.059t-.34-.176q-.164-.094-.305-.152t-.211-.059q-.188 0-.352.094t-.328.281-.445.586-.68 1.008l.188.984q.07.375.129.68t.105.563q.047.234.105.457t.105.434l.164.492.164.352q.07.117.176.188t.27.07q.141 0 .305-.105t.352-.316q.094-.094.258-.293t.375-.504l.398.281q-.234.445-.574.867t-.738.797q-.398.398-.797.598t-.797.199q-.328 0-.586-.141t-.469-.422q-.141-.141-.246-.34t-.176-.457q-.07-.141-.129-.375t-.152-.563q-.07-.352-.129-.551t-.082-.293l-.141.234q-.469.844-.82 1.383t-.563.797q-.328.375-.715.563t-.809.188q-.258 0-.48-.094t-.387-.258q-.188-.188-.281-.398t-.094-.469q0-.211.07-.41t.188-.363q.141-.188.34-.281t.434-.094q.141 0 .328.059t.398.176l.375.152q.141.058.211.059.141 0 .27-.07t.246-.211q.094-.117.305-.457t.539-.879l.375-.633q-.047-.211-.094-.469t-.117-.563q-.047-.281-.105-.598t-.105-.621l-.164-.844q-.07-.445-.199-.75t-.316-.445q-.094-.07-.258-.117t-.398-.047h-.082l-.152.023q-.094 0-.188.012t-.188.012v-.539q.445-.047.914-.117t.984-.141q.516-.094.867-.152t.516-.082q.141.188.258.422t.211.516.164.586.117.609l.117.656z"/></svg>