<svg xmlns="http://www.w3.org/2000/svg" class="cel-icon cel-icon-stroke-width" viewBox="0 0 24 24"><path d="M9.945 14.943a2.275 2.275 0 001.782-.498l-.004.003a.444.444 0 01.555 0l-.001-.001a2.27 2.27 0 001.791.494l-.013.002c2.18 0 4.021-3.912 4.021-6.369 0-2.585-1.638-4.61-3.728-4.61a3.578 3.578 0 00-2.092.485l.017-.009c-.223.129-.223.187-.82-.062a4.807 4.807 0 00-1.29-.388l-.028-.004a1 1 0 00-.778.221l.002-.001a1.027 1.027 0 00-.372.729v.003c-.146 2.521-1.416 3.043-2.159 3.129a.988.988 0 00-.875 1.067V9.13c.221 2.315 1.927 5.814 3.994 5.814zM15.371.13c.373.373-.083 1.432-1.017 2.366s-1.993 1.389-2.366 1.017c-.373-.373.083-1.432 1.017-2.366S14.998-.242 15.371.13zM20 16H1a1 1 0 000 2h6a2 2 0 110 4H1a1 1 0 000 2h19a4 4 0 000-8z"/></svg>