<svg xmlns="http://www.w3.org/2000/svg" class="cel-icon cel-icon-stroke-width" viewBox="0 0 24 24"><path d="M10 2.5a3 3 0 013 3v.677c0 .083.041.161.11.208s.157.056.234.024A6.901 6.901 0 0116 6c3.364 0 6 3.294 6 7.5 0 3.956-3.038 10.5-6.5 10.5-1.801 0-2.331-.342-2.793-.754A.806.806 0 0012 23a.806.806 0 00-.707.246c-.462.412-.993.754-2.793.754C5.038 24 2 17.456 2 13.5 2 9.294 4.636 6 8 6c.904-.039 1.806.1 2.656.409A.25.25 0 0011 6.177V5.5a1 1 0 00-1-1H8a1 1 0 010-2zm2.471 7.625h-.692a.692.692 0 00-.692.692v2.596a.172.172 0 01-.173.173H8.318a.692.692 0 00-.692.692v.692c0 .382.31.692.692.692h2.596c.096 0 .173.077.173.173v2.596c0 .382.31.692.692.692h.692c.382 0 .692-.31.692-.692v-2.596c0-.096.077-.173.173-.173h2.596c.382 0 .692-.31.692-.692v-.692a.692.692 0 00-.692-.692h-2.596a.172.172 0 01-.173-.173v-2.596a.692.692 0 00-.692-.692zM17.8.01a1.017 1.017 0 011.152 1.15A5.014 5.014 0 0114.7 5.414l-.119.011a1.015 1.015 0 01-1.035-1.159A5.015 5.015 0 0117.8.011z"/></svg>