<svg xmlns="http://www.w3.org/2000/svg" class="cel-icon cel-icon-stroke-width" viewBox="0 0 24 24"><path d="M17.25 21.25h-1.432a2.57 2.57 0 01-2.568-2.568v-1.841a.25.25 0 01.25-.25h.887a1.25 1.25 0 000-2.5H13.5a.25.25 0 01-.25-.25V5.319a2.572 2.572 0 012.568-2.569h1.432a1.25 1.25 0 000-2.5h-1.436a5.032 5.032 0 00-3.633 1.543l-.001.001a.25.25 0 01-.36 0A5.034 5.034 0 008.186.25H6.75a1.25 1.25 0 000 2.5h1.432a2.572 2.572 0 012.568 2.569v8.522a.25.25 0 01-.25.25h-.887a1.25 1.25 0 000 2.5h.887a.25.25 0 01.25.25v1.841a2.57 2.57 0 01-2.568 2.568H6.75a1.25 1.25 0 000 2.5h1.432a5.034 5.034 0 003.636-1.546l.002-.002a.25.25 0 01.36 0 5.034 5.034 0 003.634 1.544h1.436a1.25 1.25 0 000-2.5z"/></svg>