<svg xmlns="http://www.w3.org/2000/svg" class="cel-icon cel-icon-stroke-width" viewBox="0 0 24 24"><path d="M18.719 3.994A6.404 6.404 0 0012.862 0H4.137c-.705 0-1.276 1.337-1.276 2.042s.571 2.042 1.276 2.042h.71a.26.26 0 01.26.255v15.32a.26.26 0 01-.26.255h-.71c-.705 0-1.276 1.337-1.276 2.042s.571 2.042 1.276 2.042h10.174a6.885 6.885 0 002.992-13.057 6.408 6.408 0 001.416-6.949zm-7.275-.165c2.034.034 3.621 1.023 3.621 2.555s-1.587 2.796-3.621 2.83H9.185a.251.251 0 01-.248-.255V4.087c0-.141.111-.255.248-.255l2.259-.002zM9.186 20.145a.252.252 0 01-.249-.255v-5.848c0-.141.112-.255.249-.255h2.94c2.307.036 4.47.677 4.47 3.042s-2.163 3.28-4.47 3.317h-2.94z"/></svg>