<svg xmlns="http://www.w3.org/2000/svg" class="cel-icon cel-icon-stroke-width" viewBox="0 0 24 24"><path d="M21.404 21.753h-.689a.277.277 0 01-.262-.19L13.554 1.137A1.663 1.663 0 0011.987 0h-.008a1.667 1.667 0 00-1.575 1.139L3.528 21.562a.278.278 0 01-.263.19h-.667c-.405-.013-.785.198-.992.551s-.206.791 0 1.144c.206.353.587.564.992.551h3.341c.295 0 .578-.118.786-.329s.325-.497.325-.795a1.083 1.083 0 00-.919-1.092.283.283 0 01-.21-.364l1.701-5.058a.278.278 0 01.263-.19h8.197a.28.28 0 01.263.19l1.708 5.06c.025.076.017.159-.022.229s-.106.119-.183.136a1.09 1.09 0 00-.899 1.09c0 .298.117.584.325.795s.491.329.786.329h3.341c.405.013.785-.198.992-.551s.206-.791 0-1.144a1.108 1.108 0 00-.992-.551l.002-.001zM8.833 13.924c-.09 0-.174-.044-.226-.117s-.066-.168-.037-.254l3.147-9.346c.038-.114.144-.191.263-.191s.225.077.263.191l3.156 9.345a.276.276 0 01-.264.369l-6.302.003z"/></svg>