<svg xmlns="http://www.w3.org/2000/svg" class="cel-icon cel-icon-stroke-width" viewBox="0 0 24 24"><path d="M19.159 8.256l1.548-1.548a1 1 0 10-1.414-1.414l-1.6 1.6a9.365 9.365 0 00-4.651-1.837L13 5.053V2h2a1 1 0 000-2H9a1 1 0 000 2h2v3.053c-4.798.524-8.498 4.553-8.498 9.447 0 5.247 4.253 9.5 9.5 9.5s9.5-4.253 9.5-9.5a9.467 9.467 0 00-2.352-6.258l.009.011zM12 22a7.5 7.5 0 117.5-7.5A7.51 7.51 0 0112 22z"/><path d="M9.207 10.294a1 1 0 00-1.414 1.414l3.5 3.5a1.012 1.012 0 001.414 0 .997.997 0 000-1.414z"/></svg>