<svg xmlns="http://www.w3.org/2000/svg" class="cel-icon cel-icon-stroke-width" viewBox="0 0 28 28"><g fill="none" fill-rule="evenodd"><path fill="currentColor" d="M0 0h28v28H0z"/><path d="M11.055.495l-.856 3.521c-.753-.391-1.848-.595-2.72-.595-2.328 0-3.902 1.667-3.902 4.372v8.967H0V.46h3.542v1.838C4.637.75 6.298.035 8.3.035c1.095 0 1.933.136 2.755.46" fill="#FFF" fill-rule="nonzero" mask="url(#mask-2)" transform="translate(8 8.2)"/><g fill-rule="nonzero"><path d="M11.207 4.646a1.61 1.61 0 01-1.603 1.618A1.61 1.61 0 018 4.646a1.61 1.61 0 011.604-1.618 1.61 1.61 0 011.603 1.618" fill="#9ECA47"/><path d="M15.386 4.646a1.61 1.61 0 01-1.604 1.618 1.61 1.61 0 01-1.603-1.618 1.61 1.61 0 011.603-1.618 1.61 1.61 0 011.604 1.618" fill="#D73A59"/><path d="M19.564 4.646a1.61 1.61 0 01-1.603 1.618 1.61 1.61 0 01-1.604-1.618 1.61 1.61 0 011.604-1.618 1.61 1.61 0 011.603 1.618" fill="#0072EE"/></g></g></svg>