<svg xmlns="http://www.w3.org/2000/svg" class="cel-icon cel-icon-stroke-width" viewBox="0 0 24 24"><g fill="currentColor" fill-rule="nonzero"><path d="M22.59 9.45h-8.983c-.148 0-.222.077-.222.23v6.043a.678.678 0 01-.668.692h-1.04c-.148 0-.222.077-.222.231v3.887c0 .77.593 1.462 1.41 1.462h9.725c.742 0 1.41-.615 1.41-1.462v-9.62c0-.77-.594-1.463-1.41-1.463zm-7.424 4.618h1.856c.149 0 .223-.077.223-.23v-.463c0-.385.297-.692.668-.692.371 0 .668.307.668.692v.462c0 .154.074.231.223.231h1.855c.372 0 .669.308.669.693a.678.678 0 01-.669.692h-.593c-.075 0-.223.077-.223.154a5.16 5.16 0 01-.817 1.847c.075.077.075.154.075.231 0 .077.074.154.074.154.371.231.816.385 1.262.54.371.076.594.538.52.923-.075.384-.52.615-.891.538-.743-.23-1.41-.538-2.005-1a.22.22 0 00-.297 0c-.593.462-1.262.77-2.004 1-.371.077-.742-.077-.89-.461-.075-.385.074-.77.445-.924.445-.154.89-.308 1.262-.539.074 0 .074-.077.074-.154s0-.154-.074-.23a5.16 5.16 0 01-.817-1.848c0-.077-.148-.154-.223-.154h-.593a.678.678 0 01-.669-.692c.223-.462.52-.77.891-.77z"/><path d="M17.63 15.5c-.187 0-.28.093-.28.28v.093c.093.28.187.466.373.745.094.093.28.187.374.093l.093-.093c.093-.186.28-.466.373-.745.094-.187 0-.28-.186-.373h-.747zM11.083 3h-9.62C.615 3 0 3.693 0 4.462v9.621c0 .77.616 1.462 1.462 1.462h10.391a.69.69 0 00.692-.692V4.462c0-.77-.692-1.462-1.462-1.462zM8.39 12.159a.69.69 0 01-.692.693.69.69 0 01-.693-.693v-1.924c0-.154-.077-.231-.231-.231h-1c-.154 0-.231.077-.231.23v1.925a.69.69 0 01-.693.693c-.385 0-.77-.308-.77-.693v-4.31c0-1.232 1-2.155 2.155-2.155 1.155 0 2.155 1 2.155 2.155v4.31z"/><path d="M6.24 7.4a.637.637 0 00-.64.64v.497c0 .142.071.213.213.213h.924c.142 0 .213-.071.213-.213V8.11a.712.712 0 00-.71-.711z"/></g></svg>