<svg xmlns="http://www.w3.org/2000/svg" class="cel-icon cel-icon-stroke-width" viewBox="0 0 24 24"><path d="M12.53 1.257a10.836 10.836 0 00-9.725 7.062l-.024.075a.248.248 0 01-.273.162h.001L.82 8.307a.517.517 0 00-.484.211l-.001.002a.493.493 0 00-.019.533l-.001-.002 2.679 4.7a.504.504 0 00.364.247h.003l.033.001.035-.001h-.002a.497.497 0 00.352-.146l3.77-3.746a.499.499 0 00-.277-.848h-.003l-1.715-.255a.252.252 0 01-.192-.351l-.001.002c1.315-2.923 4.201-4.922 7.555-4.922a8.26 8.26 0 01.327 16.512h-.016a8.205 8.205 0 01-6.941-3.339l-.016-.023a1.25 1.25 0 00-2.007 1.484l-.003-.005c1.979 2.675 5.123 4.39 8.667 4.391.132 0 .265 0 .4-.008 5.794-.183 10.421-4.924 10.421-10.746 0-5.938-4.813-10.751-10.751-10.751-.163 0-.324.004-.485.011l.023-.001z"/></svg>