<svg xmlns="http://www.w3.org/2000/svg" class="cel-icon cel-icon-stroke-width" viewBox="0 0 24 24"><path d="M10.643 5.619a.25.25 0 00-.25-.25H8.69A.976.976 0 018 3.7L11.417.286c.177-.177.42-.286.69-.286s.513.109.69.286L16.214 3.7a.974.974 0 01-.689 1.667H13.824a.25.25 0 00-.25.25V9.8a1.463 1.463 0 11-2.928 0zM21 14H3a3 3 0 00-3 3v4a3 3 0 003 3h18a3 3 0 003-3v-4a3 3 0 00-3-3zM4.75 19.11a.75.75 0 01.75-.75H9a.75.75 0 010 1.5H5.5a.75.75 0 01-.75-.75zM19 20.5a1.5 1.5 0 111.5-1.5 1.5 1.5 0 01-1.5 1.5z"/></svg>