<svg xmlns="http://www.w3.org/2000/svg" class="cel-icon cel-icon-stroke-width" viewBox="0 0 24 24"><path d="M17.786 4.875l-.408-.26a.553.553 0 00-.474-.068.559.559 0 00-.358.307l-.752 1.649a.569.569 0 00.198.714l.274.183c2.074 1.404 3.308 3.715 3.308 6.185 0 4.123-3.397 7.489-7.573 7.489s-7.573-3.365-7.573-7.489a7.456 7.456 0 013.3-6.183L8 7.217a.565.565 0 00.203-.709l-.749-1.654a.55.55 0 00-.363-.304.565.565 0 00-.471.065l-.41.26c-2.965 1.945-4.745 5.196-4.745 8.71C1.465 19.317 6.186 24 12.001 24c5.818 0 10.537-4.682 10.537-10.415 0-3.524-1.777-6.766-4.751-8.71zM11.972 17.35l1.019-1.877h-2.033zM14.043.332a.337.337 0 00-.33-.332h-3.329a.336.336 0 00-.33.332v2.324h3.988V.332zm-3.722 13.863h.58V3.492h-.838v10.435c0 .143.113.267.258.267zm3.616-.267V3.493h-.843v10.703h.579a.264.264 0 00.264-.267zm-1.139.267h-1.609V3.493h1.609v10.702z"/></svg>