<svg xmlns="http://www.w3.org/2000/svg" class="cel-icon cel-icon-stroke-width" viewBox="0 0 24 24"><path d="M10.292 2.291L4.366 8.218a.25.25 0 01-.177.073H2a2 2 0 00-2 2v3.414a2 2 0 002 2h2.189c.069 0 .132.029.177.074l5.926 5.926A.998.998 0 0012 21V3v-.003a1 1 0 00-1.708-.706zM17.585 4.966a1 1 0 00-1.414 1.414C17.61 7.818 18.5 9.805 18.5 11.999s-.89 4.182-2.329 5.619a1 1 0 001.414 1.414c1.801-1.8 2.915-4.286 2.915-7.034s-1.114-5.234-2.915-7.033z"/><path d="M15.136 7.5a1 1 0 10-1.417 1.409l.001.001c.788.792 1.276 1.884 1.276 3.09s-.487 2.298-1.276 3.09a.999.999 0 101.414 1.412v-.001c1.148-1.153 1.858-2.744 1.858-4.5s-.709-3.346-1.857-4.5z"/></svg>