<svg xmlns="http://www.w3.org/2000/svg" class="cel-icon cel-icon-stroke-width" viewBox="0 0 24 24"><path d="M4.046 9.917a1.25 1.25 0 001.768 1.767c1.585-1.58 3.772-2.558 6.187-2.558s4.602.977 6.187 2.558c.226.226.538.366.883.366h.006a1.24 1.24 0 001.24-1.22v-.001-.029-.003c0-.344-.14-.655-.366-.88-2.037-2.031-4.848-3.287-7.953-3.287S6.083 7.886 4.045 9.917z"/><path d="M22.784 6.088C20.022 3.332 16.21 1.629 12 1.629S3.978 3.333 1.216 6.089a1.25 1.25 0 001.768 1.768C5.293 5.554 8.48 4.129 12 4.129s6.707 1.424 9.016 3.728a1.25 1.25 0 001.768-1.768zM14.383 12.033a7.1 7.1 0 00-2.389-.405 7.227 7.227 0 00-5.12 2.116 1.25 1.25 0 00.883 2.134c.345 0 .658-.14.883-.367a4.733 4.733 0 013.345-1.379c1.226 0 2.343.465 3.186 1.227l-.004-.004c.062.055.131.1.19.155a1.251 1.251 0 001.764-1.771 7.193 7.193 0 00-2.689-1.692l-.05-.015zM14.5 19.871a2.5 2.5 0 11-5 0 2.5 2.5 0 015 0z"/></svg>