<svg xmlns="http://www.w3.org/2000/svg" class="cel-icon cel-icon-stroke-width" viewBox="0 0 24 24"><path d="M23.416 20.604l-4.212-4.212a10.415 10.415 0 001.805-5.888C21.009 4.703 16.306 0 10.505 0S.001 4.703.001 10.504c0 5.801 4.703 10.504 10.504 10.504a10.46 10.46 0 005.909-1.818l-.036.023 4.212 4.212c.365.355.863.574 1.413.574s1.049-.219 1.414-.575c.36-.361.583-.86.583-1.411s-.223-1.049-.583-1.411zM10.509 2.028a8.496 8.496 0 11-8.496 8.496 8.506 8.506 0 018.495-8.496h.001z"/><path d="M7.011 11.523H9.51v2.499a.999.999 0 101.998 0v-2.499h2.499a.999.999 0 100-1.998h-2.499V7.026a.999.999 0 10-1.998 0v2.499H7.011a.999.999 0 100 1.998z"/></svg>