<svg xmlns="http://www.w3.org/2000/svg" class="cel-icon cel-icon-stroke-width" viewBox="0 0 24 24"><g fill="none" fill-rule="evenodd"><path d="M0 0h24v24H0z"/><g fill-rule="nonzero"><path d="M14.5 14.376l4.953-4.737a7.5 7.5 0 00-13.53-2.26C6 7.377 14.5 14.376 14.5 14.376z" fill="#0364B8"/><path d="M9.152 8.27v.001A5.97 5.97 0 006 7.377l-.077.002a5.997 5.997 0 00-4.845 9.427l7.422-.93 5.69-4.588-5.038-3.017z" fill="#0078D4"/><path d="M19.453 9.639a4.857 4.857 0 00-2.261.387v-.001l-3.002 1.263 3.31 4.088 5.916 1.439a4.875 4.875 0 00-3.963-7.176z" fill="#1490DF"/><path d="M1.078 16.806A5.991 5.991 0 006 19.376h13.124a4.874 4.874 0 004.292-2.561l-9.226-5.527-13.112 5.518z" fill="#28A8EA"/></g></g></svg>