<svg xmlns="http://www.w3.org/2000/svg" viewBox="0 0 230.32 29.8"><defs/><g data-name="Layer 2"><g data-name="Adjusted-1/16"><path class="cls-1" d="M126.52 12.13l-.9 3.73a6.61 6.61 0 00-2.86-.63c-2.4 0-4.11 1.69-4.11 4.62v9.49h-3.76V12.1h3.73V14a5.75 5.75 0 015-2.39 7.57 7.57 0 012.9.52zM144.77 20.7c0 .49 0 1-.07 1.41H132a4.89 4.89 0 005.14 4.39 8.27 8.27 0 005-1.82l1.86 2.68a10.41 10.41 0 01-7.1 2.43c-5.17 0-8.82-3.6-8.82-9.07s3.51-9.07 8.59-9.07c4.77 0 8.09 3.67 8.1 9.05zM132 19.24h8.95c-.41-2.68-2-4.25-4.37-4.25-2.72.01-4.21 1.73-4.58 4.25zM163.42 19.06v10.28h-3.78V27.4a7.35 7.35 0 01-5.6 2.39c-3.87 0-6-2.41-6-5.61s2.72-5.18 6.85-5.18h4.73c-.18-2.49-1.6-3.89-4.41-3.89a8.05 8.05 0 00-4.75 1.72l-1.55-3a11.15 11.15 0 016.79-2.17c4.98-.01 7.72 2.81 7.72 7.4zm-3.78 5v-2.24h-4.21c-2.6 0-3.37 1.24-3.37 2.36s.79 2.34 2.75 2.34a6.47 6.47 0 004.83-2.52zM181.4 14.18V3.42h3.77v25.92h-3.77v-2.07a6.55 6.55 0 01-5.4 2.52c-4.82 0-8.62-3.79-8.62-9.07s3.8-9.07 8.62-9.07a6.55 6.55 0 015.4 2.53zm-10.17 6.54c0 3 2 5.53 5.2 5.53s5.21-2.38 5.21-5.53-2.09-5.53-5.21-5.53-5.2 2.51-5.2 5.53zM206 20.7c0 .49 0 1-.08 1.41h-12.71a4.87 4.87 0 005.13 4.39 8.29 8.29 0 005-1.82l1.87 2.68a10.4 10.4 0 01-7.1 2.43c-5.16 0-8.82-3.6-8.82-9.07s3.51-9.07 8.59-9.07c4.82 0 8.12 3.67 8.12 9.05zm-12.81-1.46h8.95c-.41-2.68-2-4.25-4.37-4.25-2.65.01-4.15 1.73-4.55 4.25zM221.78 12.13l-.9 3.73a6.68 6.68 0 00-2.87-.63c-2.39 0-4.1 1.69-4.1 4.62v9.49h-3.77V12.1h3.73V14a5.77 5.77 0 015-2.39 7.6 7.6 0 012.91.52z"/><circle cx="66.29" cy="4.54" r="3.25" fill="#9eca47"/><circle cx="76.03" cy="4.54" r="3.25" fill="#d73a59"/><circle class="cls-1" cx="85.78" cy="4.54" r="3.25"/><path class="cls-4" d="M11.68 12.06l-.91 3.74a6.8 6.8 0 00-2.87-.63c-2.46 0-4.12 1.77-4.12 4.65v9.52H0V12h3.74v2a5.8 5.8 0 015-2.41 7.65 7.65 0 012.94.47zM29.94 22.08H17.15a4.9 4.9 0 005.14 4.41 8.3 8.3 0 005-1.83l1.88 2.7a10.5 10.5 0 01-7.13 2.44c-5.18 0-8.85-3.62-8.85-9.11s3.52-9.12 8.62-9.12c4.84 0 8.19 3.69 8.19 9.1 0 .49 0 .97-.06 1.41zm-3.8-2.88c-.42-2.69-2-4.26-4.39-4.26-2.68 0-4.18 1.73-4.6 4.26zM48.92 19v10.34h-3.8v-2.07a6.53 6.53 0 01-5.57 2.53c-3.92 0-6.11-2.35-6.11-5.48 0-3.38 2.55-5.41 7-5.41h4.66c-.18-2.51-1.59-3.9-4.43-3.9a8.15 8.15 0 00-4.77 1.73l-1.55-3a11.17 11.17 0 016.81-2.19c5.01.02 7.76 2.86 7.76 7.45zm-3.8 3.49v-.72h-4.28c-2.57 0-3.33 1.12-3.33 2.35s.85 2.19 2.77 2.19c2.09.02 4.84-1.09 4.84-3.8zM54.66 0h3.8v29.34h-3.8zM68.19 29.34h-3.8V12h3.8zM73.23 26.6l9.62-11.14h-9.33V12h14.19v2.74l-9.46 11.17h9.64v3.43H73.23zM108.06 22.08H95.28a4.9 4.9 0 005.14 4.41 8.25 8.25 0 005-1.83l1.88 2.7a10.46 10.46 0 01-7.12 2.44c-5.19 0-8.86-3.62-8.86-9.11s3.53-9.12 8.63-9.12c4.84 0 8.19 3.69 8.19 9.1 0 .49-.04.97-.08 1.41zm-3.79-2.88c-.42-2.69-2-4.26-4.4-4.26-2.67 0-4.17 1.73-4.59 4.26z"/><path class="cls-5" d="M225.76 26.24h-1.19v3.11H224v-3.11h-1.19v-.56h3zM230.32 29.35h-.59v-3L228.65 29H228l-1-2.64v3h-.6v-3.68h.91l1.07 2.62 1.07-2.62h.91z"/></g></g></svg>