<svg xmlns="http://www.w3.org/2000/svg" class="cel-icon cel-icon-stroke-width" viewBox="0 0 46 46"><path d="M30.16 18H31c-.153 2.078-1.528 4.987-4.024 4.987-2.445 0-5.17-3.13-7.003-3.13-1.783 0-2.725 1.639-3.133 3.374H16c.127-2.444 1.655-4.987 4.151-4.987 2.445 0 5.17 3.13 7.029 3.13 1.757 0 2.598-1.638 2.98-3.374zm0 5.769H31c-.153 2.078-1.528 4.987-4.024 4.987-2.445 0-5.17-3.13-7.003-3.13-1.783 0-2.725 1.638-3.133 3.374H16c.127-2.444 1.655-4.987 4.151-4.987 2.445 0 5.17 3.13 7.029 3.13 1.757 0 2.598-1.639 2.98-3.374z" fill="#333"/></svg>