<svg xmlns="http://www.w3.org/2000/svg" class="cel-icon cel-icon-stroke-width" viewBox="0 0 46 46"><path d="M24.329 25.012l.489.482C21.98 28.314 19.485 30 16.892 30c-1.736 0-2.593-1.06-2.593-2.675 0-.723.147-1.47.44-2.217-1.1-.12-2.2-.771-2.739-1.735l.563-.41c.513.988 1.443 1.422 2.47 1.494 1.395-2.867 4.624-5.35 7.559-5.35 1.003 0 1.737.434 1.737 1.326 0 1.663-2.765 3.952-7.583 4.675-.587 1.012-1.028 2.145-1.028 2.844 0 .843.563 1.325 1.321 1.325 2.153 0 4.55-1.59 7.29-4.265zm-7.07-.747l.025.024c3.596-.506 6.31-2.482 6.31-3.808 0-.482-.464-.65-.88-.65-1.467 0-3.473 1.397-5.455 4.434zM34.318 17.757h-.6v-.625h-.624v-.601h1.224v1.226zm-1.762-.625h-1.224v-.601h1.224v.6zm-1.763 0H29.57v-.601h1.223v.6zm3.525 2.39h-.6v-1.225h.6v1.226zm0 1.766h-.6v-1.226h.6v1.226zm0 1.753h-1.224v-.6h.624v-.626h.6v1.226zm-5.287-5.91h-.624v.626h-.6v-1.226h1.224v.6zm3.525 5.91h-1.224v-.6h1.224v.6zm-1.763 0H29.57v-.6h1.223v.6zm-2.386-3.518h-.6v-1.226h.6v1.226zm0 1.765h-.6v-1.226h.6v1.226zm.624 1.753h-1.223v-1.226h.6v.625h.623v.601z" fill="#333"/></svg>