<svg xmlns="http://www.w3.org/2000/svg" class="cel-icon cel-icon-stroke-width" viewBox="0 0 46 46"><path d="M7.413 19.398h2.877C10.719 15.117 11.93 13 14.302 13c1.186 0 2.296.69 2.296 1.617 0 .595-.43 1.07-1.06 1.07-.505 0-1.034-.261-1.034-.784 0-.571.227-.619.227-.928 0-.166-.227-.285-.53-.285-.43 0-.783.142-1.01.428-.68.88-.807 3.734-.807 5.28h3.003v.737h-3.028c-.025 3.71-.732 9.774-1.287 11.13-.681 1.593-1.565 2.307-2.902 2.307-1.186 0-2.17-.69-2.17-1.641 0-.642.379-1.07 1.06-1.07.555 0 .984.333.984.856 0 .214-.025.404-.152.642-.1.166-.126.262-.126.333.026.19.227.31.53.31 1.16 0 1.741-1.357 1.741-4.139 0-1.023-.05-2.901-.05-3.544 0-1.57.075-3.091.202-5.184H7.413v-.738zM24.46 33.62l-.303.38c-3.986-2.14-6.156-6.16-6.156-10.203 0-4.4 2.195-7.824 6.232-10.084l.227.381c-3.507 2.83-4.29 5.042-4.29 9.632 0 4.424.758 7.11 4.29 9.894z" fill="#333"/><path d="M34.279 29.79h-5.072v-.356c.833-.048 1.01-.143 1.01-.571a.685.685 0 00-.152-.428l-2.296-3.33-1.994 2.926c-.353.523-.504.808-.504.975 0 .309.277.428 1.009.428v.357H22.62v-.357c.833-.072 1.136-.238 1.842-1.213l2.877-3.924-2.372-3.425c-.782-1.118-1.186-1.427-1.943-1.427h-.227v-.357h5.223v.357c-.757.024-1.085.167-1.085.523 0 .31.429 1.094 1.16 2.117.127.166.253.31.354.476.252-.31.505-.69.757-1.047.555-.832.933-1.26.933-1.546 0-.333-.252-.475-1.009-.523v-.357h3.987v.357a2.643 2.643 0 00-2.044 1.046l-2.094 2.854 3.23 4.662c.706 1.022 1.286 1.427 2.069 1.427v.357z" fill="#333"/><path d="M32.54 14.094l.303-.38C36.703 15.902 39 19.873 39 23.916c0 4.4-2.22 7.777-6.233 10.084l-.227-.38c3.583-2.783 4.29-5.019 4.29-9.632 0-4.448-.63-7.183-4.29-9.894z" fill="#333"/></svg>