<svg xmlns="http://www.w3.org/2000/svg" class="cel-icon cel-icon-stroke-width" viewBox="0 0 46 46"><path d="M28.635 26.2l.365.289C27.226 28.556 26.574 29 25.348 29c-.652 0-1.226-.356-1.226-1.2 0-.222.052-.511.417-1.667l1.148-3.6c.209-.689.365-1.489.365-1.755 0-.4-.235-.645-.626-.645-1.043 0-2.217 1.09-3.86 3.156-1.175 1.489-1.383 2-2.61 5.511H17l2.504-7.778a1.68 1.68 0 00.052-.378c0-.444-.365-.577-1.695-.6v-.355c2.113-.356 2.843-.445 4.226-.689l.104.044-1.747 4.845C23.052 20.333 24.8 19 26.47 19c1.121 0 1.695.556 1.695 1.356 0 .4-.104.866-.26 1.333L26.442 26.2c-.26.8-.365 1.178-.365 1.356 0 .2.105.4.418.4.365 0 .834-.356 1.591-1.178.183-.178.365-.378.548-.578z" fill="#333"/></svg>