<svg xmlns="http://www.w3.org/2000/svg" class="cel-icon cel-icon-stroke-width" viewBox="0 0 46 46"><path d="M23.892 19.302l-.69 2.322C24.487 19.743 25.842 19 27.268 19 29.026 19 30 20.091 30 21.902c0 3.832-3.589 7.593-7.058 7.593a3.403 3.403 0 01-1.64-.394c-.404 1.625-.951 3.529-.951 3.854 0 .51.357.674 1.474.674V34H17v-.371c1.022-.024 1.33-.372 1.616-1.463l2.733-10.031c.262-.93.38-1.533.38-1.649 0-.557-.665-.627-1.045-.627h-.523l-.048-.348L23.821 19c.071 0 .119.046.119.093 0 0-.024.116-.048.209zm3.97 2.67c0-1.323-.405-1.974-1.474-1.974-1.26 0-2.662 1.254-3.209 2.647-.69 1.742-1.545 4.737-1.545 5.527 0 .51.476.882 1.141.882 1.26 0 2.4-.766 3.446-2.206 1.141-1.555 1.64-3.25 1.64-4.876z" fill="#333"/></svg>