<svg xmlns="http://www.w3.org/2000/svg" class="cel-icon cel-icon-stroke-width" viewBox="0 0 24 24"><path d="M21.702 5.185a.254.254 0 00.255-.252v-.757a.762.762 0 00-.766-.757H7.914l-.184-.077L6.359 1.94a1.798 1.798 0 00-1.287-.54H2.078C.93 1.401-.001 2.321-.001 3.456v12.837c0 .469.188.918.523 1.25s.79.518 1.264.517h.255a.254.254 0 00.255-.252V8.216c0-1.673 1.372-3.029 3.064-3.029H21.7z"/><path d="M22.213 6.952A1.779 1.779 0 0124 8.719v12.116a1.78 1.78 0 01-1.787 1.767H5.873a1.779 1.779 0 01-1.787-1.767V8.719a1.78 1.78 0 011.787-1.767zM10.816 10.94a.687.687 0 00-.348.597v6.289a.687.687 0 00.945.636l6.383-3.191a.688.688 0 000-1.176l-6.289-3.144a.686.686 0 00-.691-.008z"/></svg>