<svg xmlns="http://www.w3.org/2000/svg" class="cel-icon cel-icon-stroke-width" viewBox="0 0 24 24"><path d="M2.5 17.5a2.5 2.5 0 110 5 2.5 2.5 0 010-5zm20.47 1.502c.569 0 1.03.448 1.03 1s-.461 1-1.03 1H8.031c-.569 0-1.03-.448-1.03-1s.461-1 1.03-1zM2.5 9.5a2.5 2.5 0 110 5 2.5 2.5 0 010-5zm20.47 1.502c.569 0 1.03.448 1.03 1s-.461 1-1.03 1H8.031c-.569 0-1.03-.448-1.03-1s.461-1 1.03-1zM2.5 1.5a2.5 2.5 0 110 5 2.5 2.5 0 010-5zm20.47 1.502c.569 0 1.03.448 1.03 1s-.461 1-1.03 1H8.031c-.569 0-1.03-.448-1.03-1s.461-1 1.03-1z"/></svg>