<svg xmlns="http://www.w3.org/2000/svg" class="cel-icon cel-icon-stroke-width" viewBox="0 0 24 24"><path d="M9.882 11.166h2.597v1.67H9.882v-1.67zm-4.545 0h2.596v1.67H5.337v-1.67zm12.294-4.145a.12.12 0 00.134-.068 3.235 3.235 0 011.329-1.467.12.12 0 00.06-.103v-.407a3.573 3.573 0 00-3.569-3.569H3.569A3.573 3.573 0 000 4.976v14.047a3.573 3.573 0 003.569 3.569h12.016a3.573 3.573 0 003.569-3.569v-.54a.118.118 0 00-.06-.103 3.23 3.23 0 01-1.329-1.465c-.022-.052-.078-.076-.134-.069a.12.12 0 00-.095.117v2.06c0 1.076-.874 1.95-1.95 1.95H3.57a1.951 1.951 0 01-1.95-1.95v-6.188h1.77v-1.67H1.62v-6.19c0-1.075.874-1.949 1.95-1.949h12.016c1.076 0 1.95.874 1.95 1.949v1.928c0 .057.04.105.095.117zm-8.43 7.689l.156.316a1.923 1.923 0 001.735 1.077c.298 0 .587-.067.855-.201l4.3-2.122-2.508-1.313-4.538 2.242zm11.897-7.307c.959 0 1.741.636 1.741 1.417 0 .779-.781 1.413-1.741 1.413-.958 0-1.739-.634-1.739-1.413 0-.781.781-1.417 1.739-1.417zm0 9.06c-.958 0-1.739-.636-1.739-1.416 0-.781.781-1.414 1.739-1.414.959 0 1.741.633 1.741 1.414 0 .78-.781 1.416-1.741 1.416zm.024-3.992l-.201.006c-.332 0-.612-.043-.789-.121-.085-.038-.186-.097-.202-.106l-.218-.115.759-.372c.235-.109.536-.241.608-.263.117-.035.513-.13.726-.182l.06-.019.045-.004.046-.012c1.223-.334 2.045-1.324 2.045-2.463 0-1.421-1.301-2.578-2.902-2.578-1.6 0-2.9 1.156-2.9 2.578 0 .461.139.912.401 1.306l-1.407.691-4.913-2.569a1.938 1.938 0 00-2.619.821l-.164.314 8.929 4.665c-.15.317-.227.655-.227 1 0 1.42 1.301 2.577 2.9 2.577 1.601 0 2.902-1.157 2.902-2.577 0-1.401-1.277-2.551-2.878-2.576zm-3.896.352a.77.77 0 11.768-.769.77.77 0 01-.768.769z"/></svg>