<svg xmlns="http://www.w3.org/2000/svg" class="cel-icon cel-icon-stroke-width" viewBox="0 0 24 24"><path d="M13.585 12v.005a2.65 2.65 0 01-.781 1.883l-9.61 9.61a1.78 1.78 0 01-2.518-2.519l8.802-8.802a.251.251 0 000-.356L.676 3.019A1.78 1.78 0 013.195.501l9.61 9.61c.482.482.781 1.148.781 1.883V12z"/><path d="M23.825 12v.005a2.65 2.65 0 01-.781 1.883l-9.61 9.61a1.78 1.78 0 01-2.518-2.519l8.802-8.802a.251.251 0 000-.356l-8.802-8.802A1.78 1.78 0 0113.435.501l9.61 9.61c.482.482.781 1.148.781 1.883V12z"/></svg>