<svg xmlns="http://www.w3.org/2000/svg" class="cel-icon cel-icon-stroke-width" viewBox="0 0 24 24"><path d="M16.187 3.505a.515.515 0 00-.708 0L4.062 14.922a.5.5 0 000 .708l4.282 4.282a.5.5 0 00.708 0L20.469 8.497a.5.5 0 000-.708zM2.995 16.709a.501.501 0 00-.828.197l-.001.004-2.141 6.422a.5.5 0 00.12.512.507.507 0 00.516.12l-.004.001 6.422-2.14a.5.5 0 00.2-.829zM22.97 1.01c-.647-.619-1.527-.999-2.495-.999s-1.847.381-2.496 1.001l.001-.001-.712.713a.5.5 0 000 .708l4.281 4.282a.5.5 0 00.708 0l.714-.717c.636-.639 1.03-1.52 1.03-2.492s-.393-1.854-1.03-2.493z"/></svg>