<svg xmlns="http://www.w3.org/2000/svg" class="cel-icon cel-icon-stroke-width" viewBox="0 0 24 24"><path d="M3.204 5.608h.502q.106-.291.264-.607t.37-.66q.238-.343.449-.528t.396-.211q.106 0 .225-.013t.277-.04h.845v7.317q0 .132-.026.238t-.053.185q-.053.106-.132.172t-.211.119q-.079.026-.185.053t-.291.026q-.158.026-.304.04t-.225.013v.528h5.177v-.528q-.132 0-.264-.026t-.291-.053-.277-.053-.198-.079q-.106-.053-.198-.119t-.119-.145q-.053-.106-.066-.211t-.013-.211V3.551h.819q.158.026.291.04t.238.013q.185.026.396.211t.423.528.383.66.251.607h.528V2.969H3.204V5.61zm17.645-1.664L4.103 20.69l-.792-.792L20.057 3.152zM11.023 15.09h9.932v1.453h-9.932V15.09zm6.339-2.799q0 .555-.396.964t-.977.409-.977-.409-.396-.964q0-.581.396-.977t.977-.396.977.396.396.977zm0 7.026q0 .581-.396.991t-.977.409-.977-.409-.396-.991q0-.555.396-.964t.977-.409.977.409.396.964z"/></svg>