<svg xmlns="http://www.w3.org/2000/svg" class="cel-icon cel-icon-stroke-width" viewBox="0 0 24 24"><path d="M3.173 19.751q-.027-.215-.04-.982t-.04-2.086q0-1.319.404-2.328t1.265-1.709q.404-.35.888-.538t1.05-.188q.538-.027 1.171.135t1.305.511q.35.135.713.256t.74.202q.404.054.74 0t.632-.269q.35-.269.565-.7t.296-.996q.081-.592.094-.996t.013-.673q0-.135.027-.619t.081-1.346q.081-.834.471-1.507t1.09-1.157q.565-.35 1.225-.458t1.44.054q.754.135 1.655.565t1.951 1.103L19.94 7.72q-.754-.511-1.413-.848t-1.225-.498q-.538-.188-.969-.161t-.727.215q-.296.215-.484.565t-.242.834q-.081.457-.094.821t.013.606q0 .108-.04.646t-.121 1.453q-.081.942-.471 1.682T13.05 14.34q-.431.323-.928.498t-1.063.175q-.592 0-1.238-.175t-1.346-.498q-.457-.215-.848-.323t-.713-.108q-.323-.027-.579.054t-.471.215q-.458.377-.7 1.036t-.269 1.574-.013 1.574.067 1.063l-1.776.323z"/></svg>