<svg xmlns="http://www.w3.org/2000/svg" class="cel-icon cel-icon-stroke-width" viewBox="0 0 24 24"><path d="M12 0C5.373 0 0 5.373 0 12s5.373 12 12 12 12-5.373 12-12A12.003 12.003 0 0012 0zm8.737 16.297H17.13c.147-.994.242-1.996.285-3h4.237a9.627 9.627 0 01-.915 3zm-14.16-5.25H2.295a9.646 9.646 0 01.803-3h3.75a27.401 27.401 0 00-.27 3zm2.521-3h5.805c.145.994.236 1.996.27 3H8.828c.034-1.004.125-2.006.27-3zm-6.75 5.25h4.238c.043 1.004.138 2.006.285 3H3.264a9.627 9.627 0 01-.915-3zm6.487 0h6.33a24.955 24.955 0 01-.308 3H9.142a25.16 25.16 0 01-.308-3zm8.587-2.25a27.4 27.4 0 00-.255-3h3.75c.428.95.699 1.963.802 3h-4.297zm2.093-5.249h-2.752a18.295 18.295 0 00-.878-2.738A9.756 9.756 0 0119.5 5.798h.015zm-6.562-3.503a11.443 11.443 0 011.5 3.503H9.57a11.448 11.448 0 011.5-3.502c.293-.045.607-.045.93-.045s.638 0 .953.045zm-4.838.75a18.31 18.31 0 00-.877 2.752H4.5A9.743 9.743 0 018.115 3.06v-.015zM4.8 18.547h2.52c.19.81.441 1.605.75 2.377a9.75 9.75 0 01-3.27-2.377zm6.21 3.15a11.197 11.197 0 01-1.365-3.15h4.71a11.197 11.197 0 01-1.365 3.15 9.36 9.36 0 01-1.98 0zm4.905-.75c.309-.773.56-1.567.75-2.377H19.2a9.749 9.749 0 01-3.285 2.355v.023z"/></svg>