<svg xmlns="http://www.w3.org/2000/svg" class="cel-icon cel-icon-stroke-width" viewBox="0 0 24 24"><path d="M6 17a1 1 0 011 1v5a1 1 0 01-1 1H1a1 1 0 01-1-1v-5a1 1 0 011-1h5zm8.5 0a1 1 0 011 1v5a1 1 0 01-1 1h-5a1 1 0 01-1-1v-5a1 1 0 011-1h5zm8.5 0a1 1 0 011 1v5a1 1 0 01-1 1h-5a1 1 0 01-1-1v-5a1 1 0 011-1h5zM6 8.5a1 1 0 011 1v5a1 1 0 01-1 1H1a1 1 0 01-1-1v-5a1 1 0 011-1h5zm8.5 0a1 1 0 011 1v5a1 1 0 01-1 1h-5a1 1 0 01-1-1v-5a1 1 0 011-1h5zm8.5 0a1 1 0 011 1v5a1 1 0 01-1 1h-5a1 1 0 01-1-1v-5a1 1 0 011-1h5zM6 0a1 1 0 011 1v5a1 1 0 01-1 1H1a1 1 0 01-1-1V1a1 1 0 011-1h5zm8.5 0a1 1 0 011 1v5a1 1 0 01-1 1h-5a1 1 0 01-1-1V1a1 1 0 011-1h5zM23 0a1 1 0 011 1v5a1 1 0 01-1 1h-5a1 1 0 01-1-1V1a1 1 0 011-1h5z"/></svg>