<svg xmlns="http://www.w3.org/2000/svg" class="cel-icon cel-icon-stroke-width" viewBox="0 0 48 48"><defs><linearGradient x1="50%" y1="0%" x2="50%" y2="100%" id="a"><stop stop-color="#1F9450" offset="0%"/><stop stop-color="#0F6633" offset="100%"/></linearGradient></defs><g fill-rule="nonzero" fill="none"><path fill="#FFF" d="M0 0h48v48H0z"/><path fill="url(#a)" d="M0 0h48v48H0z"/><path d="M29.168 35.45l-.055.05c-1.752 1.56-3.65 2.361-5.642 2.373h-.048c-2.037 0-3.955-.858-5.862-2.626a21.928 21.928 0 01-2.678-3.025 108.819 108.819 0 001.665-1.632l.239-.243.431-.431c.041-.041.087-.085.13-.123l.015.022c.79 1.144 1.506 1.995 2.245 2.685 1.017.943 2.228 1.947 3.78 1.947.938-.003 1.868-.353 2.846-1.076a14.192 14.192 0 002.108 1.627c.214.132.435.255.655.37.058.027.113.057.171.083zm15.244-11.547c1.339-.127 2.517.171 3.588.718v4.012l-.038-.033a8.561 8.561 0 00-.591-.476l-.02-.014-.09-.064-.045-.032-.075-.05-.057-.038a3.76 3.76 0 01-.074-.047l-.056-.035a4.305 4.305 0 00-.087-.053l-.042-.024-.111-.062a4.082 4.082 0 00-.872-.357c-.712-.195-1.424-.099-2.083.193-.047.02-.093.042-.138.065l-.07.034c-.111.066-.315.24-.422.244l-.044.03c-.242.162-.476.337-.703.52-.28.232-.546.48-.804.73l-.394.389-.047.048c-1.354 1.355-2.684 2.812-4.218 3.97l-.117.09a6.63 6.63 0 01-.214.155l-.06.04-.187.127c-.143.095-.29.186-.438.273l-.01.006a7.91 7.91 0 01-.358.198c-.071.037-.143.075-.216.11-.04.02-.083.038-.125.058l-.151.07-.035.013c-.071.031-.144.059-.217.088l-.081.032-.054.022-.085.028.092-.034c-.8.289-1.631.404-2.456.359.79.049 1.589-.054 2.364-.325-.872.312-1.797.45-2.724.308-.751-.067-1.46-.297-2.131-.622l.01.003-.096-.046a.018.018 0 00.005.004c-.007-.004-.016-.007-.023-.012a4.82 4.82 0 01-.113-.055c-.037-.018-.074-.038-.11-.057a5.32 5.32 0 01-.16-.086l-.05-.026c-1.15-.641-2.136-1.525-3.072-2.465l-.007-.006c-.43-.416-.837-.853-1.25-1.286.087.09.173.18.26.268l-.36-.373.1.105c-.204-.212-.41-.423-.617-.632l-.32-.315-.26-.253a17.889 17.889 0 00-1.015-.902 7.858 7.858 0 00-1.1-.78c-.525-.272-1.086-.43-1.683-.38-.663.056-1.253.286-1.796.615a8.544 8.544 0 00-.882.647 17.46 17.46 0 01-.084.07l.084-.07c-.345.298-.666.615-.956.915-.539.542-1.078 1.085-1.623 1.623-.88.883-1.779 1.778-2.775 2.522a9.45 9.45 0 01-1.51.946 7.034 7.034 0 01-.414.187c.137-.058.271-.122.404-.188a6.586 6.586 0 01-2.767.672 6.323 6.323 0 002.146-.399 5.986 5.986 0 01-1.74.399c-1.635.218-3.376-.542-4.679-1.462C2.07 32.906 1.022 31.853 0 30.806v-.037c.253.267.508.53.764.788-.257-.26-.51-.525-.764-.791V26.1l.133.115.039.035c.156.14.31.282.462.427l.021.02c1.34 1.272 2.557 2.67 3.98 3.854.046.039.092.075.139.113l.045.036c.012.01.023.02.035.028.593.46 1.24.835 1.953.981a3.71 3.71 0 01-.675-.202 3.348 3.348 0 001.284.27h.031c.045 0 .092-.002.138-.004.786-.04 1.476-.376 2.114-.828.006-.005.013-.008.018-.013l.095-.068.05-.038c.068-.05.134-.102.2-.155.055-.042.107-.086.16-.13l.095-.078.172-.147.076-.067.19-.17v-.001a2.382 2.382 0 01.072-.066l.2-.187.005-.005c.324-.307.64-.622.962-.93.697-.667 1.4-1.326 2.095-1.994a26.868 26.868 0 01.243-.231c.606-.582 1.235-1.139 1.94-1.597a7.37 7.37 0 011.569-.79c.128-.048.258-.092.391-.133l.046-.012a5.2 5.2 0 01.638-.154c.006 0 .011-.002.016-.003a5.887 5.887 0 011.81-.052 5.885 5.885 0 00-1.103-.029c1.424-.074 2.778.39 4.028 1.154a9.07 9.07 0 00-.395-.24c.945.526 1.8 1.219 2.579 1.973.427.41.84.837 1.252 1.266.294.302.581.602.864.894l.236.242.174.176c.364.364.768.764 1.207 1.132a11.432 11.432 0 01-.227-.185c.623.554 1.306 1.046 2.058 1.31-.66-.238-1.273-.656-1.831-1.125.27.215.55.416.84.6.606.368 1.248.679 1.96.723.975.053 1.844-.462 2.594-1.035a11.643 11.643 0 00.305-.24c.657-.538 1.26-1.137 1.874-1.723 1.276-1.22 2.501-2.586 3.958-3.603l.093-.065c.04-.028.08-.053.12-.08l.184-.121.01-.006c.071-.045.143-.088.215-.13.024-.014.047-.03.072-.044.274-.159.555-.296.842-.413-.116.05-.23.1-.343.155.355-.166.719-.3 1.09-.4a6.03 6.03 0 00-.747.245 5.98 5.98 0 011.761-.452zM44.36 0c-.502 1.943-.915 3.484-.915 3.484-1.541 5.602-3.401 11.683-5.741 17.48-1.114 2.77-2.663 6.374-4.82 9.784h-.003c-.078.017-.15.026-.227.03-.038.006-.074.006-.113.006-.297 0-.618-.08-.956-.236-.608-.285-1.146-.684-1.664-1.15a2.023 2.023 0 01-.133-.124c.116-.18.234-.362.34-.53 1.911-2.99 3.3-6.238 4.516-9.305C36.807 13.99 38.758 7.925 40.729.506c.003.001.035-.116.133-.506h3.497zM5.98 0c.136.571.222.924.224.923 1.49 5.549 3.441 12.188 5.972 18.574.66 1.659 1.464 3.614 2.41 5.548-.05.036-.094.077-.14.117-.53.456-1.027.94-1.51 1.411a53.54 53.54 0 01-.942.904l-.022-.045c-1.111-2.183-2.044-4.473-2.808-6.425A176.581 176.581 0 013.357 3.495l-.011.008c-.31-1.16-.608-2.327-.897-3.503h3.53z" fill="#FFF"/></g></svg>