<svg xmlns="http://www.w3.org/2000/svg" class="cel-icon cel-icon-stroke-width" viewBox="0 0 24 24"><path d="M23.367 7.835l-.797-.553-.675 1.041-1.163-.736.675-1.041-.736-.488-.98 1.533-5.517-3.614.98-1.533-.736-.492-.675 1.041-1.163-.736.675-1.041-.736-.431-4.631 7.172h-.759c-.675 0-1.35.492-1.594 1.102l-.492 1.223H2.962a2.327 2.327 0 00-2.33 2.33v8.273a2.327 2.327 0 002.33 2.33h12.989a2.327 2.327 0 002.33-2.33v-5.25l.492-.75 4.594-7.05zm-3.065.366l1.162.736-.675 1.041-1.163-.736.675-1.041zm-.061 2.639l-.675 1.041-1.162-.736.675-1.041 1.163.736zm-1.346-2.086l-1.373 2.119c-.403-.38-.933-.614-1.505-.586h-2.081l-.492-1.223c-.244-.614-.919-1.102-1.594-1.102h-.295l1.828-2.817 5.513 3.609zm-6.74-5.883l1.162.736-.675 1.041-1.163-.736.675-1.041zM10.927 4.83l1.162.736-.67 1.045-1.163-.736.67-1.045zm-1.96 2.944l.675-1.041 1.163.736-.319.492H9.258l-.291-.188zm.488 13.055a4.106 4.106 0 114.106-4.106c0 2.268-1.837 4.167-4.106 4.106zm8.793-8.536l.708.445-.675 1.041v-1.162c0-.112-.019-.216-.033-.323zm-6.154 4.43c0 1.472-1.163 2.634-2.634 2.634s-2.634-1.163-2.634-2.634a2.613 2.613 0 012.634-2.634 2.612 2.612 0 012.634 2.634z"/></svg>