<svg xmlns="http://www.w3.org/2000/svg" class="cel-icon cel-icon-stroke-width" viewBox="0 0 24 24"><path d="M12 0C5.384 0 0 5.384 0 12s5.383 12 12 12c6.616 0 12-5.383 12-12S18.616 0 12 0zm9.61 17.009l-3.095-1.83c-.171.35-.367.685-.59 1l3.092 1.829a10.921 10.921 0 01-3.369 3.24l-.638-1.111a10.44 10.44 0 01-.509.28l.645 1.121a10.759 10.759 0 01-4.702 1.291V21.44a4.9 4.9 0 01-.442.021c-.253 0-.448-.019-.777-.037v1.387a10.756 10.756 0 01-4.426-1.304l.727-1.248a9.624 9.624 0 01-.496-.301l-.732 1.256a10.916 10.916 0 01-3.394-3.326l1.252-.763a10.403 10.403 0 01-.302-.496l-1.254.765a10.752 10.752 0 01-1.408-4.573h1.433c-.017-.234-.036-.467-.036-.703 0-.156.016-.469.023-.469H1.167a10.764 10.764 0 011.361-4.913l1.165.689c.09-.171.191-.336.291-.502l-1.161-.686A10.94 10.94 0 016.35 2.753l.625 1.088c.163-.105.327-.206.496-.302l-.619-1.077a10.756 10.756 0 014.371-1.273v1.154c.328-.019.524-.037.777-.037.14 0 .442.015.442.021V1.172A10.78 10.78 0 0117.2 2.494l-.543.932c.171.091.335.193.5.294l.544-.934a10.927 10.927 0 013.394 3.326l-.904.551c.106.162.206.328.301.496l.907-.553a10.776 10.776 0 011.433 5.041h-1.111c.007 0 .023.313.023.469 0 .236-.018.468-.035.703h1.098a10.77 10.77 0 01-1.198 4.189zM9.633 13.306c.32-.377.585-.705.794-.982s.369-.516.478-.718c.215-.387.322-.783.322-1.186 0-.634-.23-1.165-.691-1.594-.458-.429-1.025-.643-1.7-.643-1.399 0-2.188.781-2.367 2.343h1.114c.109-.886.538-1.33 1.287-1.33.359 0 .66.117.903.35s.365.523.365.869c0 .24-.091.511-.273.811-.09.154-.22.344-.391.571s-.384.496-.636.806l-2.573 3.116h4.978v-1.052h-2.76l1.152-1.364zm5.487-5.122c-.701 0-1.298.319-1.79.955-.551.704-.826 1.647-.826 2.828 0 1.242.275 2.215.826 2.919.499.637 1.097.955 1.796.955s1.293-.318 1.786-.955c.55-.704.826-1.661.826-2.871 0-1.213-.276-2.172-.826-2.876-.493-.637-1.09-.955-1.791-.955zm1.091 5.838c-.288.534-.65.802-1.088.802-.44 0-.803-.267-1.088-.802-.285-.544-.427-1.227-.427-2.05 0-.79.144-1.45.432-1.978.287-.531.648-.797 1.083-.797.438 0 .801.266 1.088.797.287.535.432 1.207.432 2.016s-.144 1.48-.432 2.012z"/></svg>