<svg xmlns="http://www.w3.org/2000/svg" class="cel-icon cel-icon-stroke-width" viewBox="0 0 24 24"><path d="M12 0C5.384 0 0 5.384 0 12s5.384 12 12 12c6.617 0 12-5.383 12-12S18.616 0 12 0zm5.648 21.248l-.638-1.111a10.44 10.44 0 01-.509.28l.644 1.121a10.754 10.754 0 01-4.832 1.296V21.44c0 .006-.268.021-.407.021-.252 0-.492-.019-.742-.037v1.384a10.757 10.757 0 01-4.367-1.3l.727-1.248a9.624 9.624 0 01-.496-.301l-.732 1.256a10.916 10.916 0 01-3.394-3.326l1.252-.763a10.403 10.403 0 01-.302-.496l-1.254.765a10.77 10.77 0 01-1.41-4.595h1.434c-.017-.3-.035-.456-.035-.691 0-.156.016-.457.023-.457H1.164c.057-1.779.544-3.45 1.361-4.914l1.165.689c.09-.171.191-.336.291-.502L2.82 6.239a10.94 10.94 0 013.527-3.484l.625 1.088c.163-.105.327-.206.496-.302L6.85 2.464a10.756 10.756 0 014.311-1.269v1.15c.25-.019.489-.037.742-.037.139 0 .407.015.407.021v-1.16c1.767.05 3.429.526 4.888 1.327l-.543.933c.171.091.335.193.5.294l.544-.934a10.921 10.921 0 013.233 3.085l-3.068 1.872c.227.312.43.642.606.99l3.068-1.872a10.783 10.783 0 011.292 4.789h-1.111c.008 0 .024.301.024.457 0 .236-.019.392-.035.691h1.1a10.765 10.765 0 01-1.338 4.467l-1.014-.6a8.625 8.625 0 01-.302.496l1.019.602a10.927 10.927 0 01-3.527 3.483z"/></svg>