<svg xmlns="http://www.w3.org/2000/svg" class="cel-icon cel-icon-stroke-width" viewBox="0 0 24 24"><path d="M8 5h15a1 1 0 000-2H8a1 1 0 000 2zM23 11H8a1 1 0 000 2h15a1 1 0 000-2zM23 19H8a1 1 0 000 2h15a1 1 0 000-2zM1.96 17.002c-.906 0-1.699.609-1.933 1.484a.75.75 0 001.45.386.5.5 0 11.483.63.75.75 0 000 1.5.5.5 0 01.089.992.5.5 0 01-.572-.357.747.747 0 00-1.268-.342.751.751 0 00-.177.742 2 2 0 103.588-1.648.251.251 0 010-.278A1.998 1.998 0 001.958 17v.002zM4.001 11a2 2 0 10-4 0 .75.75 0 001.5 0 .5.5 0 011 0c0 .235-.08.462-.227.645L.165 14.281A.751.751 0 00.751 15.5h2.5a.75.75 0 000-1.5h-.419a.248.248 0 01-.195-.406l.814-1.012c.357-.45.55-1.008.55-1.582zM3.25 5H3a.25.25 0 01-.25-.248V1.375A1.377 1.377 0 001.375 0H.75a.75.75 0 000 1.5H1c.067 0 .131.027.177.074s.073.111.073.178v3a.25.25 0 01-.25.25H.75a.75.75 0 000 1.5h2.5a.75.75 0 000-1.5V5z"/></svg>