<svg xmlns="http://www.w3.org/2000/svg" class="cel-icon cel-icon-stroke-width" viewBox="0 0 24 24"><path d="M16.258 3.43l1.005 1.032q.053.053.053.145t-.053.145-.145.053-.145-.053l-.952-1.032-1.243 1.243.529.529q.053.053.053.145t-.053.145q-.079.053-.159.053t-.132-.053l-.529-.529-1.243 1.243 1.032 1.032q.053.053.053.145t-.053.145-.145.053-.145-.053l-1.032-1.032-1.243 1.27.503.503q.053.053.053.145t-.053.145-.145.053-.145-.053l-.503-.503L10.31 9.43l1.032 1.032q.053.053.053.145t-.053.145-.145.053-.145-.053L10.02 9.72l-1.164 1.164.503.529q.053.053.053.145t-.053.145-.145.053-.145-.053l-.503-.503-1.243 1.164 1.032 1.032q.053.053.053.145t-.053.145-.145.053-.145-.053l-1.032-1.032-1.243 1.243.503.503q.053.053.053.145t-.053.145-.145.053-.145-.053l-.503-.503-1.243 1.243 1.005 1.032q.079.053.079.145t-.079.145q-.053.053-.145.053t-.145-.053L3.967 15.72l-.899.873 3.597 3.597L20.657 6.198 17.06 2.627l-.793.793z"/></svg>