<svg xmlns="http://www.w3.org/2000/svg" viewBox="0 0 25 24"><path d="M2.761 4.132c-.17.71-.37 1.54-.59 2.48-.23.94-.45 1.95-.68 3.01-.23 1.06-.44 2.14-.64 3.26-.2 1.12-.38 2.21-.52 3.27a39 39 0 00-.3 3.02c-.05.94-.04 1.77.03 2.49l.01.07c.01.1.01.16.02.22.08.36.26.71.61.92.35.21.74.21 1.1.13.24-.05.48-.14.72-.26h.01l1.93-1.04.31-.17.22-.11-.12-.22-.17-.31c-.13-.23-.24-.49-.33-.76a8.49 8.49 0 01-.45-2.21c-.02-.32-.03-.64-.02-.95l7.21-1.63 2.79 3.83.01.01c.23.31.53.57.9.7.33.11.68.11 1.02.04.47-.11.92-.32 1.35-.63.41-.29.79-.62 1.15-.97.35-.36.67-.72.96-1.09l.01-.01c.27-.36.5-.67.68-.94l.15-.21.1-.15-.11-.14-.16-.21-.65-.84-.2-.26-.14-.19-.19.13-1.9 1.29-9.26-13.63c-.15-.22-.31-.41-.47-.57-.17-.17-.36-.3-.59-.38-.23-.1-.46-.13-.69-.12h-.01c-.22 0-.45.03-.69.09l-1.35.31-.21.04-.14.04-.04.14m-.22.83c-.12.41-.26.97-.45 1.68l.45-1.68zm1.41 8.03l.51-2.54c.1-.5.2-1.03.31-1.55l4 6.25-5.32 1.2c.03-.35.06-.71.12-1.1.11-.72.23-1.47.38-2.26z" fill="currentColor"/><path d="M24.13 6.842l-.08-.57-.05-.35-.04-.25-.24.03-.35.05-3.12.45-.33-2.33c-.05-.32-.16-.68-.46-.92-.32-.27-.74-.28-1.07-.24l-.56.08-.36.04-.25.04.04.25.49 3.44-2.33.33c-.32.05-.68.15-.93.44-.28.32-.28.75-.24 1.07l.08.58.05.35.04.25.25-.04 3.44-.49.34 2.35c.04.31.15.68.43.93l.01.01c.32.27.74.28 1.06.23l.59-.08.35-.05.25-.04-.04-.25-.49-3.45 2.35-.34c.32-.05.68-.16.93-.45.27-.32.29-.74.24-1.07z" fill="currentColor"/></svg>