<svg xmlns="http://www.w3.org/2000/svg" class="cel-icon cel-icon-stroke-width" viewBox="0 0 24 24"><g fill="currentColor"><path d="M12.36 12.99a5.495 5.495 0 100-10.99 5.495 5.495 0 000 10.99zM3.165 21.45a2.272 2.272 0 100-4.543 2.272 2.272 0 000 4.543zM16.6 22.575a2.272 2.272 0 100-4.543 2.272 2.272 0 000 4.543z"/><path d="M24 20.8c-.238-2.4-1.19-4.348-1.19-4.348-1.882-3.332-7.42-3.764-7.42-3.764s-1.602 1.557-3.095 1.622c-1.492-.065-3.093-1.622-3.093-1.622s-4.63.367-6.837 2.942L1.002 8.62a.439.439 0 00-.541-.367H.396a.468.468 0 00-.39.54l1.58 7.962.065-.021.151-.065.087-.044c.108-.043.216-.086.324-.108.411-.13.736-.13 1.039-.13 1.752 0 2.812 1.385 2.812 2.921 0 1.212-.887 2.207-2.098 2.596l4.067.433-.065-6.166s2.51-.281 4.003.584v5.798h.779V16.69c1.492-.8 3.894-.54 3.894-.54l-.065 1.34.087-.02c1.536 0 2.769 1.254 2.769 2.79a2.77 2.77 0 01-.952 2.077L24 20.801zm-11.618-3.742l-.087-.065.087-.065v.13z"/></g></svg>