<svg xmlns="http://www.w3.org/2000/svg" class="cel-icon cel-icon-stroke-width" viewBox="0 0 24 24"><path d="M16.993 17.123h-.366a.146.146 0 01-.139-.1L12.825 6.294a.883.883 0 00-.832-.597h-.004a.884.884 0 00-.836.598L7.502 17.023a.148.148 0 01-.14.1h-.354a.591.591 0 00-.527.89.59.59 0 00.527.289h1.774a.588.588 0 00.59-.59.572.572 0 00-.488-.574c-.042-.008-.078-.034-.099-.071s-.026-.08-.012-.12l.903-2.657c.021-.06.077-.1.14-.1h4.353c.063 0 .119.04.14.1l.907 2.658c.013.04.009.084-.012.12s-.056.063-.097.072a.573.573 0 00-.477.572.588.588 0 00.59.59h1.774a.591.591 0 00.527-.89.59.59 0 00-.527-.289l.001-.001zm-6.675-4.113c-.048 0-.092-.023-.12-.062s-.035-.088-.02-.133l1.671-4.909c.02-.06.076-.1.14-.1s.119.04.14.1l1.676 4.908c.015.045.008.095-.02.134s-.073.061-.12.06l-3.347.002z"/></svg>