<svg xmlns="http://www.w3.org/2000/svg" class="cel-icon cel-icon-stroke-width" viewBox="0 0 52 52"><g fill="none" fill-rule="evenodd" stroke-linecap="round" stroke-linejoin="round"><path d="M49.804 25.053A23.802 23.802 0 1135.592 4.188M18.059 18.853a.794.794 0 110 1.588.794.794 0 010-1.588" stroke="currentColor" stroke-width="3.176"/><path d="M33.941 18.853a.794.794 0 110 1.588.794.794 0 010-1.588" stroke="currentColor" stroke-width="3.176"/><path d="M33.95 39.588a1.61 1.61 0 001.575-1.906 9.53 9.53 0 00-18.673 0 1.607 1.607 0 001.575 1.906 19.758 19.758 0 0115.522 0z" stroke="currentColor" stroke-width="2.824"/><path d="M49.824 12.765a5.048 5.048 0 01-4.765 5.294 5.048 5.048 0 01-4.765-5.294c0-2.925 4.765-10.589 4.765-10.589s4.765 7.664 4.765 10.589z" stroke="#026ECB" stroke-width="3.176"/></g></svg>