<svg xmlns="http://www.w3.org/2000/svg" class="cel-icon cel-icon-stroke-width" viewBox="0 0 24 24"><path d="M17.883 8.344H9V6.305q0-.14-.035-.246l-.082-.246q-.188-.352-.563-.446t-.703.094l-6 3.305q-.14.093-.234.188t-.188.234q-.164.352-.024.715t.516.527l6 2.648q.094.047.175.059t.176.011q.398 0 .68-.281t.281-.679v-1.992h8.812q1.664 0 2.425 1.043t.762 2.262q0 .679-.211 1.254t-.563 1.02q-.422.491-1.031.761t-1.383.27h-15v1.851h15.071q1.171 0 2.145-.422t1.699-1.195q.632-.727.938-1.641t.304-1.898q0-.961-.328-1.898-.328-.914-.972-1.641t-1.606-1.171q-.938-.446-2.179-.446z"/></svg>