<svg xmlns="http://www.w3.org/2000/svg" class="cel-icon cel-icon-stroke-width" viewBox="0 0 46 46"><path d="M19.124 29h-6.948v-.355c1.863-.095 2.392-.592 2.392-1.893V16.123c0-.804-.227-1.16-.756-1.16-.251 0-.68.119-1.132.284l-.68.237v-.331L16.506 13l.226.071v14.13c0 1.018.504 1.444 2.392 1.444V29zM34 29h-5.236l.026-.355c1.258-.095 1.56-.568 1.56-2.13v-4.71c0-1.68-.604-2.39-1.837-2.39-.831 0-1.435.283-2.593 1.348v6.533c0 .923.352 1.254 1.636 1.349V29h-5.311v-.355c1.284-.095 1.56-.473 1.56-1.87v-5.751c0-1.16-.176-1.539-.88-1.539-.277 0-.554.024-.73.095v-.402a48.309 48.309 0 003.448-1.066l.201.071v1.847h.026c1.308-1.397 2.466-1.918 3.624-1.918 1.913 0 2.97 1.302 2.97 3.645v5.231c0 1.278.303 1.539 1.536 1.657V29z" fill="#333"/></svg>