<svg xmlns="http://www.w3.org/2000/svg" class="cel-icon cel-icon-stroke-width" viewBox="0 0 46 46"><path d="M29 13.383c0 .692-.655 1.28-1.365 1.28-.819 0-1.474-.537-1.474-1.331 0-.769.683-1.332 1.447-1.332.737 0 1.392.666 1.392 1.383zm-.9 4.098l-2.84 10.5C24.142 32.131 22.532 34 20.157 34 18.901 34 18 33.36 18 32.438c0-.615.491-1.127 1.12-1.127.736 0 1.064.41 1.064.947 0 .564-.328.487-.328.871 0 .18.164.308.491.308 1.092 0 1.72-1.127 2.648-4.662l1.965-7.478c.328-1.255.437-1.793.437-2.049 0-.564-.327-.794-1.31-.794h-.71v-.41c.874-.051 2.32-.256 4.613-.64l.11.077z" fill="#333"/></svg>