<svg xmlns="http://www.w3.org/2000/svg" class="cel-icon cel-icon-stroke-width" viewBox="0 0 46 46"><path d="M28.66 27.031l.34.268c-1.96 2.214-2.588 2.677-3.634 2.677-.732 0-1.046-.292-1.046-.998 0-.609.052-.803.602-2.799C22.96 28.93 21.444 30 19.614 30 18.15 30 17 29.026 17 27.177 17 23.405 21 19 24.477 19c1.124 0 1.883.511 2.092 1.412l.287-1.169.079-.073 1.594-.17.183.073c-.052.219-.078.268-.156.511-1.23 4.162-2.327 8.347-2.327 8.834 0 .17.157.317.366.317.235 0 .575-.195 1.36-.998l.705-.706zm-2.562-6.084c0-.852-.549-1.412-1.464-1.412-1.177 0-2.327.755-3.425 2.24-1.098 1.533-2.013 3.699-2.013 5.232 0 1.338.627 1.8 1.569 1.8 1.307 0 2.536-1.338 3.32-2.384 1.229-1.655 2.013-3.748 2.013-5.476z" fill="#333"/></svg>