<svg xmlns="http://www.w3.org/2000/svg" class="cel-icon cel-icon-stroke-width" viewBox="0 0 46 46"><path d="M16.255 11.967h6.644c2.566 0 4.413.64 5.567 1.616.847.718 1.283 1.77 1.283 3.053 0 1.36-.513 2.514-1.462 3.36-1.488 1.334-2.745 1.565-5.49 1.565-.667 0-1.078-.025-1.77-.077v4.592c0 1.95.333 2.284 2.411 2.386v.488h-7.183v-.488c2-.154 2.155-.436 2.155-2.642V14.814c0-1.898-.257-2.206-2.155-2.36v-.487zm4.771 1.872v6.62c.59.05 1.052.076 1.565.076 2.822 0 4.362-1.462 4.362-3.771 0-2.822-1.54-3.848-5.029-3.848-.744 0-.898.23-.898.923zM38.04 27.173v1.283c.713-1.004 1.112-1.31 1.71-1.31.485 0 .785.278.785.738 0 .39-.214.628-.556.628-.186 0-.342-.07-.57-.28-.157-.139-.285-.208-.371-.208-.4 0-.998.697-.998 1.143v3.137c0 .795.243 1.004 1.212 1.046v.209h-3.42v-.21c.911-.166 1.011-.264 1.011-.961v-3.486c0-.613-.128-.836-.484-.836-.172 0-.3.014-.5.055v-.223c.842-.265 1.355-.46 2.11-.753l.071.028zM42.824 26.643h-.566v-.588h-.589v-.566h1.155v1.154zm-1.662-.588h-1.155v-.566h1.155v.566zm1.662 2.25h-.566v-1.154h.566v1.155zm-3.325-2.25h-1.154v-.566h1.154v.566zm3.325 3.913h-.566v-1.154h.566v1.154zm-4.987-3.913h-1.155v-.566h1.155v.566zm4.987 5.576h-.566v-1.155h.566v1.155zm-6.65-5.576H35.02v-.566h1.154v.566zm6.65 7.238h-.566v-1.154h.566v1.154zm0 1.65H41.67v-.565h.588v-.589h.566v1.155zm-8.312-8.888h-.589v.588h-.566V25.49h1.155v.566zm6.65 8.889h-1.155v-.566h1.155v.566zm-7.239-6.638h-.566V27.15h.566v1.155zm5.576 6.638h-1.154v-.566h1.154v.566zm-5.576-4.976h-.566v-1.154h.566v1.154zm3.914 4.976h-1.155v-.566h1.155v.566zm-3.914-3.313h-.566v-1.155h.566v1.155zm2.251 3.313H35.02v-.566h1.154v.566zm-2.25-1.651h-.566v-1.154h.565v1.154zm.588 1.65h-1.154V33.79h.565v.59h.589v.565zM11.032 33.559H8.187l.014-.21c.684-.055.848-.334.848-1.254V29.32c0-.99-.328-1.408-.998-1.408-.452 0-.78.168-1.409.795v3.848c0 .544.192.739.889.795v.209H4.646v-.21c.697-.055.847-.278.847-1.1V28.86c0-.683-.095-.906-.478-.906-.15 0-.301.014-.397.056v-.237a24.818 24.818 0 001.874-.628l.11.042v1.088h.013c.71-.823 1.34-1.13 1.969-1.13 1.04 0 1.614.767 1.614 2.148v3.08c0 .754.164.907.834.977v.209zM12.466 26.643h-.565v-.588h-.589v-.566h1.155v1.154zm-1.662-.588H9.65v-.566h1.154v.566zm1.662 2.25h-.565v-1.154h.566v1.155zm-3.324-2.25H7.987v-.566h1.155v.566zm3.325 3.913H11.9v-1.154h.566v1.154zm-4.988-3.913H6.325v-.566h1.154v.566zm4.987 5.576h-.565v-1.155h.566v1.155zm-6.65-5.576H4.663v-.566h1.155v.566zm6.65 7.238h-.565V32.14h.566v1.154zm0 1.651h-1.154v-.566h.589v-.588h.566v1.154zm-8.312-8.89h-.588v.59H3v-1.155h1.154v.566zm6.65 8.89H9.65v-.566h1.154v.566zm-7.238-6.638H3V27.15h.566v1.155zm5.576 6.638H7.987v-.566h1.155v.566zm-5.576-4.976H3v-1.154h.566v1.154zm3.913 4.976H6.325v-.566h1.154v.566zm-3.913-3.313H3v-1.155h.566v1.155zm2.25 3.313H4.663v-.566h1.155v.566zm-2.25-1.65H3v-1.155h.566v1.154zm.588 1.65H3V33.79h.566v.588h.588v.566z" fill="#333"/></svg>