<svg xmlns="http://www.w3.org/2000/svg" class="cel-icon cel-icon-stroke-width" viewBox="0 0 46 46"><path d="M29 18.71h-.717v-.872h-.746V17H29v1.71zm-2.107-.872h-1.464V17h1.464v.838zM29 21.17h-.717v-1.71H29v1.71zm-4.215-3.333h-1.463V17h1.463v.838zM29 23.632h-.717v-1.709H29v1.71zm-6.322-5.794h-1.463V17h1.463v.838zM29 26.094h-.717v-1.71H29v1.71zm-8.43-8.256h-1.463V17h1.464v.838zM29 28.556h-.717v-1.71H29v1.71zM29 31h-1.463v-.838h.746v-.871H29V31zM18.463 17.838h-.746v.871H17V17h1.463v.838zM26.893 31h-1.464v-.838h1.464V31zm-9.176-9.83H17v-1.709h.717v1.71zM24.785 31h-1.463v-.838h1.463V31zm-7.068-7.367H17v-1.71h.717v1.71zM22.678 31h-1.463v-.838h1.463V31zm-4.96-4.906H17v-1.71h.717v1.71zM20.57 31h-1.464v-.838h1.464V31zm-2.854-2.444H17v-1.71h.717v1.71zM18.463 31H17v-1.71h.717v.872h.746V31zM29 16H17v-1h12v1z" fill="#333"/></svg>