<svg xmlns="http://www.w3.org/2000/svg" class="cel-icon cel-icon-stroke-width" viewBox="0 0 24 24"><path d="M20 2c2.484.003 3.997 1.634 4 4v12c0 2.367-1.515 4-4 4H4c-2.485 0-4-1.633-4-4V6c.003-2.366 1.516-3.997 4-4zm-1.983 5.094c.571.793 1.008 1.619 1.31 2.476s.453 1.683.453 2.476c-.001.793-.136 1.619-.405 2.476s-.722 1.683-1.357 2.476c.921-.888 1.612-1.738 2.072-2.547s.69-1.612.69-2.406c.001-.794-.237-1.619-.714-2.476s-1.159-1.682-2.048-2.476zM16.303 7c.571.794.999 1.619 1.285 2.476s.429 1.682.429 2.476c.001.856-.142 1.706-.428 2.547s-.715 1.644-1.286 2.406c.888-.826 1.563-1.66 2.024-2.501s.692-1.659.691-2.452c-.001-.793-.239-1.619-.715-2.476s-1.143-1.683-2-2.476zm-3.905.523h-1.81c-.096 0-.159.032-.19.095s-.048.19-.048.381v8.144c0 .127.016.238.048.333s.096.143.19.143h1.81c1.365 0 2.437-.389 3.215-1.167s1.151-1.913 1.119-3.404c0-1.619-.389-2.778-1.166-3.477s-1.833-1.048-3.167-1.048zm-3.143 0H7.683c-.158 0-.277.048-.357.143s-.135.206-.167.333l-5.143 8.096c-.032.096-.016.191.048.286s.127.143.19.143h.857c.158 0 .277-.048.357-.143s.135-.191.167-.286l1.048-1.762h3.143v1.762c0 .096.048.191.143.286s.206.143.333.143h.762c.127 0 .246-.048.357-.143s.167-.191.167-.286V7.904c.031-.096-.001-.183-.096-.262s-.175-.119-.238-.119zm3.286 1.476c.381 0 .746.048 1.095.143s.666.302.952.619c.286.222.484.531.595.928s.166.817.167 1.262c-.032 1.048-.278 1.81-.738 2.286s-1.119.714-1.976.715h-.715V8.999h.619zm-4.477.144v3.81h-2.38l2.38-3.81z"/></svg>