<svg xmlns="http://www.w3.org/2000/svg" class="cel-icon cel-icon-stroke-width" viewBox="0 0 24 24"><path d="M16.675 12.123a.5.5 0 01.647 0l6.499 5.497a.501.501 0 01-.323.882h-1.5v4.999a.5.5 0 01-.5.5h-2.5a.5.5 0 01-.5-.5v-2.248a1.5 1.5 0 10-3 0v2.25a.498.498 0 01-.5.498h-2.5a.498.498 0 01-.5-.498v-4.999h-1.5a.5.5 0 01-.324-.882zM1.936.003l.184.002C6.478.237 8.865 1.778 10 2.824 11.135 1.778 13.522.237 17.881.005a2.056 2.056 0 011.494.556c.396.376.621.898.624 1.444v7.729a1 1 0 01-2 0V2.545a.502.502 0 00-.541-.5c-3.889.318-5.685 1.777-6.323 2.458a.496.496 0 00-.135.341v8.96a1 1 0 01-2 0V4.842a.502.502 0 00-.135-.343c-.631-.674-2.424-2.138-6.308-2.458a.5.5 0 00-.542.5L2.002 14.19a.5.5 0 00.465.5c1.747.092 3.464.496 5.069 1.192a1 1 0 01-.826 1.821c-1.523-.647-3.155-1-4.809-1.04a1.988 1.988 0 01-1.9-2V2.005A2.008 2.008 0 01.625.561 1.99 1.99 0 012.12.005z"/></svg>