<svg xmlns="http://www.w3.org/2000/svg" class="cel-icon cel-icon-stroke-width" viewBox="0 0 24 24"><path d="M20.859 16.43h.656V7.571h-.656v8.859zm-2.109 0h.68V7.571h-.68v8.859zm-2.016 0h.656V7.571h-.656v8.859zm-2.039 0h.68V7.571h-.68v8.859zm-2.015 0h.68V7.571h-.68v8.859zm-2.039 0h.68V7.571h-.68v8.859zm-2.016 0h.68V7.571h-.68v8.859zm-2.016 0h.656V7.571h-.656v8.859zm-2.039 0h.68V7.571h-.68v8.859zm-2.086 0h.656V7.571h-.656v8.859zm-2.039 0h.68V7.571h-.68v8.859zm22.43-8.86v8.859h.68V7.57h-.68z"/></svg>