<svg xmlns="http://www.w3.org/2000/svg" class="cel-icon cel-icon-stroke-width" viewBox="0 0 24 24"><path d="M23.853.149a.498.498 0 00-.434-.14h.003c-1.828.324-3.398.72-4.923 1.213l.259-.072a.507.507 0 00-.33.329l-.001.004-1.153 3.789a.251.251 0 01-.176.17h-.002a.254.254 0 01-.238-.066l-2.3-2.3a.499.499 0 00-.567-.098l.003-.001c-2.6 1.163-4.828 2.677-6.744 4.514l.008-.008c-2.575 2.576-3.811 5.018-3.673 7.273a5.556 5.556 0 001.195 3.073l-.009-.011-4.478 4.483a.997.997 0 000 1.414 1.012 1.012 0 001.414 0l10.828-10.832a.75.75 0 111.062 1.06l-5.791 5.792a.25.25 0 00.098.413h.002a6.43 6.43 0 001.781.246 6.54 6.54 0 003.651-1.106l-.024.015a16.153 16.153 0 003.207-2.553l.004-.004c5.783-5.786 7.404-15.745 7.47-16.164a.497.497 0 00-.141-.432z"/></svg>