<svg xmlns="http://www.w3.org/2000/svg" class="cel-icon cel-icon-stroke-width" viewBox="0 0 24 24"><path d="M24 18.273a.545.545 0 00-.545-.545h-8.727a.545.545 0 00-.545.545v.272a.273.273 0 01-.273.273h-3.818a.273.273 0 01-.273-.273v-.273a.545.545 0 00-.545-.545H.547a.545.545 0 00-.545.545v2.182c0 .904.733 1.636 1.636 1.636h20.727c.904 0 1.636-.733 1.636-1.636v-2.181zM12 13.27a1.408 1.408 0 11.001 2.817A1.408 1.408 0 0112 13.27zm-2.96-2.459a4.683 4.683 0 015.921 0 1.001 1.001 0 01-1.255 1.557 2.7 2.7 0 00-3.412 0A1 1 0 119.04 10.81zm-1.668-3a7.318 7.318 0 019.256 0 1 1 0 11-1.256 1.557 5.332 5.332 0 00-6.744 0 .999.999 0 11-1.256-1.556z"/><path d="M2.727 16.091c.602 0 1.091-.488 1.091-1.091V5.182c0-.602.488-1.091 1.091-1.091h14.182c.602 0 1.091.488 1.091 1.091V15a1.091 1.091 0 002.182 0V5.182a3.273 3.273 0 00-3.273-3.273H4.909a3.273 3.273 0 00-3.273 3.273V15c0 .602.488 1.091 1.091 1.091z"/></svg>