<svg xmlns="http://www.w3.org/2000/svg" class="cel-icon cel-icon-stroke-width" viewBox="0 0 48 48"><defs><linearGradient x1="0%" y1="0%" x2="0%" y2="100%" id="a"><stop stop-color="#179048" offset="0%"/><stop stop-color="#116735" offset="100%"/></linearGradient></defs><g fill="none" fill-rule="evenodd"><path fill="#FFF" fill-rule="nonzero" d="M0 0h48v48H0z"/><path fill="url(#a)" fill-rule="nonzero" d="M0 0h48v48H0z"/><path d="M13.24 33.736h-.02a1.012 1.012 0 01-.895-.581l-2.155-4.579-.347.261a1.012 1.012 0 11-1.215-1.62l1.342-1.006a1.013 1.013 0 011.523.38l1.816 3.859 6.435-12.285c.175-.333.52-.542.897-.542h18.114a1.012 1.012 0 010 2.024H21.233l-7.096 13.546c-.175.334-.52.543-.896.543z" fill="#FFF"/><path d="M36.154 22.686v.333a.892.892 0 01-.167.521l-1.856 2.59c-.386.54-.654 1.29-.797 2.23-.098.646-.148 1.624-.148 2.908 0 .623-.315.98-.863.98-.774 0-.857-.686-.857-.98 0-1.716.576-3.487 1.714-5.263l.007-.01c.292-.41.715-1.008 1.26-1.786h-2.82c-.499 0-.683.027-.748.042-.035.07-.123.311-.251 1.086l-.033.196h-.54V25.3l.038-.235.415-2.582v-.235h.553l.02.211c.005.048.02.069.031.08.028.023.244.148 1.486.148h3.556zM28.269 29.114l-.447 2.84h-5.506v-.352c0-.203.073-.388.216-.549l2.622-2.916c.907-1.013 1.368-1.977 1.368-2.865 0-.553-.138-1.022-.407-1.395-.29-.403-.676-.598-1.186-.598-.375 0-.698.111-.99.338a1.85 1.85 0 00-.502.588c.5.078.782.407.782.93 0 .263-.09.49-.27.674a.902.902 0 01-.671.281c-.612 0-.962-.363-.962-.995 0-.749.28-1.395.833-1.919a2.756 2.756 0 011.956-.784c.862 0 1.597.257 2.184.764.625.542.94 1.255.94 2.116 0 .562-.184 1.11-.547 1.629-.203.29-.565.688-1.11 1.219l-2.389 2.317h2.147c.597 0 .8-.037.864-.057.032-.07.111-.306.228-1.068l.031-.198h.816zM14.628 20.644c0 .67-.269 1.24-.8 1.697-.5.425-1.09.64-1.756.64a2.865 2.865 0 01-1.607-.47c-.557-.37-.84-.866-.84-1.474 0-.246.079-.454.232-.617a.812.812 0 01.616-.252c.238 0 .442.082.604.244a.822.822 0 01.244.604c0 .242-.088.451-.256.607a.845.845 0 01-.259.166c.106.093.232.173.379.24.264.122.55.183.85.183.352 0 .597-.153.774-.483.148-.282.224-.647.224-1.085 0-.463-.08-.837-.237-1.11-.18-.324-.444-.474-.828-.474H11.4c-.28 0-.407-.18-.407-.356 0-.12.06-.33.457-.38h.022c.112-.004.224-.01.332-.016.356-.023.613-.172.785-.454.18-.29.27-.67.27-1.126 0-.302-.068-.546-.204-.723-.14-.184-.34-.274-.61-.274-.422 0-.752.093-.998.285a.727.727 0 01.243.154c.138.137.208.325.208.558a.771.771 0 01-.785.79.779.779 0 01-.572-.223.778.778 0 01-.223-.571c0-.543.252-.985.75-1.313.415-.273.894-.41 1.424-.41.54 0 1.029.137 1.457.408.524.33.79.778.79 1.33 0 .494-.172.95-.511 1.351a2.52 2.52 0 01-.614.532c.3.133.566.318.796.552.41.418.617.912.617 1.47z" fill="#FFF"/></g></svg>