<svg xmlns="http://www.w3.org/2000/svg" class="cel-icon cel-icon-stroke-width" viewBox="0 0 24 24"><path d="M24 21.857A2.149 2.149 0 0121.857 24H2.144A2.15 2.15 0 010 21.857V11.223c.401.443.857.831 1.352 1.166 2.223 1.513 4.473 3.026 6.657 4.62 1.125.83 2.517 1.848 3.976 1.848h.028c1.46 0 2.853-1.018 3.977-1.848 2.184-1.58 4.434-3.107 6.67-4.62a7.83 7.83 0 001.339-1.166v10.634zM3.31 7.982h17.16v2.056h3.52c-.104-1.191-1.381-2.605-2.293-3.222-2.076-1.446-4.179-2.893-6.255-4.353-.871-.602-2.344-1.835-3.429-1.835h-.027c-1.084 0-2.557 1.232-3.429 1.835C6.482 3.923 4.379 5.37 2.29 6.816 1.23 7.55.227 8.72.035 10.038H3.31V7.982zm15.322 2.915a.394.394 0 01-.4.398H5.36a.393.393 0 01-.4-.398v-.8c0-.224.174-.399.4-.399h12.872c.225 0 .4.175.4.399v.8zm0 3.195a.395.395 0 01-.4.399H5.36a.394.394 0 01-.4-.399v-.8c0-.224.174-.399.4-.399h12.872c.225 0 .4.175.4.399v.8z"/></svg>