<svg xmlns="http://www.w3.org/2000/svg" viewBox="0 0 9 19"><path d="M1.623 18.12c1.108 1.107 2.799 1.107 3.907 0a3.333 3.333 0 00.959-2.38V7.487a2.098 2.098 0 00-.611-1.506 1.947 1.947 0 00-2.784 0c-.39.39-.618.944-.611 1.506v5.824c0 .085.028.17.085.227.15.15.959.15 1.108 0a.323.323 0 00.085-.227V7.487a.882.882 0 01.242-.597.655.655 0 01.952 0 .896.896 0 01.255.597v8.253c0 .54-.191 1.086-.582 1.477-.604.604-1.499.604-2.103 0-.383-.383-.582-.937-.582-1.477L1.95 4.71c0-.682.263-1.343.746-1.826 1.001-1.001 2.6-1.037 3.608-.028.483.483.732 1.157.739 1.832l-.007 8.616c0 .085.028.17.092.234.15.15.945.15 1.094 0a.323.323 0 00.085-.227l.007-8.602a3.912 3.912 0 00-1.136-2.741C5.672.462 3.285.476 1.78 1.982A3.908 3.908 0 00.658 4.709l.007 11.03c0 .882.333 1.755.958 2.38z" fill="currentColor" fill-rule="nonzero"/></svg>