<svg xmlns="http://www.w3.org/2000/svg" class="cel-icon cel-icon-stroke-width" viewBox="0 0 24 24"><path d="M17.362 10.723A6.646 6.646 0 0124 17.361a6.638 6.638 0 11-6.638-6.638zm0 3.32a.766.766 0 00-.766.766v1.532a.255.255 0 01-.255.255h-1.532a.766.766 0 000 1.532h1.532c.141 0 .255.114.255.255v1.532a.766.766 0 001.532 0v-1.532c0-.141.114-.255.255-.255h1.532a.766.766 0 000-1.532h-1.532a.255.255 0 01-.255-.255v-1.532a.766.766 0 00-.766-.766zm-8.681-1.788a1.02 1.02 0 110 2.042h-7.66a1.02 1.02 0 110-2.042zm10.723-6.127a1.02 1.02 0 110 2.042H1.021a1.02 1.02 0 110-2.042zm0-6.128a1.02 1.02 0 110 2.042H1.021a1.02 1.02 0 110-2.042z"/></svg>