<svg xmlns="http://www.w3.org/2000/svg" class="cel-icon cel-icon-stroke-width" viewBox="0 0 24 24"><path d="M22.821 4.1a.501.501 0 01-.337-.473V3.5a2 2 0 00-2-2h-5.468a4.202 4.202 0 00-2.7.82l.012-.008a.497.497 0 01-.624-.001l.001.001a4.193 4.193 0 00-2.697-.81h.01-5.5a2 2 0 00-2 2v.131a.5.5 0 01-.333.472l-.003.001A1.746 1.746 0 00.003 5.752v13a1.752 1.752 0 001.75 1.75h6.25c1.624 0 3 .433 3 1a1 1 0 002 0c0-.565 1.386-1 3.031-1h6.219a1.752 1.752 0 001.75-1.75v-13-.001c0-.761-.487-1.408-1.167-1.646l-.012-.004zM11 5.676v11.519a.5.5 0 01-.639.481l.004.001a4.843 4.843 0 00-1.311-.176h-.041.002-5.016a.5.5 0 01-.5-.5v-13a.5.5 0 01.5-.5h5.016c1.993 0 1.984 1.179 1.984 2.176zM15.016 3.5h4.968a.5.5 0 01.5.5v13a.5.5 0 01-.5.5h-5.007c-.477 0-.939.066-1.376.19l.036-.009a.5.5 0 01-.636-.481V5.676c0-1.043.109-2.176 2.016-2.176z"/></svg>