<svg xmlns="http://www.w3.org/2000/svg" class="cel-icon cel-icon-stroke-width" viewBox="0 0 24 24"><path d="M22.605.163a.498.498 0 00-.545.108l-2.591 2.591a.25.25 0 01-.294.044l.001.001a12.372 12.372 0 00-5.769-1.406c-2.695 0-5.192.85-7.236 2.298l.039-.026C3.089 6.024 1.081 9.65 1.081 13.745c0 4.046 1.96 7.633 4.982 9.866l.033.024a1.25 1.25 0 001.479-2.016l-.003-.002c-2.431-1.796-3.99-4.652-3.99-7.872a9.748 9.748 0 014.053-7.918l.029-.02a9.917 9.917 0 015.748-1.817 9.97 9.97 0 013.785.741l-.067-.024a.25.25 0 01.084.409l-1.85 1.85a.5.5 0 00.354.853h6.7a.5.5 0 00.5-.5V.625a.5.5 0 00-.31-.461l-.003-.001z"/></svg>