<svg xmlns="http://www.w3.org/2000/svg" class="cel-icon cel-icon-stroke-width" viewBox="0 0 24 24"><path d="M21.707 5.705L16.293.291A.996.996 0 0015.588 0H4a2 2 0 00-2 2v20a2 2 0 002 2h16a2 2 0 002-2V6.412a.997.997 0 00-.293-.707zM20 21.5a.5.5 0 01-.5.5h-15a.5.5 0 01-.5-.5v-19a.5.5 0 01.5-.5h10.25a.25.25 0 01.25.25V5a2 2 0 002 2h2.75a.25.25 0 01.25.25z"/><path d="M7 10.498h2a.5.5 0 01.5.5v1a.5.5 0 01-.5.5H7a.5.5 0 01-.5-.5v-1a.5.5 0 01.5-.5zM7 13.998h2a.5.5 0 01.5.5v1a.5.5 0 01-.5.5H7a.5.5 0 01-.5-.5v-1a.5.5 0 01.5-.5zM7 17.498h2a.5.5 0 01.5.5v1a.5.5 0 01-.5.5H7a.5.5 0 01-.5-.5v-1a.5.5 0 01.5-.5zM11.5 10.498H17a.5.5 0 01.5.5v1a.5.5 0 01-.5.5h-5.5a.5.5 0 01-.5-.5v-1a.5.5 0 01.5-.5zM11.5 13.998H17a.5.5 0 01.5.5v1a.5.5 0 01-.5.5h-5.5a.5.5 0 01-.5-.5v-1a.5.5 0 01.5-.5zM11.5 17.498H17a.5.5 0 01.5.5v1a.5.5 0 01-.5.5h-5.5a.5.5 0 01-.5-.5v-1a.5.5 0 01.5-.5z"/></svg>