<svg xmlns="http://www.w3.org/2000/svg" class="cel-icon cel-icon-stroke-width" viewBox="0 0 24 24"><path d="M9.216 1.11a2.63 2.63 0 10.27 5.254 2.63 2.63 0 00-.271-5.254zM9.216 17.636a2.63 2.63 0 10.27 5.254 2.63 2.63 0 00-.271-5.254zM1.127 4.858h2.959a1.127 1.127 0 100-2.254H1.127a1.127 1.127 0 100 2.254zM1.127 21.385h2.959a1.127 1.127 0 100-2.254H1.127a1.127 1.127 0 100 2.254zM22.873 2.604h-8.266a1.127 1.127 0 100 2.254h8.266a1.127 1.127 0 100-2.254zM22.873 19.13h-8.266a1.127 1.127 0 100 2.254h8.266a1.127 1.127 0 100-2.254zM14.523 9.367a2.63 2.63 0 10.264 5.252 2.63 2.63 0 00-.265-5.251zM22.873 10.87h-2.959a1.127 1.127 0 100 2.254h2.959a1.127 1.127 0 100-2.254zM9.393 10.87H1.127a1.127 1.127 0 100 2.254h8.266a1.127 1.127 0 100-2.254z"/></svg>