<svg xmlns="http://www.w3.org/2000/svg" class="cel-icon cel-icon-stroke-width" viewBox="0 0 512 512"><path d="M197.9 91c0-33.2 26.9-60 60-60s60 26.8 60 60-26.9 60-60 60-60-26.8-60-60zm127.3 52.7c0-33.1 26.9-60 60-60s60 26.8 60 60-26.9 60-60 60-60-26.8-60-60zM407.9 271c0-16.6 13.4-30 30-30s30 13.4 30 30-13.4 30-30 30-30-13.4-30-30zm-52.7 127.3c0-16.6 13.4-30 30-30s30 13.4 30 30-13.4 30-30 30-30-13.4-30-30zM227.9 451c0-16.6 13.4-30 30-30s30 13.4 30 30-13.4 30-30 30-30-13.4-30-30zm-127.3-52.7c0-16.6 13.4-30 30-30s30 13.4 30 30-13.4 30-30 30-30-13.4-30-30zm-15-254.6c0-24.8 20.2-45 45-45s45 20.2 45 45-20.2 45-45 45-45-20.1-45-45zM44.1 271c0-18.6 15.1-33.8 33.8-33.8s33.8 15.1 33.8 33.8-15.1 33.8-33.8 33.8-33.8-15.2-33.8-33.8z"/></svg>