<svg xmlns="http://www.w3.org/2000/svg" class="cel-icon cel-icon-stroke-width" viewBox="0 0 24 24"><path d="M23.75 12.952v-.002c0-.69-.56-1.25-1.25-1.25h-8.936a.488.488 0 01-.284-.091l.001.001c-.722-.513-1.482-.981-2.218-1.432-2.8-1.715-4.5-2.9-4.5-4.863 0-2.235 2.207-2.569 3.523-2.569a4.521 4.521 0 013.096.773l-.015-.01a2.642 2.642 0 01.444 2.006l.002-.016v.3a1.25 1.25 0 002.5 0v-.268a4.872 4.872 0 00-1.17-3.783l.005.006C13.947.74 12.357.247 10.089.247c-3.658 0-6.023 1.989-6.023 5.069 0 2.773 1.892 4.512 4 5.927a.25.25 0 01-.139.458H1.498a1.25 1.25 0 000 2.5h10.977c.061 0 .116.022.159.058a4.343 4.343 0 011.932 3.459v.007c0 3.268-3.426 3.522-4.477 3.522-1.814 0-3.139-.405-3.834-1.173a3.369 3.369 0 01-.646-2.721l-.003.021a1.25 1.25 0 00-2.488-.251v.005a5.736 5.736 0 001.288 4.632l-.007-.008c1.2 1.324 3.114 2 5.688 2 4.174 0 6.977-2.42 6.977-6.022v-.053a6.039 6.039 0 00-.864-3.121l.015.027a.25.25 0 01.215-.377h6.069c.69 0 1.25-.56 1.25-1.25v-.005z"/></svg>