<svg xmlns="http://www.w3.org/2000/svg" class="cel-icon cel-icon-stroke-width" viewBox="0 0 24 24"><path d="M22.105 10H7.894c-1.046 0-1.895.934-1.895 2v10c0 1.066.848 2 1.895 2h14.211C23.151 24 24 23.066 24 22V12c0-1.066-.848-2-1.895-2zM15 15a2 2 0 11.001 3.999A2 2 0 0115 15zM6.75 0c3.314 0 6.75 2.686 6.75 6v3.346c0 .122.049.239.135.326s.204.329.326.328l-.004-.001-3.689.001c.122 0 .24-.242.326-.328s.135-.203.135-.326V6c0-1.784-2.196-3.231-3.981-3.231S2.767 4.215 2.767 6v.692a1.385 1.385 0 11-2.77 0V6c0-3.314 3.436-6 6.75-6z"/></svg>