<svg xmlns="http://www.w3.org/2000/svg" class="cel-icon cel-icon-stroke-width" viewBox="0 0 24 24"><path d="M9.005 12.189v2.9a4.997 4.997 0 00-.389.343 1.265 1.265 0 01-.748.359l-.142.008-.137-.008a1.258 1.258 0 01-1.025-.763 1.24 1.24 0 01.273-1.36 7.293 7.293 0 012.169-1.479zm8.155 1.475c.36.357.467.894.273 1.36a1.26 1.26 0 01-1.025.764l-.137.008-.142-.008a1.26 1.26 0 01-.64-.262l-.106-.093-.095-.077-.097-.077a5.035 5.035 0 00-.195-.166v-2.92a7.25 7.25 0 012.164 1.472zm2.85-3.817c.203.2.329.462.361.741l.008.141v.029a1.242 1.242 0 01-1.128 1.213l-.127.006-.142-.008a1.255 1.255 0 01-.748-.358 8.793 8.793 0 00-3.238-2.037l-.001-2.612a11.32 11.32 0 015.014 2.884zM9.005 6.961v2.613a8.797 8.797 0 00-3.237 2.037c-.494.473-1.279.467-1.765-.015s-.493-1.26-.016-1.75A11.327 11.327 0 019.005 6.96zm13.86-.938c.318.315.443.775.326 1.206s-.456.767-.891.883a1.27 1.27 0 01-1.217-.323 12.831 12.831 0 00-6.087-3.373l.001-2.554a15.363 15.363 0 017.868 4.162zM9.005 1.861v2.554a12.836 12.836 0 00-6.088 3.374c-.492.488-1.289.488-1.781 0s-.492-1.278 0-1.765a15.36 15.36 0 017.87-4.163z"/></svg>