<svg xmlns="http://www.w3.org/2000/svg" class="cel-icon cel-icon-stroke-width" viewBox="0 0 24 24"><path d="M23.417 20.6l-4.215-4.215a10.41 10.41 0 001.803-5.883C21.005 4.702 16.303 0 10.503 0S.001 4.702.001 10.502c0 5.8 4.702 10.502 10.502 10.502 2.19 0 4.224-.671 5.907-1.818l-.036.023 4.215 4.214c.364.356.864.576 1.414.576s1.05-.22 1.415-.577c.36-.362.583-.861.583-1.412s-.223-1.05-.583-1.412zM10.5 2.006a8.502 8.502 0 11-8.502 8.502 8.513 8.513 0 018.501-8.502h.001z"/><path d="M6.999 11.508H14a1 1 0 000-2H6.999a1 1 0 000 2z"/></svg>